<?xml version="1.0" encoding="utf-8" standalone="no"?>
<!DOCTYPE svg PUBLIC "-//W3C//DTD SVG 1.1//EN"
  "http://www.w3.org/Graphics/SVG/1.1/DTD/svg11.dtd">
<!-- Created with matplotlib (http://matplotlib.org/) -->
<svg height="432pt" version="1.1" viewBox="0 0 576 432" width="576pt" xmlns="http://www.w3.org/2000/svg" xmlns:xlink="http://www.w3.org/1999/xlink">
 <defs>
  <style type="text/css">
*{stroke-linecap:butt;stroke-linejoin:round;stroke-miterlimit:100000;}
  </style>
 </defs>
 <g id="figure_1">
  <g id="patch_1">
   <path d="M 0 432 
L 576 432 
L 576 0 
L 0 0 
z
" style="fill:#ffffff;"/>
  </g>
  <g id="axes_1">
   <g id="patch_2">
    <path d="M 72 388.8 
L 518.4 388.8 
L 518.4 43.2 
L 72 43.2 
z
" style="fill:#ffffff;"/>
   </g>
   <g id="patch_3">
    <path clip-path="url(#p93efeef0d6)" d="M 111.06 388.8 
L 144.54 388.8 
L 144.54 356.302207 
L 111.06 356.302207 
z
" style="fill:#00ffff;opacity:0.5;stroke:#000000;stroke-linejoin:miter;"/>
   </g>
   <g id="patch_4">
    <path clip-path="url(#p93efeef0d6)" d="M 222.66 388.8 
L 256.14 388.8 
L 256.14 292.753582 
L 222.66 292.753582 
z
" style="fill:#00ffff;opacity:0.5;stroke:#000000;stroke-linejoin:miter;"/>
   </g>
   <g id="patch_5">
    <path clip-path="url(#p93efeef0d6)" d="M 334.26 388.8 
L 367.74 388.8 
L 367.74 239.018479 
L 334.26 239.018479 
z
" style="fill:#00ffff;opacity:0.5;stroke:#000000;stroke-linejoin:miter;"/>
   </g>
   <g id="patch_6">
    <path clip-path="url(#p93efeef0d6)" d="M 445.86 388.8 
L 479.34 388.8 
L 479.34 111.951613 
L 445.86 111.951613 
z
" style="fill:#00ffff;opacity:0.5;stroke:#000000;stroke-linejoin:miter;"/>
   </g>
   <g id="LineCollection_1">
    <path clip-path="url(#p93efeef0d6)" d="M 127.8 376.835659 
L 127.8 335.768754 
" style="fill:none;stroke:#000000;"/>
    <path clip-path="url(#p93efeef0d6)" d="M 239.4 318.214865 
L 239.4 267.2923 
" style="fill:none;stroke:#000000;"/>
    <path clip-path="url(#p93efeef0d6)" d="M 351 268.046952 
L 351 209.990006 
" style="fill:none;stroke:#000000;"/>
    <path clip-path="url(#p93efeef0d6)" d="M 462.6 146.50341 
L 462.6 77.399817 
" style="fill:none;stroke:#000000;"/>
   </g>
   <g id="line2d_1">
    <defs>
     <path d="M 3 0 
L -3 -0 
" id="m1d3c554399" style="stroke:#000000;stroke-width:0.5;"/>
    </defs>
    <g clip-path="url(#p93efeef0d6)">
     <use style="stroke:#000000;stroke-width:0.5;" x="127.8" xlink:href="#m1d3c554399" y="376.835659445"/>
     <use style="stroke:#000000;stroke-width:0.5;" x="239.4" xlink:href="#m1d3c554399" y="318.214865229"/>
     <use style="stroke:#000000;stroke-width:0.5;" x="351.0" xlink:href="#m1d3c554399" y="268.046952085"/>
     <use style="stroke:#000000;stroke-width:0.5;" x="462.6" xlink:href="#m1d3c554399" y="146.503409586"/>
    </g>
   </g>
   <g id="line2d_2">
    <g clip-path="url(#p93efeef0d6)">
     <use style="stroke:#000000;stroke-width:0.5;" x="127.8" xlink:href="#m1d3c554399" y="335.768753742"/>
     <use style="stroke:#000000;stroke-width:0.5;" x="239.4" xlink:href="#m1d3c554399" y="267.292299607"/>
     <use style="stroke:#000000;stroke-width:0.5;" x="351.0" xlink:href="#m1d3c554399" y="209.990006157"/>
     <use style="stroke:#000000;stroke-width:0.5;" x="462.6" xlink:href="#m1d3c554399" y="77.3998167872"/>
    </g>
   </g>
   <g id="patch_7">
    <path d="M 72 43.2 
L 518.4 43.2 
" style="fill:none;stroke:#000000;stroke-linecap:square;stroke-linejoin:miter;"/>
   </g>
   <g id="patch_8">
    <path d="M 518.4 388.8 
L 518.4 43.2 
" style="fill:none;stroke:#000000;stroke-linecap:square;stroke-linejoin:miter;"/>
   </g>
   <g id="patch_9">
    <path d="M 72 388.8 
L 518.4 388.8 
" style="fill:none;stroke:#000000;stroke-linecap:square;stroke-linejoin:miter;"/>
   </g>
   <g id="patch_10">
    <path d="M 72 388.8 
L 72 43.2 
" style="fill:none;stroke:#000000;stroke-linecap:square;stroke-linejoin:miter;"/>
   </g>
   <g id="matplotlib.axis_1">
    <g id="xtick_1">
     <g id="line2d_3">
      <defs>
       <path d="M 0 0 
L 0 -4 
" id="m264aa8fed0" style="stroke:#000000;stroke-width:0.5;"/>
      </defs>
      <g>
       <use style="stroke:#000000;stroke-width:0.5;" x="127.8" xlink:href="#m264aa8fed0" y="388.8"/>
      </g>
     </g>
     <g id="line2d_4">
      <defs>
       <path d="M 0 0 
L 0 4 
" id="m20decf8e24" style="stroke:#000000;stroke-width:0.5;"/>
      </defs>
      <g>
       <use style="stroke:#000000;stroke-width:0.5;" x="127.8" xlink:href="#m20decf8e24" y="43.2"/>
      </g>
     </g>
     <g id="text_1">
      <!-- 0 -->
      <defs>
       <path d="M 28.40625 71 
C 14.40625 71 4.203125 55.6875 4.203125 34.75 
C 4.203125 14.125 14.09375 -1 27.59375 -1 
C 41.59375 -1 51.40625 13.625 51.40625 34.4375 
C 51.40625 45.0625 49.203125 53.875 45 60.78125 
C 41.09375 67.09375 34.703125 71 28.40625 71 
M 27.703125 66.703125 
C 31 66.703125 34.203125 64.5 36.59375 60.5 
C 39.296875 55.875 40.203125 49.96875 40.203125 36.25 
C 40.203125 22.21875 39.5 15.625 37.5 11.203125 
C 35.203125 6.296875 31.59375 3.296875 27.796875 3.296875 
C 24.5 3.296875 21.296875 5.5 18.90625 9.5 
C 16.09375 14.21875 15.296875 20.53125 15.296875 36.859375 
C 15.296875 48.484375 16 54.375 18 58.6875 
C 20.296875 63.796875 23.90625 66.703125 27.703125 66.703125 
" id="Century_Schoolbook_L_Roman-48"/>
      </defs>
      <g transform="translate(124.199541453 402.409867538)scale(0.13 -0.13)">
       <use transform="scale(0.996264009963)" xlink:href="#Century_Schoolbook_L_Roman-48"/>
      </g>
     </g>
    </g>
    <g id="xtick_2">
     <g id="line2d_5">
      <g>
       <use style="stroke:#000000;stroke-width:0.5;" x="239.4" xlink:href="#m264aa8fed0" y="388.8"/>
      </g>
     </g>
     <g id="line2d_6">
      <g>
       <use style="stroke:#000000;stroke-width:0.5;" x="239.4" xlink:href="#m20decf8e24" y="43.2"/>
      </g>
     </g>
     <g id="text_2">
      <!-- 100 -->
      <defs>
       <path d="M 32.203125 70.5 
C 28.796875 66.234375 19.59375 63 10.40625 63 
L 10.40625 58.59375 
L 19.203125 58.59375 
C 25 58.59375 25.40625 58.203125 25.40625 52.3125 
L 25.40625 12.28125 
L 25.40625 9.375 
C 25.40625 5.1875 24.5 4.6875 16.5 4.6875 
L 10 4.6875 
L 10 0 
L 49.59375 0 
L 49.59375 4.6875 
L 44.09375 4.6875 
C 38.796875 4.6875 36.59375 5.09375 35.796875 6.09375 
C 35.09375 6.78125 35.09375 6.78125 35.09375 12.3125 
L 35.09375 53.671875 
C 35.09375 58.578125 35.296875 63.375 35.796875 70.5 
z
" id="Century_Schoolbook_L_Roman-49"/>
      </defs>
      <g transform="translate(228.59862436 402.409867538)scale(0.13 -0.13)">
       <use transform="scale(0.996264009963)" xlink:href="#Century_Schoolbook_L_Roman-49"/>
       <use transform="translate(55.3916769633 0.0)scale(0.996264009963)" xlink:href="#Century_Schoolbook_L_Roman-48"/>
       <use transform="translate(110.783353927 0.0)scale(0.996264009963)" xlink:href="#Century_Schoolbook_L_Roman-48"/>
      </g>
     </g>
    </g>
    <g id="xtick_3">
     <g id="line2d_7">
      <g>
       <use style="stroke:#000000;stroke-width:0.5;" x="351.0" xlink:href="#m264aa8fed0" y="388.8"/>
      </g>
     </g>
     <g id="line2d_8">
      <g>
       <use style="stroke:#000000;stroke-width:0.5;" x="351.0" xlink:href="#m20decf8e24" y="43.2"/>
      </g>
     </g>
     <g id="text_3">
      <!-- 200 -->
      <defs>
       <path d="M 50.5 21.5625 
L 46.09375 21.5625 
L 45.09375 16.46875 
C 43.796875 10.078125 43 9.375 36.796875 9.375 
L 14.40625 9.375 
C 21.296875 16.5625 23.59375 18.65625 30 23.65625 
C 39.09375 30.65625 43 34.15625 45.296875 37.140625 
C 48.5 41.53125 50.09375 46.03125 50.09375 50.8125 
C 50.09375 62.109375 40.59375 70.296875 27.59375 70.296875 
C 14.90625 70.296875 5.09375 62.109375 5.09375 51.515625 
C 5.09375 45.234375 8.296875 40.9375 13.09375 40.9375 
C 16.796875 40.9375 19.296875 43.4375 19.296875 47.03125 
C 19.296875 49.53125 17.90625 51.828125 15.703125 52.734375 
C 12 54.328125 11.796875 54.421875 11.796875 55.71875 
C 11.796875 57.21875 12.796875 59.515625 14.203125 61.21875 
C 16.703125 64.203125 20.90625 66 25.59375 66 
C 33.796875 66 38.796875 60.90625 38.796875 52.53125 
C 38.796875 45.125 35.296875 38.4375 27 29.65625 
L 21.09375 23.46875 
C 17.59375 19.78125 15 16.96875 13.296875 15.078125 
C 9.703125 10.875 7.90625 8.578125 3.5 2.796875 
L 3.5 0 
L 48.59375 0 
z
" id="Century_Schoolbook_L_Roman-50"/>
      </defs>
      <g transform="translate(340.19862436 402.409867538)scale(0.13 -0.13)">
       <use transform="scale(0.996264009963)" xlink:href="#Century_Schoolbook_L_Roman-50"/>
       <use transform="translate(55.3916769633 0.0)scale(0.996264009963)" xlink:href="#Century_Schoolbook_L_Roman-48"/>
       <use transform="translate(110.783353927 0.0)scale(0.996264009963)" xlink:href="#Century_Schoolbook_L_Roman-48"/>
      </g>
     </g>
    </g>
    <g id="xtick_4">
     <g id="line2d_9">
      <g>
       <use style="stroke:#000000;stroke-width:0.5;" x="462.6" xlink:href="#m264aa8fed0" y="388.8"/>
      </g>
     </g>
     <g id="line2d_10">
      <g>
       <use style="stroke:#000000;stroke-width:0.5;" x="462.6" xlink:href="#m20decf8e24" y="43.2"/>
      </g>
     </g>
     <g id="text_4">
      <!-- 500 -->
      <defs>
       <path d="M 16.40625 59.703125 
C 21.796875 58.40625 24.59375 58 28.5 58 
C 37 58 43.203125 61 46.5 66.484375 
C 47.59375 68.390625 48 69.28125 48 70.078125 
C 48 70.6875 47.703125 70.984375 47.203125 70.984375 
C 46.90625 70.984375 46.40625 70.875 45.90625 70.578125 
C 41 68.484375 38.296875 67.984375 32.59375 67.984375 
C 26.203125 67.984375 22.5 68.484375 12 70.984375 
C 11.59375 62.625 10.703125 51.984375 9.296875 39.65625 
C 7.203125 37.46875 6.5 36.171875 6.5 34.578125 
C 6.5 32.59375 7.796875 31.203125 9.703125 31.203125 
C 12.203125 31.203125 13.796875 33.328125 14.203125 37.359375 
C 17.703125 39.890625 21 41 25 41 
C 33.90625 41 39.296875 34.03125 39.296875 22.5 
C 39.296875 15.734375 37.59375 9.953125 34.59375 6.828125 
C 32.59375 4.703125 28.5 3.296875 24.40625 3.296875 
C 18.40625 3.296875 12.203125 6.421875 12.203125 9.5625 
C 12.203125 10.28125 12.796875 11.078125 14 11.78125 
C 17.09375 13.703125 18 15.03125 18 17.75 
C 18 21.296875 15.296875 24.015625 11.703125 24.015625 
C 7.703125 24.015625 4.5 20.28125 4.5 15.546875 
C 4.5 10.5 7.40625 5.453125 11.90625 2.328125 
C 15.296875 0.109375 19.40625 -1 24.59375 -1 
C 40.296875 -1 50.203125 8.28125 50.203125 23.109375 
C 50.203125 36.828125 41.09375 46 27.59375 46 
C 23.40625 46 20.203125 45.296875 14.703125 43 
z
" id="Century_Schoolbook_L_Roman-53"/>
      </defs>
      <g transform="translate(451.79862436 402.409867538)scale(0.13 -0.13)">
       <use transform="scale(0.996264009963)" xlink:href="#Century_Schoolbook_L_Roman-53"/>
       <use transform="translate(55.3916769633 0.0)scale(0.996264009963)" xlink:href="#Century_Schoolbook_L_Roman-48"/>
       <use transform="translate(110.783353927 0.0)scale(0.996264009963)" xlink:href="#Century_Schoolbook_L_Roman-48"/>
      </g>
     </g>
    </g>
    <g id="text_5">
     <!-- Number of cars -->
     <defs>
      <path d="M 46.5 23 
C 46.59375 37.8125 38.09375 48.28125 25.90625 48.28125 
C 13.09375 48.28125 3.5 37.25 3.5 22.34375 
C 3.5 8.4375 12.59375 -1 26.09375 -1 
C 35.59375 -1 42.40625 3.6875 46.5 13.1875 
L 43 15.09375 
C 38.90625 7.390625 34.703125 4.390625 28 4.390625 
C 22.90625 4.390625 19.203125 6.59375 16.59375 11 
C 14.796875 14 14 17.5 14.09375 23 
z
M 14.203125 27.296875 
C 14.203125 30.34375 14.59375 32.5 15.59375 35.25 
C 17.703125 41.140625 20.90625 44 25.703125 44 
C 31.796875 44 35.796875 38.78125 35.796875 30.921875 
C 35.796875 28.078125 34.90625 27.296875 31.703125 27.296875 
z
" id="Century_Schoolbook_L_Roman-101"/>
      <path d="M 41.203125 0 
L 59.40625 0 
L 59.40625 4.703125 
L 56.90625 4.703125 
C 51.40625 4.703125 50.59375 5.59375 50.59375 11.953125 
L 50.59375 46.78125 
L 31.796875 46.78125 
L 31.796875 42 
L 36.90625 42 
C 40.59375 42 41.203125 41.296875 41.203125 36.953125 
L 41.203125 24.5625 
C 41.203125 18.8125 40.59375 15.484375 39.09375 12.15625 
C 37 7.71875 33 5.09375 28.09375 5.09375 
C 25 5.09375 22.40625 6.1875 21.09375 8.171875 
C 19.796875 10.046875 19.59375 11.046875 19.59375 16.5 
L 19.59375 46.78125 
L 2.09375 46.78125 
L 2.09375 42 
L 5.90625 42 
C 9.59375 42 10.203125 41.296875 10.203125 36.953125 
L 10.203125 15.21875 
C 10.203125 10.078125 10.59375 7.765625 12.09375 5.453125 
C 14.796875 1.3125 19.59375 -1 25.59375 -1 
C 32.203125 -1 36.796875 1.71875 41.203125 8.125 
z
" id="Century_Schoolbook_L_Roman-117"/>
      <path d="M 19.796875 46 
L 2.09375 46 
L 2.09375 41.21875 
L 6.203125 41.21875 
C 9.90625 41.21875 10.5 40.515625 10.5 36.203125 
L 10.5 12.296875 
L 10.5 8.296875 
C 10.5 4.296875 9.40625 3.59375 2.90625 3.59375 
L 2.5 3.59375 
L 2.5 0 
L 29.203125 0 
L 29.203125 3.59375 
L 27.296875 3.59375 
C 20.90625 3.59375 19.796875 4.296875 19.796875 8.296875 
L 19.796875 12.296875 
L 19.796875 13.296875 
C 19.796875 20.8125 21.203125 28.40625 23.703125 34.109375 
C 26.09375 39.703125 29.5 42.8125 33.703125 43.3125 
C 32.296875 41.703125 31.90625 40.6875 31.90625 38.765625 
C 31.90625 35.546875 34.203125 33.234375 37.40625 33.234375 
C 41 33.234375 43.5 35.9375 43.5 40.015625 
C 43.5 44.8125 40.09375 48 34.796875 48 
C 28.5 48 23 42.921875 19.796875 34.140625 
z
" id="Century_Schoolbook_L_Roman-114"/>
      <path d="M 20.09375 46.296875 
L 20.09375 52.140625 
C 20.09375 57.265625 20.40625 60.65625 21.203125 62.71875 
C 22.796875 67.234375 26.296875 70 30.296875 70 
C 32.40625 70 33.703125 69.390625 33.703125 68.25 
C 33.703125 67.921875 33.59375 67.734375 33.09375 66.90625 
C 32.5 65.890625 32.203125 64.75 32.203125 63.625 
C 32.203125 60.546875 34.59375 58.203125 37.703125 58.203125 
C 41 58.203125 43.296875 60.734375 43.296875 64.40625 
C 43.296875 70.328125 38.296875 74 30.203125 74 
C 23.296875 74 18.296875 71.53125 14.703125 66.4375 
C 11.703125 62.140625 10.703125 57.734375 10.703125 49.46875 
L 10.703125 46.296875 
L 1.90625 46.296875 
L 1.90625 42 
L 10.703125 42 
L 10.703125 12.234375 
L 10.703125 8.25 
C 10.703125 4.296875 9.59375 3.59375 3.203125 3.59375 
L 2.796875 3.59375 
L 2.796875 0 
L 29.5 0 
L 29.5 3.59375 
L 27.703125 3.59375 
C 21.203125 3.59375 20.09375 4.296875 20.09375 8.25 
L 20.09375 12.234375 
L 20.09375 42 
L 31.09375 42 
L 31.09375 46.296875 
z
" id="Century_Schoolbook_L_Roman-102"/>
      <path d="M 18 73 
L 0.796875 73 
L 0.796875 68.21875 
L 4.296875 68.21875 
C 8 68.21875 8.59375 67.515625 8.59375 63.25 
L 8.59375 24.625 
C 8.59375 11.3125 8.09375 4.84375 6.796875 -1 
L 10.59375 -1 
L 15.5 6.75 
C 19.59375 1.453125 24.296875 -1 30.5 -1 
C 42.796875 -1 52 9.59375 52 23.828125 
C 52 38.078125 43.59375 48.078125 31.59375 48.078125 
C 25.5 48.078125 21.796875 46 18 40.328125 
z
M 29.796875 43 
C 37.296875 43 41.5 35.765625 41.5 22.796875 
C 41.5 10.3125 37.40625 3.1875 30.09375 3.1875 
C 22.203125 3.1875 17.5 10.40625 17.5 22.59375 
C 17.5 35.765625 21.796875 43 29.796875 43 
" id="Century_Schoolbook_L_Roman-98"/>
      <path d="M 38.703125 15.125 
C 35.5 7.96875 32.09375 5.09375 26.90625 5.09375 
C 18.90625 5.09375 13.90625 12.328125 13.90625 23.9375 
C 13.90625 35.953125 18.796875 44 26.203125 44 
C 29.203125 44 31.796875 42.59375 31.796875 41.015625 
C 31.796875 40.71875 31.59375 40.421875 31.203125 39.8125 
C 29.59375 37.9375 29.203125 36.9375 29.203125 35.265625 
C 29.203125 31.984375 31.703125 29.703125 35.203125 29.703125 
C 38.703125 29.703125 41.296875 32.484375 41.296875 36.453125 
C 41.296875 43.109375 34.59375 48.28125 25.703125 48.28125 
C 12.703125 48.28125 3.40625 37.65625 3.40625 22.84375 
C 3.40625 8.734375 11.90625 -1 24.296875 -1 
C 33.203125 -1 38.296875 3.078125 42.59375 13.625 
z
" id="Century_Schoolbook_L_Roman-99"/>
      <path d="M 25.203125 48.28125 
C 13 48.28125 3.40625 37.453125 3.40625 23.546875 
C 3.40625 9.9375 13 -1 25 -1 
C 37 -1 46.59375 9.9375 46.59375 23.640625 
C 46.59375 37.25 37 48.28125 25.203125 48.28125 
M 25.203125 44 
C 32.203125 44 36.09375 36.75 36.09375 23.640625 
C 36.09375 10.453125 32.203125 3.296875 25 3.296875 
C 17.796875 3.296875 13.90625 10.453125 13.90625 23.546875 
C 13.90625 37.046875 17.703125 44 25.203125 44 
" id="Century_Schoolbook_L_Roman-111"/>
      <path d="M 20.09375 46 
L 2.296875 46 
L 2.296875 41.21875 
L 6.40625 41.21875 
C 10.09375 41.21875 10.703125 40.515625 10.703125 36.203125 
L 10.703125 12.296875 
L 10.703125 8.40625 
C 10.703125 4.296875 9.59375 3.59375 3.203125 3.59375 
L 2.796875 3.59375 
L 2.796875 0 
L 28 0 
L 28 3.59375 
L 27.59375 3.59375 
C 21.203125 3.59375 20.09375 4.296875 20.09375 8.390625 
L 20.09375 12.28125 
L 20.09375 26.453125 
C 20.09375 35.328125 25 41.921875 31.5 41.921875 
C 34.09375 41.921875 36.90625 40.515625 38.09375 38.625 
C 39.5 36.734375 40.09375 33.828125 40.09375 29.734375 
L 40.09375 12.28125 
L 40.09375 8.28125 
C 40.09375 4.296875 39 3.59375 32.5 3.59375 
L 32.09375 3.59375 
L 32.09375 0 
L 57.40625 0 
L 57.40625 3.59375 
L 57 3.59375 
C 50.59375 3.59375 49.5 4.296875 49.5 8.28125 
L 49.5 12.28125 
L 49.5 25.546875 
C 49.5 35.53125 54 41.921875 61 41.921875 
C 64.296875 41.921875 67 40.015625 68.296875 36.921875 
C 69.203125 34.734375 69.5 32.53125 69.5 28.640625 
L 69.5 12.28125 
L 69.5 8.28125 
C 69.5 4.296875 68.40625 3.59375 61.90625 3.59375 
L 61.5 3.59375 
L 61.5 0 
L 86.796875 0 
L 86.796875 3.59375 
L 86.40625 3.59375 
C 80 3.59375 78.90625 4.296875 78.90625 8.390625 
L 78.90625 12.28125 
L 78.90625 30.640625 
C 78.90625 36.828125 78.296875 38.921875 75.703125 42.3125 
C 72.796875 46.015625 68.703125 48 63.90625 48 
C 57.40625 48 52.59375 44.9375 48.296875 38.109375 
C 46.59375 44.046875 41.203125 48 34.5 48 
C 28.5 48 24 45.140625 20.09375 38.921875 
z
" id="Century_Schoolbook_L_Roman-109"/>
      <path d="M 22.5 72 
L 1.90625 72 
L 1.90625 67.3125 
L 4.40625 67.3125 
C 9.5 67.3125 11.796875 66.5 13.59375 64.015625 
L 13.59375 21.5 
C 13.59375 7.78125 11.59375 4.890625 2 4.890625 
L 2 0 
L 30.5 0 
L 30.5 4.890625 
C 21 4.890625 19 7.796875 19 21.5 
L 19 58.640625 
L 63.59375 -1.6875 
L 67.796875 -1.6875 
L 67.796875 50.59375 
C 67.796875 64.390625 69.796875 67.3125 79.40625 67.3125 
L 79.40625 72 
L 50.90625 72 
L 50.90625 67.3125 
C 60.40625 67.3125 62.40625 64.40625 62.40625 50.625 
L 62.40625 19.046875 
z
" id="Century_Schoolbook_L_Roman-78"/>
      <path d="M 45.203125 32.578125 
C 45.203125 38.796875 44.09375 41.96875 41.203125 44.34375 
C 37.90625 46.90625 33 48.28125 26.59375 48.28125 
C 15.40625 48.28125 7.09375 43.046875 7.09375 35.921875 
C 7.09375 32.15625 9.40625 29.78125 12.90625 29.78125 
C 16 29.78125 18.296875 31.859375 18.296875 34.8125 
C 18.296875 36.109375 17.796875 37.484375 16.796875 38.875 
C 16.203125 39.546875 16.09375 39.84375 16.09375 40.15625 
C 16.09375 42.21875 20.203125 44 25 44 
C 28.09375 44 31.59375 43.015625 33.203125 41.53125 
C 35.09375 39.953125 35.796875 37.578125 35.796875 33.125 
L 35.796875 29.28125 
C 25.296875 27.484375 22.09375 26.6875 17.203125 24.8125 
C 8.59375 21.609375 4.40625 16.9375 4.40625 10.65625 
C 4.40625 3.578125 10.09375 -1 18.90625 -1 
C 25.796875 -1 32 1.859375 36.296875 7.0625 
C 37.90625 1.984375 40.40625 0 45.09375 0 
C 49.59375 0 54.296875 2.890625 54.296875 5.78125 
C 54.296875 6.46875 53.796875 6.96875 53.296875 6.96875 
C 52.90625 6.96875 52.5 6.875 51.796875 6.578125 
C 50.203125 6 49.796875 5.890625 49 5.890625 
C 46.203125 5.890625 45.203125 7.78125 45.203125 12.71875 
z
M 35.796875 20.46875 
C 35.796875 14.46875 35.5 13.078125 33.796875 10.484375 
C 31.296875 6.78125 26.703125 4.296875 22.40625 4.296875 
C 17.90625 4.296875 14.5 7.59375 14.5 12.078125 
C 14.5 16.265625 16.59375 19.265625 21 21.359375 
C 24.09375 22.75 28 23.75 35.796875 25.046875 
z
" id="Century_Schoolbook_L_Roman-97"/>
      <path d="M 39 48 
L 35.5 48 
L 32.59375 44.40625 
C 29 47.203125 25.40625 48.390625 20.40625 48.390625 
C 11.59375 48.390625 5.796875 42.625 5.796875 33.953125 
C 5.796875 30.078125 7.09375 26.78125 9.296875 24.8125 
C 11.59375 22.703125 13.90625 21.71875 19.90625 20.3125 
L 25.203125 19.125 
C 33.09375 17.234375 35.90625 15.234375 35.90625 11.265625 
C 35.90625 6.578125 31.796875 3.296875 25.90625 3.296875 
C 17.5 3.296875 11.5 8.765625 9.09375 18.875 
L 5.09375 18.875 
L 5.09375 0 
L 8.59375 0 
L 12.09375 3.90625 
C 16.203125 0.59375 20.796875 -1 25.796875 -1 
C 35.59375 -1 42.09375 5.078125 42.09375 14.34375 
C 42.09375 18.71875 40.703125 22.09375 37.90625 24.390625 
C 35.5 26.484375 33.5 27.28125 27.40625 28.5625 
L 22.40625 29.671875 
C 16.90625 30.859375 16.90625 30.859375 15.09375 31.859375 
C 12.90625 32.859375 11.59375 34.9375 11.59375 37.140625 
C 11.59375 41.109375 15.40625 44 20.90625 44 
C 24.703125 44 27.796875 42.703125 30.59375 40.015625 
C 32.796875 37.8125 33.90625 35.828125 35.5 31.234375 
L 39 31.234375 
z
" id="Century_Schoolbook_L_Roman-115"/>
     </defs>
     <g transform="translate(249.151764136 419.480462791)scale(0.13 -0.13)">
      <use transform="scale(0.996264009963)" xlink:href="#Century_Schoolbook_L_Roman-78"/>
      <use transform="translate(81.1945134943 0.0)scale(0.996264009963)" xlink:href="#Century_Schoolbook_L_Roman-117"/>
      <use transform="translate(142.066144171 0.0)scale(0.996264009963)" xlink:href="#Century_Schoolbook_L_Roman-109"/>
      <use transform="translate(230.633050864 0.0)scale(0.996264009963)" xlink:href="#Century_Schoolbook_L_Roman-98"/>
      <use transform="translate(286.024727827 0.0)scale(0.996264009963)" xlink:href="#Century_Schoolbook_L_Roman-101"/>
      <use transform="translate(335.837928325 0.0)scale(0.996264009963)" xlink:href="#Century_Schoolbook_L_Roman-114"/>
      <use transform="translate(407.766666626 0.0)scale(0.996264009963)" xlink:href="#Century_Schoolbook_L_Roman-111"/>
      <use transform="translate(457.579867124 0.0)scale(0.996264009963)" xlink:href="#Century_Schoolbook_L_Roman-102"/>
      <use transform="translate(518.450266457 0.0)scale(0.996264009963)" xlink:href="#Century_Schoolbook_L_Roman-99"/>
      <use transform="translate(562.683835154 0.0)scale(0.996264009963)" xlink:href="#Century_Schoolbook_L_Roman-97"/>
      <use transform="translate(618.075512118 0.0)scale(0.996264009963)" xlink:href="#Century_Schoolbook_L_Roman-114"/>
      <use transform="translate(662.309080815 0.0)scale(0.996264009963)" xlink:href="#Century_Schoolbook_L_Roman-115"/>
     </g>
    </g>
   </g>
   <g id="matplotlib.axis_2">
    <g id="ytick_1">
     <g id="line2d_11">
      <defs>
       <path d="M 0 0 
L 4 0 
" id="mff465a5e4c" style="stroke:#000000;stroke-width:0.5;"/>
      </defs>
      <g>
       <use style="stroke:#000000;stroke-width:0.5;" x="72.0" xlink:href="#mff465a5e4c" y="388.8"/>
      </g>
     </g>
     <g id="line2d_12">
      <defs>
       <path d="M 0 0 
L -4 0 
" id="m2252e8ea15" style="stroke:#000000;stroke-width:0.5;"/>
      </defs>
      <g>
       <use style="stroke:#000000;stroke-width:0.5;" x="518.4" xlink:href="#m2252e8ea15" y="388.8"/>
      </g>
     </g>
     <g id="text_6">
      <!-- 0 -->
      <g transform="translate(60.7990829069 392.374569911)scale(0.13 -0.13)">
       <use transform="scale(0.996264009963)" xlink:href="#Century_Schoolbook_L_Roman-48"/>
      </g>
     </g>
    </g>
    <g id="ytick_2">
     <g id="line2d_13">
      <g>
       <use style="stroke:#000000;stroke-width:0.5;" x="72.0" xlink:href="#mff465a5e4c" y="339.428571429"/>
      </g>
     </g>
     <g id="line2d_14">
      <g>
       <use style="stroke:#000000;stroke-width:0.5;" x="518.4" xlink:href="#m2252e8ea15" y="339.428571429"/>
      </g>
     </g>
     <g id="text_7">
      <!-- 1 -->
      <g transform="translate(60.7990829069 343.00314134)scale(0.13 -0.13)">
       <use transform="scale(0.996264009963)" xlink:href="#Century_Schoolbook_L_Roman-49"/>
      </g>
     </g>
    </g>
    <g id="ytick_3">
     <g id="line2d_15">
      <g>
       <use style="stroke:#000000;stroke-width:0.5;" x="72.0" xlink:href="#mff465a5e4c" y="290.057142857"/>
      </g>
     </g>
     <g id="line2d_16">
      <g>
       <use style="stroke:#000000;stroke-width:0.5;" x="518.4" xlink:href="#m2252e8ea15" y="290.057142857"/>
      </g>
     </g>
     <g id="text_8">
      <!-- 2 -->
      <g transform="translate(60.7990829069 293.631712768)scale(0.13 -0.13)">
       <use transform="scale(0.996264009963)" xlink:href="#Century_Schoolbook_L_Roman-50"/>
      </g>
     </g>
    </g>
    <g id="ytick_4">
     <g id="line2d_17">
      <g>
       <use style="stroke:#000000;stroke-width:0.5;" x="72.0" xlink:href="#mff465a5e4c" y="240.685714286"/>
      </g>
     </g>
     <g id="line2d_18">
      <g>
       <use style="stroke:#000000;stroke-width:0.5;" x="518.4" xlink:href="#m2252e8ea15" y="240.685714286"/>
      </g>
     </g>
     <g id="text_9">
      <!-- 3 -->
      <defs>
       <path d="M 34.59375 37.359375 
C 36 37.859375 36.203125 37.859375 36.90625 38.15625 
C 43.90625 41.0625 47.90625 46.671875 47.90625 53.765625 
C 47.90625 64.1875 39.90625 71 27.5 71 
C 15.796875 71 6.90625 63.96875 6.90625 54.71875 
C 6.90625 50.546875 9.703125 47.59375 13.5 47.59375 
C 17 47.59375 19.40625 50.046875 19.40625 53.71875 
C 19.40625 55.875 18.59375 57.296875 16.296875 58.9375 
C 15.296875 59.640625 15 60.15625 15 60.78125 
C 15 63.640625 20.90625 66.703125 26.5 66.703125 
C 33.703125 66.703125 37.5 62.125 37.5 53.46875 
C 37.5 43.984375 33.703125 39 26.5 39 
C 25.59375 39 24 39 22.5 39 
C 21.703125 39 20.90625 39 20.296875 39 
C 18.203125 39 17.09375 38.125 17.09375 36.40625 
C 17.09375 34.78125 18.203125 34.015625 20.203125 34.015625 
C 20.5 34.015625 21.296875 34.015625 22.59375 34.015625 
C 26.40625 34.015625 26.5 34.015625 27.296875 34.015625 
C 34.703125 34.015625 38.703125 28.828125 38.703125 19.140625 
C 38.703125 9.0625 33.59375 3.296875 24.703125 3.296875 
C 18.40625 3.296875 11.59375 6.640625 11.59375 9.6875 
C 11.59375 10.59375 11.796875 10.765625 13.796875 11.875 
C 16.59375 13.53125 17.703125 15.21875 17.703125 17.65625 
C 17.703125 21.203125 15 23.875 11.296875 23.875 
C 7.09375 23.875 4.203125 20.328125 4.203125 15.1875 
C 4.203125 5.609375 13.09375 -1 25.90625 -1 
C 40.296875 -1 49.796875 7.015625 49.796875 19.328125 
C 49.796875 28.734375 44.90625 34.4375 34.59375 37.359375 
" id="Century_Schoolbook_L_Roman-51"/>
      </defs>
      <g transform="translate(60.7990829069 244.260284197)scale(0.13 -0.13)">
       <use transform="scale(0.996264009963)" xlink:href="#Century_Schoolbook_L_Roman-51"/>
      </g>
     </g>
    </g>
    <g id="ytick_5">
     <g id="line2d_19">
      <g>
       <use style="stroke:#000000;stroke-width:0.5;" x="72.0" xlink:href="#mff465a5e4c" y="191.314285714"/>
      </g>
     </g>
     <g id="line2d_20">
      <g>
       <use style="stroke:#000000;stroke-width:0.5;" x="518.4" xlink:href="#m2252e8ea15" y="191.314285714"/>
      </g>
     </g>
     <g id="text_10">
      <!-- 4 -->
      <defs>
       <path d="M 36.796875 70.5 
L 2.796875 23 
L 2.796875 17.40625 
L 30.90625 17.40625 
L 30.90625 12.25 
L 30.90625 9.359375 
C 30.90625 5.1875 30 4.6875 21.90625 4.6875 
L 20.796875 4.6875 
L 20.796875 0 
L 50 0 
L 50 4.6875 
L 49.59375 4.6875 
C 41.5 4.6875 40.59375 5.1875 40.59375 9.359375 
L 40.59375 12.25 
L 40.59375 17.40625 
L 52.703125 17.40625 
L 52.703125 23 
L 40.59375 23 
L 40.59375 50.40625 
C 40.59375 62.96875 40.59375 62.96875 41.09375 70.5 
z
M 30.90625 23 
L 8.90625 23 
L 30.90625 53.421875 
z
" id="Century_Schoolbook_L_Roman-52"/>
      </defs>
      <g transform="translate(60.7990829069 194.888855625)scale(0.13 -0.13)">
       <use transform="scale(0.996264009963)" xlink:href="#Century_Schoolbook_L_Roman-52"/>
      </g>
     </g>
    </g>
    <g id="ytick_6">
     <g id="line2d_21">
      <g>
       <use style="stroke:#000000;stroke-width:0.5;" x="72.0" xlink:href="#mff465a5e4c" y="141.942857143"/>
      </g>
     </g>
     <g id="line2d_22">
      <g>
       <use style="stroke:#000000;stroke-width:0.5;" x="518.4" xlink:href="#m2252e8ea15" y="141.942857143"/>
      </g>
     </g>
     <g id="text_11">
      <!-- 5 -->
      <g transform="translate(60.7990829069 145.517427054)scale(0.13 -0.13)">
       <use transform="scale(0.996264009963)" xlink:href="#Century_Schoolbook_L_Roman-53"/>
      </g>
     </g>
    </g>
    <g id="ytick_7">
     <g id="line2d_23">
      <g>
       <use style="stroke:#000000;stroke-width:0.5;" x="72.0" xlink:href="#mff465a5e4c" y="92.5714285714"/>
      </g>
     </g>
     <g id="line2d_24">
      <g>
       <use style="stroke:#000000;stroke-width:0.5;" x="518.4" xlink:href="#m2252e8ea15" y="92.5714285714"/>
      </g>
     </g>
     <g id="text_12">
      <!-- 6 -->
      <defs>
       <path d="M 15.296875 34.109375 
C 16.296875 46.65625 16.796875 50.046875 19 55.265625 
C 21.90625 62.515625 27.203125 66.703125 33.5 66.703125 
C 37 66.703125 39.09375 65.578125 39.09375 63.734375 
C 39.09375 63.3125 39 63.015625 38.59375 62.296875 
C 37.59375 60.359375 37.09375 58.9375 37.09375 57.5 
C 37.09375 54.03125 39.703125 51.46875 43.203125 51.46875 
C 47 51.46875 49.796875 54.53125 49.796875 58.796875 
C 49.796875 65.8125 42.796875 71 33.40625 71 
C 25.203125 71 17.5 67.09375 12.703125 60.390625 
C 7.296875 52.671875 4.203125 42.265625 4.203125 31.34375 
C 4.203125 11.828125 13.796875 -1 28.59375 -1 
C 35.09375 -1 40.5 1.1875 44.703125 5.546875 
C 49 9.90625 51.59375 16.4375 51.59375 22.6875 
C 51.59375 34.375 43.09375 43.09375 31.796875 43.09375 
C 25 43.09375 20 40.390625 15.296875 34.109375 
M 29.09375 37 
C 36.296875 37 40.703125 31.375 40.703125 21.96875 
C 40.703125 10.609375 36.09375 3.296875 28.796875 3.296875 
C 24.296875 3.296875 20.796875 5.765625 18.40625 10.515625 
C 16.796875 13.578125 16 16.9375 16 20.59375 
C 16 30.78125 21 37 29.09375 37 
" id="Century_Schoolbook_L_Roman-54"/>
      </defs>
      <g transform="translate(60.7990829069 96.1459984826)scale(0.13 -0.13)">
       <use transform="scale(0.996264009963)" xlink:href="#Century_Schoolbook_L_Roman-54"/>
      </g>
     </g>
    </g>
    <g id="ytick_8">
     <g id="line2d_25">
      <g>
       <use style="stroke:#000000;stroke-width:0.5;" x="72.0" xlink:href="#mff465a5e4c" y="43.2"/>
      </g>
     </g>
     <g id="line2d_26">
      <g>
       <use style="stroke:#000000;stroke-width:0.5;" x="518.4" xlink:href="#m2252e8ea15" y="43.2"/>
      </g>
     </g>
     <g id="text_13">
      <!-- 7 -->
      <defs>
       <path d="M 5.90625 46.171875 
L 10.296875 45.484375 
L 12.09375 53.40625 
C 13.59375 60.015625 14.296875 61 17.203125 61 
C 17.703125 61 18.59375 61 19.40625 60.609375 
C 25.203125 60.609375 32.40625 60.609375 36.5 60.609375 
C 37.90625 60.609375 40 60.609375 42.703125 60.609375 
L 35.90625 46.84375 
C 28.40625 31.859375 27.59375 30.15625 25.09375 24.03125 
C 22.09375 16.484375 20.40625 10.15625 20.40625 5.921875 
C 20.40625 1.40625 22.796875 -1.5 26.703125 -1.5 
C 31.5 -1.5 33.40625 1.796875 33.296875 10.421875 
C 32.796875 24.734375 34.703125 31.84375 45.296875 55.265625 
C 46.796875 58.484375 48.296875 61.59375 49.796875 64.6875 
C 49.90625 64.890625 50.203125 65.796875 50.796875 67.09375 
L 50.796875 69.984375 
C 44.59375 69.890625 41.296875 69.890625 35.203125 69.890625 
C 26.703125 69.890625 19.90625 69.890625 9 69.890625 
z
" id="Century_Schoolbook_L_Roman-55"/>
      </defs>
      <g transform="translate(60.7990829069 46.7745699112)scale(0.13 -0.13)">
       <use transform="scale(0.996264009963)" xlink:href="#Century_Schoolbook_L_Roman-55"/>
      </g>
     </g>
    </g>
    <g id="text_14">
     <!-- CPU usage (\%) -->
     <defs>
      <path d="M 19.59375 7.59375 
C 14.09375 7.59375 13.796875 7.703125 12.59375 8.46875 
C 11.90625 8.90625 11.40625 10.109375 11.40625 11.296875 
C 11.40625 14.578125 14.09375 16 20.796875 16 
C 30.296875 16 31.796875 16.203125 35.09375 17.6875 
C 41.09375 20.359375 44.5 25.484375 44.5 31.984375 
C 44.5 35.921875 43.59375 38.390625 40.796875 41.640625 
C 42.5 43.40625 43.40625 44 44.203125 44 
C 44.703125 44 45 43.6875 45.203125 42.625 
C 45.59375 40.265625 47.203125 39 49.703125 39 
C 52.203125 39 54.203125 41.09375 54.203125 43.78125 
C 54.203125 47.1875 51.5 49.578125 47.59375 49.578125 
C 44.40625 49.578125 42.59375 48.5625 38 44.296875 
C 33.796875 47.09375 30.59375 48.078125 25.59375 48.078125 
C 13.703125 48.078125 5.90625 41.625 5.90625 31.8125 
C 5.90625 26.03125 9.09375 21.03125 14.296875 18.6875 
C 7.59375 17.15625 4.796875 14.09375 4.796875 8.46875 
C 4.796875 3.984375 6.796875 1.328125 11.5 -0.296875 
C 5.296875 -2.484375 2.296875 -5.671875 2.296875 -9.75 
C 2.296875 -16.3125 10 -20 23.40625 -20 
C 40.09375 -20 48.5 -14.71875 48.5 -4.25 
C 48.5 0.71875 46.203125 4.6875 42.5 6.1875 
C 39.90625 7.1875 36.703125 7.59375 29.796875 7.59375 
z
M 25.5 44 
C 31.796875 44 35.296875 39.671875 35.296875 32.09375 
C 35.296875 24.421875 31.5 19.78125 25.09375 19.78125 
C 18.90625 19.78125 15 24.421875 15 31.796875 
C 15 39.5625 18.796875 44 25.5 44 
M 24.59375 -1 
C 32.90625 -1 33.5 -1 35 -1.1875 
C 39 -1.59375 41.5 -3.78125 41.5 -6.953125 
C 41.5 -12.625 35 -15.90625 23.796875 -15.90625 
C 15.40625 -15.90625 10.59375 -13.421875 10.59375 -8.953125 
C 10.59375 -5.671875 12.40625 -3.46875 17.203125 -1 
z
" id="Century_Schoolbook_L_Roman-103"/>
      <path d="M 65 72 
L 60.40625 72 
C 56.40625 66.59375 50.59375 63.703125 44.203125 63.703125 
C 41.703125 63.703125 39.90625 64.203125 36.90625 65.890625 
C 34.296875 69.296875 31.796875 70.59375 27.796875 70.59375 
C 23.5 70.59375 19 68.703125 15.09375 65.40625 
C 9.203125 60.328125 4.5 51.046875 4.5 44.359375 
C 4.5 37.203125 9.90625 32 17.296875 32 
C 22.90625 32 27.5 34.40625 31.90625 39.578125 
C 36.203125 44.671875 39 51.9375 39 58.015625 
C 39 58.90625 38.90625 59.703125 38.703125 61.203125 
C 41.203125 60.296875 42.90625 60 45 60 
C 48.40625 60 50.90625 60.703125 54.59375 62.90625 
L 18.59375 0 
L 23.59375 0 
z
M 28.59375 66.734375 
C 30.40625 64.640625 31.90625 63.640625 34.703125 62.640625 
C 35.203125 61.046875 35.296875 60.046875 35.296875 58.546875 
C 35.296875 47.578125 26.796875 35.796875 18.796875 35.796875 
C 15.5 35.796875 13.203125 38.1875 13.203125 41.6875 
C 13.203125 45.375 14.703125 49.265625 19.40625 57.453125 
C 23.203125 64.140625 24.5 65.34375 28.59375 66.734375 
M 67.5 39.984375 
C 61.59375 39.984375 56 36.859375 51.40625 31.234375 
C 47.203125 25.890625 44.5 18.9375 44.5 13.296875 
C 44.5 6.25 50 1.109375 57.5 1.109375 
C 62.703125 1.109375 67.90625 3.828125 71.59375 8.546875 
C 76.203125 14.3125 79.203125 22.046875 79.203125 28 
C 79.203125 34.953125 74.296875 39.984375 67.5 39.984375 
M 69.203125 36 
C 72.59375 36 75.40625 32.359375 75.40625 27.828125 
C 75.40625 16.8125 66.59375 5 58.59375 5 
C 55.5 5 53 7.53125 53 10.75 
C 53 14.796875 55.09375 19.9375 60.40625 28.640625 
C 63.5 33.765625 66.09375 36 69.203125 36 
" id="Century_Schoolbook_L_Roman-37"/>
      <path d="M 68.296875 50.546875 
C 68.296875 64.21875 70.296875 67.109375 79.90625 67.109375 
L 79.90625 72 
L 51.40625 72 
L 51.40625 67.109375 
C 60.90625 67.109375 62.90625 64.21875 62.90625 50.53125 
L 62.90625 28.46875 
C 62.90625 20.484375 62.40625 17.28125 60.5 13.78125 
C 57.296875 7.59375 50.796875 4 42.703125 4 
C 35.90625 4 30 6.578125 26.703125 11.046875 
C 24 14.71875 23.5 17.09375 23.5 26.328125 
L 23.5 59.5625 
L 23.5 62.4375 
C 23.5 66.609375 24.40625 67.109375 32.5 67.109375 
L 34.40625 67.109375 
L 34.40625 72 
L 1.703125 72 
L 1.703125 67.109375 
L 3.40625 67.109375 
C 11.40625 67.109375 12.296875 66.609375 12.296875 62.4375 
L 12.296875 59.5625 
L 12.296875 26.90625 
L 12.296875 20.046875 
C 12.59375 14.78125 13.40625 11.609375 15.296875 8.828125 
C 19.90625 2.296875 28.703125 -1.390625 40 -1.390625 
C 51.296875 -1.390625 59.09375 2 63.90625 9.09375 
C 67.09375 13.6875 68.296875 18.984375 68.296875 27.875 
z
" id="Century_Schoolbook_L_Roman-85"/>
      <path d="M 24.796875 32 
L 36.09375 32 
C 45.09375 32 49.796875 32.703125 53.796875 34.59375 
C 60.90625 38 64.90625 44.359375 64.90625 52.25 
C 64.90625 59.84375 61.40625 65.609375 54.796875 68.90625 
C 50.90625 70.90625 44.703125 72 37.796875 72 
L 2.796875 72 
L 2.796875 67.3125 
L 4.59375 67.3125 
C 12.703125 67.3125 13.59375 66.8125 13.59375 62.609375 
L 13.59375 59.734375 
L 13.59375 12.28125 
L 13.59375 9.375 
C 13.59375 5.1875 12.703125 4.6875 4.59375 4.6875 
L 2.796875 4.6875 
L 2.796875 0 
L 36.40625 0 
L 36.40625 4.6875 
L 33.796875 4.6875 
C 25.703125 4.6875 24.796875 5.1875 24.796875 9.375 
L 24.796875 12.265625 
z
M 24.796875 36.703125 
L 24.796875 62.21875 
C 24.796875 66.8125 25.40625 67.3125 30.90625 67.3125 
L 37.296875 67.3125 
C 47.703125 67.3125 52.59375 62.421875 52.59375 51.859375 
C 52.59375 41.59375 47.5 36.703125 36.90625 36.703125 
z
" id="Century_Schoolbook_L_Roman-80"/>
      <path d="M 63.90625 72 
L 60.09375 72 
L 56.09375 66.015625 
C 49 71.203125 45.09375 72.703125 38.40625 72.703125 
C 28.703125 72.703125 20.703125 68.8125 13.90625 60.78125 
C 7.5 53.234375 4.5 44.890625 4.5 34.65625 
C 4.5 13.296875 18.59375 -2 38.296875 -2 
C 54.296875 -2 64.5 7.34375 66.796875 24.015625 
L 62.09375 24.8125 
C 61.09375 19.546875 59.90625 15.984375 58.09375 13.015625 
C 54 6.171875 47.59375 2.6875 39.5 2.6875 
C 24.703125 2.6875 17.703125 12.90625 17.703125 34.265625 
C 17.703125 45.46875 19.203125 53.015625 22.59375 58.96875 
C 25.703125 64.53125 31.90625 68 38.296875 68 
C 45.296875 68 51.5 64.328125 55.296875 57.96875 
C 57.203125 54.6875 58.703125 50.8125 61 43.171875 
L 65.40625 43.171875 
z
" id="Century_Schoolbook_L_Roman-67"/>
      <path d="M 27.90625 73.453125 
C 21.90625 69.765625 18.703125 67.171875 15.296875 63.171875 
C 7.703125 54.1875 3.59375 42.71875 3.59375 30.640625 
C 3.59375 19.265625 7.203125 8.578125 13.90625 -0.296875 
C 17.703125 -5.09375 21.09375 -8.078125 27.90625 -12.28125 
L 27.90625 -8.578125 
C 17.90625 0.203125 13.90625 11.484375 13.90625 30.640625 
C 13.90625 49.796875 17.90625 60.984375 27.90625 69.765625 
z
" id="Century_Schoolbook_L_Roman-40"/>
      <path d="M 5.40625 -12.28125 
C 11.40625 -8.578125 14.59375 -5.984375 18 -1.890625 
C 25.59375 6.984375 29.703125 18.5625 29.703125 30.640625 
C 29.703125 42.015625 26.09375 52.703125 19.40625 61.484375 
C 15.59375 66.375 12.203125 69.359375 5.40625 73.453125 
L 5.40625 69.765625 
C 15.40625 60.984375 19.40625 49.796875 19.40625 30.640625 
C 19.40625 11.375 15.40625 0.203125 5.40625 -8.578125 
z
" id="Century_Schoolbook_L_Roman-41"/>
     </defs>
     <g transform="translate(53.3383551915 260.850312609)rotate(-90.0)scale(0.13 -0.13)">
      <use transform="scale(0.996264009963)" xlink:href="#Century_Schoolbook_L_Roman-67"/>
      <use transform="translate(71.9299848469 0.0)scale(0.996264009963)" xlink:href="#Century_Schoolbook_L_Roman-80"/>
      <use transform="translate(138.38001598 0.0)scale(0.996264009963)" xlink:href="#Century_Schoolbook_L_Roman-85"/>
      <use transform="translate(247.269699078 0.0)scale(0.996264009963)" xlink:href="#Century_Schoolbook_L_Roman-117"/>
      <use transform="translate(308.141329755 0.0)scale(0.996264009963)" xlink:href="#Century_Schoolbook_L_Roman-115"/>
      <use transform="translate(354.267140314 0.0)scale(0.996264009963)" xlink:href="#Century_Schoolbook_L_Roman-97"/>
      <use transform="translate(409.658817277 0.0)scale(0.996264009963)" xlink:href="#Century_Schoolbook_L_Roman-103"/>
      <use transform="translate(463.158161168 0.0)scale(0.996264009963)" xlink:href="#Century_Schoolbook_L_Roman-101"/>
      <use transform="translate(540.666531269 0.0)scale(0.996264009963)" xlink:href="#Century_Schoolbook_L_Roman-40"/>
      <use transform="translate(573.841760999 0.0)scale(0.996264009963)" xlink:href="#Century_Schoolbook_L_Roman-37"/>
      <use transform="translate(656.830191226 0.0)scale(0.996264009963)" xlink:href="#Century_Schoolbook_L_Roman-41"/>
     </g>
    </g>
   </g>
  </g>
 </g>
 <defs>
  <clipPath id="p93efeef0d6">
   <rect height="345.6" width="446.4" x="72.0" y="43.2"/>
  </clipPath>
 </defs>
</svg>
