<?xml version="1.0" encoding="utf-8" standalone="no"?>
<!DOCTYPE svg PUBLIC "-//W3C//DTD SVG 1.1//EN"
  "http://www.w3.org/Graphics/SVG/1.1/DTD/svg11.dtd">
<!-- Created with matplotlib (http://matplotlib.org/) -->
<svg height="432pt" version="1.1" viewBox="0 0 576 432" width="576pt" xmlns="http://www.w3.org/2000/svg" xmlns:xlink="http://www.w3.org/1999/xlink">
 <defs>
  <style type="text/css">
*{stroke-linecap:butt;stroke-linejoin:round;stroke-miterlimit:100000;}
  </style>
 </defs>
 <g id="figure_1">
  <g id="patch_1">
   <path d="M 0 432 
L 576 432 
L 576 0 
L 0 0 
z
" style="fill:#ffffff;"/>
  </g>
  <g id="axes_1">
   <g id="patch_2">
    <path d="M 72 388.8 
L 518.4 388.8 
L 518.4 43.2 
L 72 43.2 
z
" style="fill:#ffffff;"/>
   </g>
   <g id="line2d_1">
    <path clip-path="url(#p218a96e755)" d="M 72.2232 388.8 
L 78.4728 388.8 
L 78.696 378.925714 
L 81.5976 378.925714 
L 81.8208 369.051429 
L 83.16 369.051429 
L 83.3832 359.177143 
L 84.7224 359.177143 
L 84.9456 349.302857 
L 86.508 349.302857 
L 86.7312 339.428571 
L 87.8472 339.428571 
L 88.0704 329.554286 
L 88.74 329.554286 
L 88.9632 339.428571 
L 89.4096 339.428571 
L 89.6328 329.554286 
L 90.5256 329.554286 
L 90.7488 339.428571 
L 92.088 339.428571 
L 92.3112 349.302857 
L 92.7576 349.302857 
L 92.9808 339.428571 
L 95.2128 339.428571 
L 95.436 349.302857 
L 95.6592 349.302857 
L 95.8824 339.428571 
L 97.8912 339.428571 
L 98.1144 349.302857 
L 98.5608 349.302857 
L 98.784 339.428571 
L 99.0072 339.428571 
L 99.2304 349.302857 
L 99.4536 339.428571 
L 100.1232 339.428571 
L 100.3464 329.554286 
L 100.5696 309.805714 
L 100.7928 299.931429 
L 101.016 299.931429 
L 101.2392 290.057143 
L 101.4624 290.057143 
L 101.6856 270.308571 
L 101.9088 280.182857 
L 102.5784 280.182857 
L 102.8016 290.057143 
L 103.0248 280.182857 
L 103.248 280.182857 
L 103.4712 290.057143 
L 104.1408 290.057143 
L 104.364 299.931429 
L 104.5872 290.057143 
L 104.8104 270.308571 
L 105.2568 270.308571 
L 105.7032 250.56 
L 105.9264 250.56 
L 106.1496 260.434286 
L 106.596 260.434286 
L 106.8192 250.56 
L 107.0424 260.434286 
L 107.712 260.434286 
L 107.9352 250.56 
L 108.1584 260.434286 
L 108.828 260.434286 
L 109.0512 240.685714 
L 109.2744 260.434286 
L 109.4976 270.308571 
L 109.7208 270.308571 
L 109.944 280.182857 
L 110.3904 280.182857 
L 111.06 250.56 
L 111.2832 250.56 
L 111.5064 260.434286 
L 111.9528 260.434286 
L 112.176 240.685714 
L 112.3992 240.685714 
L 112.6224 250.56 
L 112.8456 240.685714 
L 113.292 240.685714 
L 113.5152 250.56 
L 114.8544 250.56 
L 115.0776 230.811429 
L 115.3008 220.937143 
L 115.524 220.937143 
L 115.7472 260.434286 
L 115.9704 240.685714 
L 116.1936 250.56 
L 116.4168 230.811429 
L 116.64 240.685714 
L 116.8632 260.434286 
L 117.5328 260.434286 
L 117.756 280.182857 
L 118.4256 280.182857 
L 118.6488 270.308571 
L 118.872 280.182857 
L 119.0952 270.308571 
L 119.3184 270.308571 
L 119.5416 280.182857 
L 119.7648 270.308571 
L 120.6576 270.308571 
L 120.8808 260.434286 
L 121.3272 280.182857 
L 122.22 280.182857 
L 122.4432 270.308571 
L 122.8896 270.308571 
L 123.1128 260.434286 
L 123.336 270.308571 
L 123.5592 260.434286 
L 123.7824 260.434286 
L 124.0056 270.308571 
L 124.2288 250.56 
L 124.6752 250.56 
L 125.1216 270.308571 
L 125.3448 270.308571 
L 125.568 260.434286 
L 125.7912 260.434286 
L 126.0144 250.56 
L 126.2376 230.811429 
L 126.4608 230.811429 
L 126.9072 250.56 
L 127.5768 250.56 
L 127.8 230.811429 
L 128.0232 240.685714 
L 128.4696 220.937143 
L 129.1392 220.937143 
L 129.3624 201.188571 
L 129.5856 201.188571 
L 129.8088 220.937143 
L 130.2552 220.937143 
L 130.4784 201.188571 
L 131.148 171.565714 
L 131.5944 171.565714 
L 131.8176 191.314286 
L 132.0408 191.314286 
L 132.4872 171.565714 
L 132.7104 181.44 
L 132.9336 171.565714 
L 133.1568 181.44 
L 133.38 171.565714 
L 133.6032 191.314286 
L 133.8264 201.188571 
L 134.2728 201.188571 
L 134.496 211.062857 
L 134.7192 211.062857 
L 134.9424 191.314286 
L 135.1656 191.314286 
L 135.3888 181.44 
L 135.612 161.691429 
L 136.5048 161.691429 
L 136.728 171.565714 
L 136.9512 191.314286 
L 137.3976 171.565714 
L 137.6208 171.565714 
L 137.844 181.44 
L 138.0672 201.188571 
L 138.2904 181.44 
L 138.7368 161.691429 
L 138.96 171.565714 
L 139.1832 161.691429 
L 139.6296 161.691429 
L 139.8528 171.565714 
L 140.076 171.565714 
L 140.2992 181.44 
L 140.5224 181.44 
L 140.7456 191.314286 
L 140.9688 220.937143 
L 141.192 211.062857 
L 141.8616 211.062857 
L 142.0848 220.937143 
L 142.308 240.685714 
L 142.9776 211.062857 
L 143.2008 211.062857 
L 143.6472 230.811429 
L 143.8704 220.937143 
L 144.9864 270.308571 
L 145.656 270.308571 
L 145.8792 280.182857 
L 146.1024 280.182857 
L 146.3256 299.931429 
L 146.5488 290.057143 
L 146.772 290.057143 
L 146.9952 280.182857 
L 147.2184 260.434286 
L 147.4416 270.308571 
L 147.6648 260.434286 
L 149.004 260.434286 
L 149.2272 250.56 
L 149.6736 270.308571 
L 150.12 250.56 
L 150.3432 250.56 
L 150.5664 240.685714 
L 150.7896 260.434286 
L 151.0128 240.685714 
L 151.4592 220.937143 
L 151.6824 220.937143 
L 151.9056 230.811429 
L 152.352 230.811429 
L 152.7984 211.062857 
L 153.0216 230.811429 
L 153.6912 201.188571 
L 153.9144 201.188571 
L 154.1376 191.314286 
L 155.2536 191.314286 
L 155.4768 201.188571 
L 155.7 201.188571 
L 155.9232 220.937143 
L 156.816 181.44 
L 157.0392 191.314286 
L 157.2624 191.314286 
L 157.4856 171.565714 
L 157.7088 201.188571 
L 158.1552 201.188571 
L 158.6016 161.691429 
L 158.8248 161.691429 
L 159.048 171.565714 
L 159.2712 171.565714 
L 159.4944 181.44 
L 159.7176 171.565714 
L 160.164 171.565714 
L 160.6104 151.817143 
L 160.8336 161.691429 
L 161.28 161.691429 
L 161.5032 181.44 
L 161.7264 171.565714 
L 161.9496 181.44 
L 162.1728 181.44 
L 162.396 171.565714 
L 162.6192 191.314286 
L 162.8424 201.188571 
L 163.0656 201.188571 
L 163.2888 220.937143 
L 163.512 220.937143 
L 163.7352 211.062857 
L 163.9584 220.937143 
L 165.2976 220.937143 
L 165.5208 230.811429 
L 165.9672 230.811429 
L 166.4136 250.56 
L 166.86 250.56 
L 167.0832 240.685714 
L 167.5296 240.685714 
L 167.976 220.937143 
L 168.1992 220.937143 
L 168.6456 201.188571 
L 168.8688 220.937143 
L 169.3152 201.188571 
L 169.5384 211.062857 
L 169.7616 201.188571 
L 169.9848 211.062857 
L 170.208 201.188571 
L 170.4312 220.937143 
L 171.324 220.937143 
L 171.5472 211.062857 
L 171.7704 220.937143 
L 171.9936 220.937143 
L 172.2168 201.188571 
L 172.6632 201.188571 
L 172.8864 191.314286 
L 173.556 220.937143 
L 173.7792 201.188571 
L 174.0024 211.062857 
L 174.2256 201.188571 
L 174.4488 201.188571 
L 174.672 220.937143 
L 174.8952 250.56 
L 175.1184 240.685714 
L 175.3416 240.685714 
L 175.5648 250.56 
L 176.0112 250.56 
L 176.2344 230.811429 
L 176.4576 240.685714 
L 177.1272 240.685714 
L 177.3504 250.56 
L 177.5736 250.56 
L 177.7968 260.434286 
L 178.02 260.434286 
L 178.2432 240.685714 
L 178.4664 250.56 
L 178.6896 250.56 
L 178.9128 260.434286 
L 179.136 240.685714 
L 179.3592 230.811429 
L 179.5824 240.685714 
L 179.8056 240.685714 
L 180.0288 260.434286 
L 180.252 240.685714 
L 180.4752 230.811429 
L 180.6984 230.811429 
L 181.1448 250.56 
L 181.5912 250.56 
L 181.8144 230.811429 
L 182.2608 230.811429 
L 182.484 240.685714 
L 182.7072 240.685714 
L 182.9304 230.811429 
L 183.1536 230.811429 
L 183.3768 211.062857 
L 183.6 211.062857 
L 183.8232 220.937143 
L 184.0464 220.937143 
L 184.2696 201.188571 
L 184.4928 211.062857 
L 184.716 201.188571 
L 184.9392 211.062857 
L 185.1624 211.062857 
L 185.3856 220.937143 
L 185.6088 201.188571 
L 185.832 201.188571 
L 186.0552 191.314286 
L 186.2784 171.565714 
L 187.1712 171.565714 
L 187.3944 161.691429 
L 187.6176 181.44 
L 188.064 201.188571 
L 188.5104 201.188571 
L 188.7336 211.062857 
L 188.9568 211.062857 
L 189.18 220.937143 
L 189.4032 211.062857 
L 189.6264 211.062857 
L 189.8496 220.937143 
L 190.296 201.188571 
L 190.7424 201.188571 
L 190.9656 191.314286 
L 191.1888 201.188571 
L 191.412 220.937143 
L 191.6352 211.062857 
L 191.8584 211.062857 
L 192.0816 220.937143 
L 192.528 220.937143 
L 192.7512 201.188571 
L 193.1976 201.188571 
L 193.4208 211.062857 
L 193.644 230.811429 
L 193.8672 230.811429 
L 194.0904 240.685714 
L 194.3136 230.811429 
L 195.2064 230.811429 
L 195.4296 240.685714 
L 195.6528 240.685714 
L 196.0992 260.434286 
L 196.3224 260.434286 
L 196.5456 250.56 
L 196.7688 250.56 
L 196.992 240.685714 
L 197.6616 240.685714 
L 197.8848 250.56 
L 198.108 250.56 
L 198.3312 240.685714 
L 198.5544 211.062857 
L 198.7776 201.188571 
L 199.224 201.188571 
L 199.6704 161.691429 
L 199.8936 181.44 
L 200.7864 181.44 
L 201.0096 201.188571 
L 201.456 220.937143 
L 201.6792 211.062857 
L 201.9024 211.062857 
L 202.1256 220.937143 
L 202.572 220.937143 
L 202.7952 230.811429 
L 203.0184 220.937143 
L 203.4648 220.937143 
L 203.688 230.811429 
L 203.9112 230.811429 
L 204.1344 240.685714 
L 204.804 240.685714 
L 205.0272 260.434286 
L 205.2504 260.434286 
L 205.4736 240.685714 
L 205.6968 250.56 
L 205.92 250.56 
L 206.1432 240.685714 
L 206.5896 260.434286 
L 206.8128 240.685714 
L 207.036 240.685714 
L 207.2592 250.56 
L 207.4824 250.56 
L 207.7056 270.308571 
L 207.9288 280.182857 
L 208.5984 280.182857 
L 209.0448 299.931429 
L 209.7144 299.931429 
L 209.9376 309.805714 
L 211.2768 309.805714 
L 211.9464 339.428571 
L 212.3928 319.68 
L 212.616 319.68 
L 212.8392 299.931429 
L 213.0624 309.805714 
L 213.2856 309.805714 
L 213.5088 299.931429 
L 213.9552 299.931429 
L 214.1784 290.057143 
L 214.4016 299.931429 
L 214.848 299.931429 
L 215.0712 309.805714 
L 215.2944 309.805714 
L 215.5176 299.931429 
L 215.7408 299.931429 
L 215.964 319.68 
L 217.08 319.68 
L 217.3032 329.554286 
L 217.7496 309.805714 
L 218.4192 309.805714 
L 218.6424 299.931429 
L 219.0888 299.931429 
L 219.312 290.057143 
L 219.7584 290.057143 
L 220.2048 270.308571 
L 220.428 270.308571 
L 220.6512 280.182857 
L 221.0976 280.182857 
L 221.544 260.434286 
L 221.9904 280.182857 
L 222.2136 280.182857 
L 222.4368 260.434286 
L 222.66 250.56 
L 222.8832 250.56 
L 223.1064 240.685714 
L 223.776 240.685714 
L 223.9992 250.56 
L 224.4456 250.56 
L 224.6688 260.434286 
L 225.1152 260.434286 
L 225.3384 250.56 
L 225.5616 250.56 
L 225.7848 240.685714 
L 226.6776 240.685714 
L 226.9008 230.811429 
L 227.3472 230.811429 
L 227.5704 220.937143 
L 227.7936 220.937143 
L 228.0168 230.811429 
L 228.24 230.811429 
L 228.6864 211.062857 
L 229.1328 211.062857 
L 229.356 220.937143 
L 229.5792 220.937143 
L 229.8024 211.062857 
L 230.6952 211.062857 
L 230.9184 220.937143 
L 231.1416 220.937143 
L 231.3648 230.811429 
L 231.588 250.56 
L 231.8112 240.685714 
L 232.0344 250.56 
L 232.2576 250.56 
L 232.4808 260.434286 
L 232.704 250.56 
L 233.1504 250.56 
L 233.3736 280.182857 
L 233.5968 260.434286 
L 234.4896 260.434286 
L 234.7128 250.56 
L 234.936 260.434286 
L 235.1592 250.56 
L 235.3824 250.56 
L 235.6056 270.308571 
L 235.8288 260.434286 
L 236.2752 260.434286 
L 236.4984 270.308571 
L 237.3912 270.308571 
L 237.6144 260.434286 
L 237.8376 280.182857 
L 238.0608 290.057143 
L 238.9536 290.057143 
L 239.4 270.308571 
L 239.6232 290.057143 
L 239.8464 290.057143 
L 240.0696 280.182857 
L 240.2928 290.057143 
L 240.516 290.057143 
L 241.4088 250.56 
L 241.632 270.308571 
L 241.8552 270.308571 
L 242.0784 260.434286 
L 242.3016 270.308571 
L 242.5248 240.685714 
L 242.748 250.56 
L 242.9712 250.56 
L 243.1944 220.937143 
L 243.4176 230.811429 
L 243.6408 230.811429 
L 243.864 220.937143 
L 244.0872 230.811429 
L 244.3104 230.811429 
L 244.5336 240.685714 
L 244.7568 240.685714 
L 244.98 230.811429 
L 245.2032 230.811429 
L 245.4264 220.937143 
L 245.8728 240.685714 
L 246.096 230.811429 
L 246.3192 211.062857 
L 246.5424 220.937143 
L 246.7656 220.937143 
L 246.9888 201.188571 
L 247.212 191.314286 
L 247.4352 171.565714 
L 247.8816 171.565714 
L 248.1048 181.44 
L 248.328 181.44 
L 248.5512 191.314286 
L 248.7744 181.44 
L 249.2208 181.44 
L 249.444 191.314286 
L 249.8904 191.314286 
L 250.3368 211.062857 
L 250.7832 211.062857 
L 251.0064 220.937143 
L 251.676 220.937143 
L 252.3456 250.56 
L 252.5688 230.811429 
L 253.0152 250.56 
L 253.2384 250.56 
L 253.4616 230.811429 
L 253.6848 220.937143 
L 253.908 220.937143 
L 254.1312 230.811429 
L 254.8008 230.811429 
L 255.024 240.685714 
L 255.2472 240.685714 
L 255.4704 230.811429 
L 255.6936 230.811429 
L 256.14 250.56 
L 256.3632 250.56 
L 256.8096 290.057143 
L 257.0328 280.182857 
L 257.256 290.057143 
L 257.7024 290.057143 
L 257.9256 299.931429 
L 258.372 299.931429 
L 258.5952 309.805714 
L 258.8184 290.057143 
L 259.0416 290.057143 
L 259.2648 270.308571 
L 259.9344 270.308571 
L 260.1576 260.434286 
L 261.2736 260.434286 
L 261.4968 270.308571 
L 261.72 260.434286 
L 261.9432 260.434286 
L 262.3896 280.182857 
L 262.6128 280.182857 
L 262.836 290.057143 
L 263.0592 290.057143 
L 263.2824 280.182857 
L 263.5056 290.057143 
L 263.7288 270.308571 
L 263.952 260.434286 
L 264.1752 270.308571 
L 264.3984 250.56 
L 264.6216 260.434286 
L 265.068 240.685714 
L 265.5144 240.685714 
L 265.7376 230.811429 
L 266.184 230.811429 
L 266.4072 220.937143 
L 266.6304 201.188571 
L 266.8536 201.188571 
L 267.0768 191.314286 
L 267.7464 191.314286 
L 267.9696 171.565714 
L 268.416 151.817143 
L 268.8624 151.817143 
L 269.0856 141.942857 
L 269.3088 122.194286 
L 269.532 132.068571 
L 269.7552 132.068571 
L 269.9784 141.942857 
L 270.2016 161.691429 
L 270.8712 161.691429 
L 271.0944 171.565714 
L 271.3176 191.314286 
L 271.5408 181.44 
L 271.764 181.44 
L 271.9872 191.314286 
L 272.2104 191.314286 
L 272.4336 181.44 
L 273.1032 181.44 
L 273.3264 171.565714 
L 273.5496 191.314286 
L 273.7728 191.314286 
L 273.996 181.44 
L 274.2192 191.314286 
L 274.4424 191.314286 
L 275.112 161.691429 
L 275.3352 181.44 
L 275.5584 171.565714 
L 275.7816 181.44 
L 276.0048 181.44 
L 276.228 171.565714 
L 276.4512 181.44 
L 276.6744 181.44 
L 276.8976 171.565714 
L 277.344 171.565714 
L 277.7904 191.314286 
L 278.0136 191.314286 
L 278.2368 171.565714 
L 278.46 161.691429 
L 278.6832 181.44 
L 278.9064 171.565714 
L 279.1296 171.565714 
L 279.3528 181.44 
L 279.576 181.44 
L 281.1384 250.56 
L 281.3616 240.685714 
L 281.5848 250.56 
L 281.808 250.56 
L 282.0312 240.685714 
L 282.2544 260.434286 
L 282.4776 270.308571 
L 282.7008 270.308571 
L 282.924 260.434286 
L 283.1472 260.434286 
L 283.3704 250.56 
L 283.8168 250.56 
L 284.04 270.308571 
L 284.2632 260.434286 
L 284.4864 270.308571 
L 284.7096 270.308571 
L 285.156 290.057143 
L 285.6024 290.057143 
L 285.8256 299.931429 
L 286.272 299.931429 
L 286.4952 280.182857 
L 287.1648 309.805714 
L 287.6112 309.805714 
L 287.8344 299.931429 
L 288.2808 299.931429 
L 288.504 309.805714 
L 288.7272 290.057143 
L 288.9504 260.434286 
L 289.3968 260.434286 
L 289.62 270.308571 
L 290.2896 270.308571 
L 290.5128 260.434286 
L 290.9592 260.434286 
L 291.1824 250.56 
L 291.4056 230.811429 
L 291.6288 230.811429 
L 291.852 240.685714 
L 292.0752 220.937143 
L 292.2984 220.937143 
L 292.5216 211.062857 
L 292.7448 220.937143 
L 292.968 211.062857 
L 293.4144 211.062857 
L 293.6376 220.937143 
L 293.8608 211.062857 
L 294.084 181.44 
L 294.3072 181.44 
L 294.5304 171.565714 
L 294.7536 181.44 
L 294.9768 171.565714 
L 295.2 191.314286 
L 295.4232 201.188571 
L 296.0928 260.434286 
L 296.316 260.434286 
L 296.5392 240.685714 
L 296.7624 240.685714 
L 296.9856 230.811429 
L 297.2088 230.811429 
L 297.432 250.56 
L 297.6552 240.685714 
L 297.8784 240.685714 
L 298.548 270.308571 
L 298.9944 270.308571 
L 299.2176 280.182857 
L 299.4408 280.182857 
L 299.664 309.805714 
L 299.8872 299.931429 
L 300.1104 309.805714 
L 300.3336 309.805714 
L 300.5568 299.931429 
L 300.78 309.805714 
L 301.0032 299.931429 
L 301.6728 299.931429 
L 302.3424 270.308571 
L 302.5656 270.308571 
L 302.7888 280.182857 
L 303.2352 280.182857 
L 303.6816 260.434286 
L 304.3512 260.434286 
L 304.5744 270.308571 
L 304.7976 250.56 
L 305.244 250.56 
L 305.4672 240.685714 
L 305.6904 240.685714 
L 305.9136 230.811429 
L 306.1368 240.685714 
L 306.5832 240.685714 
L 307.0296 220.937143 
L 307.2528 250.56 
L 307.476 260.434286 
L 307.6992 250.56 
L 308.1456 250.56 
L 308.3688 270.308571 
L 308.592 270.308571 
L 308.8152 280.182857 
L 309.0384 260.434286 
L 309.2616 250.56 
L 309.4848 250.56 
L 309.708 260.434286 
L 310.1544 260.434286 
L 310.3776 240.685714 
L 310.6008 240.685714 
L 310.824 250.56 
L 311.4936 250.56 
L 311.7168 230.811429 
L 311.94 230.811429 
L 312.1632 220.937143 
L 312.3864 250.56 
L 312.8328 250.56 
L 313.056 260.434286 
L 313.2792 240.685714 
L 313.7256 260.434286 
L 314.3952 260.434286 
L 314.8416 240.685714 
L 315.0648 250.56 
L 315.288 250.56 
L 315.5112 240.685714 
L 315.9576 240.685714 
L 316.1808 250.56 
L 316.404 240.685714 
L 316.6272 240.685714 
L 316.8504 230.811429 
L 317.2968 230.811429 
L 317.52 250.56 
L 317.7432 220.937143 
L 317.9664 230.811429 
L 318.1896 250.56 
L 318.636 250.56 
L 318.8592 260.434286 
L 319.0824 260.434286 
L 319.3056 250.56 
L 320.1984 250.56 
L 320.4216 240.685714 
L 320.6448 240.685714 
L 320.868 230.811429 
L 321.0912 250.56 
L 321.3144 230.811429 
L 321.7608 230.811429 
L 321.984 240.685714 
L 322.4304 280.182857 
L 322.8768 280.182857 
L 323.3232 260.434286 
L 323.5464 270.308571 
L 323.7696 299.931429 
L 323.9928 290.057143 
L 324.216 290.057143 
L 324.8856 260.434286 
L 325.1088 260.434286 
L 325.332 270.308571 
L 325.5552 260.434286 
L 326.2248 260.434286 
L 326.448 240.685714 
L 326.6712 260.434286 
L 327.564 260.434286 
L 327.7872 250.56 
L 328.0104 250.56 
L 328.2336 230.811429 
L 328.68 250.56 
L 328.9032 240.685714 
L 329.1264 250.56 
L 329.3496 240.685714 
L 329.5728 260.434286 
L 329.796 260.434286 
L 330.0192 250.56 
L 330.6888 250.56 
L 330.912 240.685714 
L 331.1352 240.685714 
L 331.3584 250.56 
L 332.028 220.937143 
L 332.2512 240.685714 
L 332.4744 230.811429 
L 332.6976 230.811429 
L 332.9208 220.937143 
L 333.5904 220.937143 
L 333.8136 230.811429 
L 334.0368 230.811429 
L 334.26 220.937143 
L 334.4832 220.937143 
L 334.7064 211.062857 
L 335.1528 211.062857 
L 335.376 220.937143 
L 335.5992 211.062857 
L 335.8224 220.937143 
L 336.492 220.937143 
L 336.7152 211.062857 
L 337.1616 211.062857 
L 337.3848 220.937143 
L 337.608 211.062857 
L 338.0544 211.062857 
L 338.2776 220.937143 
L 338.5008 240.685714 
L 338.724 201.188571 
L 339.1704 201.188571 
L 339.6168 181.44 
L 340.0632 201.188571 
L 340.2864 201.188571 
L 340.5096 220.937143 
L 340.7328 220.937143 
L 340.956 201.188571 
L 341.1792 220.937143 
L 341.4024 220.937143 
L 341.6256 230.811429 
L 341.8488 250.56 
L 342.072 230.811429 
L 342.2952 240.685714 
L 342.5184 240.685714 
L 342.7416 230.811429 
L 342.9648 240.685714 
L 343.6344 211.062857 
L 343.8576 211.062857 
L 344.0808 201.188571 
L 344.5272 201.188571 
L 344.7504 211.062857 
L 344.9736 191.314286 
L 345.1968 201.188571 
L 346.0896 201.188571 
L 346.3128 191.314286 
L 346.536 201.188571 
L 346.7592 201.188571 
L 346.9824 211.062857 
L 347.4288 211.062857 
L 347.652 201.188571 
L 347.8752 220.937143 
L 348.0984 211.062857 
L 348.3216 220.937143 
L 348.768 220.937143 
L 348.9912 211.062857 
L 349.2144 191.314286 
L 349.4376 191.314286 
L 349.6608 201.188571 
L 350.1072 201.188571 
L 350.3304 211.062857 
L 350.5536 211.062857 
L 350.7768 191.314286 
L 351 211.062857 
L 351.4464 211.062857 
L 351.8928 191.314286 
L 352.116 191.314286 
L 352.3392 211.062857 
L 352.5624 211.062857 
L 352.7856 230.811429 
L 353.0088 220.937143 
L 353.4552 240.685714 
L 354.348 240.685714 
L 354.5712 260.434286 
L 354.7944 250.56 
L 355.0176 250.56 
L 355.6872 220.937143 
L 355.9104 230.811429 
L 356.1336 220.937143 
L 356.58 240.685714 
L 356.8032 240.685714 
L 357.0264 250.56 
L 357.2496 240.685714 
L 357.4728 240.685714 
L 357.696 220.937143 
L 357.9192 211.062857 
L 358.3656 211.062857 
L 358.812 250.56 
L 359.2584 250.56 
L 359.4816 270.308571 
L 360.1512 270.308571 
L 360.5976 250.56 
L 361.4904 250.56 
L 361.7136 240.685714 
L 361.9368 260.434286 
L 362.16 270.308571 
L 362.3832 270.308571 
L 362.6064 250.56 
L 362.8296 250.56 
L 363.0528 240.685714 
L 363.276 250.56 
L 363.4992 250.56 
L 363.7224 260.434286 
L 364.1688 260.434286 
L 364.392 270.308571 
L 364.6152 270.308571 
L 365.0616 290.057143 
L 365.2848 270.308571 
L 365.7312 270.308571 
L 365.9544 260.434286 
L 366.1776 260.434286 
L 366.4008 250.56 
L 366.8472 250.56 
L 367.0704 260.434286 
L 367.5168 260.434286 
L 367.74 240.685714 
L 367.9632 230.811429 
L 368.1864 240.685714 
L 368.4096 230.811429 
L 368.856 230.811429 
L 369.0792 220.937143 
L 369.3024 230.811429 
L 369.972 230.811429 
L 370.1952 240.685714 
L 370.8648 240.685714 
L 371.088 260.434286 
L 371.5344 280.182857 
L 371.9808 260.434286 
L 372.4272 280.182857 
L 372.8736 280.182857 
L 373.0968 260.434286 
L 373.5432 280.182857 
L 374.2128 280.182857 
L 374.436 299.931429 
L 374.6592 299.931429 
L 374.8824 309.805714 
L 375.1056 299.931429 
L 375.552 299.931429 
L 375.7752 290.057143 
L 375.9984 299.931429 
L 376.2216 290.057143 
L 376.4448 299.931429 
L 377.784 299.931429 
L 378.0072 290.057143 
L 378.2304 290.057143 
L 378.6768 250.56 
L 378.9 240.685714 
L 379.1232 260.434286 
L 379.3464 260.434286 
L 379.5696 270.308571 
L 379.7928 270.308571 
L 380.016 280.182857 
L 380.2392 270.308571 
L 380.4624 270.308571 
L 380.6856 280.182857 
L 380.9088 270.308571 
L 381.3552 270.308571 
L 381.8016 290.057143 
L 382.0248 290.057143 
L 382.248 299.931429 
L 382.6944 299.931429 
L 382.9176 309.805714 
L 383.364 290.057143 
L 383.8104 290.057143 
L 384.0336 299.931429 
L 384.2568 299.931429 
L 384.7032 280.182857 
L 384.9264 280.182857 
L 385.3728 260.434286 
L 385.596 260.434286 
L 385.8192 270.308571 
L 386.0424 250.56 
L 386.2656 250.56 
L 386.4888 260.434286 
L 386.712 280.182857 
L 386.9352 290.057143 
L 387.1584 280.182857 
L 387.3816 280.182857 
L 387.6048 299.931429 
L 387.828 290.057143 
L 388.0512 270.308571 
L 388.2744 260.434286 
L 388.4976 260.434286 
L 389.1672 290.057143 
L 389.6136 270.308571 
L 390.2832 270.308571 
L 390.5064 280.182857 
L 390.7296 270.308571 
L 391.176 270.308571 
L 391.6224 230.811429 
L 391.8456 230.811429 
L 392.0688 240.685714 
L 392.292 240.685714 
L 392.5152 230.811429 
L 392.7384 240.685714 
L 393.1848 220.937143 
L 393.408 220.937143 
L 393.6312 211.062857 
L 394.0776 230.811429 
L 394.3008 211.062857 
L 394.524 201.188571 
L 394.7472 181.44 
L 394.9704 191.314286 
L 395.4168 171.565714 
L 396.0864 171.565714 
L 396.3096 161.691429 
L 396.5328 171.565714 
L 396.756 171.565714 
L 396.9792 181.44 
L 397.872 181.44 
L 398.0952 171.565714 
L 398.3184 171.565714 
L 398.5416 181.44 
L 398.7648 201.188571 
L 398.988 191.314286 
L 399.2112 191.314286 
L 399.4344 201.188571 
L 399.6576 201.188571 
L 399.8808 191.314286 
L 400.104 191.314286 
L 400.3272 201.188571 
L 400.5504 201.188571 
L 400.9968 220.937143 
L 401.22 220.937143 
L 401.6664 201.188571 
L 402.1128 220.937143 
L 402.336 211.062857 
L 402.5592 211.062857 
L 402.7824 220.937143 
L 403.0056 220.937143 
L 403.2288 211.062857 
L 403.452 211.062857 
L 403.6752 230.811429 
L 403.8984 230.811429 
L 404.1216 211.062857 
L 404.3448 220.937143 
L 404.7912 260.434286 
L 405.2376 260.434286 
L 405.4608 240.685714 
L 405.684 230.811429 
L 405.9072 240.685714 
L 406.3536 240.685714 
L 406.5768 220.937143 
L 406.8 211.062857 
L 407.0232 230.811429 
L 407.2464 240.685714 
L 407.6928 240.685714 
L 408.1392 171.565714 
L 408.3624 161.691429 
L 408.5856 171.565714 
L 408.8088 171.565714 
L 409.032 181.44 
L 409.2552 181.44 
L 409.4784 171.565714 
L 409.7016 171.565714 
L 409.9248 161.691429 
L 410.148 161.691429 
L 410.3712 141.942857 
L 410.5944 151.817143 
L 410.8176 141.942857 
L 411.0408 122.194286 
L 411.264 112.32 
L 411.4872 132.068571 
L 411.7104 171.565714 
L 412.1568 151.817143 
L 413.0496 151.817143 
L 413.2728 181.44 
L 413.496 191.314286 
L 413.7192 191.314286 
L 413.9424 181.44 
L 414.1656 191.314286 
L 414.3888 191.314286 
L 414.612 181.44 
L 414.8352 191.314286 
L 415.0584 191.314286 
L 415.2816 220.937143 
L 415.5048 211.062857 
L 415.9512 211.062857 
L 416.3976 171.565714 
L 416.6208 181.44 
L 416.844 161.691429 
L 417.0672 161.691429 
L 417.2904 151.817143 
L 417.5136 171.565714 
L 418.1832 141.942857 
L 418.6296 141.942857 
L 418.8528 161.691429 
L 419.076 161.691429 
L 419.2992 151.817143 
L 419.7456 151.817143 
L 420.192 171.565714 
L 420.4152 191.314286 
L 420.6384 201.188571 
L 420.8616 191.314286 
L 421.0848 191.314286 
L 421.308 201.188571 
L 421.5312 230.811429 
L 421.7544 240.685714 
L 422.6472 240.685714 
L 423.0936 220.937143 
L 423.3168 220.937143 
L 423.54 230.811429 
L 423.7632 230.811429 
L 423.9864 220.937143 
L 424.2096 230.811429 
L 424.4328 230.811429 
L 424.656 240.685714 
L 424.8792 240.685714 
L 425.1024 230.811429 
L 425.3256 250.56 
L 425.5488 240.685714 
L 425.9952 260.434286 
L 426.2184 250.56 
L 427.1112 250.56 
L 427.3344 280.182857 
L 428.004 250.56 
L 428.2272 250.56 
L 428.4504 270.308571 
L 428.6736 260.434286 
L 429.12 260.434286 
L 429.3432 270.308571 
L 429.5664 250.56 
L 430.0128 250.56 
L 430.236 260.434286 
L 430.4592 260.434286 
L 430.9056 240.685714 
L 431.1288 240.685714 
L 431.352 250.56 
L 431.5752 250.56 
L 431.7984 260.434286 
L 432.0216 260.434286 
L 432.2448 270.308571 
L 432.6912 270.308571 
L 432.9144 260.434286 
L 433.3608 280.182857 
L 433.584 280.182857 
L 433.8072 270.308571 
L 434.0304 270.308571 
L 434.2536 280.182857 
L 434.4768 280.182857 
L 434.7 299.931429 
L 434.9232 299.931429 
L 435.1464 290.057143 
L 435.5928 290.057143 
L 435.816 270.308571 
L 436.0392 270.308571 
L 436.2624 250.56 
L 436.7088 250.56 
L 436.932 260.434286 
L 437.3784 260.434286 
L 437.6016 250.56 
L 438.048 250.56 
L 438.2712 240.685714 
L 438.4944 250.56 
L 439.164 250.56 
L 439.3872 240.685714 
L 439.6104 250.56 
L 439.8336 240.685714 
L 440.0568 250.56 
L 440.28 240.685714 
L 440.5032 240.685714 
L 440.7264 250.56 
L 441.396 250.56 
L 441.6192 260.434286 
L 441.8424 250.56 
L 442.0656 250.56 
L 442.512 270.308571 
L 442.7352 260.434286 
L 442.9584 260.434286 
L 443.1816 240.685714 
L 443.4048 240.685714 
L 443.8512 220.937143 
L 444.0744 240.685714 
L 444.5208 240.685714 
L 444.744 230.811429 
L 445.1904 250.56 
L 445.4136 240.685714 
L 446.3064 240.685714 
L 446.5296 250.56 
L 446.7528 230.811429 
L 447.1992 230.811429 
L 447.4224 220.937143 
L 447.6456 220.937143 
L 447.8688 230.811429 
L 448.092 211.062857 
L 448.3152 220.937143 
L 448.5384 211.062857 
L 448.9848 211.062857 
L 449.208 201.188571 
L 449.4312 220.937143 
L 449.6544 220.937143 
L 449.8776 230.811429 
L 450.324 230.811429 
L 450.5472 250.56 
L 450.9936 230.811429 
L 451.2168 240.685714 
L 451.44 240.685714 
L 451.8864 220.937143 
L 452.3328 220.937143 
L 452.556 250.56 
L 452.7792 250.56 
L 453.2256 230.811429 
L 453.8952 230.811429 
L 454.1184 240.685714 
L 454.3416 260.434286 
L 454.5648 240.685714 
L 454.788 250.56 
L 455.2344 250.56 
L 455.4576 220.937143 
L 455.6808 230.811429 
L 455.904 230.811429 
L 456.1272 220.937143 
L 456.5736 240.685714 
L 457.02 240.685714 
L 457.2432 220.937143 
L 457.4664 211.062857 
L 457.6896 220.937143 
L 457.9128 211.062857 
L 459.0288 211.062857 
L 459.252 220.937143 
L 459.6984 220.937143 
L 459.9216 201.188571 
L 460.368 201.188571 
L 460.8144 220.937143 
L 461.0376 220.937143 
L 461.2608 211.062857 
L 461.9304 211.062857 
L 462.1536 220.937143 
L 462.3768 211.062857 
L 462.8232 230.811429 
L 463.0464 220.937143 
L 463.4928 240.685714 
L 463.716 240.685714 
L 463.9392 230.811429 
L 464.1624 211.062857 
L 464.3856 211.062857 
L 464.6088 201.188571 
L 464.832 201.188571 
L 465.0552 211.062857 
L 465.2784 201.188571 
L 465.5016 181.44 
L 465.7248 181.44 
L 466.1712 201.188571 
L 466.3944 181.44 
L 466.6176 181.44 
L 466.8408 171.565714 
L 467.064 191.314286 
L 467.2872 191.314286 
L 467.5104 201.188571 
L 467.9568 181.44 
L 468.18 201.188571 
L 468.4032 191.314286 
L 468.6264 191.314286 
L 468.8496 201.188571 
L 469.0728 201.188571 
L 469.296 211.062857 
L 470.412 211.062857 
L 470.6352 201.188571 
L 471.0816 201.188571 
L 471.528 220.937143 
L 471.7512 211.062857 
L 471.9744 230.811429 
L 472.1976 230.811429 
L 472.644 211.062857 
L 473.0904 230.811429 
L 473.5368 230.811429 
L 473.76 220.937143 
L 474.2064 220.937143 
L 474.4296 230.811429 
L 474.876 230.811429 
L 475.0992 220.937143 
L 475.3224 220.937143 
L 475.5456 240.685714 
L 475.7688 220.937143 
L 475.992 250.56 
L 476.4384 230.811429 
L 476.8848 250.56 
L 477.108 240.685714 
L 477.7776 240.685714 
L 478.0008 230.811429 
L 478.224 240.685714 
L 478.4472 240.685714 
L 478.6704 250.56 
L 478.8936 250.56 
L 479.1168 260.434286 
L 479.34 280.182857 
L 480.0096 280.182857 
L 480.2328 270.308571 
L 480.6792 270.308571 
L 480.9024 280.182857 
L 481.3488 280.182857 
L 481.572 270.308571 
L 481.7952 270.308571 
L 482.0184 280.182857 
L 482.688 280.182857 
L 482.9112 270.308571 
L 483.1344 250.56 
L 483.3576 270.308571 
L 484.0272 240.685714 
L 484.2504 240.685714 
L 484.6968 220.937143 
L 484.92 201.188571 
L 485.1432 220.937143 
L 485.8128 220.937143 
L 486.036 230.811429 
L 486.4824 230.811429 
L 487.3752 191.314286 
L 487.5984 191.314286 
L 488.268 220.937143 
L 488.4912 211.062857 
L 488.9376 211.062857 
L 489.1608 171.565714 
L 489.384 171.565714 
L 490.0536 201.188571 
L 490.2768 201.188571 
L 490.7232 151.817143 
L 491.1696 191.314286 
L 491.3928 181.44 
L 491.8392 181.44 
L 492.0624 151.817143 
L 492.2856 141.942857 
L 492.5088 151.817143 
L 492.732 171.565714 
L 492.9552 181.44 
L 493.1784 201.188571 
L 493.848 201.188571 
L 494.0712 220.937143 
L 494.2944 220.937143 
L 494.5176 201.188571 
L 494.964 201.188571 
L 495.4104 220.937143 
L 496.08 220.937143 
L 496.3032 211.062857 
L 496.5264 220.937143 
L 496.7496 211.062857 
L 496.9728 211.062857 
L 497.196 201.188571 
L 497.4192 220.937143 
L 497.6424 250.56 
L 498.7584 250.56 
L 499.428 280.182857 
L 499.6512 260.434286 
L 499.8744 250.56 
L 500.0976 250.56 
L 500.3208 260.434286 
L 500.544 250.56 
L 500.9904 270.308571 
L 501.2136 250.56 
L 501.8832 280.182857 
L 502.5528 250.56 
L 502.9992 250.56 
L 503.2224 260.434286 
L 503.4456 250.56 
L 503.6688 250.56 
L 503.892 270.308571 
L 504.1152 260.434286 
L 505.4544 260.434286 
L 505.6776 280.182857 
L 506.124 299.931429 
L 506.3472 280.182857 
L 506.7936 280.182857 
L 507.0168 290.057143 
L 507.24 280.182857 
L 507.4632 280.182857 
L 507.6864 270.308571 
L 508.1328 270.308571 
L 508.5792 290.057143 
L 508.8024 280.182857 
L 509.0256 260.434286 
L 509.472 260.434286 
L 509.6952 250.56 
L 510.1416 270.308571 
L 510.3648 270.308571 
L 510.588 250.56 
L 511.2576 250.56 
L 511.4808 230.811429 
L 511.704 240.685714 
L 511.9272 220.937143 
L 512.1504 220.937143 
L 512.3736 230.811429 
L 512.5968 220.937143 
L 512.82 230.811429 
L 513.0432 230.811429 
L 513.2664 220.937143 
L 513.4896 230.811429 
L 513.7128 230.811429 
L 513.936 220.937143 
L 514.1592 220.937143 
L 514.3824 211.062857 
L 514.8288 211.062857 
L 515.052 220.937143 
L 515.2752 181.44 
L 515.7216 181.44 
L 515.9448 230.811429 
L 516.168 230.811429 
L 516.3912 220.937143 
L 516.6144 230.811429 
L 517.0608 230.811429 
L 517.5072 250.56 
L 517.7304 250.56 
L 518.1768 230.811429 
L 518.4 230.811429 
L 518.4 230.811429 
" style="fill:none;opacity:0.8;stroke:#ff0000;stroke-linecap:square;"/>
   </g>
   <g id="line2d_2">
    <path clip-path="url(#p218a96e755)" d="M 72.2232 388.8 
L 78.696 388.8 
L 78.9192 378.925714 
L 82.044 378.925714 
L 82.2672 369.051429 
L 84.276 369.051429 
L 84.4992 359.177143 
L 85.392 359.177143 
L 85.6152 349.302857 
L 87.624 349.302857 
L 87.8472 339.428571 
L 88.74 339.428571 
L 88.9632 329.554286 
L 90.972 329.554286 
L 91.1952 339.428571 
L 98.784 339.428571 
L 99.0072 349.302857 
L 99.9 349.302857 
L 100.1232 339.428571 
L 101.016 339.428571 
L 101.2392 299.931429 
L 102.132 299.931429 
L 102.3552 280.182857 
L 104.364 280.182857 
L 104.5872 290.057143 
L 105.48 290.057143 
L 105.7032 260.434286 
L 109.944 260.434286 
L 110.1672 280.182857 
L 111.06 280.182857 
L 111.2832 250.56 
L 113.292 250.56 
L 113.5152 240.685714 
L 114.408 240.685714 
L 114.6312 260.434286 
L 115.524 260.434286 
L 115.7472 220.937143 
L 116.64 220.937143 
L 116.8632 230.811429 
L 117.756 230.811429 
L 117.9792 270.308571 
L 118.872 270.308571 
L 119.0952 280.182857 
L 119.988 280.182857 
L 120.2112 270.308571 
L 122.22 270.308571 
L 122.4432 280.182857 
L 123.336 280.182857 
L 123.5592 260.434286 
L 124.452 260.434286 
L 124.6752 250.56 
L 125.568 250.56 
L 125.7912 260.434286 
L 126.684 260.434286 
L 126.9072 230.811429 
L 127.8 230.811429 
L 128.0232 240.685714 
L 128.916 240.685714 
L 129.1392 220.937143 
L 131.148 220.937143 
L 131.3712 171.565714 
L 132.264 171.565714 
L 132.4872 181.44 
L 134.496 181.44 
L 134.7192 211.062857 
L 135.612 211.062857 
L 135.8352 171.565714 
L 136.728 171.565714 
L 136.9512 181.44 
L 138.96 181.44 
L 139.1832 161.691429 
L 140.076 161.691429 
L 140.2992 171.565714 
L 141.192 171.565714 
L 141.4152 211.062857 
L 142.308 211.062857 
L 142.5312 240.685714 
L 143.424 240.685714 
L 143.6472 220.937143 
L 144.54 220.937143 
L 144.7632 250.56 
L 145.656 250.56 
L 145.8792 270.308571 
L 146.772 270.308571 
L 146.9952 280.182857 
L 147.888 280.182857 
L 148.1112 260.434286 
L 150.12 260.434286 
L 150.3432 250.56 
L 151.236 250.56 
L 151.4592 230.811429 
L 153.468 230.811429 
L 153.6912 211.062857 
L 154.584 211.062857 
L 154.8072 191.314286 
L 155.7 191.314286 
L 155.9232 201.188571 
L 156.816 201.188571 
L 157.0392 171.565714 
L 157.932 171.565714 
L 158.1552 211.062857 
L 159.048 211.062857 
L 159.2712 171.565714 
L 160.164 171.565714 
L 160.3872 181.44 
L 161.28 181.44 
L 161.5032 171.565714 
L 163.512 171.565714 
L 163.7352 220.937143 
L 165.744 220.937143 
L 165.9672 230.811429 
L 166.86 230.811429 
L 167.0832 240.685714 
L 167.976 240.685714 
L 168.1992 220.937143 
L 169.092 220.937143 
L 169.3152 211.062857 
L 170.208 211.062857 
L 170.4312 201.188571 
L 171.324 201.188571 
L 171.5472 220.937143 
L 172.44 220.937143 
L 172.6632 191.314286 
L 173.556 191.314286 
L 173.7792 220.937143 
L 175.788 220.937143 
L 176.0112 250.56 
L 176.904 250.56 
L 177.1272 240.685714 
L 178.02 240.685714 
L 178.2432 260.434286 
L 179.136 260.434286 
L 179.3592 240.685714 
L 181.368 240.685714 
L 181.5912 250.56 
L 182.484 250.56 
L 182.7072 230.811429 
L 183.6 230.811429 
L 183.8232 211.062857 
L 184.716 211.062857 
L 184.9392 220.937143 
L 185.832 220.937143 
L 186.0552 201.188571 
L 186.948 201.188571 
L 187.1712 171.565714 
L 188.064 171.565714 
L 188.2872 191.314286 
L 189.18 191.314286 
L 189.4032 220.937143 
L 190.296 220.937143 
L 190.5192 201.188571 
L 191.412 201.188571 
L 191.6352 211.062857 
L 192.528 211.062857 
L 192.7512 220.937143 
L 193.644 220.937143 
L 193.8672 230.811429 
L 195.876 230.811429 
L 196.0992 250.56 
L 196.992 250.56 
L 197.2152 240.685714 
L 198.108 240.685714 
L 198.3312 250.56 
L 199.224 250.56 
L 199.4472 201.188571 
L 200.34 201.188571 
L 200.5632 181.44 
L 201.456 181.44 
L 201.6792 211.062857 
L 202.572 211.062857 
L 202.7952 230.811429 
L 203.688 230.811429 
L 203.9112 240.685714 
L 204.804 240.685714 
L 205.0272 250.56 
L 207.036 250.56 
L 207.2592 240.685714 
L 208.152 240.685714 
L 208.3752 290.057143 
L 209.268 290.057143 
L 209.4912 299.931429 
L 210.384 299.931429 
L 210.6072 309.805714 
L 211.5 309.805714 
L 211.7232 319.68 
L 212.616 319.68 
L 212.8392 299.931429 
L 214.848 299.931429 
L 215.0712 309.805714 
L 215.964 309.805714 
L 216.1872 319.68 
L 218.196 319.68 
L 218.4192 309.805714 
L 219.312 309.805714 
L 219.5352 290.057143 
L 220.428 290.057143 
L 220.6512 280.182857 
L 221.544 280.182857 
L 221.7672 260.434286 
L 223.776 260.434286 
L 223.9992 240.685714 
L 224.892 240.685714 
L 225.1152 260.434286 
L 226.008 260.434286 
L 226.2312 240.685714 
L 227.124 240.685714 
L 227.3472 230.811429 
L 229.356 230.811429 
L 229.5792 220.937143 
L 230.472 220.937143 
L 230.6952 211.062857 
L 231.588 211.062857 
L 231.8112 250.56 
L 233.82 250.56 
L 234.0432 270.308571 
L 234.936 270.308571 
L 235.1592 260.434286 
L 237.168 260.434286 
L 237.3912 270.308571 
L 238.284 270.308571 
L 238.5072 290.057143 
L 239.4 290.057143 
L 239.6232 280.182857 
L 240.516 280.182857 
L 240.7392 290.057143 
L 241.632 290.057143 
L 241.8552 270.308571 
L 242.748 270.308571 
L 242.9712 250.56 
L 243.864 250.56 
L 244.0872 220.937143 
L 244.98 220.937143 
L 245.2032 230.811429 
L 246.096 230.811429 
L 246.3192 220.937143 
L 247.212 220.937143 
L 247.4352 201.188571 
L 248.328 201.188571 
L 248.5512 171.565714 
L 249.444 171.565714 
L 249.6672 191.314286 
L 250.56 191.314286 
L 250.7832 220.937143 
L 252.792 220.937143 
L 253.0152 240.685714 
L 253.908 240.685714 
L 254.1312 220.937143 
L 255.024 220.937143 
L 255.2472 240.685714 
L 256.14 240.685714 
L 256.3632 250.56 
L 257.256 250.56 
L 257.4792 290.057143 
L 258.372 290.057143 
L 258.5952 299.931429 
L 259.488 299.931429 
L 259.7112 270.308571 
L 260.604 270.308571 
L 260.8272 260.434286 
L 262.836 260.434286 
L 263.0592 280.182857 
L 263.952 280.182857 
L 264.1752 260.434286 
L 265.068 260.434286 
L 265.2912 240.685714 
L 266.184 240.685714 
L 266.4072 230.811429 
L 267.3 230.811429 
L 267.5232 191.314286 
L 268.416 191.314286 
L 268.6392 151.817143 
L 269.532 151.817143 
L 269.7552 132.068571 
L 270.648 132.068571 
L 270.8712 161.691429 
L 271.764 161.691429 
L 271.9872 181.44 
L 275.112 181.44 
L 275.3352 161.691429 
L 276.228 161.691429 
L 276.4512 181.44 
L 277.344 181.44 
L 277.5672 191.314286 
L 278.46 191.314286 
L 278.6832 161.691429 
L 279.576 161.691429 
L 279.7992 201.188571 
L 280.692 201.188571 
L 280.9152 230.811429 
L 281.808 230.811429 
L 282.0312 250.56 
L 282.924 250.56 
L 283.1472 260.434286 
L 285.156 260.434286 
L 285.3792 290.057143 
L 286.272 290.057143 
L 286.4952 280.182857 
L 287.388 280.182857 
L 287.6112 299.931429 
L 288.504 299.931429 
L 288.7272 280.182857 
L 289.62 280.182857 
L 289.8432 270.308571 
L 290.736 270.308571 
L 290.9592 250.56 
L 291.852 250.56 
L 292.0752 220.937143 
L 292.968 220.937143 
L 293.1912 211.062857 
L 294.084 211.062857 
L 294.3072 171.565714 
L 295.2 171.565714 
L 295.4232 191.314286 
L 296.316 191.314286 
L 296.5392 250.56 
L 297.432 250.56 
L 297.6552 240.685714 
L 298.548 240.685714 
L 298.7712 270.308571 
L 299.664 270.308571 
L 299.8872 309.805714 
L 300.78 309.805714 
L 301.0032 299.931429 
L 301.896 299.931429 
L 302.1192 280.182857 
L 304.128 280.182857 
L 304.3512 260.434286 
L 305.244 260.434286 
L 305.4672 240.685714 
L 307.476 240.685714 
L 307.6992 250.56 
L 308.592 250.56 
L 308.8152 280.182857 
L 309.708 280.182857 
L 309.9312 260.434286 
L 310.824 260.434286 
L 311.0472 250.56 
L 311.94 250.56 
L 312.1632 230.811429 
L 313.056 230.811429 
L 313.2792 240.685714 
L 314.172 240.685714 
L 314.3952 260.434286 
L 315.288 260.434286 
L 315.5112 250.56 
L 316.404 250.56 
L 316.6272 240.685714 
L 317.52 240.685714 
L 317.7432 230.811429 
L 318.636 230.811429 
L 318.8592 260.434286 
L 319.752 260.434286 
L 319.9752 250.56 
L 320.868 250.56 
L 321.0912 240.685714 
L 321.984 240.685714 
L 322.2072 260.434286 
L 324.216 260.434286 
L 324.4392 290.057143 
L 325.332 290.057143 
L 325.5552 260.434286 
L 327.564 260.434286 
L 327.7872 250.56 
L 330.912 250.56 
L 331.1352 240.685714 
L 332.028 240.685714 
L 332.2512 230.811429 
L 333.144 230.811429 
L 333.3672 220.937143 
L 336.492 220.937143 
L 336.7152 211.062857 
L 338.724 211.062857 
L 338.9472 201.188571 
L 339.84 201.188571 
L 340.0632 191.314286 
L 340.956 191.314286 
L 341.1792 220.937143 
L 344.304 220.937143 
L 344.5272 201.188571 
L 347.652 201.188571 
L 347.8752 220.937143 
L 348.768 220.937143 
L 348.9912 211.062857 
L 349.884 211.062857 
L 350.1072 201.188571 
L 352.116 201.188571 
L 352.3392 211.062857 
L 353.232 211.062857 
L 353.4552 230.811429 
L 354.348 230.811429 
L 354.5712 260.434286 
L 355.464 260.434286 
L 355.6872 230.811429 
L 356.58 230.811429 
L 356.8032 240.685714 
L 357.696 240.685714 
L 357.9192 211.062857 
L 358.812 211.062857 
L 359.0352 250.56 
L 359.928 250.56 
L 360.1512 270.308571 
L 361.044 270.308571 
L 361.2672 250.56 
L 362.16 250.56 
L 362.3832 270.308571 
L 363.276 270.308571 
L 363.4992 250.56 
L 364.392 250.56 
L 364.6152 270.308571 
L 365.508 270.308571 
L 365.7312 260.434286 
L 366.624 260.434286 
L 366.8472 250.56 
L 367.74 250.56 
L 367.9632 230.811429 
L 368.856 230.811429 
L 369.0792 240.685714 
L 371.088 240.685714 
L 371.3112 270.308571 
L 373.32 270.308571 
L 373.5432 280.182857 
L 374.436 280.182857 
L 374.6592 299.931429 
L 375.552 299.931429 
L 375.7752 309.805714 
L 376.668 309.805714 
L 376.8912 299.931429 
L 377.784 299.931429 
L 378.0072 290.057143 
L 378.9 290.057143 
L 379.1232 250.56 
L 380.016 250.56 
L 380.2392 270.308571 
L 381.132 270.308571 
L 381.3552 260.434286 
L 382.248 260.434286 
L 382.4712 299.931429 
L 383.364 299.931429 
L 383.5872 290.057143 
L 384.48 290.057143 
L 384.7032 280.182857 
L 385.596 280.182857 
L 385.8192 260.434286 
L 386.712 260.434286 
L 386.9352 280.182857 
L 388.944 280.182857 
L 389.1672 290.057143 
L 390.06 290.057143 
L 390.2832 270.308571 
L 391.176 270.308571 
L 391.3992 250.56 
L 392.292 250.56 
L 392.5152 230.811429 
L 393.408 230.811429 
L 393.6312 211.062857 
L 394.524 211.062857 
L 394.7472 191.314286 
L 395.64 191.314286 
L 395.8632 171.565714 
L 398.988 171.565714 
L 399.2112 191.314286 
L 400.104 191.314286 
L 400.3272 201.188571 
L 402.336 201.188571 
L 402.5592 211.062857 
L 403.452 211.062857 
L 403.6752 230.811429 
L 404.568 230.811429 
L 404.7912 260.434286 
L 405.684 260.434286 
L 405.9072 240.685714 
L 406.8 240.685714 
L 407.0232 230.811429 
L 407.916 230.811429 
L 408.1392 171.565714 
L 409.032 171.565714 
L 409.2552 181.44 
L 410.148 181.44 
L 410.3712 141.942857 
L 411.264 141.942857 
L 411.4872 122.194286 
L 412.38 122.194286 
L 412.6032 141.942857 
L 413.496 141.942857 
L 413.7192 191.314286 
L 415.728 191.314286 
L 415.9512 211.062857 
L 416.844 211.062857 
L 417.0672 161.691429 
L 417.96 161.691429 
L 418.1832 141.942857 
L 419.076 141.942857 
L 419.2992 151.817143 
L 420.192 151.817143 
L 420.4152 181.44 
L 421.308 181.44 
L 421.5312 240.685714 
L 423.54 240.685714 
L 423.7632 230.811429 
L 424.656 230.811429 
L 424.8792 220.937143 
L 425.772 220.937143 
L 425.9952 250.56 
L 428.004 250.56 
L 428.2272 270.308571 
L 430.236 270.308571 
L 430.4592 260.434286 
L 433.584 260.434286 
L 433.8072 270.308571 
L 434.7 270.308571 
L 434.9232 299.931429 
L 435.816 299.931429 
L 436.0392 270.308571 
L 436.932 270.308571 
L 437.1552 250.56 
L 439.164 250.56 
L 439.3872 240.685714 
L 441.396 240.685714 
L 441.6192 260.434286 
L 443.628 260.434286 
L 443.8512 220.937143 
L 444.744 220.937143 
L 444.9672 240.685714 
L 446.976 240.685714 
L 447.1992 230.811429 
L 448.092 230.811429 
L 448.3152 220.937143 
L 450.324 220.937143 
L 450.5472 250.56 
L 451.44 250.56 
L 451.6632 230.811429 
L 452.556 230.811429 
L 452.7792 240.685714 
L 455.904 240.685714 
L 456.1272 230.811429 
L 457.02 230.811429 
L 457.2432 211.062857 
L 459.252 211.062857 
L 459.4752 220.937143 
L 460.368 220.937143 
L 460.5912 211.062857 
L 461.484 211.062857 
L 461.7072 220.937143 
L 462.6 220.937143 
L 462.8232 230.811429 
L 464.832 230.811429 
L 465.0552 220.937143 
L 465.948 220.937143 
L 466.1712 201.188571 
L 467.064 201.188571 
L 467.2872 191.314286 
L 469.296 191.314286 
L 469.5192 211.062857 
L 470.412 211.062857 
L 470.6352 201.188571 
L 471.528 201.188571 
L 471.7512 220.937143 
L 474.876 220.937143 
L 475.0992 230.811429 
L 477.108 230.811429 
L 477.3312 250.56 
L 478.224 250.56 
L 478.4472 240.685714 
L 479.34 240.685714 
L 479.5632 280.182857 
L 480.456 280.182857 
L 480.6792 270.308571 
L 483.804 270.308571 
L 484.0272 250.56 
L 484.92 250.56 
L 485.1432 220.937143 
L 486.036 220.937143 
L 486.2592 230.811429 
L 487.152 230.811429 
L 487.3752 191.314286 
L 488.268 191.314286 
L 488.4912 211.062857 
L 489.384 211.062857 
L 489.6072 191.314286 
L 490.5 191.314286 
L 490.7232 151.817143 
L 491.616 151.817143 
L 491.8392 161.691429 
L 492.732 161.691429 
L 492.9552 191.314286 
L 493.848 191.314286 
L 494.0712 230.811429 
L 494.964 230.811429 
L 495.1872 201.188571 
L 496.08 201.188571 
L 496.3032 211.062857 
L 497.196 211.062857 
L 497.4192 230.811429 
L 498.312 230.811429 
L 498.5352 250.56 
L 499.428 250.56 
L 499.6512 260.434286 
L 501.66 260.434286 
L 501.8832 280.182857 
L 502.776 280.182857 
L 502.9992 250.56 
L 503.892 250.56 
L 504.1152 270.308571 
L 505.008 270.308571 
L 505.2312 260.434286 
L 506.124 260.434286 
L 506.3472 299.931429 
L 507.24 299.931429 
L 507.4632 280.182857 
L 508.356 280.182857 
L 508.5792 290.057143 
L 509.472 290.057143 
L 509.6952 240.685714 
L 510.588 240.685714 
L 510.8112 250.56 
L 511.704 250.56 
L 511.9272 220.937143 
L 512.82 220.937143 
L 513.0432 230.811429 
L 513.936 230.811429 
L 514.1592 220.937143 
L 515.052 220.937143 
L 515.2752 181.44 
L 516.168 181.44 
L 516.3912 220.937143 
L 517.284 220.937143 
L 517.5072 250.56 
L 518.4 250.56 
L 518.4 250.56 
" style="fill:none;opacity:0.8;stroke:#0000ff;stroke-linecap:square;"/>
   </g>
   <g id="patch_3">
    <path d="M 72 43.2 
L 518.4 43.2 
" style="fill:none;stroke:#000000;stroke-linecap:square;stroke-linejoin:miter;"/>
   </g>
   <g id="patch_4">
    <path d="M 518.4 388.8 
L 518.4 43.2 
" style="fill:none;stroke:#000000;stroke-linecap:square;stroke-linejoin:miter;"/>
   </g>
   <g id="patch_5">
    <path d="M 72 388.8 
L 518.4 388.8 
" style="fill:none;stroke:#000000;stroke-linecap:square;stroke-linejoin:miter;"/>
   </g>
   <g id="patch_6">
    <path d="M 72 388.8 
L 72 43.2 
" style="fill:none;stroke:#000000;stroke-linecap:square;stroke-linejoin:miter;"/>
   </g>
   <g id="matplotlib.axis_1">
    <g id="xtick_1">
     <g id="line2d_3">
      <defs>
       <path d="M 0 0 
L 0 -4 
" id="mfcb61ea2c5" style="stroke:#000000;stroke-width:0.5;"/>
      </defs>
      <g>
       <use style="stroke:#000000;stroke-width:0.5;" x="72.0" xlink:href="#mfcb61ea2c5" y="388.8"/>
      </g>
     </g>
     <g id="line2d_4">
      <defs>
       <path d="M 0 0 
L 0 4 
" id="mbe376c2323" style="stroke:#000000;stroke-width:0.5;"/>
      </defs>
      <g>
       <use style="stroke:#000000;stroke-width:0.5;" x="72.0" xlink:href="#mbe376c2323" y="43.2"/>
      </g>
     </g>
     <g id="text_1">
      <!-- 0 -->
      <defs>
       <path d="M 28.40625 71 
C 14.40625 71 4.203125 55.6875 4.203125 34.75 
C 4.203125 14.125 14.09375 -1 27.59375 -1 
C 41.59375 -1 51.40625 13.625 51.40625 34.4375 
C 51.40625 45.0625 49.203125 53.875 45 60.78125 
C 41.09375 67.09375 34.703125 71 28.40625 71 
M 27.703125 66.703125 
C 31 66.703125 34.203125 64.5 36.59375 60.5 
C 39.296875 55.875 40.203125 49.96875 40.203125 36.25 
C 40.203125 22.21875 39.5 15.625 37.5 11.203125 
C 35.203125 6.296875 31.59375 3.296875 27.796875 3.296875 
C 24.5 3.296875 21.296875 5.5 18.90625 9.5 
C 16.09375 14.21875 15.296875 20.53125 15.296875 36.859375 
C 15.296875 48.484375 16 54.375 18 58.6875 
C 20.296875 63.796875 23.90625 66.703125 27.703125 66.703125 
" id="Century_Schoolbook_L_Roman-48"/>
      </defs>
      <g transform="translate(67.0147502894 406.105968098)scale(0.18 -0.18)">
       <use transform="scale(0.996264009963)" xlink:href="#Century_Schoolbook_L_Roman-48"/>
      </g>
     </g>
    </g>
    <g id="xtick_2">
     <g id="line2d_5">
      <g>
       <use style="stroke:#000000;stroke-width:0.5;" x="183.6" xlink:href="#mfcb61ea2c5" y="388.8"/>
      </g>
     </g>
     <g id="line2d_6">
      <g>
       <use style="stroke:#000000;stroke-width:0.5;" x="183.6" xlink:href="#mbe376c2323" y="43.2"/>
      </g>
     </g>
     <g id="text_2">
      <!-- 500 -->
      <defs>
       <path d="M 16.40625 59.703125 
C 21.796875 58.40625 24.59375 58 28.5 58 
C 37 58 43.203125 61 46.5 66.484375 
C 47.59375 68.390625 48 69.28125 48 70.078125 
C 48 70.6875 47.703125 70.984375 47.203125 70.984375 
C 46.90625 70.984375 46.40625 70.875 45.90625 70.578125 
C 41 68.484375 38.296875 67.984375 32.59375 67.984375 
C 26.203125 67.984375 22.5 68.484375 12 70.984375 
C 11.59375 62.625 10.703125 51.984375 9.296875 39.65625 
C 7.203125 37.46875 6.5 36.171875 6.5 34.578125 
C 6.5 32.59375 7.796875 31.203125 9.703125 31.203125 
C 12.203125 31.203125 13.796875 33.328125 14.203125 37.359375 
C 17.703125 39.890625 21 41 25 41 
C 33.90625 41 39.296875 34.03125 39.296875 22.5 
C 39.296875 15.734375 37.59375 9.953125 34.59375 6.828125 
C 32.59375 4.703125 28.5 3.296875 24.40625 3.296875 
C 18.40625 3.296875 12.203125 6.421875 12.203125 9.5625 
C 12.203125 10.28125 12.796875 11.078125 14 11.78125 
C 17.09375 13.703125 18 15.03125 18 17.75 
C 18 21.296875 15.296875 24.015625 11.703125 24.015625 
C 7.703125 24.015625 4.5 20.28125 4.5 15.546875 
C 4.5 10.5 7.40625 5.453125 11.90625 2.328125 
C 15.296875 0.109375 19.40625 -1 24.59375 -1 
C 40.296875 -1 50.203125 8.28125 50.203125 23.109375 
C 50.203125 36.828125 41.09375 46 27.59375 46 
C 23.40625 46 20.203125 45.296875 14.703125 43 
z
" id="Century_Schoolbook_L_Roman-53"/>
      </defs>
      <g transform="translate(168.644250868 406.105968098)scale(0.18 -0.18)">
       <use transform="scale(0.996264009963)" xlink:href="#Century_Schoolbook_L_Roman-53"/>
       <use transform="translate(55.3916769633 0.0)scale(0.996264009963)" xlink:href="#Century_Schoolbook_L_Roman-48"/>
       <use transform="translate(110.783353927 0.0)scale(0.996264009963)" xlink:href="#Century_Schoolbook_L_Roman-48"/>
      </g>
     </g>
    </g>
    <g id="xtick_3">
     <g id="line2d_7">
      <g>
       <use style="stroke:#000000;stroke-width:0.5;" x="295.2" xlink:href="#mfcb61ea2c5" y="388.8"/>
      </g>
     </g>
     <g id="line2d_8">
      <g>
       <use style="stroke:#000000;stroke-width:0.5;" x="295.2" xlink:href="#mbe376c2323" y="43.2"/>
      </g>
     </g>
     <g id="text_3">
      <!-- 1000 -->
      <defs>
       <path d="M 32.203125 70.5 
C 28.796875 66.234375 19.59375 63 10.40625 63 
L 10.40625 58.59375 
L 19.203125 58.59375 
C 25 58.59375 25.40625 58.203125 25.40625 52.3125 
L 25.40625 12.28125 
L 25.40625 9.375 
C 25.40625 5.1875 24.5 4.6875 16.5 4.6875 
L 10 4.6875 
L 10 0 
L 49.59375 0 
L 49.59375 4.6875 
L 44.09375 4.6875 
C 38.796875 4.6875 36.59375 5.09375 35.796875 6.09375 
C 35.09375 6.78125 35.09375 6.78125 35.09375 12.3125 
L 35.09375 53.671875 
C 35.09375 58.578125 35.296875 63.375 35.796875 70.5 
z
" id="Century_Schoolbook_L_Roman-49"/>
      </defs>
      <g transform="translate(275.259001158 406.105968098)scale(0.18 -0.18)">
       <use transform="scale(0.996264009963)" xlink:href="#Century_Schoolbook_L_Roman-49"/>
       <use transform="translate(55.3916769633 0.0)scale(0.996264009963)" xlink:href="#Century_Schoolbook_L_Roman-48"/>
       <use transform="translate(110.783353927 0.0)scale(0.996264009963)" xlink:href="#Century_Schoolbook_L_Roman-48"/>
       <use transform="translate(166.17503089 0.0)scale(0.996264009963)" xlink:href="#Century_Schoolbook_L_Roman-48"/>
      </g>
     </g>
    </g>
    <g id="xtick_4">
     <g id="line2d_9">
      <g>
       <use style="stroke:#000000;stroke-width:0.5;" x="406.8" xlink:href="#mfcb61ea2c5" y="388.8"/>
      </g>
     </g>
     <g id="line2d_10">
      <g>
       <use style="stroke:#000000;stroke-width:0.5;" x="406.8" xlink:href="#mbe376c2323" y="43.2"/>
      </g>
     </g>
     <g id="text_4">
      <!-- 1500 -->
      <g transform="translate(386.859001158 406.105968098)scale(0.18 -0.18)">
       <use transform="scale(0.996264009963)" xlink:href="#Century_Schoolbook_L_Roman-49"/>
       <use transform="translate(55.3916769633 0.0)scale(0.996264009963)" xlink:href="#Century_Schoolbook_L_Roman-53"/>
       <use transform="translate(110.783353927 0.0)scale(0.996264009963)" xlink:href="#Century_Schoolbook_L_Roman-48"/>
       <use transform="translate(166.17503089 0.0)scale(0.996264009963)" xlink:href="#Century_Schoolbook_L_Roman-48"/>
      </g>
     </g>
    </g>
    <g id="xtick_5">
     <g id="line2d_11">
      <g>
       <use style="stroke:#000000;stroke-width:0.5;" x="518.4" xlink:href="#mfcb61ea2c5" y="388.8"/>
      </g>
     </g>
     <g id="line2d_12">
      <g>
       <use style="stroke:#000000;stroke-width:0.5;" x="518.4" xlink:href="#mbe376c2323" y="43.2"/>
      </g>
     </g>
     <g id="text_5">
      <!-- 2000 -->
      <defs>
       <path d="M 50.5 21.5625 
L 46.09375 21.5625 
L 45.09375 16.46875 
C 43.796875 10.078125 43 9.375 36.796875 9.375 
L 14.40625 9.375 
C 21.296875 16.5625 23.59375 18.65625 30 23.65625 
C 39.09375 30.65625 43 34.15625 45.296875 37.140625 
C 48.5 41.53125 50.09375 46.03125 50.09375 50.8125 
C 50.09375 62.109375 40.59375 70.296875 27.59375 70.296875 
C 14.90625 70.296875 5.09375 62.109375 5.09375 51.515625 
C 5.09375 45.234375 8.296875 40.9375 13.09375 40.9375 
C 16.796875 40.9375 19.296875 43.4375 19.296875 47.03125 
C 19.296875 49.53125 17.90625 51.828125 15.703125 52.734375 
C 12 54.328125 11.796875 54.421875 11.796875 55.71875 
C 11.796875 57.21875 12.796875 59.515625 14.203125 61.21875 
C 16.703125 64.203125 20.90625 66 25.59375 66 
C 33.796875 66 38.796875 60.90625 38.796875 52.53125 
C 38.796875 45.125 35.296875 38.4375 27 29.65625 
L 21.09375 23.46875 
C 17.59375 19.78125 15 16.96875 13.296875 15.078125 
C 9.703125 10.875 7.90625 8.578125 3.5 2.796875 
L 3.5 0 
L 48.59375 0 
z
" id="Century_Schoolbook_L_Roman-50"/>
      </defs>
      <g transform="translate(498.459001158 406.105968098)scale(0.18 -0.18)">
       <use transform="scale(0.996264009963)" xlink:href="#Century_Schoolbook_L_Roman-50"/>
       <use transform="translate(55.3916769633 0.0)scale(0.996264009963)" xlink:href="#Century_Schoolbook_L_Roman-48"/>
       <use transform="translate(110.783353927 0.0)scale(0.996264009963)" xlink:href="#Century_Schoolbook_L_Roman-48"/>
       <use transform="translate(166.17503089 0.0)scale(0.996264009963)" xlink:href="#Century_Schoolbook_L_Roman-48"/>
      </g>
     </g>
    </g>
    <g id="text_6">
     <!-- Time (s) -->
     <defs>
      <path d="M 46.5 23 
C 46.59375 37.8125 38.09375 48.28125 25.90625 48.28125 
C 13.09375 48.28125 3.5 37.25 3.5 22.34375 
C 3.5 8.4375 12.59375 -1 26.09375 -1 
C 35.59375 -1 42.40625 3.6875 46.5 13.1875 
L 43 15.09375 
C 38.90625 7.390625 34.703125 4.390625 28 4.390625 
C 22.90625 4.390625 19.203125 6.59375 16.59375 11 
C 14.796875 14 14 17.5 14.09375 23 
z
M 14.203125 27.296875 
C 14.203125 30.34375 14.59375 32.5 15.59375 35.25 
C 17.703125 41.140625 20.90625 44 25.703125 44 
C 31.796875 44 35.796875 38.78125 35.796875 30.921875 
C 35.796875 28.078125 34.90625 27.296875 31.703125 27.296875 
z
" id="Century_Schoolbook_L_Roman-101"/>
      <path d="M 39 48 
L 35.5 48 
L 32.59375 44.40625 
C 29 47.203125 25.40625 48.390625 20.40625 48.390625 
C 11.59375 48.390625 5.796875 42.625 5.796875 33.953125 
C 5.796875 30.078125 7.09375 26.78125 9.296875 24.8125 
C 11.59375 22.703125 13.90625 21.71875 19.90625 20.3125 
L 25.203125 19.125 
C 33.09375 17.234375 35.90625 15.234375 35.90625 11.265625 
C 35.90625 6.578125 31.796875 3.296875 25.90625 3.296875 
C 17.5 3.296875 11.5 8.765625 9.09375 18.875 
L 5.09375 18.875 
L 5.09375 0 
L 8.59375 0 
L 12.09375 3.90625 
C 16.203125 0.59375 20.796875 -1 25.796875 -1 
C 35.59375 -1 42.09375 5.078125 42.09375 14.34375 
C 42.09375 18.71875 40.703125 22.09375 37.90625 24.390625 
C 35.5 26.484375 33.5 27.28125 27.40625 28.5625 
L 22.40625 29.671875 
C 16.90625 30.859375 16.90625 30.859375 15.09375 31.859375 
C 12.90625 32.859375 11.59375 34.9375 11.59375 37.140625 
C 11.59375 41.109375 15.40625 44 20.90625 44 
C 24.703125 44 27.796875 42.703125 30.59375 40.015625 
C 32.796875 37.8125 33.90625 35.828125 35.5 31.234375 
L 39 31.234375 
z
" id="Century_Schoolbook_L_Roman-115"/>
      <path d="M 20.59375 46 
L 1.796875 46 
L 1.796875 41.21875 
L 6.90625 41.21875 
C 10.59375 41.21875 11.203125 40.515625 11.203125 36.203125 
L 11.203125 12.296875 
L 11.203125 8.296875 
C 11.203125 4.296875 10.09375 3.59375 3.703125 3.59375 
L 3 3.59375 
L 3 0 
L 28.90625 0 
L 28.90625 3.59375 
L 28.203125 3.59375 
C 21.703125 3.59375 20.59375 4.28125 20.59375 8.21875 
L 20.59375 12.171875 
z
M 15.90625 71.578125 
C 12.703125 71.578125 10.09375 68.984375 10.09375 65.796875 
C 10.09375 62.703125 12.703125 60 15.796875 60 
C 19.09375 60 21.703125 62.59375 21.703125 65.796875 
C 21.703125 68.984375 19.09375 71.578125 15.90625 71.578125 
" id="Century_Schoolbook_L_Roman-105"/>
      <path d="M 20.09375 46 
L 2.296875 46 
L 2.296875 41.21875 
L 6.40625 41.21875 
C 10.09375 41.21875 10.703125 40.515625 10.703125 36.203125 
L 10.703125 12.296875 
L 10.703125 8.40625 
C 10.703125 4.296875 9.59375 3.59375 3.203125 3.59375 
L 2.796875 3.59375 
L 2.796875 0 
L 28 0 
L 28 3.59375 
L 27.59375 3.59375 
C 21.203125 3.59375 20.09375 4.296875 20.09375 8.390625 
L 20.09375 12.28125 
L 20.09375 26.453125 
C 20.09375 35.328125 25 41.921875 31.5 41.921875 
C 34.09375 41.921875 36.90625 40.515625 38.09375 38.625 
C 39.5 36.734375 40.09375 33.828125 40.09375 29.734375 
L 40.09375 12.28125 
L 40.09375 8.28125 
C 40.09375 4.296875 39 3.59375 32.5 3.59375 
L 32.09375 3.59375 
L 32.09375 0 
L 57.40625 0 
L 57.40625 3.59375 
L 57 3.59375 
C 50.59375 3.59375 49.5 4.296875 49.5 8.28125 
L 49.5 12.28125 
L 49.5 25.546875 
C 49.5 35.53125 54 41.921875 61 41.921875 
C 64.296875 41.921875 67 40.015625 68.296875 36.921875 
C 69.203125 34.734375 69.5 32.53125 69.5 28.640625 
L 69.5 12.28125 
L 69.5 8.28125 
C 69.5 4.296875 68.40625 3.59375 61.90625 3.59375 
L 61.5 3.59375 
L 61.5 0 
L 86.796875 0 
L 86.796875 3.59375 
L 86.40625 3.59375 
C 80 3.59375 78.90625 4.296875 78.90625 8.390625 
L 78.90625 12.28125 
L 78.90625 30.640625 
C 78.90625 36.828125 78.296875 38.921875 75.703125 42.3125 
C 72.796875 46.015625 68.703125 48 63.90625 48 
C 57.40625 48 52.59375 44.9375 48.296875 38.109375 
C 46.59375 44.046875 41.203125 48 34.5 48 
C 28.5 48 24 45.140625 20.09375 38.921875 
z
" id="Century_Schoolbook_L_Roman-109"/>
      <path d="M 63.296875 72 
L 3.40625 72 
L 1.90625 44.265625 
L 6.203125 44.265625 
C 6.90625 49.25 7.796875 53.046875 8.90625 56.234375 
C 11.5 63.515625 16.296875 67.3125 23.09375 67.3125 
C 26.40625 67.3125 27.796875 66.203125 27.796875 63.71875 
L 27.796875 12.28125 
L 27.796875 9.375 
C 27.796875 5.1875 26.90625 4.6875 18.796875 4.6875 
L 16.203125 4.6875 
L 16.203125 0 
L 50.5 0 
L 50.5 4.6875 
L 47.90625 4.6875 
C 39.90625 4.6875 39 5.1875 39 9.375 
L 39 12.28125 
L 39 63.71875 
C 39 66.203125 40.40625 67.3125 43.703125 67.3125 
C 49.796875 67.3125 54.703125 63.90625 57.203125 57.921875 
C 58.703125 54.25 59.703125 49.953125 60.5 44.265625 
L 64.796875 44.265625 
z
" id="Century_Schoolbook_L_Roman-84"/>
      <path d="M 5.40625 -12.28125 
C 11.40625 -8.578125 14.59375 -5.984375 18 -1.890625 
C 25.59375 6.984375 29.703125 18.5625 29.703125 30.640625 
C 29.703125 42.015625 26.09375 52.703125 19.40625 61.484375 
C 15.59375 66.375 12.203125 69.359375 5.40625 73.453125 
L 5.40625 69.765625 
C 15.40625 60.984375 19.40625 49.796875 19.40625 30.640625 
C 19.40625 11.375 15.40625 0.203125 5.40625 -8.578125 
z
" id="Century_Schoolbook_L_Roman-41"/>
      <path d="M 27.90625 73.453125 
C 21.90625 69.765625 18.703125 67.171875 15.296875 63.171875 
C 7.703125 54.1875 3.59375 42.71875 3.59375 30.640625 
C 3.59375 19.265625 7.203125 8.578125 13.90625 -0.296875 
C 17.703125 -5.09375 21.09375 -8.078125 27.90625 -12.28125 
L 27.90625 -8.578125 
C 17.90625 0.203125 13.90625 11.484375 13.90625 30.640625 
C 13.90625 49.796875 17.90625 60.984375 27.90625 69.765625 
z
" id="Century_Schoolbook_L_Roman-40"/>
     </defs>
     <g transform="translate(261.32556429 427.819096479)scale(0.18 -0.18)">
      <use transform="scale(0.996264009963)" xlink:href="#Century_Schoolbook_L_Roman-84"/>
      <use transform="translate(66.4500311333 0.0)scale(0.996264009963)" xlink:href="#Century_Schoolbook_L_Roman-105"/>
      <use transform="translate(97.8313441294 0.0)scale(0.996264009963)" xlink:href="#Century_Schoolbook_L_Roman-109"/>
      <use transform="translate(186.398250822 0.0)scale(0.996264009963)" xlink:href="#Century_Schoolbook_L_Roman-101"/>
      <use transform="translate(263.906620923 0.0)scale(0.996264009963)" xlink:href="#Century_Schoolbook_L_Roman-40"/>
      <use transform="translate(297.081850653 0.0)scale(0.996264009963)" xlink:href="#Century_Schoolbook_L_Roman-115"/>
      <use transform="translate(343.207661212 0.0)scale(0.996264009963)" xlink:href="#Century_Schoolbook_L_Roman-41"/>
     </g>
    </g>
   </g>
   <g id="matplotlib.axis_2">
    <g id="ytick_1">
     <g id="line2d_13">
      <defs>
       <path d="M 0 0 
L 4 0 
" id="m41ce188e84" style="stroke:#000000;stroke-width:0.5;"/>
      </defs>
      <g>
       <use style="stroke:#000000;stroke-width:0.5;" x="72.0" xlink:href="#m41ce188e84" y="388.8"/>
      </g>
     </g>
     <g id="line2d_14">
      <defs>
       <path d="M 0 0 
L -4 0 
" id="mc2cf01bdd9" style="stroke:#000000;stroke-width:0.5;"/>
      </defs>
      <g>
       <use style="stroke:#000000;stroke-width:0.5;" x="518.4" xlink:href="#mc2cf01bdd9" y="388.8"/>
      </g>
     </g>
     <g id="text_7">
      <!-- 0 -->
      <g transform="translate(58.0295005789 393.749403908)scale(0.18 -0.18)">
       <use transform="scale(0.996264009963)" xlink:href="#Century_Schoolbook_L_Roman-48"/>
      </g>
     </g>
    </g>
    <g id="ytick_2">
     <g id="line2d_15">
      <g>
       <use style="stroke:#000000;stroke-width:0.5;" x="72.0" xlink:href="#m41ce188e84" y="339.428571429"/>
      </g>
     </g>
     <g id="line2d_16">
      <g>
       <use style="stroke:#000000;stroke-width:0.5;" x="518.4" xlink:href="#mc2cf01bdd9" y="339.428571429"/>
      </g>
     </g>
     <g id="text_8">
      <!-- 5 -->
      <g transform="translate(58.0295005789 344.377975336)scale(0.18 -0.18)">
       <use transform="scale(0.996264009963)" xlink:href="#Century_Schoolbook_L_Roman-53"/>
      </g>
     </g>
    </g>
    <g id="ytick_3">
     <g id="line2d_17">
      <g>
       <use style="stroke:#000000;stroke-width:0.5;" x="72.0" xlink:href="#m41ce188e84" y="290.057142857"/>
      </g>
     </g>
     <g id="line2d_18">
      <g>
       <use style="stroke:#000000;stroke-width:0.5;" x="518.4" xlink:href="#mc2cf01bdd9" y="290.057142857"/>
      </g>
     </g>
     <g id="text_9">
      <!-- 10 -->
      <g transform="translate(48.0590011578 295.006546765)scale(0.18 -0.18)">
       <use transform="scale(0.996264009963)" xlink:href="#Century_Schoolbook_L_Roman-49"/>
       <use transform="translate(55.3916769633 0.0)scale(0.996264009963)" xlink:href="#Century_Schoolbook_L_Roman-48"/>
      </g>
     </g>
    </g>
    <g id="ytick_4">
     <g id="line2d_19">
      <g>
       <use style="stroke:#000000;stroke-width:0.5;" x="72.0" xlink:href="#m41ce188e84" y="240.685714286"/>
      </g>
     </g>
     <g id="line2d_20">
      <g>
       <use style="stroke:#000000;stroke-width:0.5;" x="518.4" xlink:href="#mc2cf01bdd9" y="240.685714286"/>
      </g>
     </g>
     <g id="text_10">
      <!-- 15 -->
      <g transform="translate(48.0590011578 245.635118193)scale(0.18 -0.18)">
       <use transform="scale(0.996264009963)" xlink:href="#Century_Schoolbook_L_Roman-49"/>
       <use transform="translate(55.3916769633 0.0)scale(0.996264009963)" xlink:href="#Century_Schoolbook_L_Roman-53"/>
      </g>
     </g>
    </g>
    <g id="ytick_5">
     <g id="line2d_21">
      <g>
       <use style="stroke:#000000;stroke-width:0.5;" x="72.0" xlink:href="#m41ce188e84" y="191.314285714"/>
      </g>
     </g>
     <g id="line2d_22">
      <g>
       <use style="stroke:#000000;stroke-width:0.5;" x="518.4" xlink:href="#mc2cf01bdd9" y="191.314285714"/>
      </g>
     </g>
     <g id="text_11">
      <!-- 20 -->
      <g transform="translate(48.0590011578 196.263689622)scale(0.18 -0.18)">
       <use transform="scale(0.996264009963)" xlink:href="#Century_Schoolbook_L_Roman-50"/>
       <use transform="translate(55.3916769633 0.0)scale(0.996264009963)" xlink:href="#Century_Schoolbook_L_Roman-48"/>
      </g>
     </g>
    </g>
    <g id="ytick_6">
     <g id="line2d_23">
      <g>
       <use style="stroke:#000000;stroke-width:0.5;" x="72.0" xlink:href="#m41ce188e84" y="141.942857143"/>
      </g>
     </g>
     <g id="line2d_24">
      <g>
       <use style="stroke:#000000;stroke-width:0.5;" x="518.4" xlink:href="#mc2cf01bdd9" y="141.942857143"/>
      </g>
     </g>
     <g id="text_12">
      <!-- 25 -->
      <g transform="translate(48.0590011578 146.892261051)scale(0.18 -0.18)">
       <use transform="scale(0.996264009963)" xlink:href="#Century_Schoolbook_L_Roman-50"/>
       <use transform="translate(55.3916769633 0.0)scale(0.996264009963)" xlink:href="#Century_Schoolbook_L_Roman-53"/>
      </g>
     </g>
    </g>
    <g id="ytick_7">
     <g id="line2d_25">
      <g>
       <use style="stroke:#000000;stroke-width:0.5;" x="72.0" xlink:href="#m41ce188e84" y="92.5714285714"/>
      </g>
     </g>
     <g id="line2d_26">
      <g>
       <use style="stroke:#000000;stroke-width:0.5;" x="518.4" xlink:href="#mc2cf01bdd9" y="92.5714285714"/>
      </g>
     </g>
     <g id="text_13">
      <!-- 30 -->
      <defs>
       <path d="M 34.59375 37.359375 
C 36 37.859375 36.203125 37.859375 36.90625 38.15625 
C 43.90625 41.0625 47.90625 46.671875 47.90625 53.765625 
C 47.90625 64.1875 39.90625 71 27.5 71 
C 15.796875 71 6.90625 63.96875 6.90625 54.71875 
C 6.90625 50.546875 9.703125 47.59375 13.5 47.59375 
C 17 47.59375 19.40625 50.046875 19.40625 53.71875 
C 19.40625 55.875 18.59375 57.296875 16.296875 58.9375 
C 15.296875 59.640625 15 60.15625 15 60.78125 
C 15 63.640625 20.90625 66.703125 26.5 66.703125 
C 33.703125 66.703125 37.5 62.125 37.5 53.46875 
C 37.5 43.984375 33.703125 39 26.5 39 
C 25.59375 39 24 39 22.5 39 
C 21.703125 39 20.90625 39 20.296875 39 
C 18.203125 39 17.09375 38.125 17.09375 36.40625 
C 17.09375 34.78125 18.203125 34.015625 20.203125 34.015625 
C 20.5 34.015625 21.296875 34.015625 22.59375 34.015625 
C 26.40625 34.015625 26.5 34.015625 27.296875 34.015625 
C 34.703125 34.015625 38.703125 28.828125 38.703125 19.140625 
C 38.703125 9.0625 33.59375 3.296875 24.703125 3.296875 
C 18.40625 3.296875 11.59375 6.640625 11.59375 9.6875 
C 11.59375 10.59375 11.796875 10.765625 13.796875 11.875 
C 16.59375 13.53125 17.703125 15.21875 17.703125 17.65625 
C 17.703125 21.203125 15 23.875 11.296875 23.875 
C 7.09375 23.875 4.203125 20.328125 4.203125 15.1875 
C 4.203125 5.609375 13.09375 -1 25.90625 -1 
C 40.296875 -1 49.796875 7.015625 49.796875 19.328125 
C 49.796875 28.734375 44.90625 34.4375 34.59375 37.359375 
" id="Century_Schoolbook_L_Roman-51"/>
      </defs>
      <g transform="translate(48.0590011578 97.5208324791)scale(0.18 -0.18)">
       <use transform="scale(0.996264009963)" xlink:href="#Century_Schoolbook_L_Roman-51"/>
       <use transform="translate(55.3916769633 0.0)scale(0.996264009963)" xlink:href="#Century_Schoolbook_L_Roman-48"/>
      </g>
     </g>
    </g>
    <g id="ytick_8">
     <g id="line2d_27">
      <g>
       <use style="stroke:#000000;stroke-width:0.5;" x="72.0" xlink:href="#m41ce188e84" y="43.2"/>
      </g>
     </g>
     <g id="line2d_28">
      <g>
       <use style="stroke:#000000;stroke-width:0.5;" x="518.4" xlink:href="#mc2cf01bdd9" y="43.2"/>
      </g>
     </g>
     <g id="text_14">
      <!-- 35 -->
      <g transform="translate(48.0590011578 48.1494039077)scale(0.18 -0.18)">
       <use transform="scale(0.996264009963)" xlink:href="#Century_Schoolbook_L_Roman-51"/>
       <use transform="translate(55.3916769633 0.0)scale(0.996264009963)" xlink:href="#Century_Schoolbook_L_Roman-53"/>
      </g>
     </g>
    </g>
    <g id="text_15">
     <!-- Cluster size -->
     <defs>
      <path d="M 19.40625 47 
L 19.40625 67 
L 15.296875 67 
C 14.296875 53.875 9.90625 47.1875 1.796875 46.59375 
L 1.796875 42.703125 
L 10 42.703125 
L 10 17.265625 
C 10 10.28125 10.203125 7.78125 11.203125 5.484375 
C 12.796875 1.296875 16.796875 -1 22.59375 -1 
C 26.5 -1 29.90625 0.203125 32.203125 2.390625 
C 35.5 5.59375 37.40625 10.875 37.40625 16.375 
C 37.40625 16.96875 37.40625 17.671875 37.296875 18.671875 
L 33.09375 18.671875 
C 32.796875 9.6875 30.203125 5.09375 25.296875 5.09375 
C 23 5.09375 21 6.28125 20.296875 7.984375 
C 19.703125 9.375 19.40625 11.875 19.40625 15.46875 
L 19.40625 42.703125 
L 34.09375 42.703125 
L 34.09375 47 
z
" id="Century_Schoolbook_L_Roman-116"/>
      <path d="M 41.203125 0 
L 59.40625 0 
L 59.40625 4.703125 
L 56.90625 4.703125 
C 51.40625 4.703125 50.59375 5.59375 50.59375 11.953125 
L 50.59375 46.78125 
L 31.796875 46.78125 
L 31.796875 42 
L 36.90625 42 
C 40.59375 42 41.203125 41.296875 41.203125 36.953125 
L 41.203125 24.5625 
C 41.203125 18.8125 40.59375 15.484375 39.09375 12.15625 
C 37 7.71875 33 5.09375 28.09375 5.09375 
C 25 5.09375 22.40625 6.1875 21.09375 8.171875 
C 19.796875 10.046875 19.59375 11.046875 19.59375 16.5 
L 19.59375 46.78125 
L 2.09375 46.78125 
L 2.09375 42 
L 5.90625 42 
C 9.59375 42 10.203125 41.296875 10.203125 36.953125 
L 10.203125 15.21875 
C 10.203125 10.078125 10.59375 7.765625 12.09375 5.453125 
C 14.796875 1.3125 19.59375 -1 25.59375 -1 
C 32.203125 -1 36.796875 1.71875 41.203125 8.125 
z
" id="Century_Schoolbook_L_Roman-117"/>
      <path d="M 19.796875 46 
L 2.09375 46 
L 2.09375 41.21875 
L 6.203125 41.21875 
C 9.90625 41.21875 10.5 40.515625 10.5 36.203125 
L 10.5 12.296875 
L 10.5 8.296875 
C 10.5 4.296875 9.40625 3.59375 2.90625 3.59375 
L 2.5 3.59375 
L 2.5 0 
L 29.203125 0 
L 29.203125 3.59375 
L 27.296875 3.59375 
C 20.90625 3.59375 19.796875 4.296875 19.796875 8.296875 
L 19.796875 12.296875 
L 19.796875 13.296875 
C 19.796875 20.8125 21.203125 28.40625 23.703125 34.109375 
C 26.09375 39.703125 29.5 42.8125 33.703125 43.3125 
C 32.296875 41.703125 31.90625 40.6875 31.90625 38.765625 
C 31.90625 35.546875 34.203125 33.234375 37.40625 33.234375 
C 41 33.234375 43.5 35.9375 43.5 40.015625 
C 43.5 44.8125 40.09375 48 34.796875 48 
C 28.5 48 23 42.921875 19.796875 34.140625 
z
" id="Century_Schoolbook_L_Roman-114"/>
      <path d="M 20.40625 73 
L 1.90625 73 
L 1.90625 68.21875 
L 6.796875 68.21875 
C 10.40625 68.21875 11 67.515625 11 63.21875 
L 11 12.28125 
L 11 8.28125 
C 11 4.296875 9.90625 3.59375 3.5 3.59375 
L 2.796875 3.59375 
L 2.796875 0 
L 28.703125 0 
L 28.703125 3.59375 
L 28 3.59375 
C 21.5 3.59375 20.40625 4.296875 20.40625 8.25 
L 20.40625 12.21875 
z
" id="Century_Schoolbook_L_Roman-108"/>
      <path d="M 42.796875 46.296875 
L 6.703125 46.296875 
L 5.796875 29.5 
L 9.796875 29.5 
C 10.703125 38.421875 14.296875 42 22.5 42 
L 31.203125 42 
L 3.90625 3.59375 
L 3.90625 0 
L 42.796875 0 
L 43.5 17.78125 
L 39.5 17.78125 
C 38.5 7.96875 34.703125 4.296875 25.703125 4.296875 
L 15.5 4.296875 
L 42.796875 42.703125 
z
" id="Century_Schoolbook_L_Roman-122"/>
      <path d="M 63.90625 72 
L 60.09375 72 
L 56.09375 66.015625 
C 49 71.203125 45.09375 72.703125 38.40625 72.703125 
C 28.703125 72.703125 20.703125 68.8125 13.90625 60.78125 
C 7.5 53.234375 4.5 44.890625 4.5 34.65625 
C 4.5 13.296875 18.59375 -2 38.296875 -2 
C 54.296875 -2 64.5 7.34375 66.796875 24.015625 
L 62.09375 24.8125 
C 61.09375 19.546875 59.90625 15.984375 58.09375 13.015625 
C 54 6.171875 47.59375 2.6875 39.5 2.6875 
C 24.703125 2.6875 17.703125 12.90625 17.703125 34.265625 
C 17.703125 45.46875 19.203125 53.015625 22.59375 58.96875 
C 25.703125 64.53125 31.90625 68 38.296875 68 
C 45.296875 68 51.5 64.328125 55.296875 57.96875 
C 57.203125 54.6875 58.703125 50.8125 61 43.171875 
L 65.40625 43.171875 
z
" id="Century_Schoolbook_L_Roman-67"/>
     </defs>
     <g transform="translate(39.651840875 265.143957231)rotate(-90.0)scale(0.18 -0.18)">
      <use transform="scale(0.996264009963)" xlink:href="#Century_Schoolbook_L_Roman-67"/>
      <use transform="translate(71.9299848469 0.0)scale(0.996264009963)" xlink:href="#Century_Schoolbook_L_Roman-108"/>
      <use transform="translate(103.311297843 0.0)scale(0.996264009963)" xlink:href="#Century_Schoolbook_L_Roman-117"/>
      <use transform="translate(164.18292852 0.0)scale(0.996264009963)" xlink:href="#Century_Schoolbook_L_Roman-115"/>
      <use transform="translate(210.308739079 0.0)scale(0.996264009963)" xlink:href="#Century_Schoolbook_L_Roman-116"/>
      <use transform="translate(249.062445274 0.0)scale(0.996264009963)" xlink:href="#Century_Schoolbook_L_Roman-101"/>
      <use transform="translate(298.875645772 0.0)scale(0.996264009963)" xlink:href="#Century_Schoolbook_L_Roman-114"/>
      <use transform="translate(370.804384072 0.0)scale(0.996264009963)" xlink:href="#Century_Schoolbook_L_Roman-115"/>
      <use transform="translate(416.930194631 0.0)scale(0.996264009963)" xlink:href="#Century_Schoolbook_L_Roman-105"/>
      <use transform="translate(448.311507628 0.0)scale(0.996264009963)" xlink:href="#Century_Schoolbook_L_Roman-122"/>
      <use transform="translate(496.231219718 0.0)scale(0.996264009963)" xlink:href="#Century_Schoolbook_L_Roman-101"/>
     </g>
    </g>
   </g>
   <g id="legend_1">
    <g id="patch_7">
     <path d="M 311.092049 109.026257 
L 509.4 109.026257 
L 509.4 52.2 
L 311.092049 52.2 
z
" style="fill:#ffffff;stroke:#000000;stroke-linejoin:miter;"/>
    </g>
    <g id="line2d_29">
     <path d="M 323.692049 66.405968 
L 348.892049 66.405968 
" style="fill:none;opacity:0.8;stroke:#ff0000;stroke-linecap:square;"/>
    </g>
    <g id="line2d_30"/>
    <g id="text_16">
     <!-- FCD file -->
     <defs>
      <path d="M 62.40625 72 
L 2.90625 72 
L 2.90625 67.3125 
L 4.703125 67.3125 
C 12.796875 67.3125 13.703125 66.8125 13.703125 62.609375 
L 13.703125 59.734375 
L 13.703125 12.28125 
L 13.703125 9.375 
C 13.703125 5.1875 12.796875 4.6875 4.703125 4.6875 
L 2.90625 4.6875 
L 2.90625 0 
L 37.203125 0 
L 37.203125 4.6875 
L 33.90625 4.6875 
C 25.796875 4.6875 24.90625 5.1875 24.90625 9.390625 
L 24.90625 12.296875 
L 24.90625 35 
L 26.90625 35 
C 33.09375 35 35.5 34.375 37.59375 32.234375 
C 40.09375 29.578125 41.09375 26.296875 41.296875 20.265625 
L 46 20.265625 
L 46 53 
L 41.296875 53 
C 40.796875 43.46875 36.796875 39.6875 27.296875 39.6875 
L 24.90625 39.6875 
L 24.90625 62.328125 
C 24.90625 66.609375 25.796875 67.3125 31.203125 67.3125 
L 35.796875 67.3125 
C 52.296875 67.3125 56.59375 63.5 59.40625 46.390625 
L 63.796875 46.390625 
z
" id="Century_Schoolbook_L_Roman-70"/>
      <path d="M 11.09375 46.296875 
L 1.59375 46.296875 
L 1.59375 42 
L 11.09375 42 
L 11.09375 12.234375 
L 11.09375 8.25 
C 11.09375 4.296875 10 3.59375 3.5 3.59375 
L 3.09375 3.59375 
L 3.09375 0 
L 28.40625 0 
L 28.40625 3.59375 
L 28 3.59375 
C 21.59375 3.59375 20.5 4.296875 20.5 8.15625 
L 20.5 12.234375 
L 20.5 42 
L 37.203125 42 
C 41.203125 42 41.5 41.59375 41.5 35.15625 
L 41.5 12.234375 
L 41.5 8.25 
C 41.5 4.296875 40.40625 3.59375 33.90625 3.59375 
L 33.5 3.59375 
L 33.5 0 
L 58.796875 0 
L 58.796875 3.59375 
L 58.40625 3.59375 
C 52 3.59375 50.90625 4.28125 50.90625 8.125 
L 50.90625 12.15625 
L 50.90625 46.59375 
C 43.703125 46.59375 40.40625 46.59375 35.59375 46.59375 
L 20.5 46.59375 
L 20.5 48.640625 
C 20.5 55.75 21.59375 60.53125 24.09375 63.75 
C 26.703125 67.265625 30.40625 69.015625 35.09375 69.015625 
C 38.203125 69.015625 39.796875 68.515625 39.796875 67.4375 
C 39.796875 67.03125 39.796875 66.9375 39.203125 66.140625 
C 38.5 65.265625 38.09375 63.78125 38.09375 62.59375 
C 38.09375 59.71875 40.796875 57.453125 44.296875 57.453125 
C 48.09375 57.453125 50.59375 59.84375 50.59375 63.40625 
C 50.59375 69.234375 44.90625 73 35.796875 73 
C 28.09375 73 22.203125 70.828125 17.5 66.171875 
C 12.90625 61.71875 11.09375 56.28125 11.09375 47.1875 
z
" id="Century_Schoolbook_L_Roman-2"/>
      <path d="M 13.703125 12.28125 
L 13.703125 9.375 
C 13.703125 5.1875 12.796875 4.6875 4.796875 4.6875 
L 2.90625 4.6875 
L 2.90625 0 
L 36.5 0 
C 45.40625 0 52.203125 1.390625 57.5 4.390625 
C 67.59375 10.0625 73.203125 21.4375 73.203125 36.390625 
C 73.203125 50.0625 68.203125 60.9375 59 66.90625 
C 53.5 70.40625 46.09375 72 34.703125 72 
L 2.90625 72 
L 2.90625 67.3125 
L 4.796875 67.3125 
C 12.796875 67.3125 13.703125 66.8125 13.703125 62.609375 
L 13.703125 59.734375 
z
M 30.59375 4.6875 
C 25.59375 4.6875 24.90625 5.296875 24.90625 10.1875 
L 24.90625 61.71875 
C 24.90625 66.609375 25.59375 67.3125 30.59375 67.3125 
L 35.796875 67.3125 
C 52.90625 67.3125 60 58.046875 60 36 
C 60 13.65625 53.5 4.6875 37.40625 4.6875 
z
" id="Century_Schoolbook_L_Roman-68"/>
     </defs>
     <g transform="translate(368.69204886 72.7059680981)scale(0.18 -0.18)">
      <use transform="scale(0.996264009963)" xlink:href="#Century_Schoolbook_L_Roman-70"/>
      <use transform="translate(66.4500311333 0.0)scale(0.996264009963)" xlink:href="#Century_Schoolbook_L_Roman-67"/>
      <use transform="translate(138.38001598 0.0)scale(0.996264009963)" xlink:href="#Century_Schoolbook_L_Roman-68"/>
      <use transform="translate(243.583555685 0.0)scale(0.996264009963)" xlink:href="#Century_Schoolbook_L_Roman-2"/>
      <use transform="translate(304.455186362 0.0)scale(0.996264009963)" xlink:href="#Century_Schoolbook_L_Roman-108"/>
      <use transform="translate(335.836499358 0.0)scale(0.996264009963)" xlink:href="#Century_Schoolbook_L_Roman-101"/>
     </g>
    </g>
    <g id="line2d_31">
     <path d="M 323.692049 92.119096 
L 348.892049 92.119096 
" style="fill:none;opacity:0.8;stroke:#0000ff;stroke-linecap:square;"/>
    </g>
    <g id="line2d_32"/>
    <g id="text_17">
     <!-- Implementation -->
     <defs>
      <path d="M 26 59.734375 
L 26 62.609375 
C 26 66.8125 26.90625 67.3125 34.90625 67.3125 
L 36.90625 67.3125 
L 36.90625 72 
L 3.796875 72 
L 3.796875 67.3125 
L 5.796875 67.3125 
C 13.90625 67.3125 14.796875 66.8125 14.796875 62.609375 
L 14.796875 59.734375 
L 14.796875 12.28125 
L 14.796875 9.375 
C 14.796875 5.1875 13.90625 4.6875 5.796875 4.6875 
L 3.796875 4.6875 
L 3.796875 0 
L 36.90625 0 
L 36.90625 4.6875 
L 34.90625 4.6875 
C 26.90625 4.6875 26 5.1875 26 9.375 
L 26 12.28125 
z
" id="Century_Schoolbook_L_Roman-73"/>
      <path d="M 45.203125 32.578125 
C 45.203125 38.796875 44.09375 41.96875 41.203125 44.34375 
C 37.90625 46.90625 33 48.28125 26.59375 48.28125 
C 15.40625 48.28125 7.09375 43.046875 7.09375 35.921875 
C 7.09375 32.15625 9.40625 29.78125 12.90625 29.78125 
C 16 29.78125 18.296875 31.859375 18.296875 34.8125 
C 18.296875 36.109375 17.796875 37.484375 16.796875 38.875 
C 16.203125 39.546875 16.09375 39.84375 16.09375 40.15625 
C 16.09375 42.21875 20.203125 44 25 44 
C 28.09375 44 31.59375 43.015625 33.203125 41.53125 
C 35.09375 39.953125 35.796875 37.578125 35.796875 33.125 
L 35.796875 29.28125 
C 25.296875 27.484375 22.09375 26.6875 17.203125 24.8125 
C 8.59375 21.609375 4.40625 16.9375 4.40625 10.65625 
C 4.40625 3.578125 10.09375 -1 18.90625 -1 
C 25.796875 -1 32 1.859375 36.296875 7.0625 
C 37.90625 1.984375 40.40625 0 45.09375 0 
C 49.59375 0 54.296875 2.890625 54.296875 5.78125 
C 54.296875 6.46875 53.796875 6.96875 53.296875 6.96875 
C 52.90625 6.96875 52.5 6.875 51.796875 6.578125 
C 50.203125 6 49.796875 5.890625 49 5.890625 
C 46.203125 5.890625 45.203125 7.78125 45.203125 12.71875 
z
M 35.796875 20.46875 
C 35.796875 14.46875 35.5 13.078125 33.796875 10.484375 
C 31.296875 6.78125 26.703125 4.296875 22.40625 4.296875 
C 17.90625 4.296875 14.5 7.59375 14.5 12.078125 
C 14.5 16.265625 16.59375 19.265625 21 21.359375 
C 24.09375 22.75 28 23.75 35.796875 25.046875 
z
" id="Century_Schoolbook_L_Roman-97"/>
      <path d="M 20.09375 46 
L 2.796875 46 
L 2.796875 41.21875 
L 6.40625 41.21875 
C 10.09375 41.21875 10.703125 40.515625 10.703125 36.21875 
L 10.703125 -7.75 
L 10.703125 -11.71875 
C 10.703125 -15.71875 9.59375 -16.40625 3.203125 -16.40625 
L 2.796875 -16.40625 
L 2.796875 -20 
L 28.796875 -20 
L 28.796875 -16.40625 
L 27.703125 -16.40625 
C 21.203125 -16.40625 20.09375 -15.71875 20.09375 -11.734375 
L 20.09375 -7.75 
L 20.09375 6.6875 
C 23.40625 0.90625 27.203125 -1.390625 33.296875 -1.390625 
C 44.90625 -1.390625 53.5 9.265625 53.5 23.5 
C 53.5 37.265625 44.90625 48 33.90625 48 
C 27.703125 48 23.59375 45.4375 20.09375 39.515625 
z
M 32.09375 42.609375 
C 39 42.609375 43 35.75 43 24.09375 
C 43 11.265625 38.90625 4 31.796875 4 
C 24.703125 4 20 11.375 20 22.8125 
C 20 35.140625 24.5 42.609375 32.09375 42.609375 
" id="Century_Schoolbook_L_Roman-112"/>
      <path d="M 20 46 
L 2.703125 46 
L 2.703125 41.21875 
L 6.296875 41.21875 
C 10 41.21875 10.59375 40.515625 10.59375 36.203125 
L 10.59375 12.296875 
L 10.59375 8.296875 
C 10.59375 4.296875 9.5 3.59375 3.09375 3.59375 
L 2.703125 3.59375 
L 2.703125 0 
L 28 0 
L 28 3.59375 
L 27.59375 3.59375 
C 21.09375 3.59375 20 4.296875 20 8.28125 
L 20 12.28125 
L 20 22.65625 
C 20 27.546875 20.703125 32.03125 21.796875 34.328125 
C 23.90625 38.828125 28.40625 41.921875 32.703125 41.921875 
C 35.296875 41.921875 38.296875 40.421875 39.796875 38.421875 
C 41.296875 36.328125 42 33.234375 42 28.4375 
L 42 12.28125 
L 42 8.28125 
C 42 4.296875 40.90625 3.59375 34.40625 3.59375 
L 34 3.59375 
L 34 0 
L 59.296875 0 
L 59.296875 3.59375 
L 58.90625 3.59375 
C 52.5 3.59375 51.40625 4.296875 51.40625 8.28125 
L 51.40625 12.28125 
L 51.40625 27.953125 
C 51.40625 35.125 51.09375 36.921875 49.296875 40.328125 
C 46.796875 45.109375 41.703125 48 35.796875 48 
C 29.40625 48 24.40625 45.046875 20 38.515625 
z
" id="Century_Schoolbook_L_Roman-110"/>
      <path d="M 25.203125 48.28125 
C 13 48.28125 3.40625 37.453125 3.40625 23.546875 
C 3.40625 9.9375 13 -1 25 -1 
C 37 -1 46.59375 9.9375 46.59375 23.640625 
C 46.59375 37.25 37 48.28125 25.203125 48.28125 
M 25.203125 44 
C 32.203125 44 36.09375 36.75 36.09375 23.640625 
C 36.09375 10.453125 32.203125 3.296875 25 3.296875 
C 17.796875 3.296875 13.90625 10.453125 13.90625 23.546875 
C 13.90625 37.046875 17.703125 44 25.203125 44 
" id="Century_Schoolbook_L_Roman-111"/>
     </defs>
     <g transform="translate(368.69204886 98.419096479)scale(0.18 -0.18)">
      <use transform="scale(0.996264009963)" xlink:href="#Century_Schoolbook_L_Roman-73"/>
      <use transform="translate(40.5474253045 0.0)scale(0.996264009963)" xlink:href="#Century_Schoolbook_L_Roman-109"/>
      <use transform="translate(129.114331997 0.0)scale(0.996264009963)" xlink:href="#Century_Schoolbook_L_Roman-112"/>
      <use transform="translate(186.299819281 0.0)scale(0.996264009963)" xlink:href="#Century_Schoolbook_L_Roman-108"/>
      <use transform="translate(217.681132277 0.0)scale(0.996264009963)" xlink:href="#Century_Schoolbook_L_Roman-101"/>
      <use transform="translate(267.494332776 0.0)scale(0.996264009963)" xlink:href="#Century_Schoolbook_L_Roman-109"/>
      <use transform="translate(356.061239468 0.0)scale(0.996264009963)" xlink:href="#Century_Schoolbook_L_Roman-101"/>
      <use transform="translate(405.874439966 0.0)scale(0.996264009963)" xlink:href="#Century_Schoolbook_L_Roman-110"/>
      <use transform="translate(466.746070643 0.0)scale(0.996264009963)" xlink:href="#Century_Schoolbook_L_Roman-116"/>
      <use transform="translate(505.499776838 0.0)scale(0.996264009963)" xlink:href="#Century_Schoolbook_L_Roman-97"/>
      <use transform="translate(560.891453801 0.0)scale(0.996264009963)" xlink:href="#Century_Schoolbook_L_Roman-116"/>
      <use transform="translate(599.645159996 0.0)scale(0.996264009963)" xlink:href="#Century_Schoolbook_L_Roman-105"/>
      <use transform="translate(631.026472992 0.0)scale(0.996264009963)" xlink:href="#Century_Schoolbook_L_Roman-111"/>
      <use transform="translate(680.83967349 0.0)scale(0.996264009963)" xlink:href="#Century_Schoolbook_L_Roman-110"/>
     </g>
    </g>
   </g>
  </g>
 </g>
 <defs>
  <clipPath id="p218a96e755">
   <rect height="345.6" width="446.4" x="72.0" y="43.2"/>
  </clipPath>
 </defs>
</svg>
