<?xml version="1.0" encoding="utf-8" standalone="no"?>
<!DOCTYPE svg PUBLIC "-//W3C//DTD SVG 1.1//EN"
  "http://www.w3.org/Graphics/SVG/1.1/DTD/svg11.dtd">
<!-- Created with matplotlib (http://matplotlib.org/) -->
<svg height="432pt" version="1.1" viewBox="0 0 576 432" width="576pt" xmlns="http://www.w3.org/2000/svg" xmlns:xlink="http://www.w3.org/1999/xlink">
 <defs>
  <style type="text/css">
*{stroke-linecap:butt;stroke-linejoin:round;stroke-miterlimit:100000;}
  </style>
 </defs>
 <g id="figure_1">
  <g id="patch_1">
   <path d="M 0 432 
L 576 432 
L 576 0 
L 0 0 
z
" style="fill:#ffffff;"/>
  </g>
  <g id="axes_1">
   <g id="patch_2">
    <path d="M 72 388.8 
L 518.4 388.8 
L 518.4 43.2 
L 72 43.2 
z
" style="fill:#ffffff;"/>
   </g>
   <g id="line2d_1">
    <path clip-path="url(#p61737a49fd)" d="M 72.2232 388.8 
L 86.0616 388.8 
L 86.2848 378.925714 
L 86.9544 378.925714 
L 87.1776 369.051429 
L 87.624 369.051429 
L 87.8472 359.177143 
L 88.74 359.177143 
L 88.9632 349.302857 
L 89.1864 349.302857 
L 89.4096 359.177143 
L 89.856 339.428571 
L 90.3024 339.428571 
L 90.5256 349.302857 
L 90.7488 349.302857 
L 90.972 359.177143 
L 91.4184 339.428571 
L 91.8648 339.428571 
L 92.088 329.554286 
L 93.204 329.554286 
L 93.4272 319.68 
L 93.6504 319.68 
L 93.8736 309.805714 
L 94.0968 309.805714 
L 94.32 319.68 
L 94.7664 319.68 
L 95.2128 299.931429 
L 95.6592 299.931429 
L 95.8824 290.057143 
L 96.7752 290.057143 
L 96.9984 299.931429 
L 97.2216 299.931429 
L 97.4448 309.805714 
L 97.668 309.805714 
L 97.8912 299.931429 
L 98.1144 280.182857 
L 98.3376 290.057143 
L 98.784 290.057143 
L 99.0072 280.182857 
L 99.2304 280.182857 
L 99.4536 270.308571 
L 100.5696 270.308571 
L 100.7928 280.182857 
L 101.2392 280.182857 
L 101.4624 260.434286 
L 102.8016 260.434286 
L 103.4712 230.811429 
L 104.1408 230.811429 
L 104.364 240.685714 
L 104.5872 240.685714 
L 104.8104 250.56 
L 105.0336 250.56 
L 105.2568 260.434286 
L 105.48 260.434286 
L 105.7032 250.56 
L 105.9264 250.56 
L 106.3728 230.811429 
L 106.8192 250.56 
L 107.0424 250.56 
L 107.2656 260.434286 
L 107.4888 280.182857 
L 107.712 250.56 
L 107.9352 260.434286 
L 108.3816 240.685714 
L 109.0512 240.685714 
L 109.2744 230.811429 
L 109.7208 230.811429 
L 109.944 250.56 
L 110.1672 250.56 
L 110.3904 240.685714 
L 110.6136 220.937143 
L 110.8368 220.937143 
L 111.06 230.811429 
L 111.7296 201.188571 
L 111.9528 201.188571 
L 112.176 220.937143 
L 112.3992 211.062857 
L 113.292 211.062857 
L 113.5152 220.937143 
L 113.7384 211.062857 
L 113.9616 220.937143 
L 114.1848 211.062857 
L 114.6312 211.062857 
L 114.8544 201.188571 
L 115.0776 201.188571 
L 115.3008 211.062857 
L 115.7472 191.314286 
L 115.9704 191.314286 
L 116.1936 181.44 
L 116.4168 181.44 
L 116.64 191.314286 
L 116.8632 191.314286 
L 117.0864 201.188571 
L 117.5328 181.44 
L 117.756 181.44 
L 117.9792 161.691429 
L 118.4256 161.691429 
L 118.6488 171.565714 
L 118.872 171.565714 
L 119.0952 191.314286 
L 119.3184 191.314286 
L 119.5416 201.188571 
L 119.7648 201.188571 
L 119.988 181.44 
L 120.2112 181.44 
L 120.4344 191.314286 
L 120.6576 171.565714 
L 121.104 171.565714 
L 121.3272 191.314286 
L 121.5504 201.188571 
L 121.7736 191.314286 
L 121.9968 201.188571 
L 122.22 201.188571 
L 122.4432 220.937143 
L 122.6664 211.062857 
L 122.8896 220.937143 
L 123.1128 211.062857 
L 123.5592 211.062857 
L 124.0056 230.811429 
L 124.2288 220.937143 
L 124.452 220.937143 
L 124.6752 211.062857 
L 124.8984 211.062857 
L 125.1216 230.811429 
L 126.0144 191.314286 
L 126.4608 191.314286 
L 126.9072 211.062857 
L 127.1304 211.062857 
L 127.5768 191.314286 
L 127.8 191.314286 
L 128.0232 181.44 
L 128.2464 181.44 
L 128.4696 191.314286 
L 128.916 171.565714 
L 129.1392 171.565714 
L 129.3624 161.691429 
L 129.5856 161.691429 
L 129.8088 171.565714 
L 130.032 171.565714 
L 130.2552 181.44 
L 130.4784 161.691429 
L 130.7016 161.691429 
L 130.9248 151.817143 
L 131.148 151.817143 
L 131.3712 161.691429 
L 131.5944 191.314286 
L 132.4872 191.314286 
L 132.9336 211.062857 
L 133.1568 191.314286 
L 133.38 201.188571 
L 133.6032 191.314286 
L 133.8264 201.188571 
L 134.2728 201.188571 
L 134.496 220.937143 
L 134.7192 220.937143 
L 134.9424 211.062857 
L 135.612 240.685714 
L 136.0584 220.937143 
L 136.2816 220.937143 
L 136.5048 211.062857 
L 136.728 211.062857 
L 136.9512 220.937143 
L 137.3976 220.937143 
L 137.6208 211.062857 
L 138.0672 211.062857 
L 138.2904 201.188571 
L 138.7368 220.937143 
L 138.96 220.937143 
L 139.1832 240.685714 
L 139.4064 230.811429 
L 139.6296 211.062857 
L 140.5224 211.062857 
L 140.7456 201.188571 
L 140.9688 181.44 
L 141.192 181.44 
L 141.6384 201.188571 
L 141.8616 201.188571 
L 142.308 161.691429 
L 142.5312 171.565714 
L 142.7544 161.691429 
L 142.9776 171.565714 
L 143.2008 191.314286 
L 143.424 161.691429 
L 143.8704 181.44 
L 144.0936 181.44 
L 144.54 161.691429 
L 144.7632 171.565714 
L 144.9864 161.691429 
L 145.2096 171.565714 
L 146.3256 171.565714 
L 146.5488 181.44 
L 146.9952 161.691429 
L 147.2184 141.942857 
L 147.4416 141.942857 
L 147.6648 132.068571 
L 148.5576 132.068571 
L 148.7808 122.194286 
L 149.004 132.068571 
L 149.2272 112.32 
L 149.4504 112.32 
L 149.6736 92.571429 
L 149.8968 92.571429 
L 150.12 102.445714 
L 150.3432 92.571429 
L 150.5664 92.571429 
L 150.7896 102.445714 
L 151.0128 92.571429 
L 151.236 102.445714 
L 151.4592 102.445714 
L 151.6824 92.571429 
L 151.9056 112.32 
L 152.1288 122.194286 
L 152.352 122.194286 
L 152.5752 132.068571 
L 152.7984 132.068571 
L 153.0216 141.942857 
L 153.2448 141.942857 
L 153.468 132.068571 
L 153.6912 151.817143 
L 153.9144 132.068571 
L 154.1376 151.817143 
L 154.584 151.817143 
L 154.8072 141.942857 
L 155.0304 161.691429 
L 155.2536 141.942857 
L 155.4768 161.691429 
L 156.3696 161.691429 
L 157.0392 191.314286 
L 157.2624 181.44 
L 157.4856 151.817143 
L 157.932 132.068571 
L 158.3784 151.817143 
L 158.6016 132.068571 
L 158.8248 151.817143 
L 159.2712 151.817143 
L 159.4944 141.942857 
L 159.7176 151.817143 
L 160.164 151.817143 
L 160.3872 141.942857 
L 160.6104 141.942857 
L 160.8336 161.691429 
L 161.0568 161.691429 
L 161.28 171.565714 
L 161.5032 171.565714 
L 161.7264 151.817143 
L 162.1728 151.817143 
L 162.396 141.942857 
L 162.6192 122.194286 
L 162.8424 132.068571 
L 163.0656 122.194286 
L 163.2888 132.068571 
L 163.512 132.068571 
L 163.7352 151.817143 
L 163.9584 161.691429 
L 164.1816 151.817143 
L 164.628 151.817143 
L 164.8512 161.691429 
L 165.0744 151.817143 
L 165.2976 151.817143 
L 165.5208 141.942857 
L 165.744 141.942857 
L 165.9672 161.691429 
L 166.1904 151.817143 
L 166.4136 132.068571 
L 166.6368 151.817143 
L 166.86 151.817143 
L 167.0832 141.942857 
L 167.3064 141.942857 
L 167.5296 122.194286 
L 168.1992 92.571429 
L 168.8688 92.571429 
L 169.092 102.445714 
L 169.3152 92.571429 
L 170.4312 92.571429 
L 170.6544 112.32 
L 170.8776 122.194286 
L 171.324 122.194286 
L 171.5472 112.32 
L 171.7704 122.194286 
L 171.9936 122.194286 
L 172.2168 151.817143 
L 172.44 161.691429 
L 172.6632 161.691429 
L 172.8864 151.817143 
L 173.1096 151.817143 
L 173.3328 161.691429 
L 173.556 181.44 
L 173.7792 171.565714 
L 174.0024 171.565714 
L 174.2256 151.817143 
L 174.4488 171.565714 
L 174.672 171.565714 
L 174.8952 151.817143 
L 175.1184 151.817143 
L 175.5648 132.068571 
L 175.788 161.691429 
L 176.0112 141.942857 
L 176.2344 141.942857 
L 176.4576 132.068571 
L 176.6808 132.068571 
L 176.904 171.565714 
L 177.1272 161.691429 
L 177.3504 171.565714 
L 177.5736 161.691429 
L 178.02 161.691429 
L 178.4664 181.44 
L 178.6896 201.188571 
L 178.9128 201.188571 
L 179.136 191.314286 
L 179.5824 191.314286 
L 179.8056 201.188571 
L 180.252 201.188571 
L 180.4752 191.314286 
L 180.6984 201.188571 
L 180.9216 191.314286 
L 181.1448 191.314286 
L 181.368 181.44 
L 182.2608 220.937143 
L 182.484 211.062857 
L 182.9304 211.062857 
L 183.1536 230.811429 
L 183.8232 230.811429 
L 184.0464 220.937143 
L 184.4928 220.937143 
L 184.716 240.685714 
L 185.1624 240.685714 
L 185.3856 250.56 
L 185.6088 250.56 
L 185.832 270.308571 
L 186.2784 250.56 
L 186.7248 250.56 
L 186.948 270.308571 
L 187.6176 270.308571 
L 187.8408 280.182857 
L 188.064 270.308571 
L 188.2872 280.182857 
L 188.7336 280.182857 
L 188.9568 270.308571 
L 189.18 280.182857 
L 189.8496 280.182857 
L 190.0728 270.308571 
L 190.7424 270.308571 
L 190.9656 280.182857 
L 191.412 260.434286 
L 191.6352 260.434286 
L 191.8584 270.308571 
L 192.0816 270.308571 
L 192.3048 260.434286 
L 192.528 260.434286 
L 193.1976 230.811429 
L 193.4208 230.811429 
L 193.644 211.062857 
L 193.8672 201.188571 
L 194.3136 201.188571 
L 194.76 240.685714 
L 194.9832 220.937143 
L 195.4296 240.685714 
L 195.6528 230.811429 
L 195.876 230.811429 
L 196.0992 220.937143 
L 196.5456 220.937143 
L 196.992 260.434286 
L 197.2152 270.308571 
L 197.6616 250.56 
L 198.108 250.56 
L 198.3312 260.434286 
L 198.7776 260.434286 
L 199.0008 270.308571 
L 199.4472 270.308571 
L 199.6704 260.434286 
L 199.8936 270.308571 
L 200.1168 260.434286 
L 200.5632 280.182857 
L 200.7864 280.182857 
L 201.0096 290.057143 
L 201.2328 290.057143 
L 201.456 280.182857 
L 203.0184 280.182857 
L 203.4648 299.931429 
L 203.688 299.931429 
L 203.9112 309.805714 
L 204.1344 290.057143 
L 204.3576 299.931429 
L 204.5808 299.931429 
L 204.804 290.057143 
L 205.0272 299.931429 
L 205.2504 299.931429 
L 205.4736 290.057143 
L 205.6968 290.057143 
L 205.92 270.308571 
L 206.1432 280.182857 
L 206.5896 260.434286 
L 207.2592 260.434286 
L 207.4824 250.56 
L 207.7056 250.56 
L 207.9288 270.308571 
L 208.3752 270.308571 
L 208.5984 280.182857 
L 208.8216 280.182857 
L 209.0448 270.308571 
L 209.268 280.182857 
L 210.6072 280.182857 
L 210.8304 290.057143 
L 211.2768 290.057143 
L 211.7232 270.308571 
L 212.1696 270.308571 
L 212.3928 280.182857 
L 212.8392 280.182857 
L 213.0624 270.308571 
L 213.2856 270.308571 
L 213.732 290.057143 
L 214.4016 290.057143 
L 214.6248 299.931429 
L 215.0712 299.931429 
L 215.2944 290.057143 
L 216.1872 290.057143 
L 216.4104 270.308571 
L 216.8568 270.308571 
L 217.08 250.56 
L 217.3032 250.56 
L 217.7496 230.811429 
L 217.9728 240.685714 
L 218.4192 240.685714 
L 218.6424 220.937143 
L 218.8656 220.937143 
L 219.5352 250.56 
L 220.2048 220.937143 
L 220.8744 250.56 
L 221.0976 250.56 
L 221.3208 260.434286 
L 221.544 260.434286 
L 221.7672 240.685714 
L 221.9904 240.685714 
L 222.2136 250.56 
L 222.8832 250.56 
L 223.1064 260.434286 
L 223.3296 250.56 
L 223.5528 260.434286 
L 224.2224 260.434286 
L 224.4456 280.182857 
L 224.892 280.182857 
L 225.1152 270.308571 
L 225.5616 270.308571 
L 225.7848 260.434286 
L 226.2312 280.182857 
L 226.4544 280.182857 
L 226.6776 270.308571 
L 226.9008 270.308571 
L 227.124 280.182857 
L 227.3472 280.182857 
L 227.5704 270.308571 
L 228.0168 270.308571 
L 228.24 250.56 
L 228.4632 240.685714 
L 228.6864 250.56 
L 228.9096 250.56 
L 229.1328 260.434286 
L 230.2488 260.434286 
L 230.472 250.56 
L 230.6952 260.434286 
L 230.9184 250.56 
L 232.0344 250.56 
L 232.2576 240.685714 
L 232.4808 270.308571 
L 232.704 270.308571 
L 233.1504 250.56 
L 233.82 250.56 
L 234.0432 240.685714 
L 234.2664 240.685714 
L 234.4896 220.937143 
L 234.7128 220.937143 
L 234.936 230.811429 
L 235.1592 230.811429 
L 235.3824 240.685714 
L 235.6056 201.188571 
L 235.8288 191.314286 
L 236.052 191.314286 
L 236.2752 211.062857 
L 236.7216 191.314286 
L 236.9448 201.188571 
L 237.168 201.188571 
L 237.3912 211.062857 
L 237.8376 211.062857 
L 238.0608 201.188571 
L 238.5072 201.188571 
L 238.7304 211.062857 
L 238.9536 201.188571 
L 239.1768 220.937143 
L 239.6232 220.937143 
L 239.8464 211.062857 
L 240.0696 240.685714 
L 240.516 240.685714 
L 240.7392 250.56 
L 241.1856 230.811429 
L 241.4088 230.811429 
L 241.632 220.937143 
L 241.8552 230.811429 
L 242.0784 220.937143 
L 242.3016 240.685714 
L 242.5248 250.56 
L 242.748 240.685714 
L 242.9712 250.56 
L 243.6408 250.56 
L 243.864 260.434286 
L 244.0872 260.434286 
L 244.3104 250.56 
L 244.5336 260.434286 
L 244.7568 280.182857 
L 245.2032 280.182857 
L 245.6496 299.931429 
L 246.096 260.434286 
L 246.5424 280.182857 
L 246.7656 280.182857 
L 246.9888 270.308571 
L 247.4352 270.308571 
L 247.6584 260.434286 
L 247.8816 240.685714 
L 248.1048 250.56 
L 248.328 250.56 
L 248.5512 240.685714 
L 248.9976 240.685714 
L 249.2208 250.56 
L 249.6672 230.811429 
L 250.1136 230.811429 
L 250.56 250.56 
L 250.7832 250.56 
L 251.2296 270.308571 
L 251.4528 260.434286 
L 251.676 280.182857 
L 251.8992 270.308571 
L 252.1224 270.308571 
L 252.5688 250.56 
L 252.792 270.308571 
L 253.2384 270.308571 
L 253.4616 260.434286 
L 253.6848 260.434286 
L 253.908 270.308571 
L 254.1312 260.434286 
L 254.5776 260.434286 
L 254.8008 240.685714 
L 255.024 240.685714 
L 255.2472 230.811429 
L 255.6936 230.811429 
L 255.9168 240.685714 
L 256.14 230.811429 
L 256.3632 230.811429 
L 256.5864 211.062857 
L 257.0328 191.314286 
L 257.4792 191.314286 
L 257.9256 211.062857 
L 258.5952 211.062857 
L 258.8184 201.188571 
L 259.2648 220.937143 
L 259.7112 220.937143 
L 259.9344 211.062857 
L 260.1576 191.314286 
L 260.604 191.314286 
L 260.8272 201.188571 
L 261.0504 201.188571 
L 261.4968 181.44 
L 261.72 181.44 
L 261.9432 191.314286 
L 262.1664 191.314286 
L 262.3896 211.062857 
L 263.5056 211.062857 
L 263.952 191.314286 
L 264.1752 191.314286 
L 264.3984 230.811429 
L 264.6216 220.937143 
L 265.2912 220.937143 
L 265.5144 211.062857 
L 265.9608 230.811429 
L 266.184 230.811429 
L 266.4072 240.685714 
L 266.8536 240.685714 
L 267.0768 230.811429 
L 267.3 230.811429 
L 267.5232 240.685714 
L 267.7464 240.685714 
L 267.9696 260.434286 
L 268.1928 250.56 
L 268.416 250.56 
L 268.8624 270.308571 
L 269.0856 290.057143 
L 269.3088 290.057143 
L 269.532 280.182857 
L 269.7552 280.182857 
L 269.9784 299.931429 
L 270.2016 299.931429 
L 270.4248 309.805714 
L 270.8712 290.057143 
L 271.764 290.057143 
L 271.9872 280.182857 
L 272.2104 260.434286 
L 272.4336 270.308571 
L 272.6568 250.56 
L 272.88 250.56 
L 273.1032 240.685714 
L 273.3264 240.685714 
L 273.5496 250.56 
L 273.7728 250.56 
L 273.996 240.685714 
L 274.4424 201.188571 
L 274.8888 201.188571 
L 275.112 191.314286 
L 276.228 191.314286 
L 276.4512 201.188571 
L 276.6744 220.937143 
L 276.8976 201.188571 
L 277.1208 211.062857 
L 277.5672 191.314286 
L 277.7904 201.188571 
L 278.0136 201.188571 
L 278.2368 211.062857 
L 278.46 211.062857 
L 278.6832 220.937143 
L 278.9064 220.937143 
L 279.3528 201.188571 
L 279.576 211.062857 
L 279.7992 201.188571 
L 280.0224 201.188571 
L 280.2456 211.062857 
L 280.4688 211.062857 
L 280.692 201.188571 
L 280.9152 211.062857 
L 281.1384 191.314286 
L 281.5848 191.314286 
L 281.808 211.062857 
L 282.0312 211.062857 
L 282.2544 220.937143 
L 282.7008 220.937143 
L 282.924 211.062857 
L 283.1472 220.937143 
L 283.3704 240.685714 
L 283.8168 240.685714 
L 284.04 250.56 
L 284.2632 240.685714 
L 284.4864 250.56 
L 284.7096 240.685714 
L 284.9328 240.685714 
L 285.156 230.811429 
L 285.3792 240.685714 
L 285.8256 220.937143 
L 286.272 220.937143 
L 286.4952 230.811429 
L 286.7184 230.811429 
L 287.1648 250.56 
L 287.388 250.56 
L 287.6112 240.685714 
L 288.2808 240.685714 
L 288.504 230.811429 
L 288.7272 240.685714 
L 288.9504 240.685714 
L 289.3968 220.937143 
L 289.8432 220.937143 
L 290.0664 240.685714 
L 290.2896 250.56 
L 290.736 250.56 
L 291.1824 230.811429 
L 291.4056 230.811429 
L 291.6288 240.685714 
L 292.7448 240.685714 
L 292.968 230.811429 
L 293.1912 250.56 
L 293.4144 250.56 
L 293.6376 240.685714 
L 294.5304 240.685714 
L 294.9768 290.057143 
L 295.4232 270.308571 
L 295.6464 280.182857 
L 295.8696 270.308571 
L 296.0928 299.931429 
L 296.5392 299.931429 
L 296.9856 280.182857 
L 297.432 280.182857 
L 297.6552 260.434286 
L 297.8784 260.434286 
L 298.1016 270.308571 
L 298.3248 270.308571 
L 298.548 280.182857 
L 298.9944 260.434286 
L 299.2176 260.434286 
L 299.4408 270.308571 
L 299.664 260.434286 
L 299.8872 240.685714 
L 300.3336 220.937143 
L 301.6728 220.937143 
L 301.896 230.811429 
L 302.1192 211.062857 
L 302.5656 230.811429 
L 303.2352 230.811429 
L 303.4584 240.685714 
L 303.9048 240.685714 
L 304.128 220.937143 
L 304.3512 220.937143 
L 304.5744 211.062857 
L 304.7976 211.062857 
L 305.0208 220.937143 
L 305.4672 220.937143 
L 305.6904 211.062857 
L 305.9136 211.062857 
L 306.36 191.314286 
L 306.5832 191.314286 
L 306.8064 181.44 
L 307.0296 181.44 
L 307.2528 191.314286 
L 307.476 211.062857 
L 307.9224 191.314286 
L 308.1456 171.565714 
L 308.592 171.565714 
L 309.0384 191.314286 
L 309.2616 211.062857 
L 309.4848 201.188571 
L 309.708 211.062857 
L 310.3776 211.062857 
L 310.6008 191.314286 
L 310.824 181.44 
L 311.4936 240.685714 
L 311.7168 250.56 
L 312.1632 230.811429 
L 312.3864 211.062857 
L 312.6096 211.062857 
L 313.056 171.565714 
L 313.2792 161.691429 
L 313.5024 161.691429 
L 313.7256 151.817143 
L 313.9488 151.817143 
L 314.172 132.068571 
L 314.3952 141.942857 
L 314.8416 141.942857 
L 315.0648 112.32 
L 315.288 122.194286 
L 315.7344 122.194286 
L 316.1808 141.942857 
L 316.404 141.942857 
L 316.6272 132.068571 
L 316.8504 132.068571 
L 317.0736 141.942857 
L 317.2968 132.068571 
L 318.1896 171.565714 
L 318.4128 171.565714 
L 318.636 151.817143 
L 318.8592 141.942857 
L 319.0824 141.942857 
L 319.3056 132.068571 
L 319.5288 161.691429 
L 320.1984 161.691429 
L 320.4216 132.068571 
L 320.6448 132.068571 
L 320.868 102.445714 
L 321.0912 92.571429 
L 321.3144 72.822857 
L 321.5376 82.697143 
L 321.7608 102.445714 
L 321.984 102.445714 
L 322.2072 112.32 
L 322.4304 132.068571 
L 322.8768 132.068571 
L 323.1 141.942857 
L 323.3232 122.194286 
L 323.5464 141.942857 
L 323.9928 191.314286 
L 324.216 191.314286 
L 324.6624 171.565714 
L 325.1088 191.314286 
L 325.5552 151.817143 
L 326.0016 171.565714 
L 326.2248 161.691429 
L 326.6712 161.691429 
L 326.8944 171.565714 
L 327.1176 151.817143 
L 327.3408 161.691429 
L 327.564 181.44 
L 327.7872 181.44 
L 328.0104 201.188571 
L 328.2336 191.314286 
L 328.68 191.314286 
L 328.9032 211.062857 
L 329.1264 191.314286 
L 329.3496 201.188571 
L 329.5728 220.937143 
L 329.796 220.937143 
L 330.0192 240.685714 
L 330.2424 230.811429 
L 330.4656 230.811429 
L 330.6888 240.685714 
L 330.912 240.685714 
L 331.3584 220.937143 
L 331.5816 220.937143 
L 331.8048 230.811429 
L 332.028 230.811429 
L 332.4744 211.062857 
L 332.6976 211.062857 
L 333.3672 181.44 
L 333.5904 181.44 
L 333.8136 201.188571 
L 334.26 201.188571 
L 334.4832 211.062857 
L 334.7064 191.314286 
L 334.9296 191.314286 
L 335.1528 201.188571 
L 335.376 191.314286 
L 335.8224 191.314286 
L 336.0456 201.188571 
L 336.2688 191.314286 
L 336.492 191.314286 
L 336.7152 161.691429 
L 337.3848 161.691429 
L 337.608 181.44 
L 338.0544 181.44 
L 338.2776 191.314286 
L 338.5008 191.314286 
L 338.724 181.44 
L 338.9472 181.44 
L 339.1704 171.565714 
L 339.3936 191.314286 
L 339.6168 171.565714 
L 339.84 171.565714 
L 340.0632 161.691429 
L 340.2864 171.565714 
L 340.7328 151.817143 
L 340.956 132.068571 
L 341.1792 122.194286 
L 341.4024 132.068571 
L 341.6256 122.194286 
L 342.2952 122.194286 
L 342.5184 132.068571 
L 342.7416 122.194286 
L 343.188 141.942857 
L 343.4112 141.942857 
L 343.6344 151.817143 
L 343.8576 171.565714 
L 344.0808 181.44 
L 344.5272 181.44 
L 344.7504 171.565714 
L 344.9736 171.565714 
L 345.1968 191.314286 
L 345.42 171.565714 
L 345.6432 171.565714 
L 345.8664 161.691429 
L 346.0896 181.44 
L 346.536 201.188571 
L 346.7592 201.188571 
L 346.9824 211.062857 
L 347.2056 201.188571 
L 347.4288 220.937143 
L 347.8752 240.685714 
L 348.3216 240.685714 
L 348.5448 230.811429 
L 348.768 191.314286 
L 348.9912 171.565714 
L 349.2144 191.314286 
L 350.5536 191.314286 
L 350.7768 220.937143 
L 351 201.188571 
L 351.6696 201.188571 
L 351.8928 191.314286 
L 352.3392 250.56 
L 352.5624 250.56 
L 352.7856 230.811429 
L 353.0088 240.685714 
L 353.232 240.685714 
L 353.4552 230.811429 
L 353.6784 230.811429 
L 353.9016 250.56 
L 354.348 250.56 
L 354.5712 240.685714 
L 354.7944 240.685714 
L 355.0176 230.811429 
L 355.2408 230.811429 
L 355.464 211.062857 
L 355.6872 220.937143 
L 355.9104 220.937143 
L 356.1336 240.685714 
L 356.8032 240.685714 
L 357.0264 211.062857 
L 357.4728 211.062857 
L 357.696 220.937143 
L 357.9192 240.685714 
L 358.1424 220.937143 
L 358.3656 240.685714 
L 358.5888 240.685714 
L 358.812 230.811429 
L 359.928 230.811429 
L 360.1512 211.062857 
L 360.3744 211.062857 
L 360.5976 201.188571 
L 361.044 201.188571 
L 361.2672 191.314286 
L 361.4904 191.314286 
L 361.7136 181.44 
L 362.16 181.44 
L 362.3832 191.314286 
L 362.6064 181.44 
L 362.8296 161.691429 
L 363.0528 161.691429 
L 363.276 171.565714 
L 363.4992 171.565714 
L 363.7224 181.44 
L 363.9456 171.565714 
L 364.1688 181.44 
L 364.6152 181.44 
L 364.8384 171.565714 
L 365.7312 211.062857 
L 365.9544 201.188571 
L 366.1776 211.062857 
L 366.4008 201.188571 
L 366.624 220.937143 
L 366.8472 220.937143 
L 367.2936 240.685714 
L 367.5168 240.685714 
L 367.74 250.56 
L 367.9632 250.56 
L 368.1864 240.685714 
L 368.4096 240.685714 
L 368.6328 230.811429 
L 368.856 240.685714 
L 369.3024 240.685714 
L 369.5256 220.937143 
L 369.972 240.685714 
L 370.6416 240.685714 
L 370.8648 230.811429 
L 371.088 230.811429 
L 371.5344 250.56 
L 371.9808 250.56 
L 372.204 240.685714 
L 372.4272 240.685714 
L 372.6504 250.56 
L 372.8736 250.56 
L 373.0968 230.811429 
L 373.32 250.56 
L 373.5432 240.685714 
L 373.9896 240.685714 
L 374.2128 250.56 
L 374.6592 250.56 
L 374.8824 230.811429 
L 375.1056 220.937143 
L 375.552 220.937143 
L 375.7752 230.811429 
L 375.9984 220.937143 
L 376.2216 220.937143 
L 376.4448 230.811429 
L 377.3376 230.811429 
L 377.5608 220.937143 
L 378.0072 220.937143 
L 378.2304 211.062857 
L 378.6768 211.062857 
L 378.9 220.937143 
L 379.1232 211.062857 
L 379.3464 211.062857 
L 379.5696 191.314286 
L 379.7928 181.44 
L 380.4624 181.44 
L 380.6856 171.565714 
L 380.9088 171.565714 
L 381.132 161.691429 
L 381.3552 171.565714 
L 381.5784 161.691429 
L 382.248 161.691429 
L 382.4712 171.565714 
L 382.9176 171.565714 
L 383.1408 161.691429 
L 383.8104 161.691429 
L 384.0336 171.565714 
L 384.48 171.565714 
L 384.7032 181.44 
L 384.9264 171.565714 
L 385.1496 181.44 
L 385.3728 161.691429 
L 385.596 151.817143 
L 386.2656 181.44 
L 386.4888 171.565714 
L 386.9352 171.565714 
L 387.3816 191.314286 
L 387.828 191.314286 
L 388.2744 211.062857 
L 388.7208 211.062857 
L 388.944 220.937143 
L 389.3904 220.937143 
L 389.6136 240.685714 
L 389.8368 220.937143 
L 390.06 220.937143 
L 390.2832 201.188571 
L 390.5064 211.062857 
L 390.9528 211.062857 
L 391.176 201.188571 
L 391.3992 181.44 
L 391.6224 171.565714 
L 391.8456 191.314286 
L 392.0688 181.44 
L 392.292 191.314286 
L 392.5152 171.565714 
L 392.7384 171.565714 
L 392.9616 181.44 
L 393.1848 201.188571 
L 393.408 191.314286 
L 393.6312 191.314286 
L 393.8544 171.565714 
L 394.0776 161.691429 
L 394.3008 181.44 
L 394.524 171.565714 
L 394.7472 151.817143 
L 394.9704 151.817143 
L 395.1936 171.565714 
L 395.64 191.314286 
L 395.8632 181.44 
L 396.0864 181.44 
L 396.3096 171.565714 
L 396.5328 151.817143 
L 396.756 151.817143 
L 396.9792 141.942857 
L 397.2024 151.817143 
L 397.4256 141.942857 
L 397.6488 141.942857 
L 397.872 151.817143 
L 398.0952 141.942857 
L 398.3184 141.942857 
L 398.5416 161.691429 
L 399.6576 211.062857 
L 399.8808 211.062857 
L 400.104 201.188571 
L 400.3272 201.188571 
L 400.5504 211.062857 
L 400.7736 211.062857 
L 400.9968 220.937143 
L 401.22 220.937143 
L 401.4432 211.062857 
L 401.6664 211.062857 
L 401.8896 191.314286 
L 402.5592 191.314286 
L 402.7824 181.44 
L 403.0056 191.314286 
L 403.2288 211.062857 
L 403.452 220.937143 
L 403.6752 220.937143 
L 403.8984 240.685714 
L 404.1216 240.685714 
L 404.3448 260.434286 
L 404.568 260.434286 
L 404.7912 240.685714 
L 405.0144 260.434286 
L 405.2376 260.434286 
L 405.684 220.937143 
L 405.9072 220.937143 
L 406.1304 240.685714 
L 406.3536 250.56 
L 406.5768 240.685714 
L 406.8 240.685714 
L 407.0232 230.811429 
L 407.4696 230.811429 
L 407.6928 220.937143 
L 407.916 201.188571 
L 408.1392 191.314286 
L 408.3624 201.188571 
L 408.5856 201.188571 
L 408.8088 211.062857 
L 409.032 211.062857 
L 409.2552 220.937143 
L 409.4784 211.062857 
L 409.7016 211.062857 
L 409.9248 201.188571 
L 410.3712 201.188571 
L 410.5944 191.314286 
L 410.8176 191.314286 
L 411.0408 201.188571 
L 411.264 230.811429 
L 411.9336 230.811429 
L 412.1568 220.937143 
L 412.38 220.937143 
L 412.6032 211.062857 
L 413.0496 230.811429 
L 413.2728 230.811429 
L 413.496 240.685714 
L 413.7192 240.685714 
L 413.9424 220.937143 
L 414.1656 230.811429 
L 414.3888 230.811429 
L 414.612 220.937143 
L 415.0584 220.937143 
L 415.2816 201.188571 
L 415.5048 201.188571 
L 415.728 181.44 
L 415.9512 181.44 
L 416.1744 191.314286 
L 416.3976 191.314286 
L 416.6208 201.188571 
L 417.2904 201.188571 
L 417.5136 191.314286 
L 417.7368 201.188571 
L 417.96 191.314286 
L 418.1832 191.314286 
L 418.4064 181.44 
L 418.6296 181.44 
L 418.8528 191.314286 
L 419.076 191.314286 
L 419.2992 201.188571 
L 419.7456 201.188571 
L 419.9688 211.062857 
L 420.4152 211.062857 
L 420.8616 230.811429 
L 421.5312 230.811429 
L 421.7544 220.937143 
L 421.9776 220.937143 
L 422.2008 211.062857 
L 422.424 211.062857 
L 422.6472 230.811429 
L 422.8704 220.937143 
L 423.0936 230.811429 
L 423.3168 230.811429 
L 423.54 211.062857 
L 423.7632 201.188571 
L 423.9864 181.44 
L 424.4328 181.44 
L 424.656 191.314286 
L 424.8792 161.691429 
L 425.1024 151.817143 
L 425.3256 161.691429 
L 425.772 161.691429 
L 425.9952 171.565714 
L 426.4416 151.817143 
L 426.6648 161.691429 
L 427.1112 161.691429 
L 427.5576 181.44 
L 427.7808 181.44 
L 428.004 191.314286 
L 428.2272 181.44 
L 428.4504 161.691429 
L 428.6736 171.565714 
L 428.8968 171.565714 
L 429.12 161.691429 
L 429.7896 161.691429 
L 430.0128 151.817143 
L 430.236 161.691429 
L 430.6824 141.942857 
L 430.9056 141.942857 
L 431.1288 151.817143 
L 431.352 151.817143 
L 431.5752 161.691429 
L 431.7984 181.44 
L 432.2448 181.44 
L 432.468 191.314286 
L 432.6912 211.062857 
L 432.9144 220.937143 
L 433.584 220.937143 
L 433.8072 211.062857 
L 434.0304 220.937143 
L 434.2536 220.937143 
L 434.4768 211.062857 
L 434.7 211.062857 
L 434.9232 220.937143 
L 435.5928 220.937143 
L 435.816 230.811429 
L 436.0392 220.937143 
L 436.2624 220.937143 
L 436.7088 240.685714 
L 436.932 230.811429 
L 437.1552 230.811429 
L 437.3784 211.062857 
L 438.048 211.062857 
L 438.2712 220.937143 
L 438.4944 201.188571 
L 438.7176 211.062857 
L 438.9408 211.062857 
L 439.164 220.937143 
L 439.3872 220.937143 
L 439.6104 211.062857 
L 439.8336 211.062857 
L 440.0568 220.937143 
L 440.28 191.314286 
L 440.5032 201.188571 
L 441.6192 201.188571 
L 441.8424 211.062857 
L 442.2888 191.314286 
L 442.512 201.188571 
L 442.7352 181.44 
L 442.9584 181.44 
L 443.1816 191.314286 
L 443.4048 171.565714 
L 443.628 171.565714 
L 444.0744 151.817143 
L 444.5208 171.565714 
L 444.744 161.691429 
L 444.9672 161.691429 
L 445.1904 151.817143 
L 445.6368 151.817143 
L 445.86 141.942857 
L 446.0832 161.691429 
L 446.3064 161.691429 
L 446.5296 141.942857 
L 446.976 122.194286 
L 447.4224 141.942857 
L 447.6456 161.691429 
L 448.092 181.44 
L 448.3152 181.44 
L 448.5384 201.188571 
L 448.7616 211.062857 
L 448.9848 211.062857 
L 449.208 201.188571 
L 449.4312 201.188571 
L 449.6544 211.062857 
L 449.8776 211.062857 
L 450.1008 201.188571 
L 450.324 211.062857 
L 450.7704 211.062857 
L 450.9936 220.937143 
L 451.2168 240.685714 
L 451.44 240.685714 
L 451.8864 201.188571 
L 452.7792 240.685714 
L 453.2256 240.685714 
L 453.672 260.434286 
L 453.8952 260.434286 
L 454.1184 270.308571 
L 454.3416 270.308571 
L 454.5648 290.057143 
L 455.2344 290.057143 
L 455.4576 299.931429 
L 455.6808 290.057143 
L 455.904 299.931429 
L 456.1272 299.931429 
L 456.3504 280.182857 
L 457.2432 280.182857 
L 457.4664 260.434286 
L 457.9128 240.685714 
L 458.136 250.56 
L 458.3592 250.56 
L 458.5824 240.685714 
L 458.8056 250.56 
L 459.252 250.56 
L 459.4752 230.811429 
L 459.6984 230.811429 
L 460.368 201.188571 
L 460.5912 211.062857 
L 461.0376 211.062857 
L 461.2608 220.937143 
L 461.484 240.685714 
L 461.7072 240.685714 
L 461.9304 230.811429 
L 462.1536 250.56 
L 462.3768 250.56 
L 462.6 240.685714 
L 462.8232 260.434286 
L 463.0464 270.308571 
L 463.2696 260.434286 
L 463.4928 270.308571 
L 463.9392 270.308571 
L 464.1624 260.434286 
L 464.832 260.434286 
L 465.0552 230.811429 
L 465.2784 240.685714 
L 466.1712 240.685714 
L 466.3944 230.811429 
L 466.6176 230.811429 
L 466.8408 240.685714 
L 467.064 240.685714 
L 467.2872 230.811429 
L 467.5104 240.685714 
L 467.9568 240.685714 
L 468.4032 260.434286 
L 468.8496 260.434286 
L 469.0728 250.56 
L 469.296 250.56 
L 469.5192 240.685714 
L 469.7424 250.56 
L 470.1888 250.56 
L 470.412 240.685714 
L 470.6352 250.56 
L 470.8584 250.56 
L 471.0816 240.685714 
L 471.3048 250.56 
L 471.7512 250.56 
L 471.9744 240.685714 
L 472.1976 260.434286 
L 472.4208 250.56 
L 472.644 250.56 
L 473.0904 230.811429 
L 473.3136 240.685714 
L 473.5368 240.685714 
L 473.76 260.434286 
L 474.4296 260.434286 
L 474.876 220.937143 
L 475.0992 211.062857 
L 475.3224 230.811429 
L 475.5456 230.811429 
L 476.4384 191.314286 
L 476.6616 201.188571 
L 477.3312 201.188571 
L 477.5544 211.062857 
L 477.7776 201.188571 
L 478.0008 211.062857 
L 478.224 211.062857 
L 478.6704 191.314286 
L 478.8936 191.314286 
L 479.1168 181.44 
L 479.34 181.44 
L 479.5632 191.314286 
L 479.7864 191.314286 
L 480.0096 171.565714 
L 480.2328 171.565714 
L 480.456 181.44 
L 480.6792 181.44 
L 480.9024 191.314286 
L 481.1256 181.44 
L 481.3488 191.314286 
L 481.572 191.314286 
L 481.7952 181.44 
L 482.0184 191.314286 
L 482.2416 211.062857 
L 482.4648 191.314286 
L 483.1344 191.314286 
L 483.3576 181.44 
L 483.5808 211.062857 
L 483.804 211.062857 
L 484.4736 181.44 
L 484.6968 191.314286 
L 484.92 211.062857 
L 485.1432 211.062857 
L 485.3664 230.811429 
L 485.5896 220.937143 
L 486.036 240.685714 
L 486.4824 240.685714 
L 486.7056 250.56 
L 486.9288 240.685714 
L 487.3752 240.685714 
L 488.0448 270.308571 
L 488.268 260.434286 
L 488.9376 260.434286 
L 489.1608 270.308571 
L 489.384 270.308571 
L 489.6072 260.434286 
L 489.8304 240.685714 
L 490.0536 250.56 
L 490.2768 240.685714 
L 490.5 260.434286 
L 490.9464 260.434286 
L 491.3928 240.685714 
L 491.616 220.937143 
L 492.0624 201.188571 
L 492.2856 220.937143 
L 492.5088 211.062857 
L 492.732 220.937143 
L 492.9552 211.062857 
L 493.4016 230.811429 
L 493.848 211.062857 
L 494.0712 191.314286 
L 494.2944 220.937143 
L 494.7408 220.937143 
L 494.964 230.811429 
L 495.6336 230.811429 
L 495.8568 250.56 
L 496.08 250.56 
L 496.3032 230.811429 
L 496.5264 230.811429 
L 496.9728 211.062857 
L 497.4192 211.062857 
L 497.6424 220.937143 
L 498.0888 220.937143 
L 498.312 250.56 
L 498.5352 250.56 
L 498.7584 240.685714 
L 499.428 240.685714 
L 499.6512 250.56 
L 500.0976 230.811429 
L 500.3208 230.811429 
L 500.544 250.56 
L 500.7672 260.434286 
L 500.9904 260.434286 
L 501.2136 250.56 
L 501.4368 250.56 
L 501.66 260.434286 
L 501.8832 260.434286 
L 502.3296 280.182857 
L 502.5528 280.182857 
L 502.776 270.308571 
L 502.9992 270.308571 
L 503.2224 290.057143 
L 503.6688 270.308571 
L 503.892 280.182857 
L 504.1152 280.182857 
L 504.5616 260.434286 
L 505.2312 260.434286 
L 505.4544 270.308571 
L 505.6776 270.308571 
L 505.9008 240.685714 
L 506.124 250.56 
L 506.5704 250.56 
L 506.7936 270.308571 
L 507.24 270.308571 
L 507.9096 240.685714 
L 508.1328 240.685714 
L 508.356 230.811429 
L 508.5792 240.685714 
L 508.8024 230.811429 
L 509.0256 240.685714 
L 509.2488 260.434286 
L 509.472 270.308571 
L 509.6952 240.685714 
L 509.9184 240.685714 
L 510.1416 250.56 
L 510.3648 240.685714 
L 510.8112 240.685714 
L 511.0344 250.56 
L 511.2576 240.685714 
L 511.704 240.685714 
L 511.9272 250.56 
L 512.3736 211.062857 
L 512.82 211.062857 
L 513.0432 220.937143 
L 513.4896 201.188571 
L 514.1592 201.188571 
L 514.3824 211.062857 
L 514.6056 201.188571 
L 514.8288 201.188571 
L 515.052 220.937143 
L 515.2752 211.062857 
L 515.4984 211.062857 
L 515.7216 220.937143 
L 515.9448 211.062857 
L 516.168 220.937143 
L 516.3912 181.44 
L 516.6144 171.565714 
L 516.8376 171.565714 
L 517.0608 181.44 
L 517.284 171.565714 
L 517.7304 171.565714 
L 517.9536 161.691429 
L 518.1768 141.942857 
L 518.4 141.942857 
L 518.4 141.942857 
" style="fill:none;opacity:0.8;stroke:#ff0000;stroke-linecap:square;"/>
   </g>
   <g id="line2d_2">
    <path clip-path="url(#p61737a49fd)" d="M 72.2232 388.8 
L 86.508 388.8 
L 86.7312 378.925714 
L 87.624 378.925714 
L 87.8472 359.177143 
L 88.74 359.177143 
L 88.9632 349.302857 
L 89.856 349.302857 
L 90.0792 339.428571 
L 92.088 339.428571 
L 92.3112 329.554286 
L 93.204 329.554286 
L 93.4272 319.68 
L 95.436 319.68 
L 95.6592 299.931429 
L 96.552 299.931429 
L 96.7752 290.057143 
L 98.784 290.057143 
L 99.0072 280.182857 
L 99.9 280.182857 
L 100.1232 270.308571 
L 101.016 270.308571 
L 101.2392 260.434286 
L 103.248 260.434286 
L 103.4712 240.685714 
L 105.48 240.685714 
L 105.7032 250.56 
L 107.712 250.56 
L 107.9352 240.685714 
L 108.828 240.685714 
L 109.0512 230.811429 
L 109.944 230.811429 
L 110.1672 250.56 
L 111.06 250.56 
L 111.2832 211.062857 
L 115.524 211.062857 
L 115.7472 191.314286 
L 116.64 191.314286 
L 116.8632 201.188571 
L 117.756 201.188571 
L 117.9792 161.691429 
L 118.872 161.691429 
L 119.0952 181.44 
L 121.104 181.44 
L 121.3272 191.314286 
L 122.22 191.314286 
L 122.4432 211.062857 
L 123.336 211.062857 
L 123.5592 220.937143 
L 124.452 220.937143 
L 124.6752 211.062857 
L 125.568 211.062857 
L 125.7912 201.188571 
L 127.8 201.188571 
L 128.0232 181.44 
L 128.916 181.44 
L 129.1392 161.691429 
L 131.148 161.691429 
L 131.3712 191.314286 
L 132.264 191.314286 
L 132.4872 181.44 
L 133.38 181.44 
L 133.6032 201.188571 
L 135.612 201.188571 
L 135.8352 220.937143 
L 137.844 220.937143 
L 138.0672 211.062857 
L 138.96 211.062857 
L 139.1832 230.811429 
L 140.076 230.811429 
L 140.2992 211.062857 
L 141.192 211.062857 
L 141.4152 201.188571 
L 142.308 201.188571 
L 142.5312 171.565714 
L 144.54 171.565714 
L 144.7632 161.691429 
L 145.656 161.691429 
L 145.8792 171.565714 
L 146.772 171.565714 
L 146.9952 151.817143 
L 147.888 151.817143 
L 148.1112 141.942857 
L 149.004 141.942857 
L 149.2272 112.32 
L 150.12 112.32 
L 150.3432 92.571429 
L 151.236 92.571429 
L 151.4592 102.445714 
L 152.352 102.445714 
L 152.5752 141.942857 
L 154.584 141.942857 
L 154.8072 151.817143 
L 155.7 151.817143 
L 155.9232 161.691429 
L 156.816 161.691429 
L 157.0392 171.565714 
L 157.932 171.565714 
L 158.1552 141.942857 
L 161.28 141.942857 
L 161.5032 161.691429 
L 162.396 161.691429 
L 162.6192 112.32 
L 163.512 112.32 
L 163.7352 151.817143 
L 166.86 151.817143 
L 167.0832 141.942857 
L 167.976 141.942857 
L 168.1992 92.571429 
L 170.208 92.571429 
L 170.4312 112.32 
L 172.44 112.32 
L 172.6632 151.817143 
L 173.556 151.817143 
L 173.7792 171.565714 
L 174.672 171.565714 
L 174.8952 141.942857 
L 176.904 141.942857 
L 177.1272 171.565714 
L 179.136 171.565714 
L 179.3592 191.314286 
L 182.484 191.314286 
L 182.7072 211.062857 
L 183.6 211.062857 
L 183.8232 220.937143 
L 184.716 220.937143 
L 184.9392 240.685714 
L 185.832 240.685714 
L 186.0552 250.56 
L 186.948 250.56 
L 187.1712 270.308571 
L 188.064 270.308571 
L 188.2872 280.182857 
L 189.18 280.182857 
L 189.4032 290.057143 
L 190.296 290.057143 
L 190.5192 270.308571 
L 192.528 270.308571 
L 192.7512 240.685714 
L 193.644 240.685714 
L 193.8672 191.314286 
L 194.76 191.314286 
L 194.9832 230.811429 
L 195.876 230.811429 
L 196.0992 220.937143 
L 196.992 220.937143 
L 197.2152 260.434286 
L 200.34 260.434286 
L 200.5632 280.182857 
L 203.688 280.182857 
L 203.9112 290.057143 
L 204.804 290.057143 
L 205.0272 299.931429 
L 205.92 299.931429 
L 206.1432 280.182857 
L 207.036 280.182857 
L 207.2592 250.56 
L 208.152 250.56 
L 208.3752 280.182857 
L 210.384 280.182857 
L 210.6072 290.057143 
L 211.5 290.057143 
L 211.7232 270.308571 
L 213.732 270.308571 
L 213.9552 290.057143 
L 214.848 290.057143 
L 215.0712 299.931429 
L 215.964 299.931429 
L 216.1872 270.308571 
L 217.08 270.308571 
L 217.3032 240.685714 
L 218.196 240.685714 
L 218.4192 220.937143 
L 219.312 220.937143 
L 219.5352 240.685714 
L 220.428 240.685714 
L 220.6512 250.56 
L 224.892 250.56 
L 225.1152 270.308571 
L 227.124 270.308571 
L 227.3472 280.182857 
L 228.24 280.182857 
L 228.4632 260.434286 
L 230.472 260.434286 
L 230.6952 250.56 
L 233.82 250.56 
L 234.0432 240.685714 
L 236.052 240.685714 
L 236.2752 191.314286 
L 237.168 191.314286 
L 237.3912 211.062857 
L 239.4 211.062857 
L 239.6232 250.56 
L 240.516 250.56 
L 240.7392 230.811429 
L 241.632 230.811429 
L 241.8552 220.937143 
L 242.748 220.937143 
L 242.9712 250.56 
L 244.98 250.56 
L 245.2032 299.931429 
L 246.096 299.931429 
L 246.3192 280.182857 
L 247.212 280.182857 
L 247.4352 260.434286 
L 248.328 260.434286 
L 248.5512 240.685714 
L 249.444 240.685714 
L 249.6672 230.811429 
L 250.56 230.811429 
L 250.7832 260.434286 
L 251.676 260.434286 
L 251.8992 270.308571 
L 253.908 270.308571 
L 254.1312 260.434286 
L 255.024 260.434286 
L 255.2472 240.685714 
L 256.14 240.685714 
L 256.3632 211.062857 
L 257.256 211.062857 
L 257.4792 201.188571 
L 259.488 201.188571 
L 259.7112 211.062857 
L 260.604 211.062857 
L 260.8272 201.188571 
L 261.72 201.188571 
L 261.9432 191.314286 
L 262.836 191.314286 
L 263.0592 211.062857 
L 263.952 211.062857 
L 264.1752 220.937143 
L 265.068 220.937143 
L 265.2912 211.062857 
L 266.184 211.062857 
L 266.4072 240.685714 
L 268.416 240.685714 
L 268.6392 270.308571 
L 269.532 270.308571 
L 269.7552 299.931429 
L 270.648 299.931429 
L 270.8712 290.057143 
L 271.764 290.057143 
L 271.9872 260.434286 
L 272.88 260.434286 
L 273.1032 240.685714 
L 273.996 240.685714 
L 274.2192 201.188571 
L 275.112 201.188571 
L 275.3352 191.314286 
L 276.228 191.314286 
L 276.4512 211.062857 
L 277.344 211.062857 
L 277.5672 201.188571 
L 278.46 201.188571 
L 278.6832 211.062857 
L 279.576 211.062857 
L 279.7992 220.937143 
L 280.692 220.937143 
L 280.9152 191.314286 
L 281.808 191.314286 
L 282.0312 220.937143 
L 282.924 220.937143 
L 283.1472 240.685714 
L 285.156 240.685714 
L 285.3792 220.937143 
L 286.272 220.937143 
L 286.4952 230.811429 
L 287.388 230.811429 
L 287.6112 240.685714 
L 289.62 240.685714 
L 289.8432 250.56 
L 290.736 250.56 
L 290.9592 230.811429 
L 291.852 230.811429 
L 292.0752 240.685714 
L 292.968 240.685714 
L 293.1912 250.56 
L 294.084 250.56 
L 294.3072 270.308571 
L 295.2 270.308571 
L 295.4232 280.182857 
L 296.316 280.182857 
L 296.5392 290.057143 
L 297.432 290.057143 
L 297.6552 270.308571 
L 298.548 270.308571 
L 298.7712 260.434286 
L 299.664 260.434286 
L 299.8872 230.811429 
L 300.78 230.811429 
L 301.0032 220.937143 
L 301.896 220.937143 
L 302.1192 211.062857 
L 303.012 211.062857 
L 303.2352 230.811429 
L 304.128 230.811429 
L 304.3512 211.062857 
L 306.36 211.062857 
L 306.5832 181.44 
L 307.476 181.44 
L 307.6992 191.314286 
L 309.708 191.314286 
L 309.9312 220.937143 
L 310.824 220.937143 
L 311.0472 230.811429 
L 311.94 230.811429 
L 312.1632 220.937143 
L 313.056 220.937143 
L 313.2792 151.817143 
L 314.172 151.817143 
L 314.3952 141.942857 
L 315.288 141.942857 
L 315.5112 112.32 
L 316.404 112.32 
L 316.6272 141.942857 
L 317.52 141.942857 
L 317.7432 171.565714 
L 318.636 171.565714 
L 318.8592 151.817143 
L 320.868 151.817143 
L 321.0912 72.822857 
L 321.984 72.822857 
L 322.2072 122.194286 
L 323.1 122.194286 
L 323.3232 161.691429 
L 324.216 161.691429 
L 324.4392 171.565714 
L 325.332 171.565714 
L 325.5552 161.691429 
L 327.564 161.691429 
L 327.7872 191.314286 
L 329.796 191.314286 
L 330.0192 220.937143 
L 330.912 220.937143 
L 331.1352 211.062857 
L 333.144 211.062857 
L 333.3672 191.314286 
L 336.492 191.314286 
L 336.7152 151.817143 
L 337.608 151.817143 
L 337.8312 181.44 
L 338.724 181.44 
L 338.9472 171.565714 
L 339.84 171.565714 
L 340.0632 161.691429 
L 340.956 161.691429 
L 341.1792 132.068571 
L 343.188 132.068571 
L 343.4112 171.565714 
L 346.536 171.565714 
L 346.7592 211.062857 
L 347.652 211.062857 
L 347.8752 240.685714 
L 348.768 240.685714 
L 348.9912 191.314286 
L 351 191.314286 
L 351.2232 201.188571 
L 352.116 201.188571 
L 352.3392 250.56 
L 353.232 250.56 
L 353.4552 230.811429 
L 354.348 230.811429 
L 354.5712 240.685714 
L 356.58 240.685714 
L 356.8032 211.062857 
L 357.696 211.062857 
L 357.9192 230.811429 
L 359.928 230.811429 
L 360.1512 211.062857 
L 361.044 211.062857 
L 361.2672 181.44 
L 365.508 181.44 
L 365.7312 201.188571 
L 366.624 201.188571 
L 366.8472 230.811429 
L 367.74 230.811429 
L 367.9632 240.685714 
L 368.856 240.685714 
L 369.0792 230.811429 
L 369.972 230.811429 
L 370.1952 240.685714 
L 371.088 240.685714 
L 371.3112 250.56 
L 372.204 250.56 
L 372.4272 260.434286 
L 373.32 260.434286 
L 373.5432 240.685714 
L 374.436 240.685714 
L 374.6592 230.811429 
L 375.552 230.811429 
L 375.7752 220.937143 
L 376.668 220.937143 
L 376.8912 230.811429 
L 377.784 230.811429 
L 378.0072 211.062857 
L 378.9 211.062857 
L 379.1232 201.188571 
L 380.016 201.188571 
L 380.2392 181.44 
L 381.132 181.44 
L 381.3552 161.691429 
L 382.248 161.691429 
L 382.4712 171.565714 
L 384.48 171.565714 
L 384.7032 191.314286 
L 385.596 191.314286 
L 385.8192 181.44 
L 387.828 181.44 
L 388.0512 201.188571 
L 388.944 201.188571 
L 389.1672 230.811429 
L 390.06 230.811429 
L 390.2832 211.062857 
L 391.176 211.062857 
L 391.3992 191.314286 
L 392.292 191.314286 
L 392.5152 181.44 
L 393.408 181.44 
L 393.6312 161.691429 
L 394.524 161.691429 
L 394.7472 171.565714 
L 396.756 171.565714 
L 396.9792 141.942857 
L 397.872 141.942857 
L 398.0952 161.691429 
L 398.988 161.691429 
L 399.2112 211.062857 
L 401.22 211.062857 
L 401.4432 191.314286 
L 402.336 191.314286 
L 402.5592 181.44 
L 403.452 181.44 
L 403.6752 240.685714 
L 404.568 240.685714 
L 404.7912 250.56 
L 406.8 250.56 
L 407.0232 230.811429 
L 407.916 230.811429 
L 408.1392 211.062857 
L 410.148 211.062857 
L 410.3712 201.188571 
L 411.264 201.188571 
L 411.4872 230.811429 
L 412.38 230.811429 
L 412.6032 220.937143 
L 414.612 220.937143 
L 414.8352 211.062857 
L 415.728 211.062857 
L 415.9512 191.314286 
L 417.96 191.314286 
L 418.1832 171.565714 
L 419.076 171.565714 
L 419.2992 201.188571 
L 420.192 201.188571 
L 420.4152 230.811429 
L 421.308 230.811429 
L 421.5312 211.062857 
L 422.424 211.062857 
L 422.6472 220.937143 
L 423.54 220.937143 
L 423.7632 181.44 
L 424.656 181.44 
L 424.8792 151.817143 
L 426.888 151.817143 
L 427.1112 171.565714 
L 428.004 171.565714 
L 428.2272 161.691429 
L 429.12 161.691429 
L 429.3432 151.817143 
L 430.236 151.817143 
L 430.4592 141.942857 
L 431.352 141.942857 
L 431.5752 181.44 
L 432.468 181.44 
L 432.6912 220.937143 
L 436.932 220.937143 
L 437.1552 211.062857 
L 440.28 211.062857 
L 440.5032 201.188571 
L 442.512 201.188571 
L 442.7352 191.314286 
L 443.628 191.314286 
L 443.8512 151.817143 
L 446.976 151.817143 
L 447.1992 161.691429 
L 448.092 161.691429 
L 448.3152 201.188571 
L 449.208 201.188571 
L 449.4312 211.062857 
L 450.324 211.062857 
L 450.5472 220.937143 
L 451.44 220.937143 
L 451.6632 211.062857 
L 452.556 211.062857 
L 452.7792 240.685714 
L 453.672 240.685714 
L 453.8952 270.308571 
L 454.788 270.308571 
L 455.0112 299.931429 
L 455.904 299.931429 
L 456.1272 280.182857 
L 457.02 280.182857 
L 457.2432 250.56 
L 459.252 250.56 
L 459.4752 220.937143 
L 460.368 220.937143 
L 460.5912 211.062857 
L 461.484 211.062857 
L 461.7072 250.56 
L 462.6 250.56 
L 462.8232 260.434286 
L 464.832 260.434286 
L 465.0552 240.685714 
L 465.948 240.685714 
L 466.1712 230.811429 
L 467.064 230.811429 
L 467.2872 240.685714 
L 468.18 240.685714 
L 468.4032 270.308571 
L 469.296 270.308571 
L 469.5192 250.56 
L 472.644 250.56 
L 472.8672 230.811429 
L 473.76 230.811429 
L 473.9832 240.685714 
L 474.876 240.685714 
L 475.0992 230.811429 
L 475.992 230.811429 
L 476.2152 201.188571 
L 477.108 201.188571 
L 477.3312 211.062857 
L 478.224 211.062857 
L 478.4472 191.314286 
L 480.456 191.314286 
L 480.6792 181.44 
L 481.572 181.44 
L 481.7952 211.062857 
L 482.688 211.062857 
L 482.9112 181.44 
L 484.92 181.44 
L 485.1432 230.811429 
L 486.036 230.811429 
L 486.2592 250.56 
L 490.5 250.56 
L 490.7232 260.434286 
L 491.616 260.434286 
L 491.8392 211.062857 
L 492.732 211.062857 
L 492.9552 230.811429 
L 493.848 230.811429 
L 494.0712 220.937143 
L 494.964 220.937143 
L 495.1872 230.811429 
L 496.08 230.811429 
L 496.3032 220.937143 
L 498.312 220.937143 
L 498.5352 240.685714 
L 500.544 240.685714 
L 500.7672 260.434286 
L 501.66 260.434286 
L 501.8832 280.182857 
L 502.776 280.182857 
L 502.9992 270.308571 
L 505.008 270.308571 
L 505.2312 280.182857 
L 506.124 280.182857 
L 506.3472 250.56 
L 507.24 250.56 
L 507.4632 260.434286 
L 508.356 260.434286 
L 508.5792 240.685714 
L 509.472 240.685714 
L 509.6952 250.56 
L 511.704 250.56 
L 511.9272 211.062857 
L 512.82 211.062857 
L 513.0432 201.188571 
L 515.052 201.188571 
L 515.2752 220.937143 
L 516.168 220.937143 
L 516.3912 161.691429 
L 517.284 161.691429 
L 517.5072 171.565714 
L 518.4 171.565714 
L 518.4 171.565714 
" style="fill:none;opacity:0.8;stroke:#0000ff;stroke-linecap:square;"/>
   </g>
   <g id="patch_3">
    <path d="M 72 43.2 
L 518.4 43.2 
" style="fill:none;stroke:#000000;stroke-linecap:square;stroke-linejoin:miter;"/>
   </g>
   <g id="patch_4">
    <path d="M 518.4 388.8 
L 518.4 43.2 
" style="fill:none;stroke:#000000;stroke-linecap:square;stroke-linejoin:miter;"/>
   </g>
   <g id="patch_5">
    <path d="M 72 388.8 
L 518.4 388.8 
" style="fill:none;stroke:#000000;stroke-linecap:square;stroke-linejoin:miter;"/>
   </g>
   <g id="patch_6">
    <path d="M 72 388.8 
L 72 43.2 
" style="fill:none;stroke:#000000;stroke-linecap:square;stroke-linejoin:miter;"/>
   </g>
   <g id="matplotlib.axis_1">
    <g id="xtick_1">
     <g id="line2d_3">
      <defs>
       <path d="M 0 0 
L 0 -4 
" id="mdc87310053" style="stroke:#000000;stroke-width:0.5;"/>
      </defs>
      <g>
       <use style="stroke:#000000;stroke-width:0.5;" x="72.0" xlink:href="#mdc87310053" y="388.8"/>
      </g>
     </g>
     <g id="line2d_4">
      <defs>
       <path d="M 0 0 
L 0 4 
" id="m8eec781f04" style="stroke:#000000;stroke-width:0.5;"/>
      </defs>
      <g>
       <use style="stroke:#000000;stroke-width:0.5;" x="72.0" xlink:href="#m8eec781f04" y="43.2"/>
      </g>
     </g>
     <g id="text_1">
      <!-- 0 -->
      <defs>
       <path d="M 28.40625 71 
C 14.40625 71 4.203125 55.6875 4.203125 34.75 
C 4.203125 14.125 14.09375 -1 27.59375 -1 
C 41.59375 -1 51.40625 13.625 51.40625 34.4375 
C 51.40625 45.0625 49.203125 53.875 45 60.78125 
C 41.09375 67.09375 34.703125 71 28.40625 71 
M 27.703125 66.703125 
C 31 66.703125 34.203125 64.5 36.59375 60.5 
C 39.296875 55.875 40.203125 49.96875 40.203125 36.25 
C 40.203125 22.21875 39.5 15.625 37.5 11.203125 
C 35.203125 6.296875 31.59375 3.296875 27.796875 3.296875 
C 24.5 3.296875 21.296875 5.5 18.90625 9.5 
C 16.09375 14.21875 15.296875 20.53125 15.296875 36.859375 
C 15.296875 48.484375 16 54.375 18 58.6875 
C 20.296875 63.796875 23.90625 66.703125 27.703125 66.703125 
" id="Century_Schoolbook_L_Roman-48"/>
      </defs>
      <g transform="translate(67.0147502894 406.105968098)scale(0.18 -0.18)">
       <use transform="scale(0.996264009963)" xlink:href="#Century_Schoolbook_L_Roman-48"/>
      </g>
     </g>
    </g>
    <g id="xtick_2">
     <g id="line2d_5">
      <g>
       <use style="stroke:#000000;stroke-width:0.5;" x="183.6" xlink:href="#mdc87310053" y="388.8"/>
      </g>
     </g>
     <g id="line2d_6">
      <g>
       <use style="stroke:#000000;stroke-width:0.5;" x="183.6" xlink:href="#m8eec781f04" y="43.2"/>
      </g>
     </g>
     <g id="text_2">
      <!-- 500 -->
      <defs>
       <path d="M 16.40625 59.703125 
C 21.796875 58.40625 24.59375 58 28.5 58 
C 37 58 43.203125 61 46.5 66.484375 
C 47.59375 68.390625 48 69.28125 48 70.078125 
C 48 70.6875 47.703125 70.984375 47.203125 70.984375 
C 46.90625 70.984375 46.40625 70.875 45.90625 70.578125 
C 41 68.484375 38.296875 67.984375 32.59375 67.984375 
C 26.203125 67.984375 22.5 68.484375 12 70.984375 
C 11.59375 62.625 10.703125 51.984375 9.296875 39.65625 
C 7.203125 37.46875 6.5 36.171875 6.5 34.578125 
C 6.5 32.59375 7.796875 31.203125 9.703125 31.203125 
C 12.203125 31.203125 13.796875 33.328125 14.203125 37.359375 
C 17.703125 39.890625 21 41 25 41 
C 33.90625 41 39.296875 34.03125 39.296875 22.5 
C 39.296875 15.734375 37.59375 9.953125 34.59375 6.828125 
C 32.59375 4.703125 28.5 3.296875 24.40625 3.296875 
C 18.40625 3.296875 12.203125 6.421875 12.203125 9.5625 
C 12.203125 10.28125 12.796875 11.078125 14 11.78125 
C 17.09375 13.703125 18 15.03125 18 17.75 
C 18 21.296875 15.296875 24.015625 11.703125 24.015625 
C 7.703125 24.015625 4.5 20.28125 4.5 15.546875 
C 4.5 10.5 7.40625 5.453125 11.90625 2.328125 
C 15.296875 0.109375 19.40625 -1 24.59375 -1 
C 40.296875 -1 50.203125 8.28125 50.203125 23.109375 
C 50.203125 36.828125 41.09375 46 27.59375 46 
C 23.40625 46 20.203125 45.296875 14.703125 43 
z
" id="Century_Schoolbook_L_Roman-53"/>
      </defs>
      <g transform="translate(168.644250868 406.105968098)scale(0.18 -0.18)">
       <use transform="scale(0.996264009963)" xlink:href="#Century_Schoolbook_L_Roman-53"/>
       <use transform="translate(55.3916769633 0.0)scale(0.996264009963)" xlink:href="#Century_Schoolbook_L_Roman-48"/>
       <use transform="translate(110.783353927 0.0)scale(0.996264009963)" xlink:href="#Century_Schoolbook_L_Roman-48"/>
      </g>
     </g>
    </g>
    <g id="xtick_3">
     <g id="line2d_7">
      <g>
       <use style="stroke:#000000;stroke-width:0.5;" x="295.2" xlink:href="#mdc87310053" y="388.8"/>
      </g>
     </g>
     <g id="line2d_8">
      <g>
       <use style="stroke:#000000;stroke-width:0.5;" x="295.2" xlink:href="#m8eec781f04" y="43.2"/>
      </g>
     </g>
     <g id="text_3">
      <!-- 1000 -->
      <defs>
       <path d="M 32.203125 70.5 
C 28.796875 66.234375 19.59375 63 10.40625 63 
L 10.40625 58.59375 
L 19.203125 58.59375 
C 25 58.59375 25.40625 58.203125 25.40625 52.3125 
L 25.40625 12.28125 
L 25.40625 9.375 
C 25.40625 5.1875 24.5 4.6875 16.5 4.6875 
L 10 4.6875 
L 10 0 
L 49.59375 0 
L 49.59375 4.6875 
L 44.09375 4.6875 
C 38.796875 4.6875 36.59375 5.09375 35.796875 6.09375 
C 35.09375 6.78125 35.09375 6.78125 35.09375 12.3125 
L 35.09375 53.671875 
C 35.09375 58.578125 35.296875 63.375 35.796875 70.5 
z
" id="Century_Schoolbook_L_Roman-49"/>
      </defs>
      <g transform="translate(275.259001158 406.105968098)scale(0.18 -0.18)">
       <use transform="scale(0.996264009963)" xlink:href="#Century_Schoolbook_L_Roman-49"/>
       <use transform="translate(55.3916769633 0.0)scale(0.996264009963)" xlink:href="#Century_Schoolbook_L_Roman-48"/>
       <use transform="translate(110.783353927 0.0)scale(0.996264009963)" xlink:href="#Century_Schoolbook_L_Roman-48"/>
       <use transform="translate(166.17503089 0.0)scale(0.996264009963)" xlink:href="#Century_Schoolbook_L_Roman-48"/>
      </g>
     </g>
    </g>
    <g id="xtick_4">
     <g id="line2d_9">
      <g>
       <use style="stroke:#000000;stroke-width:0.5;" x="406.8" xlink:href="#mdc87310053" y="388.8"/>
      </g>
     </g>
     <g id="line2d_10">
      <g>
       <use style="stroke:#000000;stroke-width:0.5;" x="406.8" xlink:href="#m8eec781f04" y="43.2"/>
      </g>
     </g>
     <g id="text_4">
      <!-- 1500 -->
      <g transform="translate(386.859001158 406.105968098)scale(0.18 -0.18)">
       <use transform="scale(0.996264009963)" xlink:href="#Century_Schoolbook_L_Roman-49"/>
       <use transform="translate(55.3916769633 0.0)scale(0.996264009963)" xlink:href="#Century_Schoolbook_L_Roman-53"/>
       <use transform="translate(110.783353927 0.0)scale(0.996264009963)" xlink:href="#Century_Schoolbook_L_Roman-48"/>
       <use transform="translate(166.17503089 0.0)scale(0.996264009963)" xlink:href="#Century_Schoolbook_L_Roman-48"/>
      </g>
     </g>
    </g>
    <g id="xtick_5">
     <g id="line2d_11">
      <g>
       <use style="stroke:#000000;stroke-width:0.5;" x="518.4" xlink:href="#mdc87310053" y="388.8"/>
      </g>
     </g>
     <g id="line2d_12">
      <g>
       <use style="stroke:#000000;stroke-width:0.5;" x="518.4" xlink:href="#m8eec781f04" y="43.2"/>
      </g>
     </g>
     <g id="text_5">
      <!-- 2000 -->
      <defs>
       <path d="M 50.5 21.5625 
L 46.09375 21.5625 
L 45.09375 16.46875 
C 43.796875 10.078125 43 9.375 36.796875 9.375 
L 14.40625 9.375 
C 21.296875 16.5625 23.59375 18.65625 30 23.65625 
C 39.09375 30.65625 43 34.15625 45.296875 37.140625 
C 48.5 41.53125 50.09375 46.03125 50.09375 50.8125 
C 50.09375 62.109375 40.59375 70.296875 27.59375 70.296875 
C 14.90625 70.296875 5.09375 62.109375 5.09375 51.515625 
C 5.09375 45.234375 8.296875 40.9375 13.09375 40.9375 
C 16.796875 40.9375 19.296875 43.4375 19.296875 47.03125 
C 19.296875 49.53125 17.90625 51.828125 15.703125 52.734375 
C 12 54.328125 11.796875 54.421875 11.796875 55.71875 
C 11.796875 57.21875 12.796875 59.515625 14.203125 61.21875 
C 16.703125 64.203125 20.90625 66 25.59375 66 
C 33.796875 66 38.796875 60.90625 38.796875 52.53125 
C 38.796875 45.125 35.296875 38.4375 27 29.65625 
L 21.09375 23.46875 
C 17.59375 19.78125 15 16.96875 13.296875 15.078125 
C 9.703125 10.875 7.90625 8.578125 3.5 2.796875 
L 3.5 0 
L 48.59375 0 
z
" id="Century_Schoolbook_L_Roman-50"/>
      </defs>
      <g transform="translate(498.459001158 406.105968098)scale(0.18 -0.18)">
       <use transform="scale(0.996264009963)" xlink:href="#Century_Schoolbook_L_Roman-50"/>
       <use transform="translate(55.3916769633 0.0)scale(0.996264009963)" xlink:href="#Century_Schoolbook_L_Roman-48"/>
       <use transform="translate(110.783353927 0.0)scale(0.996264009963)" xlink:href="#Century_Schoolbook_L_Roman-48"/>
       <use transform="translate(166.17503089 0.0)scale(0.996264009963)" xlink:href="#Century_Schoolbook_L_Roman-48"/>
      </g>
     </g>
    </g>
    <g id="text_6">
     <!-- Time (s) -->
     <defs>
      <path d="M 46.5 23 
C 46.59375 37.8125 38.09375 48.28125 25.90625 48.28125 
C 13.09375 48.28125 3.5 37.25 3.5 22.34375 
C 3.5 8.4375 12.59375 -1 26.09375 -1 
C 35.59375 -1 42.40625 3.6875 46.5 13.1875 
L 43 15.09375 
C 38.90625 7.390625 34.703125 4.390625 28 4.390625 
C 22.90625 4.390625 19.203125 6.59375 16.59375 11 
C 14.796875 14 14 17.5 14.09375 23 
z
M 14.203125 27.296875 
C 14.203125 30.34375 14.59375 32.5 15.59375 35.25 
C 17.703125 41.140625 20.90625 44 25.703125 44 
C 31.796875 44 35.796875 38.78125 35.796875 30.921875 
C 35.796875 28.078125 34.90625 27.296875 31.703125 27.296875 
z
" id="Century_Schoolbook_L_Roman-101"/>
      <path d="M 39 48 
L 35.5 48 
L 32.59375 44.40625 
C 29 47.203125 25.40625 48.390625 20.40625 48.390625 
C 11.59375 48.390625 5.796875 42.625 5.796875 33.953125 
C 5.796875 30.078125 7.09375 26.78125 9.296875 24.8125 
C 11.59375 22.703125 13.90625 21.71875 19.90625 20.3125 
L 25.203125 19.125 
C 33.09375 17.234375 35.90625 15.234375 35.90625 11.265625 
C 35.90625 6.578125 31.796875 3.296875 25.90625 3.296875 
C 17.5 3.296875 11.5 8.765625 9.09375 18.875 
L 5.09375 18.875 
L 5.09375 0 
L 8.59375 0 
L 12.09375 3.90625 
C 16.203125 0.59375 20.796875 -1 25.796875 -1 
C 35.59375 -1 42.09375 5.078125 42.09375 14.34375 
C 42.09375 18.71875 40.703125 22.09375 37.90625 24.390625 
C 35.5 26.484375 33.5 27.28125 27.40625 28.5625 
L 22.40625 29.671875 
C 16.90625 30.859375 16.90625 30.859375 15.09375 31.859375 
C 12.90625 32.859375 11.59375 34.9375 11.59375 37.140625 
C 11.59375 41.109375 15.40625 44 20.90625 44 
C 24.703125 44 27.796875 42.703125 30.59375 40.015625 
C 32.796875 37.8125 33.90625 35.828125 35.5 31.234375 
L 39 31.234375 
z
" id="Century_Schoolbook_L_Roman-115"/>
      <path d="M 20.59375 46 
L 1.796875 46 
L 1.796875 41.21875 
L 6.90625 41.21875 
C 10.59375 41.21875 11.203125 40.515625 11.203125 36.203125 
L 11.203125 12.296875 
L 11.203125 8.296875 
C 11.203125 4.296875 10.09375 3.59375 3.703125 3.59375 
L 3 3.59375 
L 3 0 
L 28.90625 0 
L 28.90625 3.59375 
L 28.203125 3.59375 
C 21.703125 3.59375 20.59375 4.28125 20.59375 8.21875 
L 20.59375 12.171875 
z
M 15.90625 71.578125 
C 12.703125 71.578125 10.09375 68.984375 10.09375 65.796875 
C 10.09375 62.703125 12.703125 60 15.796875 60 
C 19.09375 60 21.703125 62.59375 21.703125 65.796875 
C 21.703125 68.984375 19.09375 71.578125 15.90625 71.578125 
" id="Century_Schoolbook_L_Roman-105"/>
      <path d="M 20.09375 46 
L 2.296875 46 
L 2.296875 41.21875 
L 6.40625 41.21875 
C 10.09375 41.21875 10.703125 40.515625 10.703125 36.203125 
L 10.703125 12.296875 
L 10.703125 8.40625 
C 10.703125 4.296875 9.59375 3.59375 3.203125 3.59375 
L 2.796875 3.59375 
L 2.796875 0 
L 28 0 
L 28 3.59375 
L 27.59375 3.59375 
C 21.203125 3.59375 20.09375 4.296875 20.09375 8.390625 
L 20.09375 12.28125 
L 20.09375 26.453125 
C 20.09375 35.328125 25 41.921875 31.5 41.921875 
C 34.09375 41.921875 36.90625 40.515625 38.09375 38.625 
C 39.5 36.734375 40.09375 33.828125 40.09375 29.734375 
L 40.09375 12.28125 
L 40.09375 8.28125 
C 40.09375 4.296875 39 3.59375 32.5 3.59375 
L 32.09375 3.59375 
L 32.09375 0 
L 57.40625 0 
L 57.40625 3.59375 
L 57 3.59375 
C 50.59375 3.59375 49.5 4.296875 49.5 8.28125 
L 49.5 12.28125 
L 49.5 25.546875 
C 49.5 35.53125 54 41.921875 61 41.921875 
C 64.296875 41.921875 67 40.015625 68.296875 36.921875 
C 69.203125 34.734375 69.5 32.53125 69.5 28.640625 
L 69.5 12.28125 
L 69.5 8.28125 
C 69.5 4.296875 68.40625 3.59375 61.90625 3.59375 
L 61.5 3.59375 
L 61.5 0 
L 86.796875 0 
L 86.796875 3.59375 
L 86.40625 3.59375 
C 80 3.59375 78.90625 4.296875 78.90625 8.390625 
L 78.90625 12.28125 
L 78.90625 30.640625 
C 78.90625 36.828125 78.296875 38.921875 75.703125 42.3125 
C 72.796875 46.015625 68.703125 48 63.90625 48 
C 57.40625 48 52.59375 44.9375 48.296875 38.109375 
C 46.59375 44.046875 41.203125 48 34.5 48 
C 28.5 48 24 45.140625 20.09375 38.921875 
z
" id="Century_Schoolbook_L_Roman-109"/>
      <path d="M 63.296875 72 
L 3.40625 72 
L 1.90625 44.265625 
L 6.203125 44.265625 
C 6.90625 49.25 7.796875 53.046875 8.90625 56.234375 
C 11.5 63.515625 16.296875 67.3125 23.09375 67.3125 
C 26.40625 67.3125 27.796875 66.203125 27.796875 63.71875 
L 27.796875 12.28125 
L 27.796875 9.375 
C 27.796875 5.1875 26.90625 4.6875 18.796875 4.6875 
L 16.203125 4.6875 
L 16.203125 0 
L 50.5 0 
L 50.5 4.6875 
L 47.90625 4.6875 
C 39.90625 4.6875 39 5.1875 39 9.375 
L 39 12.28125 
L 39 63.71875 
C 39 66.203125 40.40625 67.3125 43.703125 67.3125 
C 49.796875 67.3125 54.703125 63.90625 57.203125 57.921875 
C 58.703125 54.25 59.703125 49.953125 60.5 44.265625 
L 64.796875 44.265625 
z
" id="Century_Schoolbook_L_Roman-84"/>
      <path d="M 5.40625 -12.28125 
C 11.40625 -8.578125 14.59375 -5.984375 18 -1.890625 
C 25.59375 6.984375 29.703125 18.5625 29.703125 30.640625 
C 29.703125 42.015625 26.09375 52.703125 19.40625 61.484375 
C 15.59375 66.375 12.203125 69.359375 5.40625 73.453125 
L 5.40625 69.765625 
C 15.40625 60.984375 19.40625 49.796875 19.40625 30.640625 
C 19.40625 11.375 15.40625 0.203125 5.40625 -8.578125 
z
" id="Century_Schoolbook_L_Roman-41"/>
      <path d="M 27.90625 73.453125 
C 21.90625 69.765625 18.703125 67.171875 15.296875 63.171875 
C 7.703125 54.1875 3.59375 42.71875 3.59375 30.640625 
C 3.59375 19.265625 7.203125 8.578125 13.90625 -0.296875 
C 17.703125 -5.09375 21.09375 -8.078125 27.90625 -12.28125 
L 27.90625 -8.578125 
C 17.90625 0.203125 13.90625 11.484375 13.90625 30.640625 
C 13.90625 49.796875 17.90625 60.984375 27.90625 69.765625 
z
" id="Century_Schoolbook_L_Roman-40"/>
     </defs>
     <g transform="translate(261.32556429 427.819096479)scale(0.18 -0.18)">
      <use transform="scale(0.996264009963)" xlink:href="#Century_Schoolbook_L_Roman-84"/>
      <use transform="translate(66.4500311333 0.0)scale(0.996264009963)" xlink:href="#Century_Schoolbook_L_Roman-105"/>
      <use transform="translate(97.8313441294 0.0)scale(0.996264009963)" xlink:href="#Century_Schoolbook_L_Roman-109"/>
      <use transform="translate(186.398250822 0.0)scale(0.996264009963)" xlink:href="#Century_Schoolbook_L_Roman-101"/>
      <use transform="translate(263.906620923 0.0)scale(0.996264009963)" xlink:href="#Century_Schoolbook_L_Roman-40"/>
      <use transform="translate(297.081850653 0.0)scale(0.996264009963)" xlink:href="#Century_Schoolbook_L_Roman-115"/>
      <use transform="translate(343.207661212 0.0)scale(0.996264009963)" xlink:href="#Century_Schoolbook_L_Roman-41"/>
     </g>
    </g>
   </g>
   <g id="matplotlib.axis_2">
    <g id="ytick_1">
     <g id="line2d_13">
      <defs>
       <path d="M 0 0 
L 4 0 
" id="m6a464e111d" style="stroke:#000000;stroke-width:0.5;"/>
      </defs>
      <g>
       <use style="stroke:#000000;stroke-width:0.5;" x="72.0" xlink:href="#m6a464e111d" y="388.8"/>
      </g>
     </g>
     <g id="line2d_14">
      <defs>
       <path d="M 0 0 
L -4 0 
" id="mcf0d8ed9df" style="stroke:#000000;stroke-width:0.5;"/>
      </defs>
      <g>
       <use style="stroke:#000000;stroke-width:0.5;" x="518.4" xlink:href="#mcf0d8ed9df" y="388.8"/>
      </g>
     </g>
     <g id="text_7">
      <!-- 0 -->
      <g transform="translate(58.0295005789 393.749403908)scale(0.18 -0.18)">
       <use transform="scale(0.996264009963)" xlink:href="#Century_Schoolbook_L_Roman-48"/>
      </g>
     </g>
    </g>
    <g id="ytick_2">
     <g id="line2d_15">
      <g>
       <use style="stroke:#000000;stroke-width:0.5;" x="72.0" xlink:href="#m6a464e111d" y="339.428571429"/>
      </g>
     </g>
     <g id="line2d_16">
      <g>
       <use style="stroke:#000000;stroke-width:0.5;" x="518.4" xlink:href="#mcf0d8ed9df" y="339.428571429"/>
      </g>
     </g>
     <g id="text_8">
      <!-- 5 -->
      <g transform="translate(58.0295005789 344.377975336)scale(0.18 -0.18)">
       <use transform="scale(0.996264009963)" xlink:href="#Century_Schoolbook_L_Roman-53"/>
      </g>
     </g>
    </g>
    <g id="ytick_3">
     <g id="line2d_17">
      <g>
       <use style="stroke:#000000;stroke-width:0.5;" x="72.0" xlink:href="#m6a464e111d" y="290.057142857"/>
      </g>
     </g>
     <g id="line2d_18">
      <g>
       <use style="stroke:#000000;stroke-width:0.5;" x="518.4" xlink:href="#mcf0d8ed9df" y="290.057142857"/>
      </g>
     </g>
     <g id="text_9">
      <!-- 10 -->
      <g transform="translate(48.0590011578 295.006546765)scale(0.18 -0.18)">
       <use transform="scale(0.996264009963)" xlink:href="#Century_Schoolbook_L_Roman-49"/>
       <use transform="translate(55.3916769633 0.0)scale(0.996264009963)" xlink:href="#Century_Schoolbook_L_Roman-48"/>
      </g>
     </g>
    </g>
    <g id="ytick_4">
     <g id="line2d_19">
      <g>
       <use style="stroke:#000000;stroke-width:0.5;" x="72.0" xlink:href="#m6a464e111d" y="240.685714286"/>
      </g>
     </g>
     <g id="line2d_20">
      <g>
       <use style="stroke:#000000;stroke-width:0.5;" x="518.4" xlink:href="#mcf0d8ed9df" y="240.685714286"/>
      </g>
     </g>
     <g id="text_10">
      <!-- 15 -->
      <g transform="translate(48.0590011578 245.635118193)scale(0.18 -0.18)">
       <use transform="scale(0.996264009963)" xlink:href="#Century_Schoolbook_L_Roman-49"/>
       <use transform="translate(55.3916769633 0.0)scale(0.996264009963)" xlink:href="#Century_Schoolbook_L_Roman-53"/>
      </g>
     </g>
    </g>
    <g id="ytick_5">
     <g id="line2d_21">
      <g>
       <use style="stroke:#000000;stroke-width:0.5;" x="72.0" xlink:href="#m6a464e111d" y="191.314285714"/>
      </g>
     </g>
     <g id="line2d_22">
      <g>
       <use style="stroke:#000000;stroke-width:0.5;" x="518.4" xlink:href="#mcf0d8ed9df" y="191.314285714"/>
      </g>
     </g>
     <g id="text_11">
      <!-- 20 -->
      <g transform="translate(48.0590011578 196.263689622)scale(0.18 -0.18)">
       <use transform="scale(0.996264009963)" xlink:href="#Century_Schoolbook_L_Roman-50"/>
       <use transform="translate(55.3916769633 0.0)scale(0.996264009963)" xlink:href="#Century_Schoolbook_L_Roman-48"/>
      </g>
     </g>
    </g>
    <g id="ytick_6">
     <g id="line2d_23">
      <g>
       <use style="stroke:#000000;stroke-width:0.5;" x="72.0" xlink:href="#m6a464e111d" y="141.942857143"/>
      </g>
     </g>
     <g id="line2d_24">
      <g>
       <use style="stroke:#000000;stroke-width:0.5;" x="518.4" xlink:href="#mcf0d8ed9df" y="141.942857143"/>
      </g>
     </g>
     <g id="text_12">
      <!-- 25 -->
      <g transform="translate(48.0590011578 146.892261051)scale(0.18 -0.18)">
       <use transform="scale(0.996264009963)" xlink:href="#Century_Schoolbook_L_Roman-50"/>
       <use transform="translate(55.3916769633 0.0)scale(0.996264009963)" xlink:href="#Century_Schoolbook_L_Roman-53"/>
      </g>
     </g>
    </g>
    <g id="ytick_7">
     <g id="line2d_25">
      <g>
       <use style="stroke:#000000;stroke-width:0.5;" x="72.0" xlink:href="#m6a464e111d" y="92.5714285714"/>
      </g>
     </g>
     <g id="line2d_26">
      <g>
       <use style="stroke:#000000;stroke-width:0.5;" x="518.4" xlink:href="#mcf0d8ed9df" y="92.5714285714"/>
      </g>
     </g>
     <g id="text_13">
      <!-- 30 -->
      <defs>
       <path d="M 34.59375 37.359375 
C 36 37.859375 36.203125 37.859375 36.90625 38.15625 
C 43.90625 41.0625 47.90625 46.671875 47.90625 53.765625 
C 47.90625 64.1875 39.90625 71 27.5 71 
C 15.796875 71 6.90625 63.96875 6.90625 54.71875 
C 6.90625 50.546875 9.703125 47.59375 13.5 47.59375 
C 17 47.59375 19.40625 50.046875 19.40625 53.71875 
C 19.40625 55.875 18.59375 57.296875 16.296875 58.9375 
C 15.296875 59.640625 15 60.15625 15 60.78125 
C 15 63.640625 20.90625 66.703125 26.5 66.703125 
C 33.703125 66.703125 37.5 62.125 37.5 53.46875 
C 37.5 43.984375 33.703125 39 26.5 39 
C 25.59375 39 24 39 22.5 39 
C 21.703125 39 20.90625 39 20.296875 39 
C 18.203125 39 17.09375 38.125 17.09375 36.40625 
C 17.09375 34.78125 18.203125 34.015625 20.203125 34.015625 
C 20.5 34.015625 21.296875 34.015625 22.59375 34.015625 
C 26.40625 34.015625 26.5 34.015625 27.296875 34.015625 
C 34.703125 34.015625 38.703125 28.828125 38.703125 19.140625 
C 38.703125 9.0625 33.59375 3.296875 24.703125 3.296875 
C 18.40625 3.296875 11.59375 6.640625 11.59375 9.6875 
C 11.59375 10.59375 11.796875 10.765625 13.796875 11.875 
C 16.59375 13.53125 17.703125 15.21875 17.703125 17.65625 
C 17.703125 21.203125 15 23.875 11.296875 23.875 
C 7.09375 23.875 4.203125 20.328125 4.203125 15.1875 
C 4.203125 5.609375 13.09375 -1 25.90625 -1 
C 40.296875 -1 49.796875 7.015625 49.796875 19.328125 
C 49.796875 28.734375 44.90625 34.4375 34.59375 37.359375 
" id="Century_Schoolbook_L_Roman-51"/>
      </defs>
      <g transform="translate(48.0590011578 97.5208324791)scale(0.18 -0.18)">
       <use transform="scale(0.996264009963)" xlink:href="#Century_Schoolbook_L_Roman-51"/>
       <use transform="translate(55.3916769633 0.0)scale(0.996264009963)" xlink:href="#Century_Schoolbook_L_Roman-48"/>
      </g>
     </g>
    </g>
    <g id="ytick_8">
     <g id="line2d_27">
      <g>
       <use style="stroke:#000000;stroke-width:0.5;" x="72.0" xlink:href="#m6a464e111d" y="43.2"/>
      </g>
     </g>
     <g id="line2d_28">
      <g>
       <use style="stroke:#000000;stroke-width:0.5;" x="518.4" xlink:href="#mcf0d8ed9df" y="43.2"/>
      </g>
     </g>
     <g id="text_14">
      <!-- 35 -->
      <g transform="translate(48.0590011578 48.1494039077)scale(0.18 -0.18)">
       <use transform="scale(0.996264009963)" xlink:href="#Century_Schoolbook_L_Roman-51"/>
       <use transform="translate(55.3916769633 0.0)scale(0.996264009963)" xlink:href="#Century_Schoolbook_L_Roman-53"/>
      </g>
     </g>
    </g>
    <g id="text_15">
     <!-- Cluster size -->
     <defs>
      <path d="M 19.40625 47 
L 19.40625 67 
L 15.296875 67 
C 14.296875 53.875 9.90625 47.1875 1.796875 46.59375 
L 1.796875 42.703125 
L 10 42.703125 
L 10 17.265625 
C 10 10.28125 10.203125 7.78125 11.203125 5.484375 
C 12.796875 1.296875 16.796875 -1 22.59375 -1 
C 26.5 -1 29.90625 0.203125 32.203125 2.390625 
C 35.5 5.59375 37.40625 10.875 37.40625 16.375 
C 37.40625 16.96875 37.40625 17.671875 37.296875 18.671875 
L 33.09375 18.671875 
C 32.796875 9.6875 30.203125 5.09375 25.296875 5.09375 
C 23 5.09375 21 6.28125 20.296875 7.984375 
C 19.703125 9.375 19.40625 11.875 19.40625 15.46875 
L 19.40625 42.703125 
L 34.09375 42.703125 
L 34.09375 47 
z
" id="Century_Schoolbook_L_Roman-116"/>
      <path d="M 41.203125 0 
L 59.40625 0 
L 59.40625 4.703125 
L 56.90625 4.703125 
C 51.40625 4.703125 50.59375 5.59375 50.59375 11.953125 
L 50.59375 46.78125 
L 31.796875 46.78125 
L 31.796875 42 
L 36.90625 42 
C 40.59375 42 41.203125 41.296875 41.203125 36.953125 
L 41.203125 24.5625 
C 41.203125 18.8125 40.59375 15.484375 39.09375 12.15625 
C 37 7.71875 33 5.09375 28.09375 5.09375 
C 25 5.09375 22.40625 6.1875 21.09375 8.171875 
C 19.796875 10.046875 19.59375 11.046875 19.59375 16.5 
L 19.59375 46.78125 
L 2.09375 46.78125 
L 2.09375 42 
L 5.90625 42 
C 9.59375 42 10.203125 41.296875 10.203125 36.953125 
L 10.203125 15.21875 
C 10.203125 10.078125 10.59375 7.765625 12.09375 5.453125 
C 14.796875 1.3125 19.59375 -1 25.59375 -1 
C 32.203125 -1 36.796875 1.71875 41.203125 8.125 
z
" id="Century_Schoolbook_L_Roman-117"/>
      <path d="M 19.796875 46 
L 2.09375 46 
L 2.09375 41.21875 
L 6.203125 41.21875 
C 9.90625 41.21875 10.5 40.515625 10.5 36.203125 
L 10.5 12.296875 
L 10.5 8.296875 
C 10.5 4.296875 9.40625 3.59375 2.90625 3.59375 
L 2.5 3.59375 
L 2.5 0 
L 29.203125 0 
L 29.203125 3.59375 
L 27.296875 3.59375 
C 20.90625 3.59375 19.796875 4.296875 19.796875 8.296875 
L 19.796875 12.296875 
L 19.796875 13.296875 
C 19.796875 20.8125 21.203125 28.40625 23.703125 34.109375 
C 26.09375 39.703125 29.5 42.8125 33.703125 43.3125 
C 32.296875 41.703125 31.90625 40.6875 31.90625 38.765625 
C 31.90625 35.546875 34.203125 33.234375 37.40625 33.234375 
C 41 33.234375 43.5 35.9375 43.5 40.015625 
C 43.5 44.8125 40.09375 48 34.796875 48 
C 28.5 48 23 42.921875 19.796875 34.140625 
z
" id="Century_Schoolbook_L_Roman-114"/>
      <path d="M 20.40625 73 
L 1.90625 73 
L 1.90625 68.21875 
L 6.796875 68.21875 
C 10.40625 68.21875 11 67.515625 11 63.21875 
L 11 12.28125 
L 11 8.28125 
C 11 4.296875 9.90625 3.59375 3.5 3.59375 
L 2.796875 3.59375 
L 2.796875 0 
L 28.703125 0 
L 28.703125 3.59375 
L 28 3.59375 
C 21.5 3.59375 20.40625 4.296875 20.40625 8.25 
L 20.40625 12.21875 
z
" id="Century_Schoolbook_L_Roman-108"/>
      <path d="M 42.796875 46.296875 
L 6.703125 46.296875 
L 5.796875 29.5 
L 9.796875 29.5 
C 10.703125 38.421875 14.296875 42 22.5 42 
L 31.203125 42 
L 3.90625 3.59375 
L 3.90625 0 
L 42.796875 0 
L 43.5 17.78125 
L 39.5 17.78125 
C 38.5 7.96875 34.703125 4.296875 25.703125 4.296875 
L 15.5 4.296875 
L 42.796875 42.703125 
z
" id="Century_Schoolbook_L_Roman-122"/>
      <path d="M 63.90625 72 
L 60.09375 72 
L 56.09375 66.015625 
C 49 71.203125 45.09375 72.703125 38.40625 72.703125 
C 28.703125 72.703125 20.703125 68.8125 13.90625 60.78125 
C 7.5 53.234375 4.5 44.890625 4.5 34.65625 
C 4.5 13.296875 18.59375 -2 38.296875 -2 
C 54.296875 -2 64.5 7.34375 66.796875 24.015625 
L 62.09375 24.8125 
C 61.09375 19.546875 59.90625 15.984375 58.09375 13.015625 
C 54 6.171875 47.59375 2.6875 39.5 2.6875 
C 24.703125 2.6875 17.703125 12.90625 17.703125 34.265625 
C 17.703125 45.46875 19.203125 53.015625 22.59375 58.96875 
C 25.703125 64.53125 31.90625 68 38.296875 68 
C 45.296875 68 51.5 64.328125 55.296875 57.96875 
C 57.203125 54.6875 58.703125 50.8125 61 43.171875 
L 65.40625 43.171875 
z
" id="Century_Schoolbook_L_Roman-67"/>
     </defs>
     <g transform="translate(39.651840875 265.143957231)rotate(-90.0)scale(0.18 -0.18)">
      <use transform="scale(0.996264009963)" xlink:href="#Century_Schoolbook_L_Roman-67"/>
      <use transform="translate(71.9299848469 0.0)scale(0.996264009963)" xlink:href="#Century_Schoolbook_L_Roman-108"/>
      <use transform="translate(103.311297843 0.0)scale(0.996264009963)" xlink:href="#Century_Schoolbook_L_Roman-117"/>
      <use transform="translate(164.18292852 0.0)scale(0.996264009963)" xlink:href="#Century_Schoolbook_L_Roman-115"/>
      <use transform="translate(210.308739079 0.0)scale(0.996264009963)" xlink:href="#Century_Schoolbook_L_Roman-116"/>
      <use transform="translate(249.062445274 0.0)scale(0.996264009963)" xlink:href="#Century_Schoolbook_L_Roman-101"/>
      <use transform="translate(298.875645772 0.0)scale(0.996264009963)" xlink:href="#Century_Schoolbook_L_Roman-114"/>
      <use transform="translate(370.804384072 0.0)scale(0.996264009963)" xlink:href="#Century_Schoolbook_L_Roman-115"/>
      <use transform="translate(416.930194631 0.0)scale(0.996264009963)" xlink:href="#Century_Schoolbook_L_Roman-105"/>
      <use transform="translate(448.311507628 0.0)scale(0.996264009963)" xlink:href="#Century_Schoolbook_L_Roman-122"/>
      <use transform="translate(496.231219718 0.0)scale(0.996264009963)" xlink:href="#Century_Schoolbook_L_Roman-101"/>
     </g>
    </g>
   </g>
   <g id="legend_1">
    <g id="patch_7">
     <path d="M 311.092049 379.8 
L 509.4 379.8 
L 509.4 322.973743 
L 311.092049 322.973743 
z
" style="fill:#ffffff;stroke:#000000;stroke-linejoin:miter;"/>
    </g>
    <g id="line2d_29">
     <path d="M 323.692049 337.179711 
L 348.892049 337.179711 
" style="fill:none;opacity:0.8;stroke:#ff0000;stroke-linecap:square;"/>
    </g>
    <g id="line2d_30"/>
    <g id="text_16">
     <!-- FCD file -->
     <defs>
      <path d="M 62.40625 72 
L 2.90625 72 
L 2.90625 67.3125 
L 4.703125 67.3125 
C 12.796875 67.3125 13.703125 66.8125 13.703125 62.609375 
L 13.703125 59.734375 
L 13.703125 12.28125 
L 13.703125 9.375 
C 13.703125 5.1875 12.796875 4.6875 4.703125 4.6875 
L 2.90625 4.6875 
L 2.90625 0 
L 37.203125 0 
L 37.203125 4.6875 
L 33.90625 4.6875 
C 25.796875 4.6875 24.90625 5.1875 24.90625 9.390625 
L 24.90625 12.296875 
L 24.90625 35 
L 26.90625 35 
C 33.09375 35 35.5 34.375 37.59375 32.234375 
C 40.09375 29.578125 41.09375 26.296875 41.296875 20.265625 
L 46 20.265625 
L 46 53 
L 41.296875 53 
C 40.796875 43.46875 36.796875 39.6875 27.296875 39.6875 
L 24.90625 39.6875 
L 24.90625 62.328125 
C 24.90625 66.609375 25.796875 67.3125 31.203125 67.3125 
L 35.796875 67.3125 
C 52.296875 67.3125 56.59375 63.5 59.40625 46.390625 
L 63.796875 46.390625 
z
" id="Century_Schoolbook_L_Roman-70"/>
      <path d="M 11.09375 46.296875 
L 1.59375 46.296875 
L 1.59375 42 
L 11.09375 42 
L 11.09375 12.234375 
L 11.09375 8.25 
C 11.09375 4.296875 10 3.59375 3.5 3.59375 
L 3.09375 3.59375 
L 3.09375 0 
L 28.40625 0 
L 28.40625 3.59375 
L 28 3.59375 
C 21.59375 3.59375 20.5 4.296875 20.5 8.15625 
L 20.5 12.234375 
L 20.5 42 
L 37.203125 42 
C 41.203125 42 41.5 41.59375 41.5 35.15625 
L 41.5 12.234375 
L 41.5 8.25 
C 41.5 4.296875 40.40625 3.59375 33.90625 3.59375 
L 33.5 3.59375 
L 33.5 0 
L 58.796875 0 
L 58.796875 3.59375 
L 58.40625 3.59375 
C 52 3.59375 50.90625 4.28125 50.90625 8.125 
L 50.90625 12.15625 
L 50.90625 46.59375 
C 43.703125 46.59375 40.40625 46.59375 35.59375 46.59375 
L 20.5 46.59375 
L 20.5 48.640625 
C 20.5 55.75 21.59375 60.53125 24.09375 63.75 
C 26.703125 67.265625 30.40625 69.015625 35.09375 69.015625 
C 38.203125 69.015625 39.796875 68.515625 39.796875 67.4375 
C 39.796875 67.03125 39.796875 66.9375 39.203125 66.140625 
C 38.5 65.265625 38.09375 63.78125 38.09375 62.59375 
C 38.09375 59.71875 40.796875 57.453125 44.296875 57.453125 
C 48.09375 57.453125 50.59375 59.84375 50.59375 63.40625 
C 50.59375 69.234375 44.90625 73 35.796875 73 
C 28.09375 73 22.203125 70.828125 17.5 66.171875 
C 12.90625 61.71875 11.09375 56.28125 11.09375 47.1875 
z
" id="Century_Schoolbook_L_Roman-2"/>
      <path d="M 13.703125 12.28125 
L 13.703125 9.375 
C 13.703125 5.1875 12.796875 4.6875 4.796875 4.6875 
L 2.90625 4.6875 
L 2.90625 0 
L 36.5 0 
C 45.40625 0 52.203125 1.390625 57.5 4.390625 
C 67.59375 10.0625 73.203125 21.4375 73.203125 36.390625 
C 73.203125 50.0625 68.203125 60.9375 59 66.90625 
C 53.5 70.40625 46.09375 72 34.703125 72 
L 2.90625 72 
L 2.90625 67.3125 
L 4.796875 67.3125 
C 12.796875 67.3125 13.703125 66.8125 13.703125 62.609375 
L 13.703125 59.734375 
z
M 30.59375 4.6875 
C 25.59375 4.6875 24.90625 5.296875 24.90625 10.1875 
L 24.90625 61.71875 
C 24.90625 66.609375 25.59375 67.3125 30.59375 67.3125 
L 35.796875 67.3125 
C 52.90625 67.3125 60 58.046875 60 36 
C 60 13.65625 53.5 4.6875 37.40625 4.6875 
z
" id="Century_Schoolbook_L_Roman-68"/>
     </defs>
     <g transform="translate(368.69204886 343.479711336)scale(0.18 -0.18)">
      <use transform="scale(0.996264009963)" xlink:href="#Century_Schoolbook_L_Roman-70"/>
      <use transform="translate(66.4500311333 0.0)scale(0.996264009963)" xlink:href="#Century_Schoolbook_L_Roman-67"/>
      <use transform="translate(138.38001598 0.0)scale(0.996264009963)" xlink:href="#Century_Schoolbook_L_Roman-68"/>
      <use transform="translate(243.583555685 0.0)scale(0.996264009963)" xlink:href="#Century_Schoolbook_L_Roman-2"/>
      <use transform="translate(304.455186362 0.0)scale(0.996264009963)" xlink:href="#Century_Schoolbook_L_Roman-108"/>
      <use transform="translate(335.836499358 0.0)scale(0.996264009963)" xlink:href="#Century_Schoolbook_L_Roman-101"/>
     </g>
    </g>
    <g id="line2d_31">
     <path d="M 323.692049 362.89284 
L 348.892049 362.89284 
" style="fill:none;opacity:0.8;stroke:#0000ff;stroke-linecap:square;"/>
    </g>
    <g id="line2d_32"/>
    <g id="text_17">
     <!-- Implementation -->
     <defs>
      <path d="M 26 59.734375 
L 26 62.609375 
C 26 66.8125 26.90625 67.3125 34.90625 67.3125 
L 36.90625 67.3125 
L 36.90625 72 
L 3.796875 72 
L 3.796875 67.3125 
L 5.796875 67.3125 
C 13.90625 67.3125 14.796875 66.8125 14.796875 62.609375 
L 14.796875 59.734375 
L 14.796875 12.28125 
L 14.796875 9.375 
C 14.796875 5.1875 13.90625 4.6875 5.796875 4.6875 
L 3.796875 4.6875 
L 3.796875 0 
L 36.90625 0 
L 36.90625 4.6875 
L 34.90625 4.6875 
C 26.90625 4.6875 26 5.1875 26 9.375 
L 26 12.28125 
z
" id="Century_Schoolbook_L_Roman-73"/>
      <path d="M 45.203125 32.578125 
C 45.203125 38.796875 44.09375 41.96875 41.203125 44.34375 
C 37.90625 46.90625 33 48.28125 26.59375 48.28125 
C 15.40625 48.28125 7.09375 43.046875 7.09375 35.921875 
C 7.09375 32.15625 9.40625 29.78125 12.90625 29.78125 
C 16 29.78125 18.296875 31.859375 18.296875 34.8125 
C 18.296875 36.109375 17.796875 37.484375 16.796875 38.875 
C 16.203125 39.546875 16.09375 39.84375 16.09375 40.15625 
C 16.09375 42.21875 20.203125 44 25 44 
C 28.09375 44 31.59375 43.015625 33.203125 41.53125 
C 35.09375 39.953125 35.796875 37.578125 35.796875 33.125 
L 35.796875 29.28125 
C 25.296875 27.484375 22.09375 26.6875 17.203125 24.8125 
C 8.59375 21.609375 4.40625 16.9375 4.40625 10.65625 
C 4.40625 3.578125 10.09375 -1 18.90625 -1 
C 25.796875 -1 32 1.859375 36.296875 7.0625 
C 37.90625 1.984375 40.40625 0 45.09375 0 
C 49.59375 0 54.296875 2.890625 54.296875 5.78125 
C 54.296875 6.46875 53.796875 6.96875 53.296875 6.96875 
C 52.90625 6.96875 52.5 6.875 51.796875 6.578125 
C 50.203125 6 49.796875 5.890625 49 5.890625 
C 46.203125 5.890625 45.203125 7.78125 45.203125 12.71875 
z
M 35.796875 20.46875 
C 35.796875 14.46875 35.5 13.078125 33.796875 10.484375 
C 31.296875 6.78125 26.703125 4.296875 22.40625 4.296875 
C 17.90625 4.296875 14.5 7.59375 14.5 12.078125 
C 14.5 16.265625 16.59375 19.265625 21 21.359375 
C 24.09375 22.75 28 23.75 35.796875 25.046875 
z
" id="Century_Schoolbook_L_Roman-97"/>
      <path d="M 20.09375 46 
L 2.796875 46 
L 2.796875 41.21875 
L 6.40625 41.21875 
C 10.09375 41.21875 10.703125 40.515625 10.703125 36.21875 
L 10.703125 -7.75 
L 10.703125 -11.71875 
C 10.703125 -15.71875 9.59375 -16.40625 3.203125 -16.40625 
L 2.796875 -16.40625 
L 2.796875 -20 
L 28.796875 -20 
L 28.796875 -16.40625 
L 27.703125 -16.40625 
C 21.203125 -16.40625 20.09375 -15.71875 20.09375 -11.734375 
L 20.09375 -7.75 
L 20.09375 6.6875 
C 23.40625 0.90625 27.203125 -1.390625 33.296875 -1.390625 
C 44.90625 -1.390625 53.5 9.265625 53.5 23.5 
C 53.5 37.265625 44.90625 48 33.90625 48 
C 27.703125 48 23.59375 45.4375 20.09375 39.515625 
z
M 32.09375 42.609375 
C 39 42.609375 43 35.75 43 24.09375 
C 43 11.265625 38.90625 4 31.796875 4 
C 24.703125 4 20 11.375 20 22.8125 
C 20 35.140625 24.5 42.609375 32.09375 42.609375 
" id="Century_Schoolbook_L_Roman-112"/>
      <path d="M 20 46 
L 2.703125 46 
L 2.703125 41.21875 
L 6.296875 41.21875 
C 10 41.21875 10.59375 40.515625 10.59375 36.203125 
L 10.59375 12.296875 
L 10.59375 8.296875 
C 10.59375 4.296875 9.5 3.59375 3.09375 3.59375 
L 2.703125 3.59375 
L 2.703125 0 
L 28 0 
L 28 3.59375 
L 27.59375 3.59375 
C 21.09375 3.59375 20 4.296875 20 8.28125 
L 20 12.28125 
L 20 22.65625 
C 20 27.546875 20.703125 32.03125 21.796875 34.328125 
C 23.90625 38.828125 28.40625 41.921875 32.703125 41.921875 
C 35.296875 41.921875 38.296875 40.421875 39.796875 38.421875 
C 41.296875 36.328125 42 33.234375 42 28.4375 
L 42 12.28125 
L 42 8.28125 
C 42 4.296875 40.90625 3.59375 34.40625 3.59375 
L 34 3.59375 
L 34 0 
L 59.296875 0 
L 59.296875 3.59375 
L 58.90625 3.59375 
C 52.5 3.59375 51.40625 4.296875 51.40625 8.28125 
L 51.40625 12.28125 
L 51.40625 27.953125 
C 51.40625 35.125 51.09375 36.921875 49.296875 40.328125 
C 46.796875 45.109375 41.703125 48 35.796875 48 
C 29.40625 48 24.40625 45.046875 20 38.515625 
z
" id="Century_Schoolbook_L_Roman-110"/>
      <path d="M 25.203125 48.28125 
C 13 48.28125 3.40625 37.453125 3.40625 23.546875 
C 3.40625 9.9375 13 -1 25 -1 
C 37 -1 46.59375 9.9375 46.59375 23.640625 
C 46.59375 37.25 37 48.28125 25.203125 48.28125 
M 25.203125 44 
C 32.203125 44 36.09375 36.75 36.09375 23.640625 
C 36.09375 10.453125 32.203125 3.296875 25 3.296875 
C 17.796875 3.296875 13.90625 10.453125 13.90625 23.546875 
C 13.90625 37.046875 17.703125 44 25.203125 44 
" id="Century_Schoolbook_L_Roman-111"/>
     </defs>
     <g transform="translate(368.69204886 369.192839717)scale(0.18 -0.18)">
      <use transform="scale(0.996264009963)" xlink:href="#Century_Schoolbook_L_Roman-73"/>
      <use transform="translate(40.5474253045 0.0)scale(0.996264009963)" xlink:href="#Century_Schoolbook_L_Roman-109"/>
      <use transform="translate(129.114331997 0.0)scale(0.996264009963)" xlink:href="#Century_Schoolbook_L_Roman-112"/>
      <use transform="translate(186.299819281 0.0)scale(0.996264009963)" xlink:href="#Century_Schoolbook_L_Roman-108"/>
      <use transform="translate(217.681132277 0.0)scale(0.996264009963)" xlink:href="#Century_Schoolbook_L_Roman-101"/>
      <use transform="translate(267.494332776 0.0)scale(0.996264009963)" xlink:href="#Century_Schoolbook_L_Roman-109"/>
      <use transform="translate(356.061239468 0.0)scale(0.996264009963)" xlink:href="#Century_Schoolbook_L_Roman-101"/>
      <use transform="translate(405.874439966 0.0)scale(0.996264009963)" xlink:href="#Century_Schoolbook_L_Roman-110"/>
      <use transform="translate(466.746070643 0.0)scale(0.996264009963)" xlink:href="#Century_Schoolbook_L_Roman-116"/>
      <use transform="translate(505.499776838 0.0)scale(0.996264009963)" xlink:href="#Century_Schoolbook_L_Roman-97"/>
      <use transform="translate(560.891453801 0.0)scale(0.996264009963)" xlink:href="#Century_Schoolbook_L_Roman-116"/>
      <use transform="translate(599.645159996 0.0)scale(0.996264009963)" xlink:href="#Century_Schoolbook_L_Roman-105"/>
      <use transform="translate(631.026472992 0.0)scale(0.996264009963)" xlink:href="#Century_Schoolbook_L_Roman-111"/>
      <use transform="translate(680.83967349 0.0)scale(0.996264009963)" xlink:href="#Century_Schoolbook_L_Roman-110"/>
     </g>
    </g>
   </g>
  </g>
 </g>
 <defs>
  <clipPath id="p61737a49fd">
   <rect height="345.6" width="446.4" x="72.0" y="43.2"/>
  </clipPath>
 </defs>
</svg>
