<?xml version="1.0" encoding="utf-8" standalone="no"?>
<!DOCTYPE svg PUBLIC "-//W3C//DTD SVG 1.1//EN"
  "http://www.w3.org/Graphics/SVG/1.1/DTD/svg11.dtd">
<!-- Created with matplotlib (http://matplotlib.org/) -->
<svg height="432pt" version="1.1" viewBox="0 0 576 432" width="576pt" xmlns="http://www.w3.org/2000/svg" xmlns:xlink="http://www.w3.org/1999/xlink">
 <defs>
  <style type="text/css">
*{stroke-linecap:butt;stroke-linejoin:round;stroke-miterlimit:100000;}
  </style>
 </defs>
 <g id="figure_1">
  <g id="patch_1">
   <path d="M 0 432 
L 576 432 
L 576 0 
L 0 0 
z
" style="fill:#ffffff;"/>
  </g>
  <g id="axes_1">
   <g id="patch_2">
    <path d="M 72 388.8 
L 518.4 388.8 
L 518.4 43.2 
L 72 43.2 
z
" style="fill:#ffffff;"/>
   </g>
   <g id="line2d_1">
    <path clip-path="url(#p43aa3378f5)" d="M 72.2232 388.8 
L 83.16 388.8 
L 83.3832 378.925714 
L 84.9456 378.925714 
L 85.1688 369.051429 
L 85.392 369.051429 
L 85.6152 359.177143 
L 86.508 359.177143 
L 86.7312 339.428571 
L 87.624 339.428571 
L 87.8472 329.554286 
L 88.9632 329.554286 
L 89.6328 299.931429 
L 90.972 299.931429 
L 91.1952 309.805714 
L 91.4184 309.805714 
L 91.6416 299.931429 
L 91.8648 299.931429 
L 92.088 290.057143 
L 92.3112 299.931429 
L 92.9808 299.931429 
L 93.204 280.182857 
L 93.6504 280.182857 
L 93.8736 270.308571 
L 94.0968 280.182857 
L 94.5432 280.182857 
L 94.9896 260.434286 
L 95.2128 260.434286 
L 95.436 270.308571 
L 95.8824 270.308571 
L 96.1056 260.434286 
L 96.3288 260.434286 
L 96.7752 280.182857 
L 96.9984 280.182857 
L 97.2216 299.931429 
L 97.4448 290.057143 
L 97.668 299.931429 
L 97.8912 299.931429 
L 98.3376 280.182857 
L 98.5608 280.182857 
L 99.0072 260.434286 
L 99.2304 260.434286 
L 99.4536 240.685714 
L 100.1232 240.685714 
L 100.3464 230.811429 
L 100.5696 240.685714 
L 100.7928 230.811429 
L 101.2392 230.811429 
L 101.4624 211.062857 
L 101.6856 201.188571 
L 101.9088 201.188571 
L 102.132 191.314286 
L 102.5784 191.314286 
L 102.8016 201.188571 
L 103.0248 191.314286 
L 103.248 191.314286 
L 103.9176 220.937143 
L 104.1408 211.062857 
L 104.364 230.811429 
L 105.0336 260.434286 
L 105.48 240.685714 
L 105.7032 250.56 
L 106.1496 250.56 
L 106.3728 260.434286 
L 106.596 260.434286 
L 106.8192 250.56 
L 107.0424 250.56 
L 107.2656 260.434286 
L 107.712 240.685714 
L 107.9352 240.685714 
L 108.1584 230.811429 
L 108.3816 240.685714 
L 108.6048 240.685714 
L 109.0512 260.434286 
L 109.2744 260.434286 
L 109.4976 250.56 
L 109.944 250.56 
L 110.3904 270.308571 
L 110.6136 240.685714 
L 110.8368 230.811429 
L 111.5064 230.811429 
L 112.176 201.188571 
L 112.6224 201.188571 
L 112.8456 191.314286 
L 113.0688 201.188571 
L 113.292 191.314286 
L 113.5152 201.188571 
L 113.7384 191.314286 
L 113.9616 211.062857 
L 114.408 211.062857 
L 114.6312 220.937143 
L 114.8544 220.937143 
L 115.0776 230.811429 
L 115.7472 230.811429 
L 115.9704 240.685714 
L 116.4168 240.685714 
L 116.64 230.811429 
L 117.0864 230.811429 
L 117.3096 250.56 
L 117.5328 250.56 
L 117.756 230.811429 
L 118.2024 230.811429 
L 118.4256 240.685714 
L 119.3184 240.685714 
L 119.7648 280.182857 
L 119.988 290.057143 
L 120.2112 290.057143 
L 120.4344 299.931429 
L 120.8808 299.931429 
L 121.104 309.805714 
L 121.7736 309.805714 
L 122.22 290.057143 
L 122.8896 290.057143 
L 123.1128 299.931429 
L 123.336 290.057143 
L 123.5592 290.057143 
L 123.7824 299.931429 
L 124.0056 299.931429 
L 124.2288 290.057143 
L 124.452 299.931429 
L 124.6752 290.057143 
L 124.8984 290.057143 
L 125.1216 299.931429 
L 125.3448 290.057143 
L 125.568 290.057143 
L 125.7912 299.931429 
L 126.0144 290.057143 
L 126.2376 290.057143 
L 126.4608 299.931429 
L 126.684 299.931429 
L 126.9072 309.805714 
L 127.3536 290.057143 
L 127.8 290.057143 
L 128.4696 260.434286 
L 128.6928 270.308571 
L 128.916 260.434286 
L 129.1392 260.434286 
L 129.3624 240.685714 
L 129.8088 220.937143 
L 130.032 220.937143 
L 130.2552 211.062857 
L 130.4784 211.062857 
L 130.7016 220.937143 
L 130.9248 220.937143 
L 131.3712 201.188571 
L 131.5944 201.188571 
L 131.8176 211.062857 
L 132.0408 201.188571 
L 132.264 211.062857 
L 132.4872 211.062857 
L 132.7104 220.937143 
L 132.9336 211.062857 
L 133.1568 230.811429 
L 133.6032 211.062857 
L 133.8264 211.062857 
L 134.0496 201.188571 
L 134.496 220.937143 
L 134.7192 240.685714 
L 134.9424 230.811429 
L 135.1656 230.811429 
L 135.3888 220.937143 
L 135.612 220.937143 
L 135.8352 230.811429 
L 136.0584 230.811429 
L 136.2816 220.937143 
L 136.5048 230.811429 
L 136.728 230.811429 
L 136.9512 220.937143 
L 137.1744 220.937143 
L 137.3976 211.062857 
L 137.6208 220.937143 
L 137.844 220.937143 
L 138.0672 230.811429 
L 138.2904 201.188571 
L 138.5136 211.062857 
L 138.7368 211.062857 
L 138.96 201.188571 
L 139.4064 201.188571 
L 139.6296 181.44 
L 140.2992 181.44 
L 140.5224 191.314286 
L 140.7456 191.314286 
L 140.9688 211.062857 
L 141.192 211.062857 
L 141.6384 171.565714 
L 142.0848 171.565714 
L 142.308 191.314286 
L 142.5312 171.565714 
L 142.7544 161.691429 
L 142.9776 161.691429 
L 143.2008 171.565714 
L 143.8704 171.565714 
L 144.0936 191.314286 
L 144.3168 171.565714 
L 144.7632 151.817143 
L 144.9864 151.817143 
L 145.4328 201.188571 
L 145.656 191.314286 
L 145.8792 201.188571 
L 146.5488 171.565714 
L 146.772 181.44 
L 147.2184 181.44 
L 147.6648 201.188571 
L 147.888 191.314286 
L 148.1112 191.314286 
L 148.3344 211.062857 
L 148.5576 220.937143 
L 148.7808 211.062857 
L 149.004 230.811429 
L 149.2272 230.811429 
L 149.4504 240.685714 
L 149.8968 220.937143 
L 150.12 230.811429 
L 150.3432 260.434286 
L 150.5664 250.56 
L 151.0128 250.56 
L 151.4592 230.811429 
L 152.5752 230.811429 
L 152.7984 220.937143 
L 153.0216 230.811429 
L 153.2448 211.062857 
L 153.468 201.188571 
L 153.6912 201.188571 
L 153.9144 181.44 
L 154.584 211.062857 
L 154.8072 211.062857 
L 155.0304 181.44 
L 155.2536 191.314286 
L 155.4768 191.314286 
L 155.7 201.188571 
L 155.9232 201.188571 
L 156.1464 191.314286 
L 156.3696 191.314286 
L 156.5928 220.937143 
L 156.816 230.811429 
L 157.0392 220.937143 
L 157.2624 220.937143 
L 157.4856 211.062857 
L 157.7088 211.062857 
L 157.932 220.937143 
L 158.1552 250.56 
L 158.8248 250.56 
L 159.2712 230.811429 
L 159.4944 230.811429 
L 159.7176 220.937143 
L 159.9408 220.937143 
L 160.164 230.811429 
L 160.6104 230.811429 
L 160.8336 220.937143 
L 161.7264 220.937143 
L 161.9496 240.685714 
L 162.1728 250.56 
L 162.396 270.308571 
L 162.6192 280.182857 
L 162.8424 270.308571 
L 163.2888 270.308571 
L 163.512 280.182857 
L 163.7352 270.308571 
L 164.4048 270.308571 
L 164.628 290.057143 
L 165.0744 290.057143 
L 165.2976 270.308571 
L 165.5208 290.057143 
L 165.744 299.931429 
L 166.6368 299.931429 
L 166.86 290.057143 
L 167.0832 299.931429 
L 167.3064 290.057143 
L 167.5296 290.057143 
L 167.976 270.308571 
L 168.1992 280.182857 
L 168.8688 250.56 
L 169.3152 270.308571 
L 169.5384 250.56 
L 169.7616 240.685714 
L 169.9848 220.937143 
L 170.208 211.062857 
L 170.4312 220.937143 
L 171.1008 220.937143 
L 171.324 211.062857 
L 171.5472 220.937143 
L 172.6632 220.937143 
L 172.8864 230.811429 
L 173.1096 230.811429 
L 173.3328 240.685714 
L 173.556 240.685714 
L 173.7792 220.937143 
L 174.0024 220.937143 
L 174.2256 230.811429 
L 174.8952 230.811429 
L 175.1184 211.062857 
L 175.3416 211.062857 
L 175.5648 220.937143 
L 176.0112 220.937143 
L 176.2344 230.811429 
L 176.4576 220.937143 
L 176.6808 230.811429 
L 176.904 211.062857 
L 177.1272 201.188571 
L 177.5736 201.188571 
L 177.7968 191.314286 
L 178.02 191.314286 
L 178.4664 211.062857 
L 178.6896 211.062857 
L 178.9128 201.188571 
L 179.136 201.188571 
L 179.3592 191.314286 
L 179.5824 201.188571 
L 179.8056 201.188571 
L 180.0288 211.062857 
L 180.252 211.062857 
L 180.9216 240.685714 
L 181.1448 230.811429 
L 181.8144 230.811429 
L 182.7072 191.314286 
L 182.9304 191.314286 
L 183.1536 171.565714 
L 183.3768 171.565714 
L 183.6 151.817143 
L 183.8232 151.817143 
L 184.0464 171.565714 
L 184.2696 151.817143 
L 184.4928 161.691429 
L 184.716 161.691429 
L 184.9392 151.817143 
L 185.1624 151.817143 
L 185.3856 141.942857 
L 185.6088 161.691429 
L 185.832 161.691429 
L 186.0552 171.565714 
L 186.2784 161.691429 
L 186.5016 161.691429 
L 186.7248 171.565714 
L 186.948 171.565714 
L 187.1712 181.44 
L 187.3944 171.565714 
L 187.6176 171.565714 
L 187.8408 151.817143 
L 188.064 151.817143 
L 188.5104 171.565714 
L 188.7336 171.565714 
L 188.9568 191.314286 
L 189.18 201.188571 
L 189.4032 201.188571 
L 189.6264 211.062857 
L 190.5192 211.062857 
L 190.7424 201.188571 
L 191.412 201.188571 
L 191.6352 211.062857 
L 191.8584 211.062857 
L 192.0816 181.44 
L 192.528 181.44 
L 192.9744 230.811429 
L 193.4208 250.56 
L 193.644 250.56 
L 193.8672 240.685714 
L 194.3136 260.434286 
L 194.76 260.434286 
L 194.9832 250.56 
L 195.2064 250.56 
L 195.4296 260.434286 
L 195.6528 280.182857 
L 195.876 280.182857 
L 196.0992 270.308571 
L 196.3224 290.057143 
L 196.5456 290.057143 
L 196.7688 280.182857 
L 197.2152 280.182857 
L 197.6616 260.434286 
L 197.8848 270.308571 
L 198.3312 270.308571 
L 198.5544 250.56 
L 198.7776 250.56 
L 199.0008 240.685714 
L 199.224 240.685714 
L 199.4472 230.811429 
L 199.6704 230.811429 
L 199.8936 250.56 
L 200.34 250.56 
L 200.5632 240.685714 
L 200.7864 240.685714 
L 201.0096 260.434286 
L 201.456 260.434286 
L 201.6792 240.685714 
L 202.572 240.685714 
L 202.7952 250.56 
L 203.0184 240.685714 
L 203.9112 240.685714 
L 204.1344 230.811429 
L 204.3576 230.811429 
L 204.5808 240.685714 
L 204.804 260.434286 
L 205.0272 240.685714 
L 205.2504 250.56 
L 205.4736 240.685714 
L 206.1432 270.308571 
L 206.5896 250.56 
L 206.8128 260.434286 
L 207.036 250.56 
L 207.4824 250.56 
L 207.7056 260.434286 
L 207.9288 250.56 
L 208.152 250.56 
L 208.3752 260.434286 
L 208.5984 260.434286 
L 208.8216 250.56 
L 209.0448 250.56 
L 209.4912 290.057143 
L 209.7144 280.182857 
L 209.9376 280.182857 
L 210.1608 270.308571 
L 210.384 270.308571 
L 210.6072 260.434286 
L 210.8304 280.182857 
L 211.0536 270.308571 
L 211.5 290.057143 
L 211.7232 290.057143 
L 212.3928 260.434286 
L 212.616 270.308571 
L 213.0624 270.308571 
L 213.9552 309.805714 
L 214.6248 309.805714 
L 215.2944 339.428571 
L 215.964 339.428571 
L 216.1872 319.68 
L 216.4104 319.68 
L 216.6336 309.805714 
L 216.8568 280.182857 
L 217.9728 280.182857 
L 218.196 270.308571 
L 218.4192 280.182857 
L 219.312 280.182857 
L 219.5352 260.434286 
L 219.7584 260.434286 
L 220.428 230.811429 
L 220.6512 230.811429 
L 221.0976 211.062857 
L 221.3208 230.811429 
L 221.544 230.811429 
L 221.7672 250.56 
L 221.9904 240.685714 
L 222.2136 240.685714 
L 222.4368 220.937143 
L 222.66 220.937143 
L 222.8832 230.811429 
L 223.1064 230.811429 
L 223.3296 240.685714 
L 223.776 240.685714 
L 223.9992 230.811429 
L 224.2224 240.685714 
L 224.892 240.685714 
L 225.1152 250.56 
L 225.3384 250.56 
L 225.5616 260.434286 
L 225.7848 280.182857 
L 226.008 280.182857 
L 226.4544 299.931429 
L 226.6776 299.931429 
L 226.9008 309.805714 
L 227.7936 309.805714 
L 228.24 290.057143 
L 228.4632 290.057143 
L 228.6864 309.805714 
L 228.9096 299.931429 
L 229.1328 299.931429 
L 229.356 319.68 
L 230.472 319.68 
L 230.6952 309.805714 
L 230.9184 309.805714 
L 231.1416 319.68 
L 231.3648 309.805714 
L 232.0344 309.805714 
L 232.2576 299.931429 
L 233.3736 299.931429 
L 233.5968 280.182857 
L 233.82 270.308571 
L 234.0432 280.182857 
L 234.4896 260.434286 
L 234.936 260.434286 
L 235.1592 250.56 
L 235.3824 260.434286 
L 235.6056 260.434286 
L 235.8288 270.308571 
L 236.052 270.308571 
L 236.2752 260.434286 
L 236.7216 260.434286 
L 236.9448 270.308571 
L 237.168 290.057143 
L 238.0608 290.057143 
L 238.5072 309.805714 
L 238.9536 309.805714 
L 239.1768 299.931429 
L 239.8464 299.931429 
L 240.0696 290.057143 
L 240.516 290.057143 
L 240.7392 280.182857 
L 240.9624 290.057143 
L 241.1856 280.182857 
L 241.4088 260.434286 
L 241.632 260.434286 
L 241.8552 250.56 
L 242.0784 250.56 
L 242.9712 290.057143 
L 243.1944 290.057143 
L 243.4176 299.931429 
L 243.864 280.182857 
L 244.0872 319.68 
L 245.4264 319.68 
L 245.6496 329.554286 
L 246.096 329.554286 
L 246.5424 349.302857 
L 246.9888 349.302857 
L 247.212 329.554286 
L 248.328 329.554286 
L 248.5512 319.68 
L 248.7744 319.68 
L 248.9976 309.805714 
L 249.2208 309.805714 
L 249.444 299.931429 
L 249.6672 309.805714 
L 250.3368 309.805714 
L 250.56 299.931429 
L 250.7832 299.931429 
L 251.0064 309.805714 
L 251.676 309.805714 
L 251.8992 290.057143 
L 252.1224 280.182857 
L 252.3456 280.182857 
L 252.5688 299.931429 
L 253.2384 299.931429 
L 253.908 270.308571 
L 254.1312 270.308571 
L 254.5776 290.057143 
L 254.8008 290.057143 
L 255.2472 250.56 
L 255.4704 250.56 
L 255.6936 240.685714 
L 256.8096 240.685714 
L 257.0328 250.56 
L 257.256 240.685714 
L 257.4792 260.434286 
L 257.7024 250.56 
L 259.0416 250.56 
L 259.7112 220.937143 
L 260.604 220.937143 
L 261.0504 240.685714 
L 262.1664 240.685714 
L 262.3896 250.56 
L 262.6128 250.56 
L 263.0592 270.308571 
L 263.2824 270.308571 
L 263.5056 280.182857 
L 263.7288 280.182857 
L 263.952 270.308571 
L 264.3984 270.308571 
L 264.6216 280.182857 
L 264.8448 280.182857 
L 265.068 270.308571 
L 265.2912 270.308571 
L 265.5144 280.182857 
L 265.7376 270.308571 
L 265.9608 280.182857 
L 266.184 280.182857 
L 266.4072 270.308571 
L 266.6304 280.182857 
L 266.8536 270.308571 
L 267.0768 270.308571 
L 267.3 260.434286 
L 267.9696 260.434286 
L 268.6392 290.057143 
L 269.0856 290.057143 
L 269.532 270.308571 
L 269.9784 270.308571 
L 270.2016 280.182857 
L 270.4248 280.182857 
L 270.648 260.434286 
L 271.0944 260.434286 
L 271.3176 250.56 
L 271.5408 270.308571 
L 272.2104 270.308571 
L 272.4336 260.434286 
L 273.5496 260.434286 
L 273.7728 250.56 
L 273.996 230.811429 
L 274.2192 250.56 
L 274.4424 240.685714 
L 274.6656 240.685714 
L 274.8888 230.811429 
L 275.112 230.811429 
L 275.3352 240.685714 
L 276.0048 240.685714 
L 276.228 250.56 
L 276.6744 230.811429 
L 276.8976 230.811429 
L 277.344 211.062857 
L 277.5672 220.937143 
L 277.7904 220.937143 
L 278.0136 230.811429 
L 278.2368 220.937143 
L 279.3528 220.937143 
L 279.576 211.062857 
L 279.7992 191.314286 
L 280.0224 211.062857 
L 281.1384 211.062857 
L 281.3616 201.188571 
L 281.808 201.188571 
L 282.0312 220.937143 
L 282.2544 211.062857 
L 282.4776 191.314286 
L 282.7008 191.314286 
L 282.924 211.062857 
L 283.1472 201.188571 
L 283.3704 211.062857 
L 283.8168 191.314286 
L 284.04 191.314286 
L 284.2632 211.062857 
L 284.4864 220.937143 
L 284.7096 211.062857 
L 285.156 211.062857 
L 285.3792 220.937143 
L 285.8256 220.937143 
L 286.0488 211.062857 
L 286.7184 211.062857 
L 286.9416 220.937143 
L 287.1648 211.062857 
L 287.6112 211.062857 
L 287.8344 220.937143 
L 288.0576 220.937143 
L 288.2808 211.062857 
L 288.9504 211.062857 
L 289.1736 201.188571 
L 290.0664 201.188571 
L 290.2896 191.314286 
L 290.5128 211.062857 
L 290.736 211.062857 
L 291.1824 230.811429 
L 291.4056 220.937143 
L 291.852 240.685714 
L 292.0752 220.937143 
L 292.2984 220.937143 
L 292.5216 250.56 
L 292.7448 250.56 
L 292.968 240.685714 
L 293.1912 240.685714 
L 293.6376 260.434286 
L 293.8608 250.56 
L 294.084 250.56 
L 294.3072 240.685714 
L 294.5304 250.56 
L 294.7536 250.56 
L 294.9768 240.685714 
L 295.4232 260.434286 
L 295.6464 260.434286 
L 295.8696 270.308571 
L 296.0928 260.434286 
L 296.5392 260.434286 
L 296.7624 250.56 
L 296.9856 260.434286 
L 297.2088 240.685714 
L 297.432 230.811429 
L 297.6552 211.062857 
L 297.8784 211.062857 
L 298.1016 220.937143 
L 298.548 220.937143 
L 298.7712 191.314286 
L 298.9944 191.314286 
L 299.2176 181.44 
L 299.4408 181.44 
L 299.664 191.314286 
L 299.8872 171.565714 
L 300.1104 181.44 
L 300.3336 181.44 
L 300.5568 191.314286 
L 301.2264 191.314286 
L 301.4496 211.062857 
L 301.896 230.811429 
L 302.1192 230.811429 
L 302.3424 220.937143 
L 303.012 250.56 
L 303.2352 240.685714 
L 303.6816 240.685714 
L 303.9048 260.434286 
L 304.3512 240.685714 
L 304.5744 220.937143 
L 305.4672 220.937143 
L 305.6904 201.188571 
L 305.9136 201.188571 
L 306.1368 191.314286 
L 306.36 201.188571 
L 306.8064 201.188571 
L 307.0296 211.062857 
L 307.2528 211.062857 
L 307.6992 191.314286 
L 308.1456 191.314286 
L 308.3688 211.062857 
L 309.0384 211.062857 
L 309.2616 191.314286 
L 309.4848 191.314286 
L 309.708 201.188571 
L 309.9312 220.937143 
L 310.1544 220.937143 
L 310.3776 230.811429 
L 310.6008 230.811429 
L 310.824 240.685714 
L 311.0472 240.685714 
L 311.2704 250.56 
L 311.4936 230.811429 
L 311.7168 250.56 
L 311.94 240.685714 
L 312.1632 240.685714 
L 312.3864 230.811429 
L 312.6096 211.062857 
L 312.8328 230.811429 
L 313.056 230.811429 
L 313.2792 220.937143 
L 313.7256 240.685714 
L 313.9488 240.685714 
L 314.172 250.56 
L 314.6184 230.811429 
L 315.0648 230.811429 
L 315.288 220.937143 
L 315.5112 230.811429 
L 315.7344 220.937143 
L 315.9576 230.811429 
L 316.1808 230.811429 
L 316.404 220.937143 
L 316.6272 230.811429 
L 316.8504 250.56 
L 317.0736 250.56 
L 317.2968 240.685714 
L 317.7432 240.685714 
L 317.9664 220.937143 
L 318.1896 230.811429 
L 319.3056 230.811429 
L 319.5288 250.56 
L 319.752 260.434286 
L 319.9752 250.56 
L 320.1984 260.434286 
L 321.0912 260.434286 
L 321.3144 270.308571 
L 321.5376 260.434286 
L 321.7608 280.182857 
L 321.984 280.182857 
L 322.2072 290.057143 
L 322.4304 280.182857 
L 323.1 280.182857 
L 323.3232 270.308571 
L 323.7696 270.308571 
L 324.216 290.057143 
L 324.8856 290.057143 
L 325.1088 299.931429 
L 325.332 280.182857 
L 325.5552 280.182857 
L 325.7784 290.057143 
L 326.0016 290.057143 
L 326.2248 299.931429 
L 326.448 290.057143 
L 326.6712 290.057143 
L 326.8944 299.931429 
L 327.1176 290.057143 
L 327.3408 270.308571 
L 327.564 290.057143 
L 327.7872 299.931429 
L 328.2336 280.182857 
L 328.68 280.182857 
L 328.9032 290.057143 
L 329.1264 270.308571 
L 329.3496 260.434286 
L 329.5728 260.434286 
L 329.796 250.56 
L 330.4656 250.56 
L 330.6888 260.434286 
L 330.912 250.56 
L 331.3584 250.56 
L 331.5816 260.434286 
L 331.8048 250.56 
L 332.028 250.56 
L 332.2512 240.685714 
L 333.144 240.685714 
L 333.3672 250.56 
L 333.5904 240.685714 
L 333.8136 240.685714 
L 334.0368 250.56 
L 334.26 240.685714 
L 334.4832 250.56 
L 334.9296 230.811429 
L 335.1528 240.685714 
L 335.376 230.811429 
L 335.8224 230.811429 
L 336.2688 211.062857 
L 337.608 211.062857 
L 337.8312 230.811429 
L 338.0544 240.685714 
L 338.2776 240.685714 
L 338.724 220.937143 
L 338.9472 201.188571 
L 339.1704 201.188571 
L 339.3936 181.44 
L 339.84 161.691429 
L 340.2864 201.188571 
L 340.5096 201.188571 
L 340.7328 191.314286 
L 340.956 191.314286 
L 341.1792 201.188571 
L 341.4024 181.44 
L 341.6256 191.314286 
L 341.8488 191.314286 
L 342.072 201.188571 
L 342.5184 201.188571 
L 342.9648 220.937143 
L 343.188 240.685714 
L 343.4112 240.685714 
L 343.6344 250.56 
L 343.8576 250.56 
L 344.0808 260.434286 
L 344.7504 260.434286 
L 344.9736 250.56 
L 345.1968 250.56 
L 345.6432 290.057143 
L 345.8664 290.057143 
L 346.0896 280.182857 
L 346.3128 240.685714 
L 346.7592 240.685714 
L 346.9824 250.56 
L 347.652 250.56 
L 347.8752 230.811429 
L 348.0984 220.937143 
L 348.3216 230.811429 
L 348.5448 230.811429 
L 348.9912 250.56 
L 349.2144 240.685714 
L 349.4376 260.434286 
L 349.884 260.434286 
L 350.1072 250.56 
L 351.2232 250.56 
L 351.6696 230.811429 
L 352.116 250.56 
L 352.3392 240.685714 
L 352.7856 240.685714 
L 353.0088 250.56 
L 353.232 280.182857 
L 354.1248 280.182857 
L 354.7944 250.56 
L 355.0176 260.434286 
L 355.2408 240.685714 
L 355.6872 240.685714 
L 355.9104 250.56 
L 356.1336 240.685714 
L 356.3568 250.56 
L 356.8032 250.56 
L 357.0264 230.811429 
L 357.4728 230.811429 
L 357.696 240.685714 
L 358.3656 240.685714 
L 358.5888 250.56 
L 358.812 250.56 
L 359.0352 230.811429 
L 359.2584 230.811429 
L 359.4816 201.188571 
L 359.7048 201.188571 
L 359.928 211.062857 
L 360.3744 211.062857 
L 360.5976 230.811429 
L 360.8208 220.937143 
L 361.044 220.937143 
L 361.2672 240.685714 
L 362.16 240.685714 
L 362.3832 260.434286 
L 362.6064 250.56 
L 363.0528 250.56 
L 363.4992 270.308571 
L 363.7224 250.56 
L 363.9456 250.56 
L 364.1688 240.685714 
L 364.6152 240.685714 
L 365.0616 220.937143 
L 365.2848 220.937143 
L 365.7312 201.188571 
L 365.9544 201.188571 
L 366.4008 181.44 
L 366.624 181.44 
L 366.8472 191.314286 
L 367.0704 191.314286 
L 367.2936 201.188571 
L 367.5168 181.44 
L 368.1864 181.44 
L 368.4096 211.062857 
L 368.6328 211.062857 
L 369.0792 191.314286 
L 369.3024 201.188571 
L 369.5256 201.188571 
L 369.7488 211.062857 
L 369.972 211.062857 
L 370.1952 201.188571 
L 370.4184 201.188571 
L 370.6416 211.062857 
L 371.088 211.062857 
L 371.3112 201.188571 
L 371.7576 201.188571 
L 371.9808 211.062857 
L 372.4272 211.062857 
L 372.6504 201.188571 
L 372.8736 201.188571 
L 373.0968 211.062857 
L 373.5432 191.314286 
L 373.9896 191.314286 
L 374.2128 181.44 
L 374.436 211.062857 
L 374.8824 211.062857 
L 375.1056 201.188571 
L 375.3288 220.937143 
L 375.552 211.062857 
L 375.9984 230.811429 
L 376.2216 230.811429 
L 376.4448 220.937143 
L 376.8912 240.685714 
L 378.0072 240.685714 
L 378.2304 230.811429 
L 378.4536 240.685714 
L 378.6768 240.685714 
L 378.9 230.811429 
L 379.1232 240.685714 
L 379.3464 280.182857 
L 379.5696 270.308571 
L 380.016 270.308571 
L 380.2392 280.182857 
L 380.4624 280.182857 
L 380.9088 260.434286 
L 381.132 240.685714 
L 381.5784 260.434286 
L 381.8016 260.434286 
L 382.0248 250.56 
L 382.248 250.56 
L 382.4712 240.685714 
L 382.6944 260.434286 
L 384.0336 260.434286 
L 384.2568 250.56 
L 384.48 270.308571 
L 384.7032 270.308571 
L 384.9264 260.434286 
L 385.3728 260.434286 
L 385.596 270.308571 
L 385.8192 270.308571 
L 386.0424 280.182857 
L 386.2656 270.308571 
L 386.4888 250.56 
L 386.712 250.56 
L 387.1584 230.811429 
L 387.3816 240.685714 
L 387.6048 240.685714 
L 387.828 250.56 
L 388.0512 240.685714 
L 388.4976 240.685714 
L 388.7208 250.56 
L 388.944 250.56 
L 389.1672 270.308571 
L 389.6136 250.56 
L 389.8368 250.56 
L 390.2832 270.308571 
L 390.5064 240.685714 
L 390.7296 240.685714 
L 390.9528 250.56 
L 391.176 240.685714 
L 391.3992 260.434286 
L 391.6224 240.685714 
L 391.8456 240.685714 
L 392.0688 230.811429 
L 392.7384 230.811429 
L 392.9616 240.685714 
L 393.1848 240.685714 
L 393.408 250.56 
L 393.6312 250.56 
L 393.8544 240.685714 
L 394.524 240.685714 
L 394.9704 260.434286 
L 395.1936 280.182857 
L 395.8632 280.182857 
L 396.0864 290.057143 
L 396.9792 290.057143 
L 397.4256 270.308571 
L 397.6488 270.308571 
L 397.872 280.182857 
L 398.0952 280.182857 
L 398.3184 270.308571 
L 398.5416 270.308571 
L 398.7648 290.057143 
L 399.2112 290.057143 
L 399.4344 280.182857 
L 399.8808 280.182857 
L 400.104 260.434286 
L 400.3272 270.308571 
L 400.7736 270.308571 
L 400.9968 280.182857 
L 401.4432 280.182857 
L 401.6664 290.057143 
L 401.8896 290.057143 
L 402.1128 280.182857 
L 402.336 280.182857 
L 402.5592 270.308571 
L 403.0056 270.308571 
L 403.2288 290.057143 
L 403.452 290.057143 
L 403.6752 299.931429 
L 403.8984 290.057143 
L 404.3448 290.057143 
L 404.7912 270.308571 
L 405.2376 270.308571 
L 405.684 250.56 
L 405.9072 250.56 
L 406.1304 260.434286 
L 406.3536 250.56 
L 406.5768 230.811429 
L 406.8 240.685714 
L 407.0232 230.811429 
L 407.2464 240.685714 
L 407.6928 240.685714 
L 408.1392 220.937143 
L 408.3624 220.937143 
L 408.5856 230.811429 
L 409.032 230.811429 
L 409.2552 211.062857 
L 409.4784 201.188571 
L 409.7016 201.188571 
L 410.148 220.937143 
L 410.3712 211.062857 
L 410.5944 211.062857 
L 411.0408 191.314286 
L 411.264 191.314286 
L 411.4872 181.44 
L 412.1568 211.062857 
L 412.38 230.811429 
L 413.496 230.811429 
L 413.7192 220.937143 
L 414.1656 240.685714 
L 414.612 240.685714 
L 414.8352 230.811429 
L 415.0584 230.811429 
L 415.2816 250.56 
L 415.5048 260.434286 
L 415.728 260.434286 
L 415.9512 270.308571 
L 416.1744 260.434286 
L 417.96 260.434286 
L 418.4064 280.182857 
L 418.6296 270.308571 
L 419.076 270.308571 
L 419.2992 260.434286 
L 419.5224 260.434286 
L 419.7456 280.182857 
L 419.9688 290.057143 
L 420.192 280.182857 
L 420.4152 290.057143 
L 420.6384 280.182857 
L 421.308 280.182857 
L 421.5312 270.308571 
L 422.6472 270.308571 
L 422.8704 280.182857 
L 423.0936 260.434286 
L 423.3168 250.56 
L 423.54 250.56 
L 423.9864 270.308571 
L 424.2096 260.434286 
L 424.4328 270.308571 
L 424.656 270.308571 
L 424.8792 280.182857 
L 425.1024 280.182857 
L 425.3256 270.308571 
L 425.5488 250.56 
L 426.2184 250.56 
L 426.6648 230.811429 
L 426.888 250.56 
L 427.1112 240.685714 
L 427.3344 260.434286 
L 427.7808 260.434286 
L 428.004 270.308571 
L 428.6736 270.308571 
L 428.8968 260.434286 
L 429.12 270.308571 
L 429.3432 250.56 
L 429.5664 240.685714 
L 429.7896 250.56 
L 430.0128 250.56 
L 430.236 280.182857 
L 430.4592 270.308571 
L 430.6824 270.308571 
L 431.1288 250.56 
L 431.352 260.434286 
L 431.5752 250.56 
L 431.7984 230.811429 
L 432.0216 230.811429 
L 432.2448 240.685714 
L 432.9144 240.685714 
L 433.1376 250.56 
L 433.3608 220.937143 
L 433.584 211.062857 
L 434.0304 211.062857 
L 434.2536 220.937143 
L 434.4768 220.937143 
L 434.7 211.062857 
L 434.9232 220.937143 
L 435.1464 250.56 
L 435.5928 250.56 
L 435.816 260.434286 
L 436.0392 260.434286 
L 436.2624 250.56 
L 436.4856 270.308571 
L 436.7088 280.182857 
L 437.3784 280.182857 
L 437.8248 299.931429 
L 438.048 290.057143 
L 438.2712 299.931429 
L 438.7176 299.931429 
L 439.164 280.182857 
L 439.6104 280.182857 
L 439.8336 290.057143 
L 440.0568 290.057143 
L 440.5032 240.685714 
L 440.7264 240.685714 
L 440.9496 250.56 
L 441.1728 250.56 
L 441.6192 230.811429 
L 441.8424 211.062857 
L 442.0656 211.062857 
L 442.2888 191.314286 
L 442.512 201.188571 
L 442.7352 191.314286 
L 442.9584 201.188571 
L 443.1816 181.44 
L 443.628 181.44 
L 443.8512 191.314286 
L 444.2976 191.314286 
L 444.5208 220.937143 
L 444.9672 220.937143 
L 445.1904 230.811429 
L 446.0832 230.811429 
L 446.5296 211.062857 
L 446.976 211.062857 
L 447.1992 220.937143 
L 447.4224 211.062857 
L 447.6456 220.937143 
L 448.3152 220.937143 
L 448.5384 201.188571 
L 448.7616 201.188571 
L 448.9848 181.44 
L 449.208 181.44 
L 449.4312 191.314286 
L 449.6544 191.314286 
L 449.8776 201.188571 
L 450.1008 201.188571 
L 450.324 191.314286 
L 450.5472 201.188571 
L 450.7704 220.937143 
L 451.2168 220.937143 
L 451.44 230.811429 
L 451.6632 230.811429 
L 451.8864 260.434286 
L 452.3328 260.434286 
L 452.556 270.308571 
L 452.7792 250.56 
L 453.0024 240.685714 
L 453.672 240.685714 
L 453.8952 260.434286 
L 454.1184 250.56 
L 454.788 250.56 
L 455.0112 240.685714 
L 455.2344 260.434286 
L 455.6808 260.434286 
L 455.904 250.56 
L 456.1272 270.308571 
L 457.4664 270.308571 
L 457.9128 290.057143 
L 458.136 270.308571 
L 458.3592 260.434286 
L 458.5824 240.685714 
L 458.8056 240.685714 
L 459.0288 230.811429 
L 459.252 240.685714 
L 459.9216 240.685714 
L 460.368 220.937143 
L 460.5912 230.811429 
L 460.8144 230.811429 
L 461.2608 211.062857 
L 461.484 250.56 
L 461.7072 260.434286 
L 461.9304 260.434286 
L 462.1536 250.56 
L 462.3768 220.937143 
L 462.6 230.811429 
L 462.8232 220.937143 
L 463.0464 220.937143 
L 463.2696 230.811429 
L 463.4928 220.937143 
L 463.716 230.811429 
L 463.9392 250.56 
L 464.3856 250.56 
L 465.0552 220.937143 
L 465.5016 220.937143 
L 466.1712 250.56 
L 466.3944 230.811429 
L 466.8408 250.56 
L 467.2872 250.56 
L 467.5104 240.685714 
L 467.7336 240.685714 
L 467.9568 250.56 
L 468.18 230.811429 
L 468.4032 230.811429 
L 468.6264 220.937143 
L 469.296 220.937143 
L 469.5192 230.811429 
L 469.7424 220.937143 
L 469.9656 220.937143 
L 470.8584 260.434286 
L 471.3048 240.685714 
L 471.7512 260.434286 
L 472.1976 260.434286 
L 472.4208 280.182857 
L 472.644 280.182857 
L 472.8672 270.308571 
L 473.0904 250.56 
L 473.5368 250.56 
L 473.76 260.434286 
L 473.9832 240.685714 
L 474.2064 250.56 
L 474.876 250.56 
L 475.0992 260.434286 
L 475.3224 250.56 
L 475.5456 250.56 
L 475.7688 240.685714 
L 475.992 250.56 
L 476.2152 250.56 
L 476.4384 260.434286 
L 476.6616 260.434286 
L 476.8848 250.56 
L 477.7776 250.56 
L 478.0008 240.685714 
L 478.224 240.685714 
L 478.4472 230.811429 
L 478.8936 230.811429 
L 479.1168 240.685714 
L 479.34 240.685714 
L 479.7864 220.937143 
L 480.0096 230.811429 
L 480.456 230.811429 
L 480.6792 220.937143 
L 480.9024 220.937143 
L 481.1256 211.062857 
L 481.3488 191.314286 
L 481.572 191.314286 
L 481.7952 211.062857 
L 482.0184 211.062857 
L 482.2416 220.937143 
L 482.688 220.937143 
L 482.9112 240.685714 
L 483.1344 211.062857 
L 483.3576 240.685714 
L 484.4736 240.685714 
L 484.6968 250.56 
L 484.92 270.308571 
L 485.1432 260.434286 
L 485.3664 270.308571 
L 485.5896 250.56 
L 486.036 250.56 
L 486.2592 240.685714 
L 486.7056 240.685714 
L 486.9288 230.811429 
L 487.152 240.685714 
L 487.5984 220.937143 
L 488.0448 240.685714 
L 488.268 240.685714 
L 488.4912 230.811429 
L 488.7144 250.56 
L 488.9376 240.685714 
L 489.1608 220.937143 
L 489.384 230.811429 
L 489.6072 220.937143 
L 489.8304 220.937143 
L 490.0536 211.062857 
L 490.2768 211.062857 
L 490.5 220.937143 
L 490.7232 220.937143 
L 490.9464 211.062857 
L 491.1696 211.062857 
L 491.3928 220.937143 
L 491.616 220.937143 
L 491.8392 230.811429 
L 492.0624 220.937143 
L 492.9552 220.937143 
L 493.1784 240.685714 
L 493.4016 230.811429 
L 493.848 230.811429 
L 494.2944 250.56 
L 494.7408 250.56 
L 494.964 260.434286 
L 495.1872 260.434286 
L 495.4104 250.56 
L 495.8568 270.308571 
L 496.3032 270.308571 
L 496.7496 250.56 
L 496.9728 250.56 
L 497.8656 211.062857 
L 498.0888 220.937143 
L 498.312 220.937143 
L 498.5352 240.685714 
L 498.7584 230.811429 
L 498.9816 230.811429 
L 499.2048 250.56 
L 499.428 230.811429 
L 499.8744 230.811429 
L 500.0976 250.56 
L 500.7672 250.56 
L 500.9904 240.685714 
L 501.4368 240.685714 
L 501.8832 220.937143 
L 502.1064 220.937143 
L 502.3296 230.811429 
L 502.5528 230.811429 
L 502.9992 250.56 
L 503.4456 250.56 
L 503.892 230.811429 
L 504.1152 240.685714 
L 504.3384 260.434286 
L 504.5616 270.308571 
L 504.7848 260.434286 
L 505.008 260.434286 
L 505.2312 250.56 
L 505.4544 250.56 
L 505.6776 240.685714 
L 505.9008 240.685714 
L 506.124 250.56 
L 506.3472 250.56 
L 506.5704 270.308571 
L 506.7936 270.308571 
L 507.0168 260.434286 
L 507.9096 260.434286 
L 508.1328 250.56 
L 508.5792 250.56 
L 509.0256 270.308571 
L 509.2488 260.434286 
L 509.472 270.308571 
L 510.588 270.308571 
L 510.8112 240.685714 
L 511.0344 250.56 
L 511.2576 250.56 
L 511.4808 260.434286 
L 511.704 260.434286 
L 512.1504 240.685714 
L 512.3736 220.937143 
L 512.82 240.685714 
L 513.0432 240.685714 
L 513.2664 230.811429 
L 513.936 230.811429 
L 514.1592 240.685714 
L 514.6056 240.685714 
L 514.8288 230.811429 
L 515.052 230.811429 
L 515.2752 240.685714 
L 515.4984 220.937143 
L 515.9448 220.937143 
L 516.168 240.685714 
L 516.3912 230.811429 
L 516.6144 211.062857 
L 516.8376 201.188571 
L 517.5072 201.188571 
L 517.7304 220.937143 
L 518.1768 220.937143 
L 518.4 201.188571 
L 518.4 201.188571 
" style="fill:none;opacity:0.8;stroke:#ff0000;stroke-linecap:square;"/>
   </g>
   <g id="line2d_2">
    <path clip-path="url(#p43aa3378f5)" d="M 72.2232 388.8 
L 83.16 388.8 
L 83.3832 378.925714 
L 84.276 378.925714 
L 84.4992 369.051429 
L 85.392 369.051429 
L 85.6152 359.177143 
L 86.508 359.177143 
L 86.7312 339.428571 
L 87.624 339.428571 
L 87.8472 329.554286 
L 88.74 329.554286 
L 88.9632 299.931429 
L 93.204 299.931429 
L 93.4272 280.182857 
L 94.32 280.182857 
L 94.5432 260.434286 
L 96.552 260.434286 
L 96.7752 290.057143 
L 97.668 290.057143 
L 97.8912 280.182857 
L 98.784 280.182857 
L 99.0072 240.685714 
L 99.9 240.685714 
L 100.1232 250.56 
L 101.016 250.56 
L 101.2392 201.188571 
L 102.132 201.188571 
L 102.3552 191.314286 
L 103.248 191.314286 
L 103.4712 211.062857 
L 104.364 211.062857 
L 104.5872 260.434286 
L 105.48 260.434286 
L 105.7032 250.56 
L 106.596 250.56 
L 106.8192 260.434286 
L 107.712 260.434286 
L 107.9352 240.685714 
L 108.828 240.685714 
L 109.0512 250.56 
L 109.944 250.56 
L 110.1672 230.811429 
L 111.06 230.811429 
L 111.2832 220.937143 
L 112.176 220.937143 
L 112.3992 201.188571 
L 113.292 201.188571 
L 113.5152 220.937143 
L 114.408 220.937143 
L 114.6312 230.811429 
L 115.524 230.811429 
L 115.7472 240.685714 
L 116.64 240.685714 
L 116.8632 260.434286 
L 117.756 260.434286 
L 117.9792 240.685714 
L 118.872 240.685714 
L 119.0952 260.434286 
L 119.988 260.434286 
L 120.2112 299.931429 
L 124.452 299.931429 
L 124.6752 280.182857 
L 125.568 280.182857 
L 125.7912 290.057143 
L 127.8 290.057143 
L 128.0232 270.308571 
L 128.916 270.308571 
L 129.1392 220.937143 
L 131.148 220.937143 
L 131.3712 191.314286 
L 132.264 191.314286 
L 132.4872 211.062857 
L 134.496 211.062857 
L 134.7192 230.811429 
L 135.612 230.811429 
L 135.8352 220.937143 
L 136.728 220.937143 
L 136.9512 211.062857 
L 138.96 211.062857 
L 139.1832 181.44 
L 141.192 181.44 
L 141.4152 171.565714 
L 142.308 171.565714 
L 142.5312 161.691429 
L 143.424 161.691429 
L 143.6472 171.565714 
L 144.54 171.565714 
L 144.7632 191.314286 
L 145.656 191.314286 
L 145.8792 181.44 
L 146.772 181.44 
L 146.9952 191.314286 
L 147.888 191.314286 
L 148.1112 211.062857 
L 149.004 211.062857 
L 149.2272 220.937143 
L 150.12 220.937143 
L 150.3432 250.56 
L 151.236 250.56 
L 151.4592 230.811429 
L 152.352 230.811429 
L 152.5752 211.062857 
L 154.584 211.062857 
L 154.8072 191.314286 
L 155.7 191.314286 
L 155.9232 211.062857 
L 157.932 211.062857 
L 158.1552 250.56 
L 159.048 250.56 
L 159.2712 220.937143 
L 161.28 220.937143 
L 161.5032 250.56 
L 162.396 250.56 
L 162.6192 270.308571 
L 164.628 270.308571 
L 164.8512 290.057143 
L 165.744 290.057143 
L 165.9672 299.931429 
L 166.86 299.931429 
L 167.0832 280.182857 
L 167.976 280.182857 
L 168.1992 250.56 
L 169.092 250.56 
L 169.3152 230.811429 
L 170.208 230.811429 
L 170.4312 220.937143 
L 172.44 220.937143 
L 172.6632 240.685714 
L 173.556 240.685714 
L 173.7792 230.811429 
L 174.672 230.811429 
L 174.8952 220.937143 
L 175.788 220.937143 
L 176.0112 230.811429 
L 176.904 230.811429 
L 177.1272 191.314286 
L 178.02 191.314286 
L 178.2432 201.188571 
L 179.136 201.188571 
L 179.3592 211.062857 
L 180.252 211.062857 
L 180.4752 240.685714 
L 181.368 240.685714 
L 181.5912 211.062857 
L 182.484 211.062857 
L 182.7072 171.565714 
L 183.6 171.565714 
L 183.8232 161.691429 
L 185.832 161.691429 
L 186.0552 171.565714 
L 186.948 171.565714 
L 187.1712 151.817143 
L 188.064 151.817143 
L 188.2872 191.314286 
L 189.18 191.314286 
L 189.4032 211.062857 
L 190.296 211.062857 
L 190.5192 201.188571 
L 191.412 201.188571 
L 191.6352 171.565714 
L 192.528 171.565714 
L 192.7512 250.56 
L 193.644 250.56 
L 193.8672 260.434286 
L 194.76 260.434286 
L 194.9832 280.182857 
L 196.992 280.182857 
L 197.2152 270.308571 
L 198.108 270.308571 
L 198.3312 240.685714 
L 199.224 240.685714 
L 199.4472 250.56 
L 200.34 250.56 
L 200.5632 260.434286 
L 201.456 260.434286 
L 201.6792 230.811429 
L 202.572 230.811429 
L 202.7952 240.685714 
L 203.688 240.685714 
L 203.9112 250.56 
L 205.92 250.56 
L 206.1432 260.434286 
L 207.036 260.434286 
L 207.2592 250.56 
L 209.268 250.56 
L 209.4912 280.182857 
L 210.384 280.182857 
L 210.6072 270.308571 
L 212.616 270.308571 
L 212.8392 290.057143 
L 213.732 290.057143 
L 213.9552 309.805714 
L 214.848 309.805714 
L 215.0712 339.428571 
L 215.964 339.428571 
L 216.1872 290.057143 
L 217.08 290.057143 
L 217.3032 270.308571 
L 218.196 270.308571 
L 218.4192 280.182857 
L 219.312 280.182857 
L 219.5352 240.685714 
L 220.428 240.685714 
L 220.6512 230.811429 
L 221.544 230.811429 
L 221.7672 220.937143 
L 222.66 220.937143 
L 222.8832 240.685714 
L 224.892 240.685714 
L 225.1152 270.308571 
L 226.008 270.308571 
L 226.2312 309.805714 
L 227.124 309.805714 
L 227.3472 299.931429 
L 229.356 299.931429 
L 229.5792 319.68 
L 230.472 319.68 
L 230.6952 309.805714 
L 231.588 309.805714 
L 231.8112 299.931429 
L 232.704 299.931429 
L 232.9272 290.057143 
L 233.82 290.057143 
L 234.0432 260.434286 
L 236.052 260.434286 
L 236.2752 280.182857 
L 237.168 280.182857 
L 237.3912 290.057143 
L 238.284 290.057143 
L 238.5072 299.931429 
L 239.4 299.931429 
L 239.6232 290.057143 
L 240.516 290.057143 
L 240.7392 260.434286 
L 241.632 260.434286 
L 241.8552 280.182857 
L 242.748 280.182857 
L 242.9712 290.057143 
L 243.864 290.057143 
L 244.0872 319.68 
L 244.98 319.68 
L 245.2032 329.554286 
L 246.096 329.554286 
L 246.3192 349.302857 
L 247.212 349.302857 
L 247.4352 329.554286 
L 248.328 329.554286 
L 248.5512 309.805714 
L 251.676 309.805714 
L 251.8992 299.931429 
L 252.792 299.931429 
L 253.0152 280.182857 
L 253.908 280.182857 
L 254.1312 290.057143 
L 255.024 290.057143 
L 255.2472 240.685714 
L 258.372 240.685714 
L 258.5952 250.56 
L 259.488 250.56 
L 259.7112 220.937143 
L 260.604 220.937143 
L 260.8272 240.685714 
L 261.72 240.685714 
L 261.9432 250.56 
L 262.836 250.56 
L 263.0592 270.308571 
L 265.068 270.308571 
L 265.2912 280.182857 
L 266.184 280.182857 
L 266.4072 270.308571 
L 267.3 270.308571 
L 267.5232 280.182857 
L 270.648 280.182857 
L 270.8712 270.308571 
L 271.764 270.308571 
L 271.9872 260.434286 
L 272.88 260.434286 
L 273.1032 250.56 
L 273.996 250.56 
L 274.2192 230.811429 
L 275.112 230.811429 
L 275.3352 250.56 
L 276.228 250.56 
L 276.4512 220.937143 
L 279.576 220.937143 
L 279.7992 211.062857 
L 280.692 211.062857 
L 280.9152 201.188571 
L 281.808 201.188571 
L 282.0312 181.44 
L 282.924 181.44 
L 283.1472 191.314286 
L 284.04 191.314286 
L 284.2632 211.062857 
L 285.156 211.062857 
L 285.3792 201.188571 
L 286.272 201.188571 
L 286.4952 211.062857 
L 287.388 211.062857 
L 287.6112 201.188571 
L 290.736 201.188571 
L 290.9592 240.685714 
L 291.852 240.685714 
L 292.0752 250.56 
L 294.084 250.56 
L 294.3072 230.811429 
L 295.2 230.811429 
L 295.4232 260.434286 
L 296.316 260.434286 
L 296.5392 240.685714 
L 297.432 240.685714 
L 297.6552 220.937143 
L 298.548 220.937143 
L 298.7712 181.44 
L 299.664 181.44 
L 299.8872 191.314286 
L 300.78 191.314286 
L 301.0032 230.811429 
L 301.896 230.811429 
L 302.1192 240.685714 
L 303.012 240.685714 
L 303.2352 260.434286 
L 304.128 260.434286 
L 304.3512 220.937143 
L 305.244 220.937143 
L 305.4672 191.314286 
L 306.36 191.314286 
L 306.5832 211.062857 
L 308.592 211.062857 
L 308.8152 201.188571 
L 309.708 201.188571 
L 309.9312 230.811429 
L 310.824 230.811429 
L 311.0472 250.56 
L 311.94 250.56 
L 312.1632 230.811429 
L 313.056 230.811429 
L 313.2792 250.56 
L 314.172 250.56 
L 314.3952 220.937143 
L 316.404 220.937143 
L 316.6272 250.56 
L 317.52 250.56 
L 317.7432 230.811429 
L 318.636 230.811429 
L 318.8592 250.56 
L 319.752 250.56 
L 319.9752 270.308571 
L 320.868 270.308571 
L 321.0912 280.182857 
L 323.1 280.182857 
L 323.3232 290.057143 
L 325.332 290.057143 
L 325.5552 299.931429 
L 326.448 299.931429 
L 326.6712 270.308571 
L 327.564 270.308571 
L 327.7872 280.182857 
L 328.68 280.182857 
L 328.9032 250.56 
L 332.028 250.56 
L 332.2512 230.811429 
L 333.144 230.811429 
L 333.3672 240.685714 
L 335.376 240.685714 
L 335.5992 211.062857 
L 337.608 211.062857 
L 337.8312 230.811429 
L 338.724 230.811429 
L 338.9472 171.565714 
L 339.84 171.565714 
L 340.0632 191.314286 
L 340.956 191.314286 
L 341.1792 201.188571 
L 342.072 201.188571 
L 342.2952 220.937143 
L 343.188 220.937143 
L 343.4112 260.434286 
L 344.304 260.434286 
L 344.5272 250.56 
L 345.42 250.56 
L 345.6432 240.685714 
L 346.536 240.685714 
L 346.7592 250.56 
L 347.652 250.56 
L 347.8752 230.811429 
L 348.768 230.811429 
L 348.9912 260.434286 
L 349.884 260.434286 
L 350.1072 250.56 
L 351 250.56 
L 351.2232 240.685714 
L 352.116 240.685714 
L 352.3392 250.56 
L 353.232 250.56 
L 353.4552 280.182857 
L 354.348 280.182857 
L 354.5712 240.685714 
L 356.58 240.685714 
L 356.8032 230.811429 
L 357.696 230.811429 
L 357.9192 250.56 
L 358.812 250.56 
L 359.0352 201.188571 
L 359.928 201.188571 
L 360.1512 220.937143 
L 361.044 220.937143 
L 361.2672 240.685714 
L 362.16 240.685714 
L 362.3832 250.56 
L 363.276 250.56 
L 363.4992 240.685714 
L 364.392 240.685714 
L 364.6152 211.062857 
L 365.508 211.062857 
L 365.7312 181.44 
L 367.74 181.44 
L 367.9632 211.062857 
L 372.204 211.062857 
L 372.4272 201.188571 
L 373.32 201.188571 
L 373.5432 171.565714 
L 374.436 171.565714 
L 374.6592 211.062857 
L 375.552 211.062857 
L 375.7752 220.937143 
L 376.668 220.937143 
L 376.8912 240.685714 
L 378.9 240.685714 
L 379.1232 270.308571 
L 380.016 270.308571 
L 380.2392 250.56 
L 382.248 250.56 
L 382.4712 260.434286 
L 384.48 260.434286 
L 384.7032 270.308571 
L 385.596 270.308571 
L 385.8192 260.434286 
L 386.712 260.434286 
L 386.9352 240.685714 
L 387.828 240.685714 
L 388.0512 250.56 
L 391.176 250.56 
L 391.3992 230.811429 
L 392.292 230.811429 
L 392.5152 240.685714 
L 394.524 240.685714 
L 394.7472 280.182857 
L 395.64 280.182857 
L 395.8632 290.057143 
L 396.756 290.057143 
L 396.9792 270.308571 
L 397.872 270.308571 
L 398.0952 290.057143 
L 398.988 290.057143 
L 399.2112 270.308571 
L 400.104 270.308571 
L 400.3272 280.182857 
L 404.568 280.182857 
L 404.7912 260.434286 
L 405.684 260.434286 
L 405.9072 240.685714 
L 407.916 240.685714 
L 408.1392 220.937143 
L 410.148 220.937143 
L 410.3712 191.314286 
L 411.264 191.314286 
L 411.4872 211.062857 
L 412.38 211.062857 
L 412.6032 230.811429 
L 413.496 230.811429 
L 413.7192 240.685714 
L 414.612 240.685714 
L 414.8352 260.434286 
L 416.844 260.434286 
L 417.0672 270.308571 
L 419.076 270.308571 
L 419.2992 290.057143 
L 420.192 290.057143 
L 420.4152 280.182857 
L 421.308 280.182857 
L 421.5312 270.308571 
L 422.424 270.308571 
L 422.6472 260.434286 
L 423.54 260.434286 
L 423.7632 270.308571 
L 424.656 270.308571 
L 424.8792 250.56 
L 425.772 250.56 
L 425.9952 240.685714 
L 426.888 240.685714 
L 427.1112 270.308571 
L 429.12 270.308571 
L 429.3432 280.182857 
L 430.236 280.182857 
L 430.4592 250.56 
L 431.352 250.56 
L 431.5752 240.685714 
L 432.468 240.685714 
L 432.6912 211.062857 
L 433.584 211.062857 
L 433.8072 220.937143 
L 434.7 220.937143 
L 434.9232 260.434286 
L 435.816 260.434286 
L 436.0392 280.182857 
L 436.932 280.182857 
L 437.1552 290.057143 
L 438.048 290.057143 
L 438.2712 280.182857 
L 440.28 280.182857 
L 440.5032 250.56 
L 441.396 250.56 
L 441.6192 201.188571 
L 442.512 201.188571 
L 442.7352 181.44 
L 443.628 181.44 
L 443.8512 220.937143 
L 444.744 220.937143 
L 444.9672 230.811429 
L 445.86 230.811429 
L 446.0832 211.062857 
L 446.976 211.062857 
L 447.1992 230.811429 
L 448.092 230.811429 
L 448.3152 181.44 
L 449.208 181.44 
L 449.4312 201.188571 
L 450.324 201.188571 
L 450.5472 230.811429 
L 451.44 230.811429 
L 451.6632 260.434286 
L 452.556 260.434286 
L 452.7792 240.685714 
L 453.672 240.685714 
L 453.8952 250.56 
L 455.904 250.56 
L 456.1272 270.308571 
L 458.136 270.308571 
L 458.3592 240.685714 
L 459.252 240.685714 
L 459.4752 230.811429 
L 460.368 230.811429 
L 460.5912 220.937143 
L 463.716 220.937143 
L 463.9392 230.811429 
L 465.948 230.811429 
L 466.1712 250.56 
L 468.18 250.56 
L 468.4032 220.937143 
L 469.296 220.937143 
L 469.5192 230.811429 
L 470.412 230.811429 
L 470.6352 250.56 
L 471.528 250.56 
L 471.7512 290.057143 
L 472.644 290.057143 
L 472.8672 250.56 
L 474.876 250.56 
L 475.0992 240.685714 
L 475.992 240.685714 
L 476.2152 250.56 
L 477.108 250.56 
L 477.3312 240.685714 
L 479.34 240.685714 
L 479.5632 220.937143 
L 480.456 220.937143 
L 480.6792 191.314286 
L 481.572 191.314286 
L 481.7952 220.937143 
L 482.688 220.937143 
L 482.9112 240.685714 
L 483.804 240.685714 
L 484.0272 260.434286 
L 484.92 260.434286 
L 485.1432 250.56 
L 486.036 250.56 
L 486.2592 240.685714 
L 488.268 240.685714 
L 488.4912 230.811429 
L 490.5 230.811429 
L 490.7232 220.937143 
L 492.732 220.937143 
L 492.9552 230.811429 
L 493.848 230.811429 
L 494.0712 260.434286 
L 494.964 260.434286 
L 495.1872 270.308571 
L 496.08 270.308571 
L 496.3032 250.56 
L 497.196 250.56 
L 497.4192 220.937143 
L 498.312 220.937143 
L 498.5352 230.811429 
L 499.428 230.811429 
L 499.6512 250.56 
L 500.544 250.56 
L 500.7672 240.685714 
L 501.66 240.685714 
L 501.8832 230.811429 
L 502.776 230.811429 
L 502.9992 240.685714 
L 503.892 240.685714 
L 504.1152 260.434286 
L 505.008 260.434286 
L 505.2312 240.685714 
L 506.124 240.685714 
L 506.3472 280.182857 
L 507.24 280.182857 
L 507.4632 250.56 
L 508.356 250.56 
L 508.5792 260.434286 
L 509.472 260.434286 
L 509.6952 270.308571 
L 510.588 270.308571 
L 510.8112 260.434286 
L 511.704 260.434286 
L 511.9272 230.811429 
L 512.82 230.811429 
L 513.0432 220.937143 
L 513.936 220.937143 
L 514.1592 230.811429 
L 515.052 230.811429 
L 515.2752 220.937143 
L 516.168 220.937143 
L 516.3912 201.188571 
L 517.284 201.188571 
L 517.5072 211.062857 
L 518.4 211.062857 
L 518.4 211.062857 
" style="fill:none;opacity:0.8;stroke:#0000ff;stroke-linecap:square;"/>
   </g>
   <g id="patch_3">
    <path d="M 72 43.2 
L 518.4 43.2 
" style="fill:none;stroke:#000000;stroke-linecap:square;stroke-linejoin:miter;"/>
   </g>
   <g id="patch_4">
    <path d="M 518.4 388.8 
L 518.4 43.2 
" style="fill:none;stroke:#000000;stroke-linecap:square;stroke-linejoin:miter;"/>
   </g>
   <g id="patch_5">
    <path d="M 72 388.8 
L 518.4 388.8 
" style="fill:none;stroke:#000000;stroke-linecap:square;stroke-linejoin:miter;"/>
   </g>
   <g id="patch_6">
    <path d="M 72 388.8 
L 72 43.2 
" style="fill:none;stroke:#000000;stroke-linecap:square;stroke-linejoin:miter;"/>
   </g>
   <g id="matplotlib.axis_1">
    <g id="xtick_1">
     <g id="line2d_3">
      <defs>
       <path d="M 0 0 
L 0 -4 
" id="mc39c7c075e" style="stroke:#000000;stroke-width:0.5;"/>
      </defs>
      <g>
       <use style="stroke:#000000;stroke-width:0.5;" x="72.0" xlink:href="#mc39c7c075e" y="388.8"/>
      </g>
     </g>
     <g id="line2d_4">
      <defs>
       <path d="M 0 0 
L 0 4 
" id="m958cb39982" style="stroke:#000000;stroke-width:0.5;"/>
      </defs>
      <g>
       <use style="stroke:#000000;stroke-width:0.5;" x="72.0" xlink:href="#m958cb39982" y="43.2"/>
      </g>
     </g>
     <g id="text_1">
      <!-- 0 -->
      <defs>
       <path d="M 28.40625 71 
C 14.40625 71 4.203125 55.6875 4.203125 34.75 
C 4.203125 14.125 14.09375 -1 27.59375 -1 
C 41.59375 -1 51.40625 13.625 51.40625 34.4375 
C 51.40625 45.0625 49.203125 53.875 45 60.78125 
C 41.09375 67.09375 34.703125 71 28.40625 71 
M 27.703125 66.703125 
C 31 66.703125 34.203125 64.5 36.59375 60.5 
C 39.296875 55.875 40.203125 49.96875 40.203125 36.25 
C 40.203125 22.21875 39.5 15.625 37.5 11.203125 
C 35.203125 6.296875 31.59375 3.296875 27.796875 3.296875 
C 24.5 3.296875 21.296875 5.5 18.90625 9.5 
C 16.09375 14.21875 15.296875 20.53125 15.296875 36.859375 
C 15.296875 48.484375 16 54.375 18 58.6875 
C 20.296875 63.796875 23.90625 66.703125 27.703125 66.703125 
" id="Century_Schoolbook_L_Roman-48"/>
      </defs>
      <g transform="translate(67.0147502894 406.105968098)scale(0.18 -0.18)">
       <use transform="scale(0.996264009963)" xlink:href="#Century_Schoolbook_L_Roman-48"/>
      </g>
     </g>
    </g>
    <g id="xtick_2">
     <g id="line2d_5">
      <g>
       <use style="stroke:#000000;stroke-width:0.5;" x="183.6" xlink:href="#mc39c7c075e" y="388.8"/>
      </g>
     </g>
     <g id="line2d_6">
      <g>
       <use style="stroke:#000000;stroke-width:0.5;" x="183.6" xlink:href="#m958cb39982" y="43.2"/>
      </g>
     </g>
     <g id="text_2">
      <!-- 500 -->
      <defs>
       <path d="M 16.40625 59.703125 
C 21.796875 58.40625 24.59375 58 28.5 58 
C 37 58 43.203125 61 46.5 66.484375 
C 47.59375 68.390625 48 69.28125 48 70.078125 
C 48 70.6875 47.703125 70.984375 47.203125 70.984375 
C 46.90625 70.984375 46.40625 70.875 45.90625 70.578125 
C 41 68.484375 38.296875 67.984375 32.59375 67.984375 
C 26.203125 67.984375 22.5 68.484375 12 70.984375 
C 11.59375 62.625 10.703125 51.984375 9.296875 39.65625 
C 7.203125 37.46875 6.5 36.171875 6.5 34.578125 
C 6.5 32.59375 7.796875 31.203125 9.703125 31.203125 
C 12.203125 31.203125 13.796875 33.328125 14.203125 37.359375 
C 17.703125 39.890625 21 41 25 41 
C 33.90625 41 39.296875 34.03125 39.296875 22.5 
C 39.296875 15.734375 37.59375 9.953125 34.59375 6.828125 
C 32.59375 4.703125 28.5 3.296875 24.40625 3.296875 
C 18.40625 3.296875 12.203125 6.421875 12.203125 9.5625 
C 12.203125 10.28125 12.796875 11.078125 14 11.78125 
C 17.09375 13.703125 18 15.03125 18 17.75 
C 18 21.296875 15.296875 24.015625 11.703125 24.015625 
C 7.703125 24.015625 4.5 20.28125 4.5 15.546875 
C 4.5 10.5 7.40625 5.453125 11.90625 2.328125 
C 15.296875 0.109375 19.40625 -1 24.59375 -1 
C 40.296875 -1 50.203125 8.28125 50.203125 23.109375 
C 50.203125 36.828125 41.09375 46 27.59375 46 
C 23.40625 46 20.203125 45.296875 14.703125 43 
z
" id="Century_Schoolbook_L_Roman-53"/>
      </defs>
      <g transform="translate(168.644250868 406.105968098)scale(0.18 -0.18)">
       <use transform="scale(0.996264009963)" xlink:href="#Century_Schoolbook_L_Roman-53"/>
       <use transform="translate(55.3916769633 0.0)scale(0.996264009963)" xlink:href="#Century_Schoolbook_L_Roman-48"/>
       <use transform="translate(110.783353927 0.0)scale(0.996264009963)" xlink:href="#Century_Schoolbook_L_Roman-48"/>
      </g>
     </g>
    </g>
    <g id="xtick_3">
     <g id="line2d_7">
      <g>
       <use style="stroke:#000000;stroke-width:0.5;" x="295.2" xlink:href="#mc39c7c075e" y="388.8"/>
      </g>
     </g>
     <g id="line2d_8">
      <g>
       <use style="stroke:#000000;stroke-width:0.5;" x="295.2" xlink:href="#m958cb39982" y="43.2"/>
      </g>
     </g>
     <g id="text_3">
      <!-- 1000 -->
      <defs>
       <path d="M 32.203125 70.5 
C 28.796875 66.234375 19.59375 63 10.40625 63 
L 10.40625 58.59375 
L 19.203125 58.59375 
C 25 58.59375 25.40625 58.203125 25.40625 52.3125 
L 25.40625 12.28125 
L 25.40625 9.375 
C 25.40625 5.1875 24.5 4.6875 16.5 4.6875 
L 10 4.6875 
L 10 0 
L 49.59375 0 
L 49.59375 4.6875 
L 44.09375 4.6875 
C 38.796875 4.6875 36.59375 5.09375 35.796875 6.09375 
C 35.09375 6.78125 35.09375 6.78125 35.09375 12.3125 
L 35.09375 53.671875 
C 35.09375 58.578125 35.296875 63.375 35.796875 70.5 
z
" id="Century_Schoolbook_L_Roman-49"/>
      </defs>
      <g transform="translate(275.259001158 406.105968098)scale(0.18 -0.18)">
       <use transform="scale(0.996264009963)" xlink:href="#Century_Schoolbook_L_Roman-49"/>
       <use transform="translate(55.3916769633 0.0)scale(0.996264009963)" xlink:href="#Century_Schoolbook_L_Roman-48"/>
       <use transform="translate(110.783353927 0.0)scale(0.996264009963)" xlink:href="#Century_Schoolbook_L_Roman-48"/>
       <use transform="translate(166.17503089 0.0)scale(0.996264009963)" xlink:href="#Century_Schoolbook_L_Roman-48"/>
      </g>
     </g>
    </g>
    <g id="xtick_4">
     <g id="line2d_9">
      <g>
       <use style="stroke:#000000;stroke-width:0.5;" x="406.8" xlink:href="#mc39c7c075e" y="388.8"/>
      </g>
     </g>
     <g id="line2d_10">
      <g>
       <use style="stroke:#000000;stroke-width:0.5;" x="406.8" xlink:href="#m958cb39982" y="43.2"/>
      </g>
     </g>
     <g id="text_4">
      <!-- 1500 -->
      <g transform="translate(386.859001158 406.105968098)scale(0.18 -0.18)">
       <use transform="scale(0.996264009963)" xlink:href="#Century_Schoolbook_L_Roman-49"/>
       <use transform="translate(55.3916769633 0.0)scale(0.996264009963)" xlink:href="#Century_Schoolbook_L_Roman-53"/>
       <use transform="translate(110.783353927 0.0)scale(0.996264009963)" xlink:href="#Century_Schoolbook_L_Roman-48"/>
       <use transform="translate(166.17503089 0.0)scale(0.996264009963)" xlink:href="#Century_Schoolbook_L_Roman-48"/>
      </g>
     </g>
    </g>
    <g id="xtick_5">
     <g id="line2d_11">
      <g>
       <use style="stroke:#000000;stroke-width:0.5;" x="518.4" xlink:href="#mc39c7c075e" y="388.8"/>
      </g>
     </g>
     <g id="line2d_12">
      <g>
       <use style="stroke:#000000;stroke-width:0.5;" x="518.4" xlink:href="#m958cb39982" y="43.2"/>
      </g>
     </g>
     <g id="text_5">
      <!-- 2000 -->
      <defs>
       <path d="M 50.5 21.5625 
L 46.09375 21.5625 
L 45.09375 16.46875 
C 43.796875 10.078125 43 9.375 36.796875 9.375 
L 14.40625 9.375 
C 21.296875 16.5625 23.59375 18.65625 30 23.65625 
C 39.09375 30.65625 43 34.15625 45.296875 37.140625 
C 48.5 41.53125 50.09375 46.03125 50.09375 50.8125 
C 50.09375 62.109375 40.59375 70.296875 27.59375 70.296875 
C 14.90625 70.296875 5.09375 62.109375 5.09375 51.515625 
C 5.09375 45.234375 8.296875 40.9375 13.09375 40.9375 
C 16.796875 40.9375 19.296875 43.4375 19.296875 47.03125 
C 19.296875 49.53125 17.90625 51.828125 15.703125 52.734375 
C 12 54.328125 11.796875 54.421875 11.796875 55.71875 
C 11.796875 57.21875 12.796875 59.515625 14.203125 61.21875 
C 16.703125 64.203125 20.90625 66 25.59375 66 
C 33.796875 66 38.796875 60.90625 38.796875 52.53125 
C 38.796875 45.125 35.296875 38.4375 27 29.65625 
L 21.09375 23.46875 
C 17.59375 19.78125 15 16.96875 13.296875 15.078125 
C 9.703125 10.875 7.90625 8.578125 3.5 2.796875 
L 3.5 0 
L 48.59375 0 
z
" id="Century_Schoolbook_L_Roman-50"/>
      </defs>
      <g transform="translate(498.459001158 406.105968098)scale(0.18 -0.18)">
       <use transform="scale(0.996264009963)" xlink:href="#Century_Schoolbook_L_Roman-50"/>
       <use transform="translate(55.3916769633 0.0)scale(0.996264009963)" xlink:href="#Century_Schoolbook_L_Roman-48"/>
       <use transform="translate(110.783353927 0.0)scale(0.996264009963)" xlink:href="#Century_Schoolbook_L_Roman-48"/>
       <use transform="translate(166.17503089 0.0)scale(0.996264009963)" xlink:href="#Century_Schoolbook_L_Roman-48"/>
      </g>
     </g>
    </g>
    <g id="text_6">
     <!-- Time (s) -->
     <defs>
      <path d="M 46.5 23 
C 46.59375 37.8125 38.09375 48.28125 25.90625 48.28125 
C 13.09375 48.28125 3.5 37.25 3.5 22.34375 
C 3.5 8.4375 12.59375 -1 26.09375 -1 
C 35.59375 -1 42.40625 3.6875 46.5 13.1875 
L 43 15.09375 
C 38.90625 7.390625 34.703125 4.390625 28 4.390625 
C 22.90625 4.390625 19.203125 6.59375 16.59375 11 
C 14.796875 14 14 17.5 14.09375 23 
z
M 14.203125 27.296875 
C 14.203125 30.34375 14.59375 32.5 15.59375 35.25 
C 17.703125 41.140625 20.90625 44 25.703125 44 
C 31.796875 44 35.796875 38.78125 35.796875 30.921875 
C 35.796875 28.078125 34.90625 27.296875 31.703125 27.296875 
z
" id="Century_Schoolbook_L_Roman-101"/>
      <path d="M 39 48 
L 35.5 48 
L 32.59375 44.40625 
C 29 47.203125 25.40625 48.390625 20.40625 48.390625 
C 11.59375 48.390625 5.796875 42.625 5.796875 33.953125 
C 5.796875 30.078125 7.09375 26.78125 9.296875 24.8125 
C 11.59375 22.703125 13.90625 21.71875 19.90625 20.3125 
L 25.203125 19.125 
C 33.09375 17.234375 35.90625 15.234375 35.90625 11.265625 
C 35.90625 6.578125 31.796875 3.296875 25.90625 3.296875 
C 17.5 3.296875 11.5 8.765625 9.09375 18.875 
L 5.09375 18.875 
L 5.09375 0 
L 8.59375 0 
L 12.09375 3.90625 
C 16.203125 0.59375 20.796875 -1 25.796875 -1 
C 35.59375 -1 42.09375 5.078125 42.09375 14.34375 
C 42.09375 18.71875 40.703125 22.09375 37.90625 24.390625 
C 35.5 26.484375 33.5 27.28125 27.40625 28.5625 
L 22.40625 29.671875 
C 16.90625 30.859375 16.90625 30.859375 15.09375 31.859375 
C 12.90625 32.859375 11.59375 34.9375 11.59375 37.140625 
C 11.59375 41.109375 15.40625 44 20.90625 44 
C 24.703125 44 27.796875 42.703125 30.59375 40.015625 
C 32.796875 37.8125 33.90625 35.828125 35.5 31.234375 
L 39 31.234375 
z
" id="Century_Schoolbook_L_Roman-115"/>
      <path d="M 20.59375 46 
L 1.796875 46 
L 1.796875 41.21875 
L 6.90625 41.21875 
C 10.59375 41.21875 11.203125 40.515625 11.203125 36.203125 
L 11.203125 12.296875 
L 11.203125 8.296875 
C 11.203125 4.296875 10.09375 3.59375 3.703125 3.59375 
L 3 3.59375 
L 3 0 
L 28.90625 0 
L 28.90625 3.59375 
L 28.203125 3.59375 
C 21.703125 3.59375 20.59375 4.28125 20.59375 8.21875 
L 20.59375 12.171875 
z
M 15.90625 71.578125 
C 12.703125 71.578125 10.09375 68.984375 10.09375 65.796875 
C 10.09375 62.703125 12.703125 60 15.796875 60 
C 19.09375 60 21.703125 62.59375 21.703125 65.796875 
C 21.703125 68.984375 19.09375 71.578125 15.90625 71.578125 
" id="Century_Schoolbook_L_Roman-105"/>
      <path d="M 20.09375 46 
L 2.296875 46 
L 2.296875 41.21875 
L 6.40625 41.21875 
C 10.09375 41.21875 10.703125 40.515625 10.703125 36.203125 
L 10.703125 12.296875 
L 10.703125 8.40625 
C 10.703125 4.296875 9.59375 3.59375 3.203125 3.59375 
L 2.796875 3.59375 
L 2.796875 0 
L 28 0 
L 28 3.59375 
L 27.59375 3.59375 
C 21.203125 3.59375 20.09375 4.296875 20.09375 8.390625 
L 20.09375 12.28125 
L 20.09375 26.453125 
C 20.09375 35.328125 25 41.921875 31.5 41.921875 
C 34.09375 41.921875 36.90625 40.515625 38.09375 38.625 
C 39.5 36.734375 40.09375 33.828125 40.09375 29.734375 
L 40.09375 12.28125 
L 40.09375 8.28125 
C 40.09375 4.296875 39 3.59375 32.5 3.59375 
L 32.09375 3.59375 
L 32.09375 0 
L 57.40625 0 
L 57.40625 3.59375 
L 57 3.59375 
C 50.59375 3.59375 49.5 4.296875 49.5 8.28125 
L 49.5 12.28125 
L 49.5 25.546875 
C 49.5 35.53125 54 41.921875 61 41.921875 
C 64.296875 41.921875 67 40.015625 68.296875 36.921875 
C 69.203125 34.734375 69.5 32.53125 69.5 28.640625 
L 69.5 12.28125 
L 69.5 8.28125 
C 69.5 4.296875 68.40625 3.59375 61.90625 3.59375 
L 61.5 3.59375 
L 61.5 0 
L 86.796875 0 
L 86.796875 3.59375 
L 86.40625 3.59375 
C 80 3.59375 78.90625 4.296875 78.90625 8.390625 
L 78.90625 12.28125 
L 78.90625 30.640625 
C 78.90625 36.828125 78.296875 38.921875 75.703125 42.3125 
C 72.796875 46.015625 68.703125 48 63.90625 48 
C 57.40625 48 52.59375 44.9375 48.296875 38.109375 
C 46.59375 44.046875 41.203125 48 34.5 48 
C 28.5 48 24 45.140625 20.09375 38.921875 
z
" id="Century_Schoolbook_L_Roman-109"/>
      <path d="M 63.296875 72 
L 3.40625 72 
L 1.90625 44.265625 
L 6.203125 44.265625 
C 6.90625 49.25 7.796875 53.046875 8.90625 56.234375 
C 11.5 63.515625 16.296875 67.3125 23.09375 67.3125 
C 26.40625 67.3125 27.796875 66.203125 27.796875 63.71875 
L 27.796875 12.28125 
L 27.796875 9.375 
C 27.796875 5.1875 26.90625 4.6875 18.796875 4.6875 
L 16.203125 4.6875 
L 16.203125 0 
L 50.5 0 
L 50.5 4.6875 
L 47.90625 4.6875 
C 39.90625 4.6875 39 5.1875 39 9.375 
L 39 12.28125 
L 39 63.71875 
C 39 66.203125 40.40625 67.3125 43.703125 67.3125 
C 49.796875 67.3125 54.703125 63.90625 57.203125 57.921875 
C 58.703125 54.25 59.703125 49.953125 60.5 44.265625 
L 64.796875 44.265625 
z
" id="Century_Schoolbook_L_Roman-84"/>
      <path d="M 5.40625 -12.28125 
C 11.40625 -8.578125 14.59375 -5.984375 18 -1.890625 
C 25.59375 6.984375 29.703125 18.5625 29.703125 30.640625 
C 29.703125 42.015625 26.09375 52.703125 19.40625 61.484375 
C 15.59375 66.375 12.203125 69.359375 5.40625 73.453125 
L 5.40625 69.765625 
C 15.40625 60.984375 19.40625 49.796875 19.40625 30.640625 
C 19.40625 11.375 15.40625 0.203125 5.40625 -8.578125 
z
" id="Century_Schoolbook_L_Roman-41"/>
      <path d="M 27.90625 73.453125 
C 21.90625 69.765625 18.703125 67.171875 15.296875 63.171875 
C 7.703125 54.1875 3.59375 42.71875 3.59375 30.640625 
C 3.59375 19.265625 7.203125 8.578125 13.90625 -0.296875 
C 17.703125 -5.09375 21.09375 -8.078125 27.90625 -12.28125 
L 27.90625 -8.578125 
C 17.90625 0.203125 13.90625 11.484375 13.90625 30.640625 
C 13.90625 49.796875 17.90625 60.984375 27.90625 69.765625 
z
" id="Century_Schoolbook_L_Roman-40"/>
     </defs>
     <g transform="translate(261.32556429 427.819096479)scale(0.18 -0.18)">
      <use transform="scale(0.996264009963)" xlink:href="#Century_Schoolbook_L_Roman-84"/>
      <use transform="translate(66.4500311333 0.0)scale(0.996264009963)" xlink:href="#Century_Schoolbook_L_Roman-105"/>
      <use transform="translate(97.8313441294 0.0)scale(0.996264009963)" xlink:href="#Century_Schoolbook_L_Roman-109"/>
      <use transform="translate(186.398250822 0.0)scale(0.996264009963)" xlink:href="#Century_Schoolbook_L_Roman-101"/>
      <use transform="translate(263.906620923 0.0)scale(0.996264009963)" xlink:href="#Century_Schoolbook_L_Roman-40"/>
      <use transform="translate(297.081850653 0.0)scale(0.996264009963)" xlink:href="#Century_Schoolbook_L_Roman-115"/>
      <use transform="translate(343.207661212 0.0)scale(0.996264009963)" xlink:href="#Century_Schoolbook_L_Roman-41"/>
     </g>
    </g>
   </g>
   <g id="matplotlib.axis_2">
    <g id="ytick_1">
     <g id="line2d_13">
      <defs>
       <path d="M 0 0 
L 4 0 
" id="m798438274b" style="stroke:#000000;stroke-width:0.5;"/>
      </defs>
      <g>
       <use style="stroke:#000000;stroke-width:0.5;" x="72.0" xlink:href="#m798438274b" y="388.8"/>
      </g>
     </g>
     <g id="line2d_14">
      <defs>
       <path d="M 0 0 
L -4 0 
" id="mb582c981d5" style="stroke:#000000;stroke-width:0.5;"/>
      </defs>
      <g>
       <use style="stroke:#000000;stroke-width:0.5;" x="518.4" xlink:href="#mb582c981d5" y="388.8"/>
      </g>
     </g>
     <g id="text_7">
      <!-- 0 -->
      <g transform="translate(58.0295005789 393.749403908)scale(0.18 -0.18)">
       <use transform="scale(0.996264009963)" xlink:href="#Century_Schoolbook_L_Roman-48"/>
      </g>
     </g>
    </g>
    <g id="ytick_2">
     <g id="line2d_15">
      <g>
       <use style="stroke:#000000;stroke-width:0.5;" x="72.0" xlink:href="#m798438274b" y="339.428571429"/>
      </g>
     </g>
     <g id="line2d_16">
      <g>
       <use style="stroke:#000000;stroke-width:0.5;" x="518.4" xlink:href="#mb582c981d5" y="339.428571429"/>
      </g>
     </g>
     <g id="text_8">
      <!-- 5 -->
      <g transform="translate(58.0295005789 344.377975336)scale(0.18 -0.18)">
       <use transform="scale(0.996264009963)" xlink:href="#Century_Schoolbook_L_Roman-53"/>
      </g>
     </g>
    </g>
    <g id="ytick_3">
     <g id="line2d_17">
      <g>
       <use style="stroke:#000000;stroke-width:0.5;" x="72.0" xlink:href="#m798438274b" y="290.057142857"/>
      </g>
     </g>
     <g id="line2d_18">
      <g>
       <use style="stroke:#000000;stroke-width:0.5;" x="518.4" xlink:href="#mb582c981d5" y="290.057142857"/>
      </g>
     </g>
     <g id="text_9">
      <!-- 10 -->
      <g transform="translate(48.0590011578 295.006546765)scale(0.18 -0.18)">
       <use transform="scale(0.996264009963)" xlink:href="#Century_Schoolbook_L_Roman-49"/>
       <use transform="translate(55.3916769633 0.0)scale(0.996264009963)" xlink:href="#Century_Schoolbook_L_Roman-48"/>
      </g>
     </g>
    </g>
    <g id="ytick_4">
     <g id="line2d_19">
      <g>
       <use style="stroke:#000000;stroke-width:0.5;" x="72.0" xlink:href="#m798438274b" y="240.685714286"/>
      </g>
     </g>
     <g id="line2d_20">
      <g>
       <use style="stroke:#000000;stroke-width:0.5;" x="518.4" xlink:href="#mb582c981d5" y="240.685714286"/>
      </g>
     </g>
     <g id="text_10">
      <!-- 15 -->
      <g transform="translate(48.0590011578 245.635118193)scale(0.18 -0.18)">
       <use transform="scale(0.996264009963)" xlink:href="#Century_Schoolbook_L_Roman-49"/>
       <use transform="translate(55.3916769633 0.0)scale(0.996264009963)" xlink:href="#Century_Schoolbook_L_Roman-53"/>
      </g>
     </g>
    </g>
    <g id="ytick_5">
     <g id="line2d_21">
      <g>
       <use style="stroke:#000000;stroke-width:0.5;" x="72.0" xlink:href="#m798438274b" y="191.314285714"/>
      </g>
     </g>
     <g id="line2d_22">
      <g>
       <use style="stroke:#000000;stroke-width:0.5;" x="518.4" xlink:href="#mb582c981d5" y="191.314285714"/>
      </g>
     </g>
     <g id="text_11">
      <!-- 20 -->
      <g transform="translate(48.0590011578 196.263689622)scale(0.18 -0.18)">
       <use transform="scale(0.996264009963)" xlink:href="#Century_Schoolbook_L_Roman-50"/>
       <use transform="translate(55.3916769633 0.0)scale(0.996264009963)" xlink:href="#Century_Schoolbook_L_Roman-48"/>
      </g>
     </g>
    </g>
    <g id="ytick_6">
     <g id="line2d_23">
      <g>
       <use style="stroke:#000000;stroke-width:0.5;" x="72.0" xlink:href="#m798438274b" y="141.942857143"/>
      </g>
     </g>
     <g id="line2d_24">
      <g>
       <use style="stroke:#000000;stroke-width:0.5;" x="518.4" xlink:href="#mb582c981d5" y="141.942857143"/>
      </g>
     </g>
     <g id="text_12">
      <!-- 25 -->
      <g transform="translate(48.0590011578 146.892261051)scale(0.18 -0.18)">
       <use transform="scale(0.996264009963)" xlink:href="#Century_Schoolbook_L_Roman-50"/>
       <use transform="translate(55.3916769633 0.0)scale(0.996264009963)" xlink:href="#Century_Schoolbook_L_Roman-53"/>
      </g>
     </g>
    </g>
    <g id="ytick_7">
     <g id="line2d_25">
      <g>
       <use style="stroke:#000000;stroke-width:0.5;" x="72.0" xlink:href="#m798438274b" y="92.5714285714"/>
      </g>
     </g>
     <g id="line2d_26">
      <g>
       <use style="stroke:#000000;stroke-width:0.5;" x="518.4" xlink:href="#mb582c981d5" y="92.5714285714"/>
      </g>
     </g>
     <g id="text_13">
      <!-- 30 -->
      <defs>
       <path d="M 34.59375 37.359375 
C 36 37.859375 36.203125 37.859375 36.90625 38.15625 
C 43.90625 41.0625 47.90625 46.671875 47.90625 53.765625 
C 47.90625 64.1875 39.90625 71 27.5 71 
C 15.796875 71 6.90625 63.96875 6.90625 54.71875 
C 6.90625 50.546875 9.703125 47.59375 13.5 47.59375 
C 17 47.59375 19.40625 50.046875 19.40625 53.71875 
C 19.40625 55.875 18.59375 57.296875 16.296875 58.9375 
C 15.296875 59.640625 15 60.15625 15 60.78125 
C 15 63.640625 20.90625 66.703125 26.5 66.703125 
C 33.703125 66.703125 37.5 62.125 37.5 53.46875 
C 37.5 43.984375 33.703125 39 26.5 39 
C 25.59375 39 24 39 22.5 39 
C 21.703125 39 20.90625 39 20.296875 39 
C 18.203125 39 17.09375 38.125 17.09375 36.40625 
C 17.09375 34.78125 18.203125 34.015625 20.203125 34.015625 
C 20.5 34.015625 21.296875 34.015625 22.59375 34.015625 
C 26.40625 34.015625 26.5 34.015625 27.296875 34.015625 
C 34.703125 34.015625 38.703125 28.828125 38.703125 19.140625 
C 38.703125 9.0625 33.59375 3.296875 24.703125 3.296875 
C 18.40625 3.296875 11.59375 6.640625 11.59375 9.6875 
C 11.59375 10.59375 11.796875 10.765625 13.796875 11.875 
C 16.59375 13.53125 17.703125 15.21875 17.703125 17.65625 
C 17.703125 21.203125 15 23.875 11.296875 23.875 
C 7.09375 23.875 4.203125 20.328125 4.203125 15.1875 
C 4.203125 5.609375 13.09375 -1 25.90625 -1 
C 40.296875 -1 49.796875 7.015625 49.796875 19.328125 
C 49.796875 28.734375 44.90625 34.4375 34.59375 37.359375 
" id="Century_Schoolbook_L_Roman-51"/>
      </defs>
      <g transform="translate(48.0590011578 97.5208324791)scale(0.18 -0.18)">
       <use transform="scale(0.996264009963)" xlink:href="#Century_Schoolbook_L_Roman-51"/>
       <use transform="translate(55.3916769633 0.0)scale(0.996264009963)" xlink:href="#Century_Schoolbook_L_Roman-48"/>
      </g>
     </g>
    </g>
    <g id="ytick_8">
     <g id="line2d_27">
      <g>
       <use style="stroke:#000000;stroke-width:0.5;" x="72.0" xlink:href="#m798438274b" y="43.2"/>
      </g>
     </g>
     <g id="line2d_28">
      <g>
       <use style="stroke:#000000;stroke-width:0.5;" x="518.4" xlink:href="#mb582c981d5" y="43.2"/>
      </g>
     </g>
     <g id="text_14">
      <!-- 35 -->
      <g transform="translate(48.0590011578 48.1494039077)scale(0.18 -0.18)">
       <use transform="scale(0.996264009963)" xlink:href="#Century_Schoolbook_L_Roman-51"/>
       <use transform="translate(55.3916769633 0.0)scale(0.996264009963)" xlink:href="#Century_Schoolbook_L_Roman-53"/>
      </g>
     </g>
    </g>
    <g id="text_15">
     <!-- Cluster size -->
     <defs>
      <path d="M 19.40625 47 
L 19.40625 67 
L 15.296875 67 
C 14.296875 53.875 9.90625 47.1875 1.796875 46.59375 
L 1.796875 42.703125 
L 10 42.703125 
L 10 17.265625 
C 10 10.28125 10.203125 7.78125 11.203125 5.484375 
C 12.796875 1.296875 16.796875 -1 22.59375 -1 
C 26.5 -1 29.90625 0.203125 32.203125 2.390625 
C 35.5 5.59375 37.40625 10.875 37.40625 16.375 
C 37.40625 16.96875 37.40625 17.671875 37.296875 18.671875 
L 33.09375 18.671875 
C 32.796875 9.6875 30.203125 5.09375 25.296875 5.09375 
C 23 5.09375 21 6.28125 20.296875 7.984375 
C 19.703125 9.375 19.40625 11.875 19.40625 15.46875 
L 19.40625 42.703125 
L 34.09375 42.703125 
L 34.09375 47 
z
" id="Century_Schoolbook_L_Roman-116"/>
      <path d="M 41.203125 0 
L 59.40625 0 
L 59.40625 4.703125 
L 56.90625 4.703125 
C 51.40625 4.703125 50.59375 5.59375 50.59375 11.953125 
L 50.59375 46.78125 
L 31.796875 46.78125 
L 31.796875 42 
L 36.90625 42 
C 40.59375 42 41.203125 41.296875 41.203125 36.953125 
L 41.203125 24.5625 
C 41.203125 18.8125 40.59375 15.484375 39.09375 12.15625 
C 37 7.71875 33 5.09375 28.09375 5.09375 
C 25 5.09375 22.40625 6.1875 21.09375 8.171875 
C 19.796875 10.046875 19.59375 11.046875 19.59375 16.5 
L 19.59375 46.78125 
L 2.09375 46.78125 
L 2.09375 42 
L 5.90625 42 
C 9.59375 42 10.203125 41.296875 10.203125 36.953125 
L 10.203125 15.21875 
C 10.203125 10.078125 10.59375 7.765625 12.09375 5.453125 
C 14.796875 1.3125 19.59375 -1 25.59375 -1 
C 32.203125 -1 36.796875 1.71875 41.203125 8.125 
z
" id="Century_Schoolbook_L_Roman-117"/>
      <path d="M 19.796875 46 
L 2.09375 46 
L 2.09375 41.21875 
L 6.203125 41.21875 
C 9.90625 41.21875 10.5 40.515625 10.5 36.203125 
L 10.5 12.296875 
L 10.5 8.296875 
C 10.5 4.296875 9.40625 3.59375 2.90625 3.59375 
L 2.5 3.59375 
L 2.5 0 
L 29.203125 0 
L 29.203125 3.59375 
L 27.296875 3.59375 
C 20.90625 3.59375 19.796875 4.296875 19.796875 8.296875 
L 19.796875 12.296875 
L 19.796875 13.296875 
C 19.796875 20.8125 21.203125 28.40625 23.703125 34.109375 
C 26.09375 39.703125 29.5 42.8125 33.703125 43.3125 
C 32.296875 41.703125 31.90625 40.6875 31.90625 38.765625 
C 31.90625 35.546875 34.203125 33.234375 37.40625 33.234375 
C 41 33.234375 43.5 35.9375 43.5 40.015625 
C 43.5 44.8125 40.09375 48 34.796875 48 
C 28.5 48 23 42.921875 19.796875 34.140625 
z
" id="Century_Schoolbook_L_Roman-114"/>
      <path d="M 20.40625 73 
L 1.90625 73 
L 1.90625 68.21875 
L 6.796875 68.21875 
C 10.40625 68.21875 11 67.515625 11 63.21875 
L 11 12.28125 
L 11 8.28125 
C 11 4.296875 9.90625 3.59375 3.5 3.59375 
L 2.796875 3.59375 
L 2.796875 0 
L 28.703125 0 
L 28.703125 3.59375 
L 28 3.59375 
C 21.5 3.59375 20.40625 4.296875 20.40625 8.25 
L 20.40625 12.21875 
z
" id="Century_Schoolbook_L_Roman-108"/>
      <path d="M 42.796875 46.296875 
L 6.703125 46.296875 
L 5.796875 29.5 
L 9.796875 29.5 
C 10.703125 38.421875 14.296875 42 22.5 42 
L 31.203125 42 
L 3.90625 3.59375 
L 3.90625 0 
L 42.796875 0 
L 43.5 17.78125 
L 39.5 17.78125 
C 38.5 7.96875 34.703125 4.296875 25.703125 4.296875 
L 15.5 4.296875 
L 42.796875 42.703125 
z
" id="Century_Schoolbook_L_Roman-122"/>
      <path d="M 63.90625 72 
L 60.09375 72 
L 56.09375 66.015625 
C 49 71.203125 45.09375 72.703125 38.40625 72.703125 
C 28.703125 72.703125 20.703125 68.8125 13.90625 60.78125 
C 7.5 53.234375 4.5 44.890625 4.5 34.65625 
C 4.5 13.296875 18.59375 -2 38.296875 -2 
C 54.296875 -2 64.5 7.34375 66.796875 24.015625 
L 62.09375 24.8125 
C 61.09375 19.546875 59.90625 15.984375 58.09375 13.015625 
C 54 6.171875 47.59375 2.6875 39.5 2.6875 
C 24.703125 2.6875 17.703125 12.90625 17.703125 34.265625 
C 17.703125 45.46875 19.203125 53.015625 22.59375 58.96875 
C 25.703125 64.53125 31.90625 68 38.296875 68 
C 45.296875 68 51.5 64.328125 55.296875 57.96875 
C 57.203125 54.6875 58.703125 50.8125 61 43.171875 
L 65.40625 43.171875 
z
" id="Century_Schoolbook_L_Roman-67"/>
     </defs>
     <g transform="translate(39.651840875 265.143957231)rotate(-90.0)scale(0.18 -0.18)">
      <use transform="scale(0.996264009963)" xlink:href="#Century_Schoolbook_L_Roman-67"/>
      <use transform="translate(71.9299848469 0.0)scale(0.996264009963)" xlink:href="#Century_Schoolbook_L_Roman-108"/>
      <use transform="translate(103.311297843 0.0)scale(0.996264009963)" xlink:href="#Century_Schoolbook_L_Roman-117"/>
      <use transform="translate(164.18292852 0.0)scale(0.996264009963)" xlink:href="#Century_Schoolbook_L_Roman-115"/>
      <use transform="translate(210.308739079 0.0)scale(0.996264009963)" xlink:href="#Century_Schoolbook_L_Roman-116"/>
      <use transform="translate(249.062445274 0.0)scale(0.996264009963)" xlink:href="#Century_Schoolbook_L_Roman-101"/>
      <use transform="translate(298.875645772 0.0)scale(0.996264009963)" xlink:href="#Century_Schoolbook_L_Roman-114"/>
      <use transform="translate(370.804384072 0.0)scale(0.996264009963)" xlink:href="#Century_Schoolbook_L_Roman-115"/>
      <use transform="translate(416.930194631 0.0)scale(0.996264009963)" xlink:href="#Century_Schoolbook_L_Roman-105"/>
      <use transform="translate(448.311507628 0.0)scale(0.996264009963)" xlink:href="#Century_Schoolbook_L_Roman-122"/>
      <use transform="translate(496.231219718 0.0)scale(0.996264009963)" xlink:href="#Century_Schoolbook_L_Roman-101"/>
     </g>
    </g>
   </g>
   <g id="legend_1">
    <g id="patch_7">
     <path d="M 311.092049 109.026257 
L 509.4 109.026257 
L 509.4 52.2 
L 311.092049 52.2 
z
" style="fill:#ffffff;stroke:#000000;stroke-linejoin:miter;"/>
    </g>
    <g id="line2d_29">
     <path d="M 323.692049 66.405968 
L 348.892049 66.405968 
" style="fill:none;opacity:0.8;stroke:#ff0000;stroke-linecap:square;"/>
    </g>
    <g id="line2d_30"/>
    <g id="text_16">
     <!-- FCD file -->
     <defs>
      <path d="M 62.40625 72 
L 2.90625 72 
L 2.90625 67.3125 
L 4.703125 67.3125 
C 12.796875 67.3125 13.703125 66.8125 13.703125 62.609375 
L 13.703125 59.734375 
L 13.703125 12.28125 
L 13.703125 9.375 
C 13.703125 5.1875 12.796875 4.6875 4.703125 4.6875 
L 2.90625 4.6875 
L 2.90625 0 
L 37.203125 0 
L 37.203125 4.6875 
L 33.90625 4.6875 
C 25.796875 4.6875 24.90625 5.1875 24.90625 9.390625 
L 24.90625 12.296875 
L 24.90625 35 
L 26.90625 35 
C 33.09375 35 35.5 34.375 37.59375 32.234375 
C 40.09375 29.578125 41.09375 26.296875 41.296875 20.265625 
L 46 20.265625 
L 46 53 
L 41.296875 53 
C 40.796875 43.46875 36.796875 39.6875 27.296875 39.6875 
L 24.90625 39.6875 
L 24.90625 62.328125 
C 24.90625 66.609375 25.796875 67.3125 31.203125 67.3125 
L 35.796875 67.3125 
C 52.296875 67.3125 56.59375 63.5 59.40625 46.390625 
L 63.796875 46.390625 
z
" id="Century_Schoolbook_L_Roman-70"/>
      <path d="M 11.09375 46.296875 
L 1.59375 46.296875 
L 1.59375 42 
L 11.09375 42 
L 11.09375 12.234375 
L 11.09375 8.25 
C 11.09375 4.296875 10 3.59375 3.5 3.59375 
L 3.09375 3.59375 
L 3.09375 0 
L 28.40625 0 
L 28.40625 3.59375 
L 28 3.59375 
C 21.59375 3.59375 20.5 4.296875 20.5 8.15625 
L 20.5 12.234375 
L 20.5 42 
L 37.203125 42 
C 41.203125 42 41.5 41.59375 41.5 35.15625 
L 41.5 12.234375 
L 41.5 8.25 
C 41.5 4.296875 40.40625 3.59375 33.90625 3.59375 
L 33.5 3.59375 
L 33.5 0 
L 58.796875 0 
L 58.796875 3.59375 
L 58.40625 3.59375 
C 52 3.59375 50.90625 4.28125 50.90625 8.125 
L 50.90625 12.15625 
L 50.90625 46.59375 
C 43.703125 46.59375 40.40625 46.59375 35.59375 46.59375 
L 20.5 46.59375 
L 20.5 48.640625 
C 20.5 55.75 21.59375 60.53125 24.09375 63.75 
C 26.703125 67.265625 30.40625 69.015625 35.09375 69.015625 
C 38.203125 69.015625 39.796875 68.515625 39.796875 67.4375 
C 39.796875 67.03125 39.796875 66.9375 39.203125 66.140625 
C 38.5 65.265625 38.09375 63.78125 38.09375 62.59375 
C 38.09375 59.71875 40.796875 57.453125 44.296875 57.453125 
C 48.09375 57.453125 50.59375 59.84375 50.59375 63.40625 
C 50.59375 69.234375 44.90625 73 35.796875 73 
C 28.09375 73 22.203125 70.828125 17.5 66.171875 
C 12.90625 61.71875 11.09375 56.28125 11.09375 47.1875 
z
" id="Century_Schoolbook_L_Roman-2"/>
      <path d="M 13.703125 12.28125 
L 13.703125 9.375 
C 13.703125 5.1875 12.796875 4.6875 4.796875 4.6875 
L 2.90625 4.6875 
L 2.90625 0 
L 36.5 0 
C 45.40625 0 52.203125 1.390625 57.5 4.390625 
C 67.59375 10.0625 73.203125 21.4375 73.203125 36.390625 
C 73.203125 50.0625 68.203125 60.9375 59 66.90625 
C 53.5 70.40625 46.09375 72 34.703125 72 
L 2.90625 72 
L 2.90625 67.3125 
L 4.796875 67.3125 
C 12.796875 67.3125 13.703125 66.8125 13.703125 62.609375 
L 13.703125 59.734375 
z
M 30.59375 4.6875 
C 25.59375 4.6875 24.90625 5.296875 24.90625 10.1875 
L 24.90625 61.71875 
C 24.90625 66.609375 25.59375 67.3125 30.59375 67.3125 
L 35.796875 67.3125 
C 52.90625 67.3125 60 58.046875 60 36 
C 60 13.65625 53.5 4.6875 37.40625 4.6875 
z
" id="Century_Schoolbook_L_Roman-68"/>
     </defs>
     <g transform="translate(368.69204886 72.7059680981)scale(0.18 -0.18)">
      <use transform="scale(0.996264009963)" xlink:href="#Century_Schoolbook_L_Roman-70"/>
      <use transform="translate(66.4500311333 0.0)scale(0.996264009963)" xlink:href="#Century_Schoolbook_L_Roman-67"/>
      <use transform="translate(138.38001598 0.0)scale(0.996264009963)" xlink:href="#Century_Schoolbook_L_Roman-68"/>
      <use transform="translate(243.583555685 0.0)scale(0.996264009963)" xlink:href="#Century_Schoolbook_L_Roman-2"/>
      <use transform="translate(304.455186362 0.0)scale(0.996264009963)" xlink:href="#Century_Schoolbook_L_Roman-108"/>
      <use transform="translate(335.836499358 0.0)scale(0.996264009963)" xlink:href="#Century_Schoolbook_L_Roman-101"/>
     </g>
    </g>
    <g id="line2d_31">
     <path d="M 323.692049 92.119096 
L 348.892049 92.119096 
" style="fill:none;opacity:0.8;stroke:#0000ff;stroke-linecap:square;"/>
    </g>
    <g id="line2d_32"/>
    <g id="text_17">
     <!-- Implementation -->
     <defs>
      <path d="M 26 59.734375 
L 26 62.609375 
C 26 66.8125 26.90625 67.3125 34.90625 67.3125 
L 36.90625 67.3125 
L 36.90625 72 
L 3.796875 72 
L 3.796875 67.3125 
L 5.796875 67.3125 
C 13.90625 67.3125 14.796875 66.8125 14.796875 62.609375 
L 14.796875 59.734375 
L 14.796875 12.28125 
L 14.796875 9.375 
C 14.796875 5.1875 13.90625 4.6875 5.796875 4.6875 
L 3.796875 4.6875 
L 3.796875 0 
L 36.90625 0 
L 36.90625 4.6875 
L 34.90625 4.6875 
C 26.90625 4.6875 26 5.1875 26 9.375 
L 26 12.28125 
z
" id="Century_Schoolbook_L_Roman-73"/>
      <path d="M 45.203125 32.578125 
C 45.203125 38.796875 44.09375 41.96875 41.203125 44.34375 
C 37.90625 46.90625 33 48.28125 26.59375 48.28125 
C 15.40625 48.28125 7.09375 43.046875 7.09375 35.921875 
C 7.09375 32.15625 9.40625 29.78125 12.90625 29.78125 
C 16 29.78125 18.296875 31.859375 18.296875 34.8125 
C 18.296875 36.109375 17.796875 37.484375 16.796875 38.875 
C 16.203125 39.546875 16.09375 39.84375 16.09375 40.15625 
C 16.09375 42.21875 20.203125 44 25 44 
C 28.09375 44 31.59375 43.015625 33.203125 41.53125 
C 35.09375 39.953125 35.796875 37.578125 35.796875 33.125 
L 35.796875 29.28125 
C 25.296875 27.484375 22.09375 26.6875 17.203125 24.8125 
C 8.59375 21.609375 4.40625 16.9375 4.40625 10.65625 
C 4.40625 3.578125 10.09375 -1 18.90625 -1 
C 25.796875 -1 32 1.859375 36.296875 7.0625 
C 37.90625 1.984375 40.40625 0 45.09375 0 
C 49.59375 0 54.296875 2.890625 54.296875 5.78125 
C 54.296875 6.46875 53.796875 6.96875 53.296875 6.96875 
C 52.90625 6.96875 52.5 6.875 51.796875 6.578125 
C 50.203125 6 49.796875 5.890625 49 5.890625 
C 46.203125 5.890625 45.203125 7.78125 45.203125 12.71875 
z
M 35.796875 20.46875 
C 35.796875 14.46875 35.5 13.078125 33.796875 10.484375 
C 31.296875 6.78125 26.703125 4.296875 22.40625 4.296875 
C 17.90625 4.296875 14.5 7.59375 14.5 12.078125 
C 14.5 16.265625 16.59375 19.265625 21 21.359375 
C 24.09375 22.75 28 23.75 35.796875 25.046875 
z
" id="Century_Schoolbook_L_Roman-97"/>
      <path d="M 20.09375 46 
L 2.796875 46 
L 2.796875 41.21875 
L 6.40625 41.21875 
C 10.09375 41.21875 10.703125 40.515625 10.703125 36.21875 
L 10.703125 -7.75 
L 10.703125 -11.71875 
C 10.703125 -15.71875 9.59375 -16.40625 3.203125 -16.40625 
L 2.796875 -16.40625 
L 2.796875 -20 
L 28.796875 -20 
L 28.796875 -16.40625 
L 27.703125 -16.40625 
C 21.203125 -16.40625 20.09375 -15.71875 20.09375 -11.734375 
L 20.09375 -7.75 
L 20.09375 6.6875 
C 23.40625 0.90625 27.203125 -1.390625 33.296875 -1.390625 
C 44.90625 -1.390625 53.5 9.265625 53.5 23.5 
C 53.5 37.265625 44.90625 48 33.90625 48 
C 27.703125 48 23.59375 45.4375 20.09375 39.515625 
z
M 32.09375 42.609375 
C 39 42.609375 43 35.75 43 24.09375 
C 43 11.265625 38.90625 4 31.796875 4 
C 24.703125 4 20 11.375 20 22.8125 
C 20 35.140625 24.5 42.609375 32.09375 42.609375 
" id="Century_Schoolbook_L_Roman-112"/>
      <path d="M 20 46 
L 2.703125 46 
L 2.703125 41.21875 
L 6.296875 41.21875 
C 10 41.21875 10.59375 40.515625 10.59375 36.203125 
L 10.59375 12.296875 
L 10.59375 8.296875 
C 10.59375 4.296875 9.5 3.59375 3.09375 3.59375 
L 2.703125 3.59375 
L 2.703125 0 
L 28 0 
L 28 3.59375 
L 27.59375 3.59375 
C 21.09375 3.59375 20 4.296875 20 8.28125 
L 20 12.28125 
L 20 22.65625 
C 20 27.546875 20.703125 32.03125 21.796875 34.328125 
C 23.90625 38.828125 28.40625 41.921875 32.703125 41.921875 
C 35.296875 41.921875 38.296875 40.421875 39.796875 38.421875 
C 41.296875 36.328125 42 33.234375 42 28.4375 
L 42 12.28125 
L 42 8.28125 
C 42 4.296875 40.90625 3.59375 34.40625 3.59375 
L 34 3.59375 
L 34 0 
L 59.296875 0 
L 59.296875 3.59375 
L 58.90625 3.59375 
C 52.5 3.59375 51.40625 4.296875 51.40625 8.28125 
L 51.40625 12.28125 
L 51.40625 27.953125 
C 51.40625 35.125 51.09375 36.921875 49.296875 40.328125 
C 46.796875 45.109375 41.703125 48 35.796875 48 
C 29.40625 48 24.40625 45.046875 20 38.515625 
z
" id="Century_Schoolbook_L_Roman-110"/>
      <path d="M 25.203125 48.28125 
C 13 48.28125 3.40625 37.453125 3.40625 23.546875 
C 3.40625 9.9375 13 -1 25 -1 
C 37 -1 46.59375 9.9375 46.59375 23.640625 
C 46.59375 37.25 37 48.28125 25.203125 48.28125 
M 25.203125 44 
C 32.203125 44 36.09375 36.75 36.09375 23.640625 
C 36.09375 10.453125 32.203125 3.296875 25 3.296875 
C 17.796875 3.296875 13.90625 10.453125 13.90625 23.546875 
C 13.90625 37.046875 17.703125 44 25.203125 44 
" id="Century_Schoolbook_L_Roman-111"/>
     </defs>
     <g transform="translate(368.69204886 98.419096479)scale(0.18 -0.18)">
      <use transform="scale(0.996264009963)" xlink:href="#Century_Schoolbook_L_Roman-73"/>
      <use transform="translate(40.5474253045 0.0)scale(0.996264009963)" xlink:href="#Century_Schoolbook_L_Roman-109"/>
      <use transform="translate(129.114331997 0.0)scale(0.996264009963)" xlink:href="#Century_Schoolbook_L_Roman-112"/>
      <use transform="translate(186.299819281 0.0)scale(0.996264009963)" xlink:href="#Century_Schoolbook_L_Roman-108"/>
      <use transform="translate(217.681132277 0.0)scale(0.996264009963)" xlink:href="#Century_Schoolbook_L_Roman-101"/>
      <use transform="translate(267.494332776 0.0)scale(0.996264009963)" xlink:href="#Century_Schoolbook_L_Roman-109"/>
      <use transform="translate(356.061239468 0.0)scale(0.996264009963)" xlink:href="#Century_Schoolbook_L_Roman-101"/>
      <use transform="translate(405.874439966 0.0)scale(0.996264009963)" xlink:href="#Century_Schoolbook_L_Roman-110"/>
      <use transform="translate(466.746070643 0.0)scale(0.996264009963)" xlink:href="#Century_Schoolbook_L_Roman-116"/>
      <use transform="translate(505.499776838 0.0)scale(0.996264009963)" xlink:href="#Century_Schoolbook_L_Roman-97"/>
      <use transform="translate(560.891453801 0.0)scale(0.996264009963)" xlink:href="#Century_Schoolbook_L_Roman-116"/>
      <use transform="translate(599.645159996 0.0)scale(0.996264009963)" xlink:href="#Century_Schoolbook_L_Roman-105"/>
      <use transform="translate(631.026472992 0.0)scale(0.996264009963)" xlink:href="#Century_Schoolbook_L_Roman-111"/>
      <use transform="translate(680.83967349 0.0)scale(0.996264009963)" xlink:href="#Century_Schoolbook_L_Roman-110"/>
     </g>
    </g>
   </g>
  </g>
 </g>
 <defs>
  <clipPath id="p43aa3378f5">
   <rect height="345.6" width="446.4" x="72.0" y="43.2"/>
  </clipPath>
 </defs>
</svg>
