<?xml version="1.0" encoding="utf-8" standalone="no"?>
<!DOCTYPE svg PUBLIC "-//W3C//DTD SVG 1.1//EN"
  "http://www.w3.org/Graphics/SVG/1.1/DTD/svg11.dtd">
<!-- Created with matplotlib (http://matplotlib.org/) -->
<svg height="432pt" version="1.1" viewBox="0 0 576 432" width="576pt" xmlns="http://www.w3.org/2000/svg" xmlns:xlink="http://www.w3.org/1999/xlink">
 <defs>
  <style type="text/css">
*{stroke-linecap:butt;stroke-linejoin:round;stroke-miterlimit:100000;}
  </style>
 </defs>
 <g id="figure_1">
  <g id="patch_1">
   <path d="M 0 432 
L 576 432 
L 576 0 
L 0 0 
z
" style="fill:#ffffff;"/>
  </g>
  <g id="axes_1">
   <g id="patch_2">
    <path d="M 72 388.8 
L 518.4 388.8 
L 518.4 43.2 
L 72 43.2 
z
" style="fill:#ffffff;"/>
   </g>
   <g id="line2d_1">
    <path clip-path="url(#pab31a63503)" d="M 72.2232 388.8 
L 74.232 388.8 
L 74.4552 383.04 
L 75.348 383.04 
L 75.5712 377.28 
L 76.464 377.28 
L 76.6872 342.72 
L 77.58 342.72 
L 77.8032 319.68 
L 78.696 319.68 
L 78.9192 302.4 
L 79.812 302.4 
L 80.0352 285.12 
L 80.928 285.12 
L 81.1512 267.84 
L 82.044 267.84 
L 82.2672 262.08 
L 83.16 262.08 
L 83.3832 279.36 
L 84.276 279.36 
L 84.4992 256.32 
L 85.392 256.32 
L 85.6152 239.04 
L 86.508 239.04 
L 86.7312 227.52 
L 87.624 227.52 
L 87.8472 216 
L 88.74 216 
L 88.9632 210.24 
L 89.856 210.24 
L 90.0792 204.48 
L 90.972 204.48 
L 91.1952 216 
L 94.32 216 
L 94.5432 227.52 
L 95.436 227.52 
L 95.6592 204.48 
L 96.552 204.48 
L 96.7752 192.96 
L 97.668 192.96 
L 97.8912 187.2 
L 98.784 187.2 
L 99.0072 198.72 
L 99.9 198.72 
L 100.1232 204.48 
L 101.016 204.48 
L 101.2392 221.76 
L 102.132 221.76 
L 102.3552 210.24 
L 103.248 210.24 
L 103.4712 216 
L 105.48 216 
L 105.7032 210.24 
L 106.596 210.24 
L 106.8192 221.76 
L 107.712 221.76 
L 107.9352 227.52 
L 108.828 227.52 
L 109.0512 221.76 
L 109.944 221.76 
L 110.1672 216 
L 111.06 216 
L 111.2832 221.76 
L 112.176 221.76 
L 112.3992 239.04 
L 113.292 239.04 
L 113.5152 250.56 
L 115.524 250.56 
L 115.7472 239.04 
L 116.64 239.04 
L 116.8632 221.76 
L 117.756 221.76 
L 117.9792 210.24 
L 118.872 210.24 
L 119.0952 192.96 
L 119.988 192.96 
L 120.2112 198.72 
L 121.104 198.72 
L 121.3272 204.48 
L 122.22 204.48 
L 122.4432 175.68 
L 123.336 175.68 
L 123.5592 192.96 
L 124.452 192.96 
L 124.6752 187.2 
L 125.568 187.2 
L 125.7912 204.48 
L 127.8 204.48 
L 128.0232 216 
L 131.148 216 
L 131.3712 227.52 
L 132.264 227.52 
L 132.4872 239.04 
L 133.38 239.04 
L 133.6032 227.52 
L 134.496 227.52 
L 134.7192 210.24 
L 135.612 210.24 
L 135.8352 221.76 
L 137.844 221.76 
L 138.0672 204.48 
L 138.96 204.48 
L 139.1832 181.44 
L 140.076 181.44 
L 140.2992 164.16 
L 141.192 164.16 
L 141.4152 152.64 
L 142.308 152.64 
L 142.5312 129.6 
L 143.424 129.6 
L 143.6472 141.12 
L 144.54 141.12 
L 144.7632 135.36 
L 145.656 135.36 
L 145.8792 164.16 
L 146.772 164.16 
L 146.9952 152.64 
L 147.888 152.64 
L 148.1112 175.68 
L 149.004 175.68 
L 149.2272 192.96 
L 150.12 192.96 
L 150.3432 204.48 
L 152.352 204.48 
L 152.5752 216 
L 153.468 216 
L 153.6912 221.76 
L 154.584 221.76 
L 154.8072 227.52 
L 155.7 227.52 
L 155.9232 233.28 
L 156.816 233.28 
L 157.0392 227.52 
L 157.932 227.52 
L 158.1552 210.24 
L 159.048 210.24 
L 159.2712 204.48 
L 160.164 204.48 
L 160.3872 221.76 
L 161.28 221.76 
L 161.5032 216 
L 162.396 216 
L 162.6192 204.48 
L 163.512 204.48 
L 163.7352 198.72 
L 165.744 198.72 
L 165.9672 204.48 
L 169.092 204.48 
L 169.3152 216 
L 170.208 216 
L 170.4312 210.24 
L 171.324 210.24 
L 171.5472 204.48 
L 172.44 204.48 
L 172.6632 198.72 
L 173.556 198.72 
L 173.7792 175.68 
L 174.672 175.68 
L 174.8952 187.2 
L 176.904 187.2 
L 177.1272 181.44 
L 178.02 181.44 
L 178.2432 204.48 
L 179.136 204.48 
L 179.3592 221.76 
L 180.252 221.76 
L 180.4752 210.24 
L 181.368 210.24 
L 181.5912 198.72 
L 182.484 198.72 
L 182.7072 204.48 
L 183.6 204.48 
L 183.8232 192.96 
L 184.716 192.96 
L 184.9392 198.72 
L 185.832 198.72 
L 186.0552 169.92 
L 186.948 169.92 
L 187.1712 164.16 
L 188.064 164.16 
L 188.2872 152.64 
L 189.18 152.64 
L 189.4032 175.68 
L 190.296 175.68 
L 190.5192 169.92 
L 192.528 169.92 
L 192.7512 181.44 
L 193.644 181.44 
L 193.8672 169.92 
L 194.76 169.92 
L 194.9832 181.44 
L 195.876 181.44 
L 196.0992 187.2 
L 196.992 187.2 
L 197.2152 175.68 
L 198.108 175.68 
L 198.3312 146.88 
L 199.224 146.88 
L 199.4472 164.16 
L 200.34 164.16 
L 200.5632 146.88 
L 201.456 146.88 
L 201.6792 135.36 
L 202.572 135.36 
L 202.7952 152.64 
L 203.688 152.64 
L 203.9112 135.36 
L 204.804 135.36 
L 205.0272 152.64 
L 205.92 152.64 
L 206.1432 146.88 
L 207.036 146.88 
L 207.2592 158.4 
L 208.152 158.4 
L 208.3752 152.64 
L 209.268 152.64 
L 209.4912 164.16 
L 210.384 164.16 
L 210.6072 146.88 
L 211.5 146.88 
L 211.7232 152.64 
L 212.616 152.64 
L 212.8392 169.92 
L 215.964 169.92 
L 216.1872 181.44 
L 217.08 181.44 
L 217.3032 187.2 
L 218.196 187.2 
L 218.4192 164.16 
L 220.428 164.16 
L 220.6512 181.44 
L 221.544 181.44 
L 221.7672 198.72 
L 222.66 198.72 
L 222.8832 216 
L 223.776 216 
L 223.9992 210.24 
L 226.008 210.24 
L 226.2312 198.72 
L 227.124 198.72 
L 227.3472 210.24 
L 228.24 210.24 
L 228.4632 221.76 
L 229.356 221.76 
L 229.5792 250.56 
L 231.588 250.56 
L 231.8112 267.84 
L 232.704 267.84 
L 232.9272 273.6 
L 233.82 273.6 
L 234.0432 262.08 
L 234.936 262.08 
L 235.1592 256.32 
L 237.168 256.32 
L 237.3912 239.04 
L 238.284 239.04 
L 238.5072 250.56 
L 239.4 250.56 
L 239.6232 239.04 
L 240.516 239.04 
L 240.7392 204.48 
L 241.632 204.48 
L 241.8552 192.96 
L 242.748 192.96 
L 242.9712 187.2 
L 244.98 187.2 
L 245.2032 181.44 
L 246.096 181.44 
L 246.3192 164.16 
L 248.328 164.16 
L 248.5512 152.64 
L 249.444 152.64 
L 249.6672 169.92 
L 250.56 169.92 
L 250.7832 187.2 
L 251.676 187.2 
L 251.8992 181.44 
L 252.792 181.44 
L 253.0152 169.92 
L 253.908 169.92 
L 254.1312 175.68 
L 255.024 175.68 
L 255.2472 158.4 
L 256.14 158.4 
L 256.3632 164.16 
L 257.256 164.16 
L 257.4792 181.44 
L 259.488 181.44 
L 259.7112 192.96 
L 260.604 192.96 
L 260.8272 181.44 
L 261.72 181.44 
L 261.9432 192.96 
L 263.952 192.96 
L 264.1752 204.48 
L 266.184 204.48 
L 266.4072 198.72 
L 267.3 198.72 
L 267.5232 216 
L 268.416 216 
L 268.6392 198.72 
L 269.532 198.72 
L 269.7552 204.48 
L 270.648 204.48 
L 270.8712 198.72 
L 271.764 198.72 
L 271.9872 192.96 
L 272.88 192.96 
L 273.1032 181.44 
L 275.112 181.44 
L 275.3352 187.2 
L 276.228 187.2 
L 276.4512 210.24 
L 277.344 210.24 
L 277.5672 216 
L 279.576 216 
L 279.7992 192.96 
L 281.808 192.96 
L 282.0312 198.72 
L 282.924 198.72 
L 283.1472 192.96 
L 285.156 192.96 
L 285.3792 198.72 
L 286.272 198.72 
L 286.4952 204.48 
L 287.388 204.48 
L 287.6112 210.24 
L 288.504 210.24 
L 288.7272 221.76 
L 289.62 221.76 
L 289.8432 210.24 
L 291.852 210.24 
L 292.0752 192.96 
L 292.968 192.96 
L 293.1912 187.2 
L 294.084 187.2 
L 294.3072 204.48 
L 295.2 204.48 
L 295.4232 192.96 
L 296.316 192.96 
L 296.5392 169.92 
L 298.548 169.92 
L 298.7712 152.64 
L 299.664 152.64 
L 299.8872 158.4 
L 301.896 158.4 
L 302.1192 152.64 
L 303.012 152.64 
L 303.2352 164.16 
L 304.128 164.16 
L 304.3512 158.4 
L 305.244 158.4 
L 305.4672 146.88 
L 307.476 146.88 
L 307.6992 135.36 
L 308.592 135.36 
L 308.8152 158.4 
L 309.708 158.4 
L 309.9312 175.68 
L 310.824 175.68 
L 311.0472 192.96 
L 311.94 192.96 
L 312.1632 181.44 
L 313.056 181.44 
L 313.2792 192.96 
L 315.288 192.96 
L 315.5112 187.2 
L 317.52 187.2 
L 317.7432 181.44 
L 318.636 181.44 
L 318.8592 192.96 
L 319.752 192.96 
L 319.9752 227.52 
L 320.868 227.52 
L 321.0912 198.72 
L 321.984 198.72 
L 322.2072 175.68 
L 323.1 175.68 
L 323.3232 181.44 
L 324.216 181.44 
L 324.4392 175.68 
L 325.332 175.68 
L 325.5552 152.64 
L 326.448 152.64 
L 326.6712 169.92 
L 327.564 169.92 
L 327.7872 181.44 
L 328.68 181.44 
L 328.9032 175.68 
L 329.796 175.68 
L 330.0192 169.92 
L 330.912 169.92 
L 331.1352 146.88 
L 332.028 146.88 
L 332.2512 169.92 
L 333.144 169.92 
L 333.3672 164.16 
L 334.26 164.16 
L 334.4832 175.68 
L 335.376 175.68 
L 335.5992 192.96 
L 336.492 192.96 
L 336.7152 181.44 
L 337.608 181.44 
L 337.8312 164.16 
L 338.724 164.16 
L 338.9472 169.92 
L 339.84 169.92 
L 340.0632 187.2 
L 340.956 187.2 
L 341.1792 181.44 
L 344.304 181.44 
L 344.5272 152.64 
L 345.42 152.64 
L 345.6432 158.4 
L 348.768 158.4 
L 348.9912 141.12 
L 351 141.12 
L 351.2232 135.36 
L 352.116 135.36 
L 352.3392 141.12 
L 353.232 141.12 
L 353.4552 106.56 
L 354.348 106.56 
L 354.5712 118.08 
L 355.464 118.08 
L 355.6872 112.32 
L 356.58 112.32 
L 356.8032 95.04 
L 357.696 95.04 
L 357.9192 100.8 
L 358.812 100.8 
L 359.0352 146.88 
L 359.928 146.88 
L 360.1512 164.16 
L 361.044 164.16 
L 361.2672 204.48 
L 362.16 204.48 
L 362.3832 233.28 
L 363.276 233.28 
L 363.4992 256.32 
L 364.392 256.32 
L 364.6152 250.56 
L 366.624 250.56 
L 366.8472 239.04 
L 367.74 239.04 
L 367.9632 210.24 
L 368.856 210.24 
L 369.0792 204.48 
L 369.972 204.48 
L 370.1952 187.2 
L 372.204 187.2 
L 372.4272 181.44 
L 373.32 181.44 
L 373.5432 169.92 
L 376.668 169.92 
L 376.8912 187.2 
L 377.784 187.2 
L 378.0072 198.72 
L 380.016 198.72 
L 380.2392 204.48 
L 381.132 204.48 
L 381.3552 239.04 
L 382.248 239.04 
L 382.4712 233.28 
L 383.364 233.28 
L 383.5872 227.52 
L 384.48 227.52 
L 384.7032 250.56 
L 385.596 250.56 
L 385.8192 244.8 
L 386.712 244.8 
L 386.9352 239.04 
L 387.828 239.04 
L 388.0512 244.8 
L 388.944 244.8 
L 389.1672 262.08 
L 390.06 262.08 
L 390.2832 244.8 
L 391.176 244.8 
L 391.3992 239.04 
L 392.292 239.04 
L 392.5152 221.76 
L 393.408 221.76 
L 393.6312 204.48 
L 394.524 204.48 
L 394.7472 221.76 
L 395.64 221.76 
L 395.8632 210.24 
L 396.756 210.24 
L 396.9792 204.48 
L 397.872 204.48 
L 398.0952 210.24 
L 398.988 210.24 
L 399.2112 192.96 
L 400.104 192.96 
L 400.3272 216 
L 402.336 216 
L 402.5592 210.24 
L 403.452 210.24 
L 403.6752 204.48 
L 404.568 204.48 
L 404.7912 192.96 
L 405.684 192.96 
L 405.9072 181.44 
L 406.8 181.44 
L 407.0232 158.4 
L 407.916 158.4 
L 408.1392 187.2 
L 409.032 187.2 
L 409.2552 198.72 
L 412.38 198.72 
L 412.6032 204.48 
L 414.612 204.48 
L 414.8352 198.72 
L 415.728 198.72 
L 415.9512 221.76 
L 416.844 221.76 
L 417.0672 216 
L 417.96 216 
L 418.1832 204.48 
L 419.076 204.48 
L 419.2992 181.44 
L 420.192 181.44 
L 420.4152 158.4 
L 421.308 158.4 
L 421.5312 152.64 
L 422.424 152.64 
L 422.6472 135.36 
L 423.54 135.36 
L 423.7632 141.12 
L 424.656 141.12 
L 424.8792 129.6 
L 425.772 129.6 
L 425.9952 100.8 
L 426.888 100.8 
L 427.1112 123.84 
L 428.004 123.84 
L 428.2272 141.12 
L 429.12 141.12 
L 429.3432 146.88 
L 430.236 146.88 
L 430.4592 158.4 
L 431.352 158.4 
L 431.5752 141.12 
L 433.584 141.12 
L 433.8072 146.88 
L 434.7 146.88 
L 434.9232 135.36 
L 435.816 135.36 
L 436.0392 146.88 
L 436.932 146.88 
L 437.1552 158.4 
L 439.164 158.4 
L 439.3872 141.12 
L 440.28 141.12 
L 440.5032 123.84 
L 441.396 123.84 
L 441.6192 141.12 
L 442.512 141.12 
L 442.7352 152.64 
L 443.628 152.64 
L 443.8512 158.4 
L 444.744 158.4 
L 444.9672 187.2 
L 445.86 187.2 
L 446.0832 192.96 
L 446.976 192.96 
L 447.1992 204.48 
L 448.092 204.48 
L 448.3152 210.24 
L 449.208 210.24 
L 449.4312 204.48 
L 451.44 204.48 
L 451.6632 216 
L 452.556 216 
L 452.7792 221.76 
L 453.672 221.76 
L 453.8952 244.8 
L 454.788 244.8 
L 455.0112 250.56 
L 455.904 250.56 
L 456.1272 239.04 
L 457.02 239.04 
L 457.2432 210.24 
L 458.136 210.24 
L 458.3592 198.72 
L 461.484 198.72 
L 461.7072 187.2 
L 462.6 187.2 
L 462.8232 175.68 
L 464.832 175.68 
L 465.0552 198.72 
L 465.948 198.72 
L 466.1712 210.24 
L 467.064 210.24 
L 467.2872 198.72 
L 468.18 198.72 
L 468.4032 221.76 
L 471.528 221.76 
L 471.7512 250.56 
L 472.644 250.56 
L 472.8672 239.04 
L 473.76 239.04 
L 473.9832 250.56 
L 474.876 250.56 
L 475.0992 239.04 
L 475.992 239.04 
L 476.2152 227.52 
L 477.108 227.52 
L 477.3312 216 
L 478.224 216 
L 478.4472 210.24 
L 479.34 210.24 
L 479.5632 216 
L 480.456 216 
L 480.6792 227.52 
L 482.688 227.52 
L 482.9112 210.24 
L 483.804 210.24 
L 484.0272 221.76 
L 484.92 221.76 
L 485.1432 227.52 
L 486.036 227.52 
L 486.2592 233.28 
L 487.152 233.28 
L 487.3752 216 
L 488.268 216 
L 488.4912 204.48 
L 489.384 204.48 
L 489.6072 192.96 
L 490.5 192.96 
L 490.7232 181.44 
L 491.616 181.44 
L 491.8392 192.96 
L 492.732 192.96 
L 492.9552 216 
L 493.848 216 
L 494.0712 192.96 
L 494.964 192.96 
L 495.1872 187.2 
L 496.08 187.2 
L 496.3032 198.72 
L 497.196 198.72 
L 497.4192 210.24 
L 498.312 210.24 
L 498.5352 204.48 
L 499.428 204.48 
L 499.6512 239.04 
L 500.544 239.04 
L 500.7672 227.52 
L 501.66 227.52 
L 501.8832 210.24 
L 502.776 210.24 
L 502.9992 204.48 
L 503.892 204.48 
L 504.1152 198.72 
L 505.008 198.72 
L 505.2312 204.48 
L 507.24 204.48 
L 507.4632 198.72 
L 508.356 198.72 
L 508.5792 187.2 
L 510.588 187.2 
L 510.8112 181.44 
L 511.704 181.44 
L 511.9272 198.72 
L 512.82 198.72 
L 513.0432 187.2 
L 513.936 187.2 
L 514.1592 175.68 
L 515.052 175.68 
L 515.2752 158.4 
L 516.168 158.4 
L 516.3912 146.88 
L 517.284 146.88 
L 517.5072 175.68 
L 518.4 175.68 
L 518.4 175.68 
" style="fill:none;opacity:0.8;stroke:#ff0000;stroke-linecap:square;"/>
   </g>
   <g id="line2d_2">
    <path clip-path="url(#pab31a63503)" d="M 72.2232 388.8 
L 75.1248 388.8 
L 75.348 377.28 
L 75.5712 371.52 
L 75.7944 371.52 
L 76.0176 377.28 
L 76.2408 371.52 
L 76.464 371.52 
L 76.9104 342.72 
L 77.3568 342.72 
L 77.58 336.96 
L 77.8032 336.96 
L 78.0264 319.68 
L 78.4728 319.68 
L 78.9192 308.16 
L 79.1424 308.16 
L 79.5888 296.64 
L 79.812 296.64 
L 80.2584 285.12 
L 80.7048 285.12 
L 80.928 290.88 
L 81.1512 290.88 
L 81.5976 267.84 
L 81.8208 267.84 
L 82.044 273.6 
L 82.2672 262.08 
L 82.9368 262.08 
L 83.16 273.6 
L 83.6064 273.6 
L 83.8296 279.36 
L 84.4992 279.36 
L 84.7224 256.32 
L 85.1688 256.32 
L 85.392 262.08 
L 85.6152 256.32 
L 85.8384 256.32 
L 86.0616 250.56 
L 86.2848 239.04 
L 86.508 239.04 
L 86.7312 250.56 
L 86.9544 250.56 
L 87.1776 233.28 
L 87.4008 227.52 
L 87.8472 198.72 
L 88.0704 198.72 
L 88.2936 216 
L 88.9632 216 
L 89.1864 221.76 
L 89.6328 210.24 
L 89.856 216 
L 90.0792 210.24 
L 90.3024 210.24 
L 90.5256 204.48 
L 90.7488 216 
L 91.4184 216 
L 91.6416 210.24 
L 91.8648 216 
L 92.088 227.52 
L 92.3112 216 
L 92.5344 216 
L 92.7576 221.76 
L 92.9808 210.24 
L 93.204 221.76 
L 93.4272 221.76 
L 93.6504 216 
L 93.8736 221.76 
L 94.0968 204.48 
L 94.32 198.72 
L 94.7664 210.24 
L 94.9896 227.52 
L 95.436 227.52 
L 95.6592 198.72 
L 95.8824 210.24 
L 96.1056 210.24 
L 96.3288 204.48 
L 96.552 210.24 
L 96.7752 192.96 
L 96.9984 198.72 
L 97.2216 192.96 
L 97.8912 192.96 
L 98.1144 187.2 
L 98.3376 187.2 
L 98.5608 181.44 
L 98.784 187.2 
L 99.0072 187.2 
L 99.2304 198.72 
L 99.6768 198.72 
L 99.9 192.96 
L 100.3464 192.96 
L 100.5696 204.48 
L 100.7928 204.48 
L 101.016 210.24 
L 101.2392 210.24 
L 101.9088 227.52 
L 102.132 227.52 
L 102.3552 221.76 
L 102.5784 221.76 
L 103.0248 210.24 
L 103.248 210.24 
L 103.4712 221.76 
L 103.6944 221.76 
L 103.9176 216 
L 104.1408 221.76 
L 104.364 216 
L 104.5872 221.76 
L 105.0336 210.24 
L 105.48 221.76 
L 105.9264 210.24 
L 106.1496 210.24 
L 106.3728 221.76 
L 106.596 227.52 
L 106.8192 216 
L 107.0424 221.76 
L 107.9352 221.76 
L 108.1584 233.28 
L 108.3816 221.76 
L 108.6048 221.76 
L 108.828 216 
L 109.0512 227.52 
L 109.2744 221.76 
L 109.4976 227.52 
L 109.7208 221.76 
L 109.944 221.76 
L 110.1672 216 
L 110.8368 216 
L 111.2832 227.52 
L 111.5064 227.52 
L 111.7296 233.28 
L 111.9528 216 
L 112.176 227.52 
L 112.6224 227.52 
L 112.8456 233.28 
L 113.0688 233.28 
L 113.292 244.8 
L 113.5152 239.04 
L 113.9616 239.04 
L 114.1848 250.56 
L 114.6312 262.08 
L 114.8544 256.32 
L 115.0776 256.32 
L 115.524 244.8 
L 115.9704 244.8 
L 116.1936 250.56 
L 116.64 227.52 
L 117.3096 227.52 
L 117.5328 216 
L 117.756 233.28 
L 117.9792 233.28 
L 118.2024 227.52 
L 118.4256 216 
L 118.6488 210.24 
L 118.872 210.24 
L 119.0952 204.48 
L 119.3184 210.24 
L 119.5416 198.72 
L 119.7648 192.96 
L 119.988 192.96 
L 120.2112 198.72 
L 120.4344 198.72 
L 120.6576 204.48 
L 120.8808 198.72 
L 121.104 210.24 
L 121.3272 216 
L 121.5504 198.72 
L 121.7736 204.48 
L 121.9968 204.48 
L 122.22 198.72 
L 122.4432 210.24 
L 122.6664 204.48 
L 122.8896 175.68 
L 123.1128 175.68 
L 123.336 181.44 
L 123.5592 175.68 
L 123.7824 192.96 
L 124.0056 192.96 
L 124.2288 198.72 
L 124.452 198.72 
L 124.6752 187.2 
L 125.3448 187.2 
L 125.568 192.96 
L 125.7912 210.24 
L 126.2376 210.24 
L 126.4608 198.72 
L 126.684 204.48 
L 126.9072 216 
L 127.1304 221.76 
L 127.3536 216 
L 127.5768 198.72 
L 127.8 204.48 
L 128.2464 204.48 
L 128.4696 216 
L 129.3624 216 
L 129.5856 221.76 
L 129.8088 216 
L 130.032 227.52 
L 130.2552 216 
L 130.4784 210.24 
L 130.7016 227.52 
L 130.9248 216 
L 131.148 216 
L 131.3712 227.52 
L 132.264 227.52 
L 132.7104 239.04 
L 132.9336 239.04 
L 133.1568 244.8 
L 133.38 244.8 
L 133.6032 239.04 
L 133.8264 239.04 
L 134.0496 227.52 
L 134.2728 227.52 
L 134.7192 216 
L 134.9424 198.72 
L 135.1656 210.24 
L 135.3888 210.24 
L 135.612 221.76 
L 135.8352 221.76 
L 136.0584 210.24 
L 136.2816 210.24 
L 136.5048 216 
L 136.728 227.52 
L 136.9512 216 
L 137.1744 221.76 
L 137.3976 221.76 
L 138.0672 239.04 
L 138.2904 216 
L 138.5136 210.24 
L 138.7368 198.72 
L 138.96 192.96 
L 139.1832 198.72 
L 139.6296 175.68 
L 139.8528 181.44 
L 140.076 181.44 
L 140.2992 169.92 
L 140.5224 169.92 
L 140.7456 164.16 
L 141.192 164.16 
L 141.6384 152.64 
L 141.8616 164.16 
L 142.0848 158.4 
L 142.308 146.88 
L 142.5312 141.12 
L 142.9776 141.12 
L 143.2008 129.6 
L 143.424 129.6 
L 143.6472 135.36 
L 143.8704 123.84 
L 144.0936 135.36 
L 144.3168 141.12 
L 144.9864 141.12 
L 145.2096 129.6 
L 145.4328 135.36 
L 145.656 135.36 
L 145.8792 141.12 
L 146.1024 152.64 
L 146.3256 158.4 
L 146.5488 158.4 
L 146.772 146.88 
L 146.9952 146.88 
L 147.2184 141.12 
L 147.4416 141.12 
L 147.6648 152.64 
L 147.888 175.68 
L 148.1112 169.92 
L 148.5576 181.44 
L 148.7808 175.68 
L 149.004 175.68 
L 149.2272 187.2 
L 149.4504 192.96 
L 149.6736 187.2 
L 149.8968 198.72 
L 150.12 198.72 
L 150.3432 204.48 
L 150.5664 204.48 
L 150.7896 210.24 
L 151.0128 192.96 
L 151.236 198.72 
L 151.4592 192.96 
L 151.6824 192.96 
L 152.5752 216 
L 152.7984 204.48 
L 153.0216 204.48 
L 153.2448 216 
L 153.468 210.24 
L 153.6912 210.24 
L 153.9144 198.72 
L 154.1376 204.48 
L 154.3608 221.76 
L 154.584 221.76 
L 154.8072 216 
L 155.2536 216 
L 155.4768 233.28 
L 155.7 233.28 
L 155.9232 221.76 
L 156.1464 221.76 
L 156.3696 233.28 
L 157.0392 233.28 
L 157.2624 227.52 
L 157.7088 227.52 
L 157.932 221.76 
L 158.1552 221.76 
L 158.3784 216 
L 158.8248 216 
L 159.048 192.96 
L 159.4944 192.96 
L 159.9408 204.48 
L 160.164 204.48 
L 160.3872 221.76 
L 160.6104 227.52 
L 160.8336 216 
L 161.0568 221.76 
L 161.28 221.76 
L 161.5032 216 
L 161.7264 227.52 
L 162.396 210.24 
L 162.6192 216 
L 162.8424 204.48 
L 163.0656 198.72 
L 163.2888 204.48 
L 164.1816 204.48 
L 164.4048 198.72 
L 164.628 221.76 
L 164.8512 216 
L 165.0744 204.48 
L 165.2976 204.48 
L 165.5208 187.2 
L 165.744 216 
L 165.9672 221.76 
L 166.1904 210.24 
L 166.4136 216 
L 166.6368 204.48 
L 166.86 210.24 
L 167.0832 192.96 
L 167.3064 192.96 
L 167.7528 204.48 
L 167.976 204.48 
L 168.1992 210.24 
L 168.4224 221.76 
L 168.6456 210.24 
L 168.8688 210.24 
L 169.3152 198.72 
L 169.5384 221.76 
L 169.7616 221.76 
L 169.9848 204.48 
L 170.4312 204.48 
L 170.6544 198.72 
L 170.8776 216 
L 171.1008 210.24 
L 171.324 216 
L 171.5472 216 
L 172.2168 198.72 
L 172.44 198.72 
L 172.6632 192.96 
L 173.1096 204.48 
L 173.3328 192.96 
L 173.556 192.96 
L 173.7792 181.44 
L 174.0024 181.44 
L 174.2256 164.16 
L 174.4488 175.68 
L 174.8952 187.2 
L 175.1184 187.2 
L 175.3416 181.44 
L 175.788 181.44 
L 176.0112 169.92 
L 176.2344 175.68 
L 176.4576 187.2 
L 177.1272 187.2 
L 177.3504 192.96 
L 177.5736 187.2 
L 177.7968 187.2 
L 178.02 181.44 
L 178.2432 192.96 
L 178.6896 192.96 
L 178.9128 204.48 
L 179.136 210.24 
L 179.3592 204.48 
L 179.5824 216 
L 179.8056 216 
L 180.0288 210.24 
L 180.252 210.24 
L 180.4752 198.72 
L 180.6984 198.72 
L 180.9216 204.48 
L 181.1448 204.48 
L 181.368 210.24 
L 181.5912 204.48 
L 182.2608 204.48 
L 182.484 198.72 
L 182.7072 187.2 
L 182.9304 192.96 
L 183.1536 187.2 
L 183.6 210.24 
L 183.8232 204.48 
L 184.0464 210.24 
L 184.2696 198.72 
L 184.716 187.2 
L 184.9392 187.2 
L 185.1624 192.96 
L 185.832 192.96 
L 186.0552 187.2 
L 186.2784 169.92 
L 186.7248 169.92 
L 186.948 158.4 
L 187.1712 152.64 
L 187.3944 164.16 
L 188.064 164.16 
L 188.2872 152.64 
L 188.5104 158.4 
L 188.7336 146.88 
L 188.9568 146.88 
L 189.18 169.92 
L 189.4032 169.92 
L 189.8496 181.44 
L 190.0728 169.92 
L 190.296 152.64 
L 190.5192 169.92 
L 190.7424 169.92 
L 190.9656 164.16 
L 191.1888 164.16 
L 191.412 158.4 
L 191.6352 164.16 
L 191.8584 175.68 
L 192.0816 158.4 
L 192.3048 181.44 
L 192.528 187.2 
L 192.7512 164.16 
L 193.4208 181.44 
L 193.644 181.44 
L 193.8672 175.68 
L 194.3136 175.68 
L 194.5368 169.92 
L 194.9832 169.92 
L 195.2064 164.16 
L 195.4296 181.44 
L 195.6528 181.44 
L 195.876 187.2 
L 196.0992 187.2 
L 196.3224 181.44 
L 196.7688 192.96 
L 197.2152 181.44 
L 197.4384 187.2 
L 197.8848 175.68 
L 198.108 175.68 
L 198.5544 164.16 
L 198.7776 141.12 
L 199.8936 169.92 
L 200.1168 169.92 
L 200.34 164.16 
L 200.5632 152.64 
L 200.7864 152.64 
L 201.0096 146.88 
L 201.2328 152.64 
L 201.9024 135.36 
L 202.1256 135.36 
L 202.3488 141.12 
L 202.572 152.64 
L 202.7952 141.12 
L 203.0184 135.36 
L 203.2416 135.36 
L 203.4648 152.64 
L 204.1344 152.64 
L 204.3576 141.12 
L 204.5808 135.36 
L 204.804 135.36 
L 205.0272 152.64 
L 205.2504 152.64 
L 205.4736 158.4 
L 205.6968 152.64 
L 205.92 158.4 
L 206.1432 158.4 
L 206.3664 164.16 
L 206.5896 158.4 
L 206.8128 141.12 
L 207.036 158.4 
L 207.2592 141.12 
L 207.4824 146.88 
L 207.7056 146.88 
L 207.9288 158.4 
L 208.152 158.4 
L 208.3752 146.88 
L 208.5984 146.88 
L 209.0448 158.4 
L 209.268 146.88 
L 209.4912 158.4 
L 209.7144 146.88 
L 209.9376 152.64 
L 210.1608 164.16 
L 210.384 169.92 
L 210.6072 164.16 
L 210.8304 164.16 
L 211.0536 158.4 
L 211.2768 146.88 
L 211.5 146.88 
L 211.9464 169.92 
L 212.3928 158.4 
L 212.616 169.92 
L 212.8392 169.92 
L 213.0624 164.16 
L 213.2856 169.92 
L 213.732 169.92 
L 213.9552 175.68 
L 214.1784 164.16 
L 214.4016 175.68 
L 214.6248 169.92 
L 214.848 169.92 
L 215.0712 181.44 
L 215.2944 187.2 
L 215.5176 164.16 
L 215.7408 175.68 
L 215.964 181.44 
L 216.1872 175.68 
L 216.6336 175.68 
L 217.08 187.2 
L 217.3032 169.92 
L 217.5264 175.68 
L 217.7496 175.68 
L 217.9728 187.2 
L 218.196 169.92 
L 218.4192 175.68 
L 218.6424 164.16 
L 218.8656 164.16 
L 219.0888 152.64 
L 219.312 164.16 
L 219.7584 164.16 
L 219.9816 158.4 
L 220.2048 169.92 
L 220.428 169.92 
L 220.6512 181.44 
L 220.8744 187.2 
L 221.0976 181.44 
L 221.3208 181.44 
L 221.7672 192.96 
L 221.9904 187.2 
L 222.2136 198.72 
L 222.4368 204.48 
L 222.66 198.72 
L 222.8832 204.48 
L 223.1064 192.96 
L 223.3296 198.72 
L 223.5528 210.24 
L 223.776 210.24 
L 223.9992 204.48 
L 224.2224 192.96 
L 224.4456 198.72 
L 224.892 221.76 
L 225.1152 216 
L 225.3384 204.48 
L 226.2312 204.48 
L 226.4544 192.96 
L 226.9008 192.96 
L 227.124 210.24 
L 227.3472 210.24 
L 227.5704 204.48 
L 227.7936 210.24 
L 228.6864 210.24 
L 228.9096 227.52 
L 229.356 216 
L 229.5792 221.76 
L 229.8024 221.76 
L 230.0256 233.28 
L 230.2488 250.56 
L 230.472 244.8 
L 230.6952 250.56 
L 230.9184 250.56 
L 231.1416 256.32 
L 231.3648 250.56 
L 231.588 262.08 
L 231.8112 262.08 
L 232.0344 267.84 
L 232.2576 262.08 
L 232.4808 267.84 
L 232.704 262.08 
L 232.9272 267.84 
L 233.5968 267.84 
L 233.82 273.6 
L 234.0432 267.84 
L 234.2664 267.84 
L 234.7128 256.32 
L 235.1592 256.32 
L 235.3824 244.8 
L 235.6056 262.08 
L 235.8288 250.56 
L 236.052 250.56 
L 236.4984 262.08 
L 236.7216 262.08 
L 236.9448 256.32 
L 237.168 244.8 
L 237.8376 244.8 
L 238.0608 239.04 
L 238.5072 239.04 
L 238.7304 233.28 
L 238.9536 244.8 
L 239.1768 244.8 
L 239.4 250.56 
L 239.8464 250.56 
L 240.0696 233.28 
L 240.516 233.28 
L 240.7392 221.76 
L 240.9624 221.76 
L 241.1856 210.24 
L 241.4088 204.48 
L 241.632 216 
L 241.8552 216 
L 242.0784 210.24 
L 242.3016 210.24 
L 242.5248 192.96 
L 242.748 187.2 
L 243.1944 187.2 
L 243.6408 198.72 
L 243.864 187.2 
L 244.0872 192.96 
L 244.3104 192.96 
L 244.5336 187.2 
L 244.98 187.2 
L 245.2032 181.44 
L 245.4264 181.44 
L 245.6496 175.68 
L 245.8728 181.44 
L 246.096 181.44 
L 246.3192 187.2 
L 246.5424 181.44 
L 246.7656 181.44 
L 246.9888 164.16 
L 247.4352 164.16 
L 247.6584 169.92 
L 247.8816 169.92 
L 248.1048 164.16 
L 248.328 152.64 
L 248.5512 146.88 
L 248.9976 146.88 
L 249.2208 152.64 
L 249.444 152.64 
L 249.8904 164.16 
L 250.1136 164.16 
L 250.3368 169.92 
L 250.56 181.44 
L 250.7832 175.68 
L 251.2296 198.72 
L 251.4528 192.96 
L 251.676 181.44 
L 251.8992 181.44 
L 252.1224 175.68 
L 252.5688 187.2 
L 252.792 181.44 
L 253.0152 181.44 
L 253.4616 169.92 
L 253.908 169.92 
L 254.1312 181.44 
L 254.3544 181.44 
L 254.5776 175.68 
L 254.8008 175.68 
L 255.2472 164.16 
L 255.4704 164.16 
L 255.9168 152.64 
L 256.14 152.64 
L 256.3632 141.12 
L 256.5864 158.4 
L 257.0328 169.92 
L 257.4792 169.92 
L 257.9256 181.44 
L 258.372 181.44 
L 258.8184 204.48 
L 259.0416 192.96 
L 259.2648 192.96 
L 259.488 181.44 
L 259.7112 181.44 
L 259.9344 175.68 
L 260.1576 187.2 
L 260.3808 192.96 
L 260.604 187.2 
L 261.4968 187.2 
L 261.9432 175.68 
L 262.1664 187.2 
L 262.3896 181.44 
L 262.6128 192.96 
L 262.836 198.72 
L 263.0592 187.2 
L 263.2824 187.2 
L 263.5056 175.68 
L 263.7288 192.96 
L 263.952 198.72 
L 264.1752 192.96 
L 264.3984 198.72 
L 264.6216 210.24 
L 264.8448 210.24 
L 265.068 204.48 
L 265.2912 210.24 
L 265.5144 210.24 
L 265.7376 204.48 
L 265.9608 204.48 
L 266.184 192.96 
L 266.4072 198.72 
L 266.6304 192.96 
L 266.8536 198.72 
L 267.0768 198.72 
L 267.3 204.48 
L 267.5232 204.48 
L 267.7464 198.72 
L 267.9696 204.48 
L 268.1928 216 
L 268.416 221.76 
L 268.6392 221.76 
L 268.8624 204.48 
L 269.0856 216 
L 269.3088 198.72 
L 269.7552 187.2 
L 269.9784 204.48 
L 270.4248 204.48 
L 270.8712 192.96 
L 271.0944 192.96 
L 271.3176 198.72 
L 271.5408 210.24 
L 271.764 204.48 
L 271.9872 192.96 
L 272.2104 192.96 
L 272.4336 198.72 
L 272.6568 198.72 
L 272.88 204.48 
L 273.3264 192.96 
L 273.5496 192.96 
L 273.7728 175.68 
L 273.996 181.44 
L 274.2192 175.68 
L 274.4424 187.2 
L 274.6656 192.96 
L 274.8888 175.68 
L 275.112 175.68 
L 275.3352 187.2 
L 275.5584 187.2 
L 275.7816 181.44 
L 276.0048 192.96 
L 276.228 192.96 
L 276.4512 198.72 
L 276.6744 198.72 
L 276.8976 204.48 
L 277.1208 204.48 
L 277.344 216 
L 277.5672 216 
L 277.7904 210.24 
L 278.46 210.24 
L 278.6832 204.48 
L 279.1296 204.48 
L 279.3528 210.24 
L 279.576 204.48 
L 280.0224 204.48 
L 280.4688 192.96 
L 280.692 198.72 
L 280.9152 198.72 
L 281.1384 204.48 
L 281.3616 204.48 
L 281.5848 198.72 
L 281.808 198.72 
L 282.0312 192.96 
L 282.2544 192.96 
L 282.4776 204.48 
L 282.7008 204.48 
L 282.924 198.72 
L 283.5936 216 
L 283.8168 198.72 
L 284.04 198.72 
L 284.4864 187.2 
L 284.9328 187.2 
L 285.156 181.44 
L 285.3792 187.2 
L 285.6024 181.44 
L 285.8256 187.2 
L 286.0488 198.72 
L 286.272 192.96 
L 286.4952 204.48 
L 287.1648 204.48 
L 287.388 198.72 
L 287.6112 204.48 
L 287.8344 216 
L 288.0576 216 
L 288.2808 210.24 
L 288.7272 221.76 
L 288.9504 210.24 
L 289.1736 221.76 
L 289.3968 216 
L 289.62 227.52 
L 289.8432 216 
L 290.0664 221.76 
L 290.2896 216 
L 290.736 216 
L 290.9592 221.76 
L 291.1824 221.76 
L 291.6288 210.24 
L 291.852 210.24 
L 292.0752 216 
L 292.2984 198.72 
L 292.5216 204.48 
L 292.7448 192.96 
L 292.968 187.2 
L 294.084 187.2 
L 294.3072 204.48 
L 294.5304 198.72 
L 294.7536 204.48 
L 295.2 204.48 
L 295.4232 198.72 
L 295.6464 198.72 
L 295.8696 187.2 
L 296.0928 192.96 
L 296.316 192.96 
L 297.2088 169.92 
L 297.432 175.68 
L 297.8784 175.68 
L 298.1016 169.92 
L 298.3248 169.92 
L 298.548 175.68 
L 298.7712 164.16 
L 298.9944 169.92 
L 299.2176 169.92 
L 299.4408 152.64 
L 299.8872 152.64 
L 300.3336 164.16 
L 300.5568 164.16 
L 300.78 146.88 
L 301.0032 146.88 
L 301.2264 152.64 
L 301.4496 152.64 
L 301.6728 158.4 
L 301.896 146.88 
L 302.1192 158.4 
L 302.5656 158.4 
L 303.012 146.88 
L 303.2352 135.36 
L 303.4584 141.12 
L 303.6816 158.4 
L 303.9048 158.4 
L 304.3512 146.88 
L 304.5744 152.64 
L 305.244 152.64 
L 305.4672 158.4 
L 305.9136 158.4 
L 306.1368 152.64 
L 306.36 152.64 
L 306.5832 158.4 
L 306.8064 158.4 
L 307.0296 152.64 
L 307.2528 158.4 
L 307.476 158.4 
L 307.6992 146.88 
L 308.3688 129.6 
L 308.592 135.36 
L 308.8152 146.88 
L 309.0384 146.88 
L 309.4848 158.4 
L 309.708 169.92 
L 309.9312 175.68 
L 310.3776 164.16 
L 310.6008 169.92 
L 310.824 187.2 
L 311.2704 198.72 
L 311.4936 198.72 
L 311.94 175.68 
L 312.1632 187.2 
L 312.3864 181.44 
L 312.6096 187.2 
L 312.8328 181.44 
L 313.056 181.44 
L 313.2792 192.96 
L 313.5024 187.2 
L 313.9488 198.72 
L 314.172 198.72 
L 314.3952 192.96 
L 314.6184 198.72 
L 314.8416 192.96 
L 315.0648 198.72 
L 315.288 187.2 
L 315.5112 181.44 
L 315.9576 192.96 
L 316.1808 187.2 
L 316.8504 187.2 
L 317.0736 181.44 
L 317.2968 192.96 
L 317.52 187.2 
L 317.7432 198.72 
L 317.9664 192.96 
L 318.1896 198.72 
L 318.4128 181.44 
L 318.636 175.68 
L 319.0824 175.68 
L 319.3056 187.2 
L 319.752 198.72 
L 319.9752 181.44 
L 320.1984 192.96 
L 320.4216 198.72 
L 320.6448 221.76 
L 320.868 221.76 
L 321.0912 204.48 
L 321.3144 216 
L 321.5376 204.48 
L 321.7608 198.72 
L 321.984 198.72 
L 322.2072 192.96 
L 322.6536 192.96 
L 323.1 169.92 
L 323.3232 164.16 
L 323.5464 169.92 
L 323.7696 169.92 
L 323.9928 187.2 
L 324.4392 175.68 
L 324.6624 175.68 
L 324.8856 164.16 
L 325.1088 164.16 
L 325.332 175.68 
L 325.5552 175.68 
L 325.7784 169.92 
L 326.0016 169.92 
L 326.2248 152.64 
L 326.448 152.64 
L 326.6712 158.4 
L 326.8944 158.4 
L 327.3408 169.92 
L 327.564 164.16 
L 328.0104 187.2 
L 328.2336 187.2 
L 328.68 175.68 
L 328.9032 164.16 
L 329.1264 175.68 
L 329.3496 181.44 
L 329.5728 175.68 
L 329.796 164.16 
L 330.4656 146.88 
L 330.6888 158.4 
L 331.1352 169.92 
L 331.3584 158.4 
L 331.5816 141.12 
L 332.4744 164.16 
L 332.6976 175.68 
L 332.9208 169.92 
L 333.144 181.44 
L 333.3672 181.44 
L 333.5904 175.68 
L 333.8136 181.44 
L 334.0368 164.16 
L 334.26 164.16 
L 334.4832 146.88 
L 334.7064 158.4 
L 334.9296 164.16 
L 335.1528 181.44 
L 335.376 169.92 
L 335.5992 169.92 
L 335.8224 181.44 
L 336.0456 181.44 
L 336.492 204.48 
L 336.7152 187.2 
L 336.9384 192.96 
L 337.1616 181.44 
L 337.3848 175.68 
L 337.608 181.44 
L 337.8312 175.68 
L 338.0544 175.68 
L 338.2776 187.2 
L 338.5008 181.44 
L 338.9472 158.4 
L 339.1704 175.68 
L 339.84 175.68 
L 340.0632 192.96 
L 340.2864 187.2 
L 340.7328 187.2 
L 341.1792 198.72 
L 341.4024 198.72 
L 341.6256 192.96 
L 341.8488 181.44 
L 342.2952 181.44 
L 342.5184 192.96 
L 342.9648 181.44 
L 343.4112 181.44 
L 343.6344 169.92 
L 343.8576 164.16 
L 344.0808 175.68 
L 344.304 181.44 
L 344.5272 169.92 
L 344.9736 169.92 
L 345.42 146.88 
L 345.6432 152.64 
L 345.8664 152.64 
L 346.0896 158.4 
L 346.3128 158.4 
L 346.536 164.16 
L 346.7592 164.16 
L 346.9824 152.64 
L 347.2056 158.4 
L 347.652 158.4 
L 347.8752 152.64 
L 348.0984 152.64 
L 348.3216 158.4 
L 348.5448 152.64 
L 348.768 164.16 
L 348.9912 158.4 
L 349.2144 141.12 
L 349.4376 141.12 
L 349.6608 146.88 
L 349.884 135.36 
L 350.1072 135.36 
L 350.3304 152.64 
L 350.5536 152.64 
L 350.7768 141.12 
L 351.2232 141.12 
L 351.4464 152.64 
L 351.6696 152.64 
L 352.116 129.6 
L 352.3392 146.88 
L 352.5624 146.88 
L 352.7856 135.36 
L 353.0088 135.36 
L 353.232 123.84 
L 353.4552 118.08 
L 353.6784 123.84 
L 353.9016 118.08 
L 354.1248 106.56 
L 354.348 106.56 
L 354.5712 118.08 
L 355.0176 106.56 
L 355.2408 112.32 
L 355.464 106.56 
L 355.9104 106.56 
L 356.1336 100.8 
L 356.3568 100.8 
L 356.58 106.56 
L 356.8032 118.08 
L 357.0264 118.08 
L 357.4728 95.04 
L 357.696 100.8 
L 357.9192 95.04 
L 358.1424 106.56 
L 358.3656 106.56 
L 358.812 95.04 
L 359.0352 100.8 
L 359.4816 135.36 
L 359.928 146.88 
L 360.1512 146.88 
L 360.8208 164.16 
L 361.044 164.16 
L 361.4904 187.2 
L 361.7136 204.48 
L 362.16 204.48 
L 362.3832 216 
L 362.6064 216 
L 362.8296 221.76 
L 363.0528 233.28 
L 363.7224 250.56 
L 363.9456 262.08 
L 364.1688 256.32 
L 364.392 262.08 
L 364.6152 250.56 
L 365.9544 250.56 
L 366.1776 239.04 
L 366.4008 250.56 
L 366.624 250.56 
L 366.8472 239.04 
L 367.0704 244.8 
L 367.2936 244.8 
L 367.5168 239.04 
L 367.9632 239.04 
L 368.1864 221.76 
L 368.4096 216 
L 368.6328 216 
L 368.856 204.48 
L 369.0792 210.24 
L 369.3024 204.48 
L 369.5256 210.24 
L 369.7488 210.24 
L 370.4184 192.96 
L 370.6416 181.44 
L 370.8648 187.2 
L 371.3112 187.2 
L 371.5344 181.44 
L 371.9808 181.44 
L 372.204 187.2 
L 372.4272 187.2 
L 372.6504 169.92 
L 372.8736 175.68 
L 373.0968 175.68 
L 373.5432 187.2 
L 373.7664 181.44 
L 373.9896 164.16 
L 374.2128 158.4 
L 374.436 175.68 
L 374.6592 169.92 
L 375.1056 169.92 
L 375.3288 164.16 
L 375.552 169.92 
L 375.9984 169.92 
L 376.2216 164.16 
L 376.4448 169.92 
L 376.8912 169.92 
L 377.1144 175.68 
L 377.3376 187.2 
L 377.784 187.2 
L 378.2304 175.68 
L 378.4536 175.68 
L 378.6768 181.44 
L 378.9 198.72 
L 379.1232 198.72 
L 379.3464 187.2 
L 379.5696 192.96 
L 379.7928 192.96 
L 380.016 198.72 
L 380.2392 210.24 
L 380.4624 204.48 
L 381.3552 204.48 
L 381.5784 227.52 
L 381.8016 227.52 
L 382.0248 239.04 
L 382.248 233.28 
L 382.4712 210.24 
L 382.6944 210.24 
L 383.1408 233.28 
L 384.0336 233.28 
L 384.2568 239.04 
L 384.48 227.52 
L 384.9264 239.04 
L 385.1496 250.56 
L 385.3728 244.8 
L 385.596 256.32 
L 385.8192 250.56 
L 386.0424 250.56 
L 386.2656 256.32 
L 386.9352 239.04 
L 387.6048 239.04 
L 387.828 233.28 
L 388.0512 244.8 
L 388.4976 233.28 
L 388.7208 244.8 
L 389.1672 244.8 
L 389.6136 256.32 
L 389.8368 256.32 
L 390.06 262.08 
L 390.5064 262.08 
L 390.7296 256.32 
L 390.9528 244.8 
L 391.176 239.04 
L 391.3992 244.8 
L 391.6224 239.04 
L 391.8456 239.04 
L 392.0688 244.8 
L 392.292 233.28 
L 392.5152 233.28 
L 392.7384 239.04 
L 393.6312 216 
L 393.8544 216 
L 394.0776 221.76 
L 394.3008 216 
L 394.524 204.48 
L 395.1936 204.48 
L 395.4168 221.76 
L 395.64 221.76 
L 395.8632 216 
L 396.0864 204.48 
L 396.5328 204.48 
L 396.756 210.24 
L 396.9792 210.24 
L 397.2024 198.72 
L 397.6488 198.72 
L 397.872 204.48 
L 398.0952 227.52 
L 398.3184 227.52 
L 398.5416 210.24 
L 398.7648 210.24 
L 398.988 216 
L 399.8808 192.96 
L 400.3272 204.48 
L 400.5504 204.48 
L 400.9968 216 
L 401.6664 216 
L 401.8896 221.76 
L 402.1128 221.76 
L 402.336 227.52 
L 402.7824 227.52 
L 403.0056 221.76 
L 403.2288 210.24 
L 403.452 216 
L 403.6752 210.24 
L 403.8984 210.24 
L 404.1216 216 
L 404.3448 216 
L 404.7912 187.2 
L 405.0144 181.44 
L 405.4608 192.96 
L 405.684 181.44 
L 406.1304 181.44 
L 406.3536 175.68 
L 406.5768 181.44 
L 406.8 175.68 
L 407.0232 175.68 
L 407.2464 181.44 
L 407.4696 164.16 
L 407.6928 158.4 
L 407.916 164.16 
L 408.1392 164.16 
L 408.3624 169.92 
L 408.5856 169.92 
L 409.032 181.44 
L 409.2552 198.72 
L 409.4784 198.72 
L 409.7016 204.48 
L 409.9248 204.48 
L 410.5944 187.2 
L 410.8176 192.96 
L 411.0408 192.96 
L 411.264 204.48 
L 411.4872 204.48 
L 411.9336 192.96 
L 412.1568 192.96 
L 412.38 198.72 
L 412.6032 216 
L 412.8264 210.24 
L 413.0496 210.24 
L 413.2728 204.48 
L 413.496 204.48 
L 413.9424 227.52 
L 414.1656 204.48 
L 414.3888 198.72 
L 414.612 204.48 
L 414.8352 192.96 
L 415.0584 198.72 
L 415.5048 187.2 
L 416.1744 221.76 
L 416.3976 221.76 
L 416.844 210.24 
L 417.0672 198.72 
L 417.7368 216 
L 417.96 216 
L 418.1832 210.24 
L 418.6296 210.24 
L 418.8528 216 
L 419.076 192.96 
L 419.2992 187.2 
L 419.5224 175.68 
L 419.7456 175.68 
L 419.9688 169.92 
L 420.192 187.2 
L 420.4152 181.44 
L 420.6384 164.16 
L 421.0848 152.64 
L 421.308 158.4 
L 421.9776 141.12 
L 422.2008 141.12 
L 422.424 152.64 
L 422.6472 146.88 
L 423.0936 146.88 
L 423.3168 135.36 
L 423.54 141.12 
L 424.2096 141.12 
L 424.4328 146.88 
L 424.656 141.12 
L 424.8792 146.88 
L 425.1024 146.88 
L 425.3256 129.6 
L 425.5488 123.84 
L 425.772 129.6 
L 426.2184 118.08 
L 426.4416 106.56 
L 426.6648 106.56 
L 426.888 100.8 
L 427.1112 112.32 
L 427.5576 112.32 
L 427.7808 123.84 
L 428.004 123.84 
L 428.4504 135.36 
L 428.6736 129.6 
L 428.8968 135.36 
L 429.3432 135.36 
L 429.5664 152.64 
L 430.236 152.64 
L 430.4592 141.12 
L 430.6824 146.88 
L 430.9056 135.36 
L 431.1288 158.4 
L 431.352 158.4 
L 431.5752 135.36 
L 431.7984 135.36 
L 432.0216 141.12 
L 432.6912 141.12 
L 432.9144 146.88 
L 433.1376 146.88 
L 433.3608 141.12 
L 433.584 141.12 
L 433.8072 129.6 
L 434.0304 129.6 
L 434.2536 141.12 
L 434.4768 141.12 
L 434.7 152.64 
L 435.1464 152.64 
L 435.3696 141.12 
L 435.5928 146.88 
L 435.816 141.12 
L 436.0392 152.64 
L 436.4856 141.12 
L 436.7088 146.88 
L 436.932 141.12 
L 437.1552 146.88 
L 437.3784 164.16 
L 437.6016 164.16 
L 437.8248 158.4 
L 438.048 158.4 
L 438.2712 164.16 
L 438.4944 146.88 
L 438.7176 141.12 
L 438.9408 158.4 
L 439.3872 158.4 
L 439.6104 169.92 
L 439.8336 158.4 
L 440.0568 152.64 
L 440.28 141.12 
L 440.5032 135.36 
L 440.7264 135.36 
L 440.9496 146.88 
L 441.1728 152.64 
L 441.396 123.84 
L 441.6192 129.6 
L 442.0656 129.6 
L 442.2888 135.36 
L 442.512 129.6 
L 443.1816 129.6 
L 443.4048 146.88 
L 443.628 152.64 
L 443.8512 152.64 
L 444.0744 135.36 
L 444.2976 135.36 
L 444.9672 169.92 
L 445.4136 181.44 
L 445.6368 175.68 
L 446.0832 187.2 
L 446.3064 187.2 
L 446.5296 181.44 
L 446.7528 192.96 
L 446.976 192.96 
L 447.1992 198.72 
L 447.6456 198.72 
L 447.8688 210.24 
L 448.092 204.48 
L 448.3152 204.48 
L 448.5384 210.24 
L 449.208 210.24 
L 449.4312 198.72 
L 449.6544 198.72 
L 449.8776 210.24 
L 450.1008 210.24 
L 450.324 204.48 
L 450.5472 204.48 
L 450.7704 198.72 
L 450.9936 198.72 
L 451.2168 210.24 
L 451.44 204.48 
L 451.6632 204.48 
L 451.8864 198.72 
L 452.1096 198.72 
L 452.7792 216 
L 453.0024 204.48 
L 453.2256 204.48 
L 453.4488 210.24 
L 454.1184 244.8 
L 454.3416 239.04 
L 454.5648 227.52 
L 454.788 239.04 
L 455.0112 239.04 
L 455.2344 244.8 
L 455.4576 256.32 
L 455.6808 256.32 
L 456.1272 244.8 
L 456.7968 244.8 
L 457.02 233.28 
L 457.2432 227.52 
L 457.4664 210.24 
L 457.6896 210.24 
L 457.9128 216 
L 458.136 216 
L 458.3592 210.24 
L 458.5824 198.72 
L 458.8056 204.48 
L 459.252 192.96 
L 459.4752 204.48 
L 460.1448 204.48 
L 460.368 198.72 
L 460.5912 187.2 
L 461.2608 187.2 
L 461.484 198.72 
L 461.9304 198.72 
L 462.3768 187.2 
L 462.8232 187.2 
L 463.0464 175.68 
L 463.2696 181.44 
L 463.4928 181.44 
L 463.716 169.92 
L 463.9392 169.92 
L 464.1624 187.2 
L 464.3856 175.68 
L 464.832 175.68 
L 465.0552 169.92 
L 465.2784 169.92 
L 465.5016 198.72 
L 466.6176 198.72 
L 466.8408 210.24 
L 467.064 210.24 
L 467.2872 204.48 
L 467.5104 210.24 
L 467.7336 210.24 
L 467.9568 198.72 
L 468.4032 198.72 
L 468.6264 216 
L 468.8496 216 
L 469.0728 210.24 
L 469.296 216 
L 469.5192 227.52 
L 469.9656 227.52 
L 470.1888 216 
L 470.412 221.76 
L 470.8584 221.76 
L 471.0816 216 
L 471.3048 221.76 
L 471.7512 221.76 
L 471.9744 233.28 
L 472.1976 239.04 
L 472.4208 239.04 
L 472.644 244.8 
L 472.8672 256.32 
L 473.3136 244.8 
L 474.4296 244.8 
L 474.6528 256.32 
L 474.876 250.56 
L 475.3224 250.56 
L 475.5456 233.28 
L 475.7688 239.04 
L 475.992 239.04 
L 476.4384 227.52 
L 477.108 227.52 
L 477.3312 216 
L 477.5544 210.24 
L 478.0008 221.76 
L 478.4472 210.24 
L 478.6704 216 
L 478.8936 204.48 
L 479.1168 210.24 
L 479.34 210.24 
L 479.5632 204.48 
L 479.7864 204.48 
L 480.0096 216 
L 481.1256 216 
L 481.572 227.52 
L 481.7952 227.52 
L 482.0184 221.76 
L 482.2416 227.52 
L 482.688 227.52 
L 483.1344 216 
L 483.3576 216 
L 483.5808 204.48 
L 483.804 210.24 
L 484.0272 210.24 
L 484.2504 216 
L 484.4736 210.24 
L 484.92 221.76 
L 485.1432 216 
L 485.3664 221.76 
L 485.5896 216 
L 485.8128 216 
L 486.036 227.52 
L 486.2592 233.28 
L 486.4824 227.52 
L 486.7056 227.52 
L 486.9288 233.28 
L 487.152 233.28 
L 487.3752 216 
L 487.8216 216 
L 488.0448 210.24 
L 488.268 216 
L 488.7144 192.96 
L 488.9376 198.72 
L 489.1608 198.72 
L 489.384 210.24 
L 489.6072 216 
L 489.8304 204.48 
L 490.0536 204.48 
L 490.2768 198.72 
L 490.5 187.2 
L 490.7232 192.96 
L 491.1696 192.96 
L 491.3928 187.2 
L 491.616 187.2 
L 491.8392 198.72 
L 492.0624 192.96 
L 492.2856 192.96 
L 492.5088 198.72 
L 492.732 198.72 
L 492.9552 192.96 
L 493.1784 192.96 
L 493.4016 187.2 
L 493.848 216 
L 494.2944 216 
L 494.7408 192.96 
L 495.1872 192.96 
L 495.4104 204.48 
L 495.6336 198.72 
L 495.8568 198.72 
L 496.08 192.96 
L 496.3032 192.96 
L 496.5264 181.44 
L 496.7496 181.44 
L 496.9728 187.2 
L 497.196 198.72 
L 497.6424 198.72 
L 497.8656 192.96 
L 498.0888 198.72 
L 498.312 210.24 
L 498.5352 204.48 
L 498.9816 204.48 
L 499.2048 210.24 
L 499.6512 210.24 
L 499.8744 216 
L 500.0976 210.24 
L 500.544 239.04 
L 500.9904 227.52 
L 501.2136 233.28 
L 501.4368 227.52 
L 501.8832 227.52 
L 502.1064 216 
L 502.3296 221.76 
L 503.2224 198.72 
L 503.6688 198.72 
L 503.892 210.24 
L 504.1152 198.72 
L 505.008 198.72 
L 505.4544 187.2 
L 505.9008 187.2 
L 506.3472 210.24 
L 506.5704 198.72 
L 507.0168 198.72 
L 507.24 204.48 
L 507.4632 192.96 
L 507.6864 187.2 
L 507.9096 192.96 
L 508.1328 204.48 
L 508.356 192.96 
L 509.0256 210.24 
L 509.472 187.2 
L 509.6952 187.2 
L 509.9184 181.44 
L 510.1416 192.96 
L 510.3648 192.96 
L 510.588 181.44 
L 511.0344 169.92 
L 511.4808 181.44 
L 511.704 175.68 
L 512.1504 175.68 
L 512.3736 181.44 
L 512.5968 192.96 
L 512.82 198.72 
L 513.2664 187.2 
L 513.7128 198.72 
L 513.936 181.44 
L 514.3824 181.44 
L 514.6056 175.68 
L 514.8288 164.16 
L 515.052 181.44 
L 515.2752 169.92 
L 515.4984 169.92 
L 515.7216 158.4 
L 515.9448 169.92 
L 516.168 152.64 
L 516.3912 158.4 
L 516.6144 158.4 
L 516.8376 152.64 
L 517.0608 164.16 
L 517.284 146.88 
L 517.5072 146.88 
L 517.7304 141.12 
L 517.9536 152.64 
L 518.1768 152.64 
L 518.4 164.16 
L 518.4 164.16 
" style="fill:none;opacity:0.8;stroke:#0000ff;stroke-linecap:square;"/>
   </g>
   <g id="patch_3">
    <path d="M 72 43.2 
L 518.4 43.2 
" style="fill:none;stroke:#000000;stroke-linecap:square;stroke-linejoin:miter;"/>
   </g>
   <g id="patch_4">
    <path d="M 518.4 388.8 
L 518.4 43.2 
" style="fill:none;stroke:#000000;stroke-linecap:square;stroke-linejoin:miter;"/>
   </g>
   <g id="patch_5">
    <path d="M 72 388.8 
L 518.4 388.8 
" style="fill:none;stroke:#000000;stroke-linecap:square;stroke-linejoin:miter;"/>
   </g>
   <g id="patch_6">
    <path d="M 72 388.8 
L 72 43.2 
" style="fill:none;stroke:#000000;stroke-linecap:square;stroke-linejoin:miter;"/>
   </g>
   <g id="matplotlib.axis_1">
    <g id="xtick_1">
     <g id="line2d_3">
      <defs>
       <path d="M 0 0 
L 0 -4 
" id="m12bf1cb6c9" style="stroke:#000000;stroke-width:0.5;"/>
      </defs>
      <g>
       <use style="stroke:#000000;stroke-width:0.5;" x="72.0" xlink:href="#m12bf1cb6c9" y="388.8"/>
      </g>
     </g>
     <g id="line2d_4">
      <defs>
       <path d="M 0 0 
L 0 4 
" id="m96ec479a55" style="stroke:#000000;stroke-width:0.5;"/>
      </defs>
      <g>
       <use style="stroke:#000000;stroke-width:0.5;" x="72.0" xlink:href="#m96ec479a55" y="43.2"/>
      </g>
     </g>
     <g id="text_1">
      <!-- 0 -->
      <defs>
       <path d="M 28.40625 71 
C 14.40625 71 4.203125 55.6875 4.203125 34.75 
C 4.203125 14.125 14.09375 -1 27.59375 -1 
C 41.59375 -1 51.40625 13.625 51.40625 34.4375 
C 51.40625 45.0625 49.203125 53.875 45 60.78125 
C 41.09375 67.09375 34.703125 71 28.40625 71 
M 27.703125 66.703125 
C 31 66.703125 34.203125 64.5 36.59375 60.5 
C 39.296875 55.875 40.203125 49.96875 40.203125 36.25 
C 40.203125 22.21875 39.5 15.625 37.5 11.203125 
C 35.203125 6.296875 31.59375 3.296875 27.796875 3.296875 
C 24.5 3.296875 21.296875 5.5 18.90625 9.5 
C 16.09375 14.21875 15.296875 20.53125 15.296875 36.859375 
C 15.296875 48.484375 16 54.375 18 58.6875 
C 20.296875 63.796875 23.90625 66.703125 27.703125 66.703125 
" id="Century_Schoolbook_L_Roman-48"/>
      </defs>
      <g transform="translate(68.3995414534 402.409867538)scale(0.13 -0.13)">
       <use transform="scale(0.996264009963)" xlink:href="#Century_Schoolbook_L_Roman-48"/>
      </g>
     </g>
    </g>
    <g id="xtick_2">
     <g id="line2d_5">
      <g>
       <use style="stroke:#000000;stroke-width:0.5;" x="183.6" xlink:href="#m12bf1cb6c9" y="388.8"/>
      </g>
     </g>
     <g id="line2d_6">
      <g>
       <use style="stroke:#000000;stroke-width:0.5;" x="183.6" xlink:href="#m96ec479a55" y="43.2"/>
      </g>
     </g>
     <g id="text_2">
      <!-- 500 -->
      <defs>
       <path d="M 16.40625 59.703125 
C 21.796875 58.40625 24.59375 58 28.5 58 
C 37 58 43.203125 61 46.5 66.484375 
C 47.59375 68.390625 48 69.28125 48 70.078125 
C 48 70.6875 47.703125 70.984375 47.203125 70.984375 
C 46.90625 70.984375 46.40625 70.875 45.90625 70.578125 
C 41 68.484375 38.296875 67.984375 32.59375 67.984375 
C 26.203125 67.984375 22.5 68.484375 12 70.984375 
C 11.59375 62.625 10.703125 51.984375 9.296875 39.65625 
C 7.203125 37.46875 6.5 36.171875 6.5 34.578125 
C 6.5 32.59375 7.796875 31.203125 9.703125 31.203125 
C 12.203125 31.203125 13.796875 33.328125 14.203125 37.359375 
C 17.703125 39.890625 21 41 25 41 
C 33.90625 41 39.296875 34.03125 39.296875 22.5 
C 39.296875 15.734375 37.59375 9.953125 34.59375 6.828125 
C 32.59375 4.703125 28.5 3.296875 24.40625 3.296875 
C 18.40625 3.296875 12.203125 6.421875 12.203125 9.5625 
C 12.203125 10.28125 12.796875 11.078125 14 11.78125 
C 17.09375 13.703125 18 15.03125 18 17.75 
C 18 21.296875 15.296875 24.015625 11.703125 24.015625 
C 7.703125 24.015625 4.5 20.28125 4.5 15.546875 
C 4.5 10.5 7.40625 5.453125 11.90625 2.328125 
C 15.296875 0.109375 19.40625 -1 24.59375 -1 
C 40.296875 -1 50.203125 8.28125 50.203125 23.109375 
C 50.203125 36.828125 41.09375 46 27.59375 46 
C 23.40625 46 20.203125 45.296875 14.703125 43 
z
" id="Century_Schoolbook_L_Roman-53"/>
      </defs>
      <g transform="translate(172.79862436 402.409867538)scale(0.13 -0.13)">
       <use transform="scale(0.996264009963)" xlink:href="#Century_Schoolbook_L_Roman-53"/>
       <use transform="translate(55.3916769633 0.0)scale(0.996264009963)" xlink:href="#Century_Schoolbook_L_Roman-48"/>
       <use transform="translate(110.783353927 0.0)scale(0.996264009963)" xlink:href="#Century_Schoolbook_L_Roman-48"/>
      </g>
     </g>
    </g>
    <g id="xtick_3">
     <g id="line2d_7">
      <g>
       <use style="stroke:#000000;stroke-width:0.5;" x="295.2" xlink:href="#m12bf1cb6c9" y="388.8"/>
      </g>
     </g>
     <g id="line2d_8">
      <g>
       <use style="stroke:#000000;stroke-width:0.5;" x="295.2" xlink:href="#m96ec479a55" y="43.2"/>
      </g>
     </g>
     <g id="text_3">
      <!-- 1000 -->
      <defs>
       <path d="M 32.203125 70.5 
C 28.796875 66.234375 19.59375 63 10.40625 63 
L 10.40625 58.59375 
L 19.203125 58.59375 
C 25 58.59375 25.40625 58.203125 25.40625 52.3125 
L 25.40625 12.28125 
L 25.40625 9.375 
C 25.40625 5.1875 24.5 4.6875 16.5 4.6875 
L 10 4.6875 
L 10 0 
L 49.59375 0 
L 49.59375 4.6875 
L 44.09375 4.6875 
C 38.796875 4.6875 36.59375 5.09375 35.796875 6.09375 
C 35.09375 6.78125 35.09375 6.78125 35.09375 12.3125 
L 35.09375 53.671875 
C 35.09375 58.578125 35.296875 63.375 35.796875 70.5 
z
" id="Century_Schoolbook_L_Roman-49"/>
      </defs>
      <g transform="translate(280.798165814 402.409867538)scale(0.13 -0.13)">
       <use transform="scale(0.996264009963)" xlink:href="#Century_Schoolbook_L_Roman-49"/>
       <use transform="translate(55.3916769633 0.0)scale(0.996264009963)" xlink:href="#Century_Schoolbook_L_Roman-48"/>
       <use transform="translate(110.783353927 0.0)scale(0.996264009963)" xlink:href="#Century_Schoolbook_L_Roman-48"/>
       <use transform="translate(166.17503089 0.0)scale(0.996264009963)" xlink:href="#Century_Schoolbook_L_Roman-48"/>
      </g>
     </g>
    </g>
    <g id="xtick_4">
     <g id="line2d_9">
      <g>
       <use style="stroke:#000000;stroke-width:0.5;" x="406.8" xlink:href="#m12bf1cb6c9" y="388.8"/>
      </g>
     </g>
     <g id="line2d_10">
      <g>
       <use style="stroke:#000000;stroke-width:0.5;" x="406.8" xlink:href="#m96ec479a55" y="43.2"/>
      </g>
     </g>
     <g id="text_4">
      <!-- 1500 -->
      <g transform="translate(392.398165814 402.409867538)scale(0.13 -0.13)">
       <use transform="scale(0.996264009963)" xlink:href="#Century_Schoolbook_L_Roman-49"/>
       <use transform="translate(55.3916769633 0.0)scale(0.996264009963)" xlink:href="#Century_Schoolbook_L_Roman-53"/>
       <use transform="translate(110.783353927 0.0)scale(0.996264009963)" xlink:href="#Century_Schoolbook_L_Roman-48"/>
       <use transform="translate(166.17503089 0.0)scale(0.996264009963)" xlink:href="#Century_Schoolbook_L_Roman-48"/>
      </g>
     </g>
    </g>
    <g id="xtick_5">
     <g id="line2d_11">
      <g>
       <use style="stroke:#000000;stroke-width:0.5;" x="518.4" xlink:href="#m12bf1cb6c9" y="388.8"/>
      </g>
     </g>
     <g id="line2d_12">
      <g>
       <use style="stroke:#000000;stroke-width:0.5;" x="518.4" xlink:href="#m96ec479a55" y="43.2"/>
      </g>
     </g>
     <g id="text_5">
      <!-- 2000 -->
      <defs>
       <path d="M 50.5 21.5625 
L 46.09375 21.5625 
L 45.09375 16.46875 
C 43.796875 10.078125 43 9.375 36.796875 9.375 
L 14.40625 9.375 
C 21.296875 16.5625 23.59375 18.65625 30 23.65625 
C 39.09375 30.65625 43 34.15625 45.296875 37.140625 
C 48.5 41.53125 50.09375 46.03125 50.09375 50.8125 
C 50.09375 62.109375 40.59375 70.296875 27.59375 70.296875 
C 14.90625 70.296875 5.09375 62.109375 5.09375 51.515625 
C 5.09375 45.234375 8.296875 40.9375 13.09375 40.9375 
C 16.796875 40.9375 19.296875 43.4375 19.296875 47.03125 
C 19.296875 49.53125 17.90625 51.828125 15.703125 52.734375 
C 12 54.328125 11.796875 54.421875 11.796875 55.71875 
C 11.796875 57.21875 12.796875 59.515625 14.203125 61.21875 
C 16.703125 64.203125 20.90625 66 25.59375 66 
C 33.796875 66 38.796875 60.90625 38.796875 52.53125 
C 38.796875 45.125 35.296875 38.4375 27 29.65625 
L 21.09375 23.46875 
C 17.59375 19.78125 15 16.96875 13.296875 15.078125 
C 9.703125 10.875 7.90625 8.578125 3.5 2.796875 
L 3.5 0 
L 48.59375 0 
z
" id="Century_Schoolbook_L_Roman-50"/>
      </defs>
      <g transform="translate(503.998165814 402.409867538)scale(0.13 -0.13)">
       <use transform="scale(0.996264009963)" xlink:href="#Century_Schoolbook_L_Roman-50"/>
       <use transform="translate(55.3916769633 0.0)scale(0.996264009963)" xlink:href="#Century_Schoolbook_L_Roman-48"/>
       <use transform="translate(110.783353927 0.0)scale(0.996264009963)" xlink:href="#Century_Schoolbook_L_Roman-48"/>
       <use transform="translate(166.17503089 0.0)scale(0.996264009963)" xlink:href="#Century_Schoolbook_L_Roman-48"/>
      </g>
     </g>
    </g>
    <g id="text_6">
     <!-- Time (s) -->
     <defs>
      <path d="M 46.5 23 
C 46.59375 37.8125 38.09375 48.28125 25.90625 48.28125 
C 13.09375 48.28125 3.5 37.25 3.5 22.34375 
C 3.5 8.4375 12.59375 -1 26.09375 -1 
C 35.59375 -1 42.40625 3.6875 46.5 13.1875 
L 43 15.09375 
C 38.90625 7.390625 34.703125 4.390625 28 4.390625 
C 22.90625 4.390625 19.203125 6.59375 16.59375 11 
C 14.796875 14 14 17.5 14.09375 23 
z
M 14.203125 27.296875 
C 14.203125 30.34375 14.59375 32.5 15.59375 35.25 
C 17.703125 41.140625 20.90625 44 25.703125 44 
C 31.796875 44 35.796875 38.78125 35.796875 30.921875 
C 35.796875 28.078125 34.90625 27.296875 31.703125 27.296875 
z
" id="Century_Schoolbook_L_Roman-101"/>
      <path d="M 39 48 
L 35.5 48 
L 32.59375 44.40625 
C 29 47.203125 25.40625 48.390625 20.40625 48.390625 
C 11.59375 48.390625 5.796875 42.625 5.796875 33.953125 
C 5.796875 30.078125 7.09375 26.78125 9.296875 24.8125 
C 11.59375 22.703125 13.90625 21.71875 19.90625 20.3125 
L 25.203125 19.125 
C 33.09375 17.234375 35.90625 15.234375 35.90625 11.265625 
C 35.90625 6.578125 31.796875 3.296875 25.90625 3.296875 
C 17.5 3.296875 11.5 8.765625 9.09375 18.875 
L 5.09375 18.875 
L 5.09375 0 
L 8.59375 0 
L 12.09375 3.90625 
C 16.203125 0.59375 20.796875 -1 25.796875 -1 
C 35.59375 -1 42.09375 5.078125 42.09375 14.34375 
C 42.09375 18.71875 40.703125 22.09375 37.90625 24.390625 
C 35.5 26.484375 33.5 27.28125 27.40625 28.5625 
L 22.40625 29.671875 
C 16.90625 30.859375 16.90625 30.859375 15.09375 31.859375 
C 12.90625 32.859375 11.59375 34.9375 11.59375 37.140625 
C 11.59375 41.109375 15.40625 44 20.90625 44 
C 24.703125 44 27.796875 42.703125 30.59375 40.015625 
C 32.796875 37.8125 33.90625 35.828125 35.5 31.234375 
L 39 31.234375 
z
" id="Century_Schoolbook_L_Roman-115"/>
      <path d="M 20.59375 46 
L 1.796875 46 
L 1.796875 41.21875 
L 6.90625 41.21875 
C 10.59375 41.21875 11.203125 40.515625 11.203125 36.203125 
L 11.203125 12.296875 
L 11.203125 8.296875 
C 11.203125 4.296875 10.09375 3.59375 3.703125 3.59375 
L 3 3.59375 
L 3 0 
L 28.90625 0 
L 28.90625 3.59375 
L 28.203125 3.59375 
C 21.703125 3.59375 20.59375 4.28125 20.59375 8.21875 
L 20.59375 12.171875 
z
M 15.90625 71.578125 
C 12.703125 71.578125 10.09375 68.984375 10.09375 65.796875 
C 10.09375 62.703125 12.703125 60 15.796875 60 
C 19.09375 60 21.703125 62.59375 21.703125 65.796875 
C 21.703125 68.984375 19.09375 71.578125 15.90625 71.578125 
" id="Century_Schoolbook_L_Roman-105"/>
      <path d="M 20.09375 46 
L 2.296875 46 
L 2.296875 41.21875 
L 6.40625 41.21875 
C 10.09375 41.21875 10.703125 40.515625 10.703125 36.203125 
L 10.703125 12.296875 
L 10.703125 8.40625 
C 10.703125 4.296875 9.59375 3.59375 3.203125 3.59375 
L 2.796875 3.59375 
L 2.796875 0 
L 28 0 
L 28 3.59375 
L 27.59375 3.59375 
C 21.203125 3.59375 20.09375 4.296875 20.09375 8.390625 
L 20.09375 12.28125 
L 20.09375 26.453125 
C 20.09375 35.328125 25 41.921875 31.5 41.921875 
C 34.09375 41.921875 36.90625 40.515625 38.09375 38.625 
C 39.5 36.734375 40.09375 33.828125 40.09375 29.734375 
L 40.09375 12.28125 
L 40.09375 8.28125 
C 40.09375 4.296875 39 3.59375 32.5 3.59375 
L 32.09375 3.59375 
L 32.09375 0 
L 57.40625 0 
L 57.40625 3.59375 
L 57 3.59375 
C 50.59375 3.59375 49.5 4.296875 49.5 8.28125 
L 49.5 12.28125 
L 49.5 25.546875 
C 49.5 35.53125 54 41.921875 61 41.921875 
C 64.296875 41.921875 67 40.015625 68.296875 36.921875 
C 69.203125 34.734375 69.5 32.53125 69.5 28.640625 
L 69.5 12.28125 
L 69.5 8.28125 
C 69.5 4.296875 68.40625 3.59375 61.90625 3.59375 
L 61.5 3.59375 
L 61.5 0 
L 86.796875 0 
L 86.796875 3.59375 
L 86.40625 3.59375 
C 80 3.59375 78.90625 4.296875 78.90625 8.390625 
L 78.90625 12.28125 
L 78.90625 30.640625 
C 78.90625 36.828125 78.296875 38.921875 75.703125 42.3125 
C 72.796875 46.015625 68.703125 48 63.90625 48 
C 57.40625 48 52.59375 44.9375 48.296875 38.109375 
C 46.59375 44.046875 41.203125 48 34.5 48 
C 28.5 48 24 45.140625 20.09375 38.921875 
z
" id="Century_Schoolbook_L_Roman-109"/>
      <path d="M 63.296875 72 
L 3.40625 72 
L 1.90625 44.265625 
L 6.203125 44.265625 
C 6.90625 49.25 7.796875 53.046875 8.90625 56.234375 
C 11.5 63.515625 16.296875 67.3125 23.09375 67.3125 
C 26.40625 67.3125 27.796875 66.203125 27.796875 63.71875 
L 27.796875 12.28125 
L 27.796875 9.375 
C 27.796875 5.1875 26.90625 4.6875 18.796875 4.6875 
L 16.203125 4.6875 
L 16.203125 0 
L 50.5 0 
L 50.5 4.6875 
L 47.90625 4.6875 
C 39.90625 4.6875 39 5.1875 39 9.375 
L 39 12.28125 
L 39 63.71875 
C 39 66.203125 40.40625 67.3125 43.703125 67.3125 
C 49.796875 67.3125 54.703125 63.90625 57.203125 57.921875 
C 58.703125 54.25 59.703125 49.953125 60.5 44.265625 
L 64.796875 44.265625 
z
" id="Century_Schoolbook_L_Roman-84"/>
      <path d="M 5.40625 -12.28125 
C 11.40625 -8.578125 14.59375 -5.984375 18 -1.890625 
C 25.59375 6.984375 29.703125 18.5625 29.703125 30.640625 
C 29.703125 42.015625 26.09375 52.703125 19.40625 61.484375 
C 15.59375 66.375 12.203125 69.359375 5.40625 73.453125 
L 5.40625 69.765625 
C 15.40625 60.984375 19.40625 49.796875 19.40625 30.640625 
C 19.40625 11.375 15.40625 0.203125 5.40625 -8.578125 
z
" id="Century_Schoolbook_L_Roman-41"/>
      <path d="M 27.90625 73.453125 
C 21.90625 69.765625 18.703125 67.171875 15.296875 63.171875 
C 7.703125 54.1875 3.59375 42.71875 3.59375 30.640625 
C 3.59375 19.265625 7.203125 8.578125 13.90625 -0.296875 
C 17.703125 -5.09375 21.09375 -8.078125 27.90625 -12.28125 
L 27.90625 -8.578125 
C 17.90625 0.203125 13.90625 11.484375 13.90625 30.640625 
C 13.90625 49.796875 17.90625 60.984375 27.90625 69.765625 
z
" id="Century_Schoolbook_L_Roman-40"/>
     </defs>
     <g transform="translate(270.735133143 419.480462791)scale(0.13 -0.13)">
      <use transform="scale(0.996264009963)" xlink:href="#Century_Schoolbook_L_Roman-84"/>
      <use transform="translate(66.4500311333 0.0)scale(0.996264009963)" xlink:href="#Century_Schoolbook_L_Roman-105"/>
      <use transform="translate(97.8313441294 0.0)scale(0.996264009963)" xlink:href="#Century_Schoolbook_L_Roman-109"/>
      <use transform="translate(186.398250822 0.0)scale(0.996264009963)" xlink:href="#Century_Schoolbook_L_Roman-101"/>
      <use transform="translate(263.906620923 0.0)scale(0.996264009963)" xlink:href="#Century_Schoolbook_L_Roman-40"/>
      <use transform="translate(297.081850653 0.0)scale(0.996264009963)" xlink:href="#Century_Schoolbook_L_Roman-115"/>
      <use transform="translate(343.207661212 0.0)scale(0.996264009963)" xlink:href="#Century_Schoolbook_L_Roman-41"/>
     </g>
    </g>
   </g>
   <g id="matplotlib.axis_2">
    <g id="ytick_1">
     <g id="line2d_13">
      <defs>
       <path d="M 0 0 
L 4 0 
" id="mafe3eca9d3" style="stroke:#000000;stroke-width:0.5;"/>
      </defs>
      <g>
       <use style="stroke:#000000;stroke-width:0.5;" x="72.0" xlink:href="#mafe3eca9d3" y="388.8"/>
      </g>
     </g>
     <g id="line2d_14">
      <defs>
       <path d="M 0 0 
L -4 0 
" id="mecbf04eb48" style="stroke:#000000;stroke-width:0.5;"/>
      </defs>
      <g>
       <use style="stroke:#000000;stroke-width:0.5;" x="518.4" xlink:href="#mecbf04eb48" y="388.8"/>
      </g>
     </g>
     <g id="text_7">
      <!-- 0 -->
      <g transform="translate(60.7990829069 392.374569911)scale(0.13 -0.13)">
       <use transform="scale(0.996264009963)" xlink:href="#Century_Schoolbook_L_Roman-48"/>
      </g>
     </g>
    </g>
    <g id="ytick_2">
     <g id="line2d_15">
      <g>
       <use style="stroke:#000000;stroke-width:0.5;" x="72.0" xlink:href="#mafe3eca9d3" y="331.2"/>
      </g>
     </g>
     <g id="line2d_16">
      <g>
       <use style="stroke:#000000;stroke-width:0.5;" x="518.4" xlink:href="#mecbf04eb48" y="331.2"/>
      </g>
     </g>
     <g id="text_8">
      <!-- 10 -->
      <g transform="translate(53.5981658137 334.774569911)scale(0.13 -0.13)">
       <use transform="scale(0.996264009963)" xlink:href="#Century_Schoolbook_L_Roman-49"/>
       <use transform="translate(55.3916769633 0.0)scale(0.996264009963)" xlink:href="#Century_Schoolbook_L_Roman-48"/>
      </g>
     </g>
    </g>
    <g id="ytick_3">
     <g id="line2d_17">
      <g>
       <use style="stroke:#000000;stroke-width:0.5;" x="72.0" xlink:href="#mafe3eca9d3" y="273.6"/>
      </g>
     </g>
     <g id="line2d_18">
      <g>
       <use style="stroke:#000000;stroke-width:0.5;" x="518.4" xlink:href="#mecbf04eb48" y="273.6"/>
      </g>
     </g>
     <g id="text_9">
      <!-- 20 -->
      <g transform="translate(53.5981658137 277.174569911)scale(0.13 -0.13)">
       <use transform="scale(0.996264009963)" xlink:href="#Century_Schoolbook_L_Roman-50"/>
       <use transform="translate(55.3916769633 0.0)scale(0.996264009963)" xlink:href="#Century_Schoolbook_L_Roman-48"/>
      </g>
     </g>
    </g>
    <g id="ytick_4">
     <g id="line2d_19">
      <g>
       <use style="stroke:#000000;stroke-width:0.5;" x="72.0" xlink:href="#mafe3eca9d3" y="216.0"/>
      </g>
     </g>
     <g id="line2d_20">
      <g>
       <use style="stroke:#000000;stroke-width:0.5;" x="518.4" xlink:href="#mecbf04eb48" y="216.0"/>
      </g>
     </g>
     <g id="text_10">
      <!-- 30 -->
      <defs>
       <path d="M 34.59375 37.359375 
C 36 37.859375 36.203125 37.859375 36.90625 38.15625 
C 43.90625 41.0625 47.90625 46.671875 47.90625 53.765625 
C 47.90625 64.1875 39.90625 71 27.5 71 
C 15.796875 71 6.90625 63.96875 6.90625 54.71875 
C 6.90625 50.546875 9.703125 47.59375 13.5 47.59375 
C 17 47.59375 19.40625 50.046875 19.40625 53.71875 
C 19.40625 55.875 18.59375 57.296875 16.296875 58.9375 
C 15.296875 59.640625 15 60.15625 15 60.78125 
C 15 63.640625 20.90625 66.703125 26.5 66.703125 
C 33.703125 66.703125 37.5 62.125 37.5 53.46875 
C 37.5 43.984375 33.703125 39 26.5 39 
C 25.59375 39 24 39 22.5 39 
C 21.703125 39 20.90625 39 20.296875 39 
C 18.203125 39 17.09375 38.125 17.09375 36.40625 
C 17.09375 34.78125 18.203125 34.015625 20.203125 34.015625 
C 20.5 34.015625 21.296875 34.015625 22.59375 34.015625 
C 26.40625 34.015625 26.5 34.015625 27.296875 34.015625 
C 34.703125 34.015625 38.703125 28.828125 38.703125 19.140625 
C 38.703125 9.0625 33.59375 3.296875 24.703125 3.296875 
C 18.40625 3.296875 11.59375 6.640625 11.59375 9.6875 
C 11.59375 10.59375 11.796875 10.765625 13.796875 11.875 
C 16.59375 13.53125 17.703125 15.21875 17.703125 17.65625 
C 17.703125 21.203125 15 23.875 11.296875 23.875 
C 7.09375 23.875 4.203125 20.328125 4.203125 15.1875 
C 4.203125 5.609375 13.09375 -1 25.90625 -1 
C 40.296875 -1 49.796875 7.015625 49.796875 19.328125 
C 49.796875 28.734375 44.90625 34.4375 34.59375 37.359375 
" id="Century_Schoolbook_L_Roman-51"/>
      </defs>
      <g transform="translate(53.5981658137 219.574569911)scale(0.13 -0.13)">
       <use transform="scale(0.996264009963)" xlink:href="#Century_Schoolbook_L_Roman-51"/>
       <use transform="translate(55.3916769633 0.0)scale(0.996264009963)" xlink:href="#Century_Schoolbook_L_Roman-48"/>
      </g>
     </g>
    </g>
    <g id="ytick_5">
     <g id="line2d_21">
      <g>
       <use style="stroke:#000000;stroke-width:0.5;" x="72.0" xlink:href="#mafe3eca9d3" y="158.4"/>
      </g>
     </g>
     <g id="line2d_22">
      <g>
       <use style="stroke:#000000;stroke-width:0.5;" x="518.4" xlink:href="#mecbf04eb48" y="158.4"/>
      </g>
     </g>
     <g id="text_11">
      <!-- 40 -->
      <defs>
       <path d="M 36.796875 70.5 
L 2.796875 23 
L 2.796875 17.40625 
L 30.90625 17.40625 
L 30.90625 12.25 
L 30.90625 9.359375 
C 30.90625 5.1875 30 4.6875 21.90625 4.6875 
L 20.796875 4.6875 
L 20.796875 0 
L 50 0 
L 50 4.6875 
L 49.59375 4.6875 
C 41.5 4.6875 40.59375 5.1875 40.59375 9.359375 
L 40.59375 12.25 
L 40.59375 17.40625 
L 52.703125 17.40625 
L 52.703125 23 
L 40.59375 23 
L 40.59375 50.40625 
C 40.59375 62.96875 40.59375 62.96875 41.09375 70.5 
z
M 30.90625 23 
L 8.90625 23 
L 30.90625 53.421875 
z
" id="Century_Schoolbook_L_Roman-52"/>
      </defs>
      <g transform="translate(53.5981658137 161.974569911)scale(0.13 -0.13)">
       <use transform="scale(0.996264009963)" xlink:href="#Century_Schoolbook_L_Roman-52"/>
       <use transform="translate(55.3916769633 0.0)scale(0.996264009963)" xlink:href="#Century_Schoolbook_L_Roman-48"/>
      </g>
     </g>
    </g>
    <g id="ytick_6">
     <g id="line2d_23">
      <g>
       <use style="stroke:#000000;stroke-width:0.5;" x="72.0" xlink:href="#mafe3eca9d3" y="100.8"/>
      </g>
     </g>
     <g id="line2d_24">
      <g>
       <use style="stroke:#000000;stroke-width:0.5;" x="518.4" xlink:href="#mecbf04eb48" y="100.8"/>
      </g>
     </g>
     <g id="text_12">
      <!-- 50 -->
      <g transform="translate(53.5981658137 104.374569911)scale(0.13 -0.13)">
       <use transform="scale(0.996264009963)" xlink:href="#Century_Schoolbook_L_Roman-53"/>
       <use transform="translate(55.3916769633 0.0)scale(0.996264009963)" xlink:href="#Century_Schoolbook_L_Roman-48"/>
      </g>
     </g>
    </g>
    <g id="ytick_7">
     <g id="line2d_25">
      <g>
       <use style="stroke:#000000;stroke-width:0.5;" x="72.0" xlink:href="#mafe3eca9d3" y="43.2"/>
      </g>
     </g>
     <g id="line2d_26">
      <g>
       <use style="stroke:#000000;stroke-width:0.5;" x="518.4" xlink:href="#mecbf04eb48" y="43.2"/>
      </g>
     </g>
     <g id="text_13">
      <!-- 60 -->
      <defs>
       <path d="M 15.296875 34.109375 
C 16.296875 46.65625 16.796875 50.046875 19 55.265625 
C 21.90625 62.515625 27.203125 66.703125 33.5 66.703125 
C 37 66.703125 39.09375 65.578125 39.09375 63.734375 
C 39.09375 63.3125 39 63.015625 38.59375 62.296875 
C 37.59375 60.359375 37.09375 58.9375 37.09375 57.5 
C 37.09375 54.03125 39.703125 51.46875 43.203125 51.46875 
C 47 51.46875 49.796875 54.53125 49.796875 58.796875 
C 49.796875 65.8125 42.796875 71 33.40625 71 
C 25.203125 71 17.5 67.09375 12.703125 60.390625 
C 7.296875 52.671875 4.203125 42.265625 4.203125 31.34375 
C 4.203125 11.828125 13.796875 -1 28.59375 -1 
C 35.09375 -1 40.5 1.1875 44.703125 5.546875 
C 49 9.90625 51.59375 16.4375 51.59375 22.6875 
C 51.59375 34.375 43.09375 43.09375 31.796875 43.09375 
C 25 43.09375 20 40.390625 15.296875 34.109375 
M 29.09375 37 
C 36.296875 37 40.703125 31.375 40.703125 21.96875 
C 40.703125 10.609375 36.09375 3.296875 28.796875 3.296875 
C 24.296875 3.296875 20.796875 5.765625 18.40625 10.515625 
C 16.796875 13.578125 16 16.9375 16 20.59375 
C 16 30.78125 21 37 29.09375 37 
" id="Century_Schoolbook_L_Roman-54"/>
      </defs>
      <g transform="translate(53.5981658137 46.7745699112)scale(0.13 -0.13)">
       <use transform="scale(0.996264009963)" xlink:href="#Century_Schoolbook_L_Roman-54"/>
       <use transform="translate(55.3916769633 0.0)scale(0.996264009963)" xlink:href="#Century_Schoolbook_L_Roman-48"/>
      </g>
     </g>
    </g>
    <g id="text_14">
     <!-- Cluster size -->
     <defs>
      <path d="M 19.40625 47 
L 19.40625 67 
L 15.296875 67 
C 14.296875 53.875 9.90625 47.1875 1.796875 46.59375 
L 1.796875 42.703125 
L 10 42.703125 
L 10 17.265625 
C 10 10.28125 10.203125 7.78125 11.203125 5.484375 
C 12.796875 1.296875 16.796875 -1 22.59375 -1 
C 26.5 -1 29.90625 0.203125 32.203125 2.390625 
C 35.5 5.59375 37.40625 10.875 37.40625 16.375 
C 37.40625 16.96875 37.40625 17.671875 37.296875 18.671875 
L 33.09375 18.671875 
C 32.796875 9.6875 30.203125 5.09375 25.296875 5.09375 
C 23 5.09375 21 6.28125 20.296875 7.984375 
C 19.703125 9.375 19.40625 11.875 19.40625 15.46875 
L 19.40625 42.703125 
L 34.09375 42.703125 
L 34.09375 47 
z
" id="Century_Schoolbook_L_Roman-116"/>
      <path d="M 41.203125 0 
L 59.40625 0 
L 59.40625 4.703125 
L 56.90625 4.703125 
C 51.40625 4.703125 50.59375 5.59375 50.59375 11.953125 
L 50.59375 46.78125 
L 31.796875 46.78125 
L 31.796875 42 
L 36.90625 42 
C 40.59375 42 41.203125 41.296875 41.203125 36.953125 
L 41.203125 24.5625 
C 41.203125 18.8125 40.59375 15.484375 39.09375 12.15625 
C 37 7.71875 33 5.09375 28.09375 5.09375 
C 25 5.09375 22.40625 6.1875 21.09375 8.171875 
C 19.796875 10.046875 19.59375 11.046875 19.59375 16.5 
L 19.59375 46.78125 
L 2.09375 46.78125 
L 2.09375 42 
L 5.90625 42 
C 9.59375 42 10.203125 41.296875 10.203125 36.953125 
L 10.203125 15.21875 
C 10.203125 10.078125 10.59375 7.765625 12.09375 5.453125 
C 14.796875 1.3125 19.59375 -1 25.59375 -1 
C 32.203125 -1 36.796875 1.71875 41.203125 8.125 
z
" id="Century_Schoolbook_L_Roman-117"/>
      <path d="M 19.796875 46 
L 2.09375 46 
L 2.09375 41.21875 
L 6.203125 41.21875 
C 9.90625 41.21875 10.5 40.515625 10.5 36.203125 
L 10.5 12.296875 
L 10.5 8.296875 
C 10.5 4.296875 9.40625 3.59375 2.90625 3.59375 
L 2.5 3.59375 
L 2.5 0 
L 29.203125 0 
L 29.203125 3.59375 
L 27.296875 3.59375 
C 20.90625 3.59375 19.796875 4.296875 19.796875 8.296875 
L 19.796875 12.296875 
L 19.796875 13.296875 
C 19.796875 20.8125 21.203125 28.40625 23.703125 34.109375 
C 26.09375 39.703125 29.5 42.8125 33.703125 43.3125 
C 32.296875 41.703125 31.90625 40.6875 31.90625 38.765625 
C 31.90625 35.546875 34.203125 33.234375 37.40625 33.234375 
C 41 33.234375 43.5 35.9375 43.5 40.015625 
C 43.5 44.8125 40.09375 48 34.796875 48 
C 28.5 48 23 42.921875 19.796875 34.140625 
z
" id="Century_Schoolbook_L_Roman-114"/>
      <path d="M 20.40625 73 
L 1.90625 73 
L 1.90625 68.21875 
L 6.796875 68.21875 
C 10.40625 68.21875 11 67.515625 11 63.21875 
L 11 12.28125 
L 11 8.28125 
C 11 4.296875 9.90625 3.59375 3.5 3.59375 
L 2.796875 3.59375 
L 2.796875 0 
L 28.703125 0 
L 28.703125 3.59375 
L 28 3.59375 
C 21.5 3.59375 20.40625 4.296875 20.40625 8.25 
L 20.40625 12.21875 
z
" id="Century_Schoolbook_L_Roman-108"/>
      <path d="M 42.796875 46.296875 
L 6.703125 46.296875 
L 5.796875 29.5 
L 9.796875 29.5 
C 10.703125 38.421875 14.296875 42 22.5 42 
L 31.203125 42 
L 3.90625 3.59375 
L 3.90625 0 
L 42.796875 0 
L 43.5 17.78125 
L 39.5 17.78125 
C 38.5 7.96875 34.703125 4.296875 25.703125 4.296875 
L 15.5 4.296875 
L 42.796875 42.703125 
z
" id="Century_Schoolbook_L_Roman-122"/>
      <path d="M 63.90625 72 
L 60.09375 72 
L 56.09375 66.015625 
C 49 71.203125 45.09375 72.703125 38.40625 72.703125 
C 28.703125 72.703125 20.703125 68.8125 13.90625 60.78125 
C 7.5 53.234375 4.5 44.890625 4.5 34.65625 
C 4.5 13.296875 18.59375 -2 38.296875 -2 
C 54.296875 -2 64.5 7.34375 66.796875 24.015625 
L 62.09375 24.8125 
C 61.09375 19.546875 59.90625 15.984375 58.09375 13.015625 
C 54 6.171875 47.59375 2.6875 39.5 2.6875 
C 24.703125 2.6875 17.703125 12.90625 17.703125 34.265625 
C 17.703125 45.46875 19.203125 53.015625 22.59375 58.96875 
C 25.703125 64.53125 31.90625 68 38.296875 68 
C 45.296875 68 51.5 64.328125 55.296875 57.96875 
C 57.203125 54.6875 58.703125 50.8125 61 43.171875 
L 65.40625 43.171875 
z
" id="Century_Schoolbook_L_Roman-67"/>
     </defs>
     <g transform="translate(46.1374380983 251.492847865)rotate(-90.0)scale(0.13 -0.13)">
      <use transform="scale(0.996264009963)" xlink:href="#Century_Schoolbook_L_Roman-67"/>
      <use transform="translate(71.9299848469 0.0)scale(0.996264009963)" xlink:href="#Century_Schoolbook_L_Roman-108"/>
      <use transform="translate(103.311297843 0.0)scale(0.996264009963)" xlink:href="#Century_Schoolbook_L_Roman-117"/>
      <use transform="translate(164.18292852 0.0)scale(0.996264009963)" xlink:href="#Century_Schoolbook_L_Roman-115"/>
      <use transform="translate(210.308739079 0.0)scale(0.996264009963)" xlink:href="#Century_Schoolbook_L_Roman-116"/>
      <use transform="translate(249.062445274 0.0)scale(0.996264009963)" xlink:href="#Century_Schoolbook_L_Roman-101"/>
      <use transform="translate(298.875645772 0.0)scale(0.996264009963)" xlink:href="#Century_Schoolbook_L_Roman-114"/>
      <use transform="translate(370.804384072 0.0)scale(0.996264009963)" xlink:href="#Century_Schoolbook_L_Roman-115"/>
      <use transform="translate(416.930194631 0.0)scale(0.996264009963)" xlink:href="#Century_Schoolbook_L_Roman-105"/>
      <use transform="translate(448.311507628 0.0)scale(0.996264009963)" xlink:href="#Century_Schoolbook_L_Roman-122"/>
      <use transform="translate(496.231219718 0.0)scale(0.996264009963)" xlink:href="#Century_Schoolbook_L_Roman-101"/>
     </g>
    </g>
   </g>
   <g id="legend_1">
    <g id="patch_7">
     <path d="M 380.194704 87.084171 
L 512.4 87.084171 
L 512.4 49.2 
L 380.194704 49.2 
z
" style="fill:#ffffff;stroke:#000000;stroke-linejoin:miter;"/>
    </g>
    <g id="line2d_27">
     <path d="M 388.594704 58.67065 
L 405.394704 58.67065 
" style="fill:none;opacity:0.8;stroke:#ff0000;stroke-linecap:square;"/>
    </g>
    <g id="line2d_28"/>
    <g id="text_15">
     <!-- Implementation -->
     <defs>
      <path d="M 26 59.734375 
L 26 62.609375 
C 26 66.8125 26.90625 67.3125 34.90625 67.3125 
L 36.90625 67.3125 
L 36.90625 72 
L 3.796875 72 
L 3.796875 67.3125 
L 5.796875 67.3125 
C 13.90625 67.3125 14.796875 66.8125 14.796875 62.609375 
L 14.796875 59.734375 
L 14.796875 12.28125 
L 14.796875 9.375 
C 14.796875 5.1875 13.90625 4.6875 5.796875 4.6875 
L 3.796875 4.6875 
L 3.796875 0 
L 36.90625 0 
L 36.90625 4.6875 
L 34.90625 4.6875 
C 26.90625 4.6875 26 5.1875 26 9.375 
L 26 12.28125 
z
" id="Century_Schoolbook_L_Roman-73"/>
      <path d="M 45.203125 32.578125 
C 45.203125 38.796875 44.09375 41.96875 41.203125 44.34375 
C 37.90625 46.90625 33 48.28125 26.59375 48.28125 
C 15.40625 48.28125 7.09375 43.046875 7.09375 35.921875 
C 7.09375 32.15625 9.40625 29.78125 12.90625 29.78125 
C 16 29.78125 18.296875 31.859375 18.296875 34.8125 
C 18.296875 36.109375 17.796875 37.484375 16.796875 38.875 
C 16.203125 39.546875 16.09375 39.84375 16.09375 40.15625 
C 16.09375 42.21875 20.203125 44 25 44 
C 28.09375 44 31.59375 43.015625 33.203125 41.53125 
C 35.09375 39.953125 35.796875 37.578125 35.796875 33.125 
L 35.796875 29.28125 
C 25.296875 27.484375 22.09375 26.6875 17.203125 24.8125 
C 8.59375 21.609375 4.40625 16.9375 4.40625 10.65625 
C 4.40625 3.578125 10.09375 -1 18.90625 -1 
C 25.796875 -1 32 1.859375 36.296875 7.0625 
C 37.90625 1.984375 40.40625 0 45.09375 0 
C 49.59375 0 54.296875 2.890625 54.296875 5.78125 
C 54.296875 6.46875 53.796875 6.96875 53.296875 6.96875 
C 52.90625 6.96875 52.5 6.875 51.796875 6.578125 
C 50.203125 6 49.796875 5.890625 49 5.890625 
C 46.203125 5.890625 45.203125 7.78125 45.203125 12.71875 
z
M 35.796875 20.46875 
C 35.796875 14.46875 35.5 13.078125 33.796875 10.484375 
C 31.296875 6.78125 26.703125 4.296875 22.40625 4.296875 
C 17.90625 4.296875 14.5 7.59375 14.5 12.078125 
C 14.5 16.265625 16.59375 19.265625 21 21.359375 
C 24.09375 22.75 28 23.75 35.796875 25.046875 
z
" id="Century_Schoolbook_L_Roman-97"/>
      <path d="M 20.09375 46 
L 2.796875 46 
L 2.796875 41.21875 
L 6.40625 41.21875 
C 10.09375 41.21875 10.703125 40.515625 10.703125 36.21875 
L 10.703125 -7.75 
L 10.703125 -11.71875 
C 10.703125 -15.71875 9.59375 -16.40625 3.203125 -16.40625 
L 2.796875 -16.40625 
L 2.796875 -20 
L 28.796875 -20 
L 28.796875 -16.40625 
L 27.703125 -16.40625 
C 21.203125 -16.40625 20.09375 -15.71875 20.09375 -11.734375 
L 20.09375 -7.75 
L 20.09375 6.6875 
C 23.40625 0.90625 27.203125 -1.390625 33.296875 -1.390625 
C 44.90625 -1.390625 53.5 9.265625 53.5 23.5 
C 53.5 37.265625 44.90625 48 33.90625 48 
C 27.703125 48 23.59375 45.4375 20.09375 39.515625 
z
M 32.09375 42.609375 
C 39 42.609375 43 35.75 43 24.09375 
C 43 11.265625 38.90625 4 31.796875 4 
C 24.703125 4 20 11.375 20 22.8125 
C 20 35.140625 24.5 42.609375 32.09375 42.609375 
" id="Century_Schoolbook_L_Roman-112"/>
      <path d="M 20 46 
L 2.703125 46 
L 2.703125 41.21875 
L 6.296875 41.21875 
C 10 41.21875 10.59375 40.515625 10.59375 36.203125 
L 10.59375 12.296875 
L 10.59375 8.296875 
C 10.59375 4.296875 9.5 3.59375 3.09375 3.59375 
L 2.703125 3.59375 
L 2.703125 0 
L 28 0 
L 28 3.59375 
L 27.59375 3.59375 
C 21.09375 3.59375 20 4.296875 20 8.28125 
L 20 12.28125 
L 20 22.65625 
C 20 27.546875 20.703125 32.03125 21.796875 34.328125 
C 23.90625 38.828125 28.40625 41.921875 32.703125 41.921875 
C 35.296875 41.921875 38.296875 40.421875 39.796875 38.421875 
C 41.296875 36.328125 42 33.234375 42 28.4375 
L 42 12.28125 
L 42 8.28125 
C 42 4.296875 40.90625 3.59375 34.40625 3.59375 
L 34 3.59375 
L 34 0 
L 59.296875 0 
L 59.296875 3.59375 
L 58.90625 3.59375 
C 52.5 3.59375 51.40625 4.296875 51.40625 8.28125 
L 51.40625 12.28125 
L 51.40625 27.953125 
C 51.40625 35.125 51.09375 36.921875 49.296875 40.328125 
C 46.796875 45.109375 41.703125 48 35.796875 48 
C 29.40625 48 24.40625 45.046875 20 38.515625 
z
" id="Century_Schoolbook_L_Roman-110"/>
      <path d="M 25.203125 48.28125 
C 13 48.28125 3.40625 37.453125 3.40625 23.546875 
C 3.40625 9.9375 13 -1 25 -1 
C 37 -1 46.59375 9.9375 46.59375 23.640625 
C 46.59375 37.25 37 48.28125 25.203125 48.28125 
M 25.203125 44 
C 32.203125 44 36.09375 36.75 36.09375 23.640625 
C 36.09375 10.453125 32.203125 3.296875 25 3.296875 
C 17.796875 3.296875 13.90625 10.453125 13.90625 23.546875 
C 13.90625 37.046875 17.703125 44 25.203125 44 
" id="Century_Schoolbook_L_Roman-111"/>
     </defs>
     <g transform="translate(418.594704307 62.870650466)scale(0.12 -0.12)">
      <use transform="scale(0.996264009963)" xlink:href="#Century_Schoolbook_L_Roman-73"/>
      <use transform="translate(40.5474253045 0.0)scale(0.996264009963)" xlink:href="#Century_Schoolbook_L_Roman-109"/>
      <use transform="translate(129.114331997 0.0)scale(0.996264009963)" xlink:href="#Century_Schoolbook_L_Roman-112"/>
      <use transform="translate(186.299819281 0.0)scale(0.996264009963)" xlink:href="#Century_Schoolbook_L_Roman-108"/>
      <use transform="translate(217.681132277 0.0)scale(0.996264009963)" xlink:href="#Century_Schoolbook_L_Roman-101"/>
      <use transform="translate(267.494332776 0.0)scale(0.996264009963)" xlink:href="#Century_Schoolbook_L_Roman-109"/>
      <use transform="translate(356.061239468 0.0)scale(0.996264009963)" xlink:href="#Century_Schoolbook_L_Roman-101"/>
      <use transform="translate(405.874439966 0.0)scale(0.996264009963)" xlink:href="#Century_Schoolbook_L_Roman-110"/>
      <use transform="translate(466.746070643 0.0)scale(0.996264009963)" xlink:href="#Century_Schoolbook_L_Roman-116"/>
      <use transform="translate(505.499776838 0.0)scale(0.996264009963)" xlink:href="#Century_Schoolbook_L_Roman-97"/>
      <use transform="translate(560.891453801 0.0)scale(0.996264009963)" xlink:href="#Century_Schoolbook_L_Roman-116"/>
      <use transform="translate(599.645159996 0.0)scale(0.996264009963)" xlink:href="#Century_Schoolbook_L_Roman-105"/>
      <use transform="translate(631.026472992 0.0)scale(0.996264009963)" xlink:href="#Century_Schoolbook_L_Roman-111"/>
      <use transform="translate(680.83967349 0.0)scale(0.996264009963)" xlink:href="#Century_Schoolbook_L_Roman-110"/>
     </g>
    </g>
    <g id="line2d_29">
     <path d="M 388.594704 75.812736 
L 405.394704 75.812736 
" style="fill:none;opacity:0.8;stroke:#0000ff;stroke-linecap:square;"/>
    </g>
    <g id="line2d_30"/>
    <g id="text_16">
     <!-- Mobility trace -->
     <defs>
      <path d="M 30 13.15625 
L 19 38.8125 
C 18.59375 39.703125 18.40625 40.40625 18.40625 40.90625 
C 18.40625 42.703125 19.59375 43.40625 23 43.40625 
L 25.09375 43.40625 
L 25.09375 47 
L 1.296875 47 
L 1.296875 43.40625 
L 2.40625 43.40625 
C 5.59375 43.40625 7.40625 42 9.203125 38.015625 
L 25.5 1.234375 
L 23.796875 -2.265625 
C 20.203125 -9.828125 15.5 -15.109375 12.296875 -15.109375 
C 11.40625 -15.109375 10.703125 -14.703125 10.703125 -14.109375 
C 10.703125 -13.90625 10.796875 -13.609375 10.90625 -13.203125 
C 11.203125 -12.3125 11.40625 -11.421875 11.40625 -10.625 
C 11.40625 -8.03125 9.203125 -6.140625 6.296875 -6.140625 
C 2.796875 -6.140625 0.296875 -8.734375 0.296875 -12.328125 
C 0.296875 -16.703125 4.203125 -20 9.40625 -20 
C 14.703125 -20 19.203125 -17.40625 23.203125 -12.03125 
C 26.296875 -7.84375 28.296875 -3.84375 32.703125 7.21875 
L 44.09375 35.328125 
C 46.59375 41.40625 48.703125 43.40625 52.5 43.40625 
L 53.09375 43.40625 
L 53.09375 47 
L 33.09375 47 
L 33.09375 43.40625 
L 34.703125 43.40625 
C 38.5 43.40625 40.09375 42.296875 40.09375 39.703125 
C 40.09375 38.703125 39.796875 37.40625 39.09375 35.71875 
z
" id="Century_Schoolbook_L_Roman-121"/>
      <path d="M 18 73 
L 0.796875 73 
L 0.796875 68.21875 
L 4.296875 68.21875 
C 8 68.21875 8.59375 67.515625 8.59375 63.25 
L 8.59375 24.625 
C 8.59375 11.3125 8.09375 4.84375 6.796875 -1 
L 10.59375 -1 
L 15.5 6.75 
C 19.59375 1.453125 24.296875 -1 30.5 -1 
C 42.796875 -1 52 9.59375 52 23.828125 
C 52 38.078125 43.59375 48.078125 31.59375 48.078125 
C 25.5 48.078125 21.796875 46 18 40.328125 
z
M 29.796875 43 
C 37.296875 43 41.5 35.765625 41.5 22.796875 
C 41.5 10.3125 37.40625 3.1875 30.09375 3.1875 
C 22.203125 3.1875 17.5 10.40625 17.5 22.59375 
C 17.5 35.765625 21.796875 43 29.796875 43 
" id="Century_Schoolbook_L_Roman-98"/>
      <path d="M 28.703125 72 
L 2.90625 72 
L 2.90625 67.3125 
L 4.796875 67.3125 
C 12.90625 67.3125 13.796875 66.8125 13.796875 62.59375 
L 13.796875 59.703125 
L 13.796875 21.390625 
C 13.796875 7.78125 11.796875 4.890625 2.203125 4.890625 
L 2.203125 0 
L 30.703125 0 
L 30.703125 4.890625 
C 21.203125 4.890625 19.203125 7.78125 19.203125 21.40625 
L 19.203125 65.625 
L 43 0 
L 47 0 
L 69.296875 65.625 
L 69.296875 12.453125 
L 69.296875 9.5625 
C 69.296875 5.296875 68.40625 4.890625 60.296875 4.890625 
L 58.5 4.890625 
L 58.5 0 
L 91.296875 0 
L 91.296875 4.890625 
L 89.5 4.890625 
C 81.40625 4.890625 80.5 5.296875 80.5 9.5625 
L 80.5 12.453125 
L 80.5 59.75 
L 80.5 62.625 
C 80.5 66.8125 81.40625 67.3125 89.5 67.3125 
L 91.296875 67.3125 
L 91.296875 72 
L 66.203125 72 
L 47.90625 18.84375 
z
" id="Century_Schoolbook_L_Roman-77"/>
      <path d="M 38.703125 15.125 
C 35.5 7.96875 32.09375 5.09375 26.90625 5.09375 
C 18.90625 5.09375 13.90625 12.328125 13.90625 23.9375 
C 13.90625 35.953125 18.796875 44 26.203125 44 
C 29.203125 44 31.796875 42.59375 31.796875 41.015625 
C 31.796875 40.71875 31.59375 40.421875 31.203125 39.8125 
C 29.59375 37.9375 29.203125 36.9375 29.203125 35.265625 
C 29.203125 31.984375 31.703125 29.703125 35.203125 29.703125 
C 38.703125 29.703125 41.296875 32.484375 41.296875 36.453125 
C 41.296875 43.109375 34.59375 48.28125 25.703125 48.28125 
C 12.703125 48.28125 3.40625 37.65625 3.40625 22.84375 
C 3.40625 8.734375 11.90625 -1 24.296875 -1 
C 33.203125 -1 38.296875 3.078125 42.59375 13.625 
z
" id="Century_Schoolbook_L_Roman-99"/>
     </defs>
     <g transform="translate(418.594704307 80.0127360533)scale(0.12 -0.12)">
      <use transform="scale(0.996264009963)" xlink:href="#Century_Schoolbook_L_Roman-77"/>
      <use transform="translate(94.0467691956 0.0)scale(0.996264009963)" xlink:href="#Century_Schoolbook_L_Roman-111"/>
      <use transform="translate(143.859969694 0.0)scale(0.996264009963)" xlink:href="#Century_Schoolbook_L_Roman-98"/>
      <use transform="translate(199.251646657 0.0)scale(0.996264009963)" xlink:href="#Century_Schoolbook_L_Roman-105"/>
      <use transform="translate(230.632959653 0.0)scale(0.996264009963)" xlink:href="#Century_Schoolbook_L_Roman-108"/>
      <use transform="translate(262.014272649 0.0)scale(0.996264009963)" xlink:href="#Century_Schoolbook_L_Roman-105"/>
      <use transform="translate(293.395585646 0.0)scale(0.996264009963)" xlink:href="#Century_Schoolbook_L_Roman-116"/>
      <use transform="translate(332.14929184 0.0)scale(0.996264009963)" xlink:href="#Century_Schoolbook_L_Roman-121"/>
      <use transform="translate(413.343805334 0.0)scale(0.996264009963)" xlink:href="#Century_Schoolbook_L_Roman-116"/>
      <use transform="translate(452.097511529 0.0)scale(0.996264009963)" xlink:href="#Century_Schoolbook_L_Roman-114"/>
      <use transform="translate(496.331080226 0.0)scale(0.996264009963)" xlink:href="#Century_Schoolbook_L_Roman-97"/>
      <use transform="translate(551.72275719 0.0)scale(0.996264009963)" xlink:href="#Century_Schoolbook_L_Roman-99"/>
      <use transform="translate(595.956325887 0.0)scale(0.996264009963)" xlink:href="#Century_Schoolbook_L_Roman-101"/>
     </g>
    </g>
   </g>
  </g>
 </g>
 <defs>
  <clipPath id="pab31a63503">
   <rect height="345.6" width="446.4" x="72.0" y="43.2"/>
  </clipPath>
 </defs>
</svg>
