<?xml version="1.0" encoding="utf-8" standalone="no"?>
<!DOCTYPE svg PUBLIC "-//W3C//DTD SVG 1.1//EN"
  "http://www.w3.org/Graphics/SVG/1.1/DTD/svg11.dtd">
<!-- Created with matplotlib (http://matplotlib.org/) -->
<svg height="841pt" version="1.1" viewBox="0 0 1669 841" width="1669pt" xmlns="http://www.w3.org/2000/svg" xmlns:xlink="http://www.w3.org/1999/xlink">
 <defs>
  <style type="text/css">
*{stroke-linecap:butt;stroke-linejoin:round;stroke-miterlimit:100000;}
  </style>
 </defs>
 <g id="figure_1">
  <g id="patch_1">
   <path d="M 0 841.5 
L 1669.5 841.5 
L 1669.5 0 
L 0 0 
z
" style="fill:#ffffff;"/>
  </g>
  <g id="axes_1">
   <g id="patch_2">
    <path d="M 208.6875 757.35 
L 1502.55 757.35 
L 1502.55 84.15 
L 208.6875 84.15 
z
" style="fill:#eaeaf2;"/>
   </g>
   <g id="matplotlib.axis_1">
    <g id="xtick_1">
     <g id="line2d_1">
      <path clip-path="url(#p1c9c734d98)" d="M 208.6875 757.35 
L 208.6875 84.15 
" style="fill:none;stroke:#ffffff;stroke-linecap:round;stroke-width:0.5;"/>
     </g>
     <g id="line2d_2">
      <defs>
       <path d="M 0 0 
L 0 0 
" id="mbbf095c498" style="stroke:#262626;stroke-width:0.5;"/>
      </defs>
      <g>
       <use style="fill:#262626;stroke:#262626;stroke-width:0.5;" x="208.6875" xlink:href="#mbbf095c498" y="757.35"/>
      </g>
     </g>
     <g id="line2d_3">
      <g>
       <use style="fill:#262626;stroke:#262626;stroke-width:0.5;" x="208.6875" xlink:href="#mbbf095c498" y="84.15"/>
      </g>
     </g>
     <g id="text_1">
      <!-- 0 -->
      <defs>
       <path d="M 51.703125 34.421875 
Q 51.703125 24.515625 49.828125 17.75 
Q 47.953125 10.984375 44.703125 6.8125 
Q 41.453125 2.640625 37.0625 0.828125 
Q 32.671875 -0.984375 27.6875 -0.984375 
Q 22.65625 -0.984375 18.3125 0.828125 
Q 13.96875 2.640625 10.765625 6.78125 
Q 7.5625 10.9375 5.734375 17.703125 
Q 3.90625 24.46875 3.90625 34.421875 
Q 3.90625 44.828125 5.734375 51.640625 
Q 7.5625 58.453125 10.78125 62.5 
Q 14.015625 66.546875 18.40625 68.1875 
Q 22.796875 69.828125 27.984375 69.828125 
Q 32.90625 69.828125 37.21875 68.1875 
Q 41.546875 66.546875 44.765625 62.5 
Q 48 58.453125 49.84375 51.640625 
Q 51.703125 44.828125 51.703125 34.421875 
M 42.78125 34.421875 
Q 42.78125 42.625 41.796875 48.0625 
Q 40.828125 53.515625 38.921875 56.765625 
Q 37.015625 60.015625 34.25 61.359375 
Q 31.5 62.703125 27.984375 62.703125 
Q 24.265625 62.703125 21.4375 61.328125 
Q 18.609375 59.96875 16.671875 56.71875 
Q 14.75 53.46875 13.765625 48.015625 
Q 12.796875 42.578125 12.796875 34.421875 
Q 12.796875 26.515625 13.796875 21.09375 
Q 14.796875 15.671875 16.71875 12.375 
Q 18.65625 9.078125 21.4375 7.640625 
Q 24.21875 6.203125 27.78125 6.203125 
Q 31.25 6.203125 34.03125 7.640625 
Q 36.8125 9.078125 38.734375 12.375 
Q 40.671875 15.671875 41.71875 21.09375 
Q 42.78125 26.515625 42.78125 34.421875 
" id="LiberationSans-30"/>
      </defs>
      <g style="fill:#262626;" transform="translate(205.3509375 770.04625)scale(0.12 -0.12)">
       <use xlink:href="#LiberationSans-30"/>
      </g>
     </g>
    </g>
    <g id="xtick_2">
     <g id="line2d_4">
      <path clip-path="url(#p1c9c734d98)" d="M 532.153125 757.35 
L 532.153125 84.15 
" style="fill:none;stroke:#ffffff;stroke-linecap:round;stroke-width:0.5;"/>
     </g>
     <g id="line2d_5">
      <g>
       <use style="fill:#262626;stroke:#262626;stroke-width:0.5;" x="532.153125" xlink:href="#mbbf095c498" y="757.35"/>
      </g>
     </g>
     <g id="line2d_6">
      <g>
       <use style="fill:#262626;stroke:#262626;stroke-width:0.5;" x="532.153125" xlink:href="#mbbf095c498" y="84.15"/>
      </g>
     </g>
     <g id="text_2">
      <!-- 500 -->
      <defs>
       <path d="M 51.421875 22.40625 
Q 51.421875 17.234375 49.859375 12.9375 
Q 48.296875 8.640625 45.21875 5.53125 
Q 42.140625 2.4375 37.578125 0.71875 
Q 33.015625 -0.984375 27 -0.984375 
Q 21.578125 -0.984375 17.546875 0.28125 
Q 13.53125 1.5625 10.734375 3.78125 
Q 7.953125 6 6.3125 8.984375 
Q 4.6875 11.96875 4 15.375 
L 12.890625 16.40625 
Q 13.421875 14.453125 14.390625 12.625 
Q 15.375 10.796875 17.0625 9.34375 
Q 18.75 7.90625 21.21875 7.046875 
Q 23.6875 6.203125 27.203125 6.203125 
Q 30.609375 6.203125 33.390625 7.25 
Q 36.1875 8.296875 38.15625 10.34375 
Q 40.140625 12.40625 41.203125 15.375 
Q 42.28125 18.359375 42.28125 22.21875 
Q 42.28125 25.390625 41.25 28.046875 
Q 40.234375 30.71875 38.328125 32.640625 
Q 36.421875 34.578125 33.65625 35.640625 
Q 30.90625 36.71875 27.390625 36.71875 
Q 25.203125 36.71875 23.34375 36.328125 
Q 21.484375 35.9375 19.890625 35.25 
Q 18.3125 34.578125 17.015625 33.671875 
Q 15.71875 32.765625 14.59375 31.78125 
L 6 31.78125 
L 8.296875 68.796875 
L 47.40625 68.796875 
L 47.40625 61.328125 
L 16.3125 61.328125 
L 14.984375 39.5 
Q 17.328125 41.3125 20.84375 42.59375 
Q 24.359375 43.890625 29.203125 43.890625 
Q 34.328125 43.890625 38.421875 42.328125 
Q 42.53125 40.765625 45.40625 37.90625 
Q 48.296875 35.0625 49.859375 31.109375 
Q 51.421875 27.15625 51.421875 22.40625 
" id="LiberationSans-35"/>
      </defs>
      <g style="fill:#262626;" transform="translate(522.1434375 770.04625)scale(0.12 -0.12)">
       <use xlink:href="#LiberationSans-35"/>
       <use x="55.615234375" xlink:href="#LiberationSans-30"/>
       <use x="111.23046875" xlink:href="#LiberationSans-30"/>
      </g>
     </g>
    </g>
    <g id="xtick_3">
     <g id="line2d_7">
      <path clip-path="url(#p1c9c734d98)" d="M 855.61875 757.35 
L 855.61875 84.15 
" style="fill:none;stroke:#ffffff;stroke-linecap:round;stroke-width:0.5;"/>
     </g>
     <g id="line2d_8">
      <g>
       <use style="fill:#262626;stroke:#262626;stroke-width:0.5;" x="855.61875" xlink:href="#mbbf095c498" y="757.35"/>
      </g>
     </g>
     <g id="line2d_9">
      <g>
       <use style="fill:#262626;stroke:#262626;stroke-width:0.5;" x="855.61875" xlink:href="#mbbf095c498" y="84.15"/>
      </g>
     </g>
     <g id="text_3">
      <!-- 1000 -->
      <defs>
       <path d="M 7.625 0 
L 7.625 7.46875 
L 25.140625 7.46875 
L 25.140625 60.40625 
L 9.625 49.3125 
L 9.625 57.625 
L 25.875 68.796875 
L 33.984375 68.796875 
L 33.984375 7.46875 
L 50.734375 7.46875 
L 50.734375 0 
z
" id="LiberationSans-31"/>
      </defs>
      <g style="fill:#262626;" transform="translate(842.2725 770.04625)scale(0.12 -0.12)">
       <use xlink:href="#LiberationSans-31"/>
       <use x="55.615234375" xlink:href="#LiberationSans-30"/>
       <use x="111.23046875" xlink:href="#LiberationSans-30"/>
       <use x="166.845703125" xlink:href="#LiberationSans-30"/>
      </g>
     </g>
    </g>
    <g id="xtick_4">
     <g id="line2d_10">
      <path clip-path="url(#p1c9c734d98)" d="M 1179.084375 757.35 
L 1179.084375 84.15 
" style="fill:none;stroke:#ffffff;stroke-linecap:round;stroke-width:0.5;"/>
     </g>
     <g id="line2d_11">
      <g>
       <use style="fill:#262626;stroke:#262626;stroke-width:0.5;" x="1179.084375" xlink:href="#mbbf095c498" y="757.35"/>
      </g>
     </g>
     <g id="line2d_12">
      <g>
       <use style="fill:#262626;stroke:#262626;stroke-width:0.5;" x="1179.084375" xlink:href="#mbbf095c498" y="84.15"/>
      </g>
     </g>
     <g id="text_4">
      <!-- 1500 -->
      <g style="fill:#262626;" transform="translate(1165.738125 770.04625)scale(0.12 -0.12)">
       <use xlink:href="#LiberationSans-31"/>
       <use x="55.615234375" xlink:href="#LiberationSans-35"/>
       <use x="111.23046875" xlink:href="#LiberationSans-30"/>
       <use x="166.845703125" xlink:href="#LiberationSans-30"/>
      </g>
     </g>
    </g>
    <g id="xtick_5">
     <g id="line2d_13">
      <path clip-path="url(#p1c9c734d98)" d="M 1502.55 757.35 
L 1502.55 84.15 
" style="fill:none;stroke:#ffffff;stroke-linecap:round;stroke-width:0.5;"/>
     </g>
     <g id="line2d_14">
      <g>
       <use style="fill:#262626;stroke:#262626;stroke-width:0.5;" x="1502.55" xlink:href="#mbbf095c498" y="757.35"/>
      </g>
     </g>
     <g id="line2d_15">
      <g>
       <use style="fill:#262626;stroke:#262626;stroke-width:0.5;" x="1502.55" xlink:href="#mbbf095c498" y="84.15"/>
      </g>
     </g>
     <g id="text_5">
      <!-- 2000 -->
      <defs>
       <path d="M 5.03125 0 
L 5.03125 6.203125 
Q 7.515625 11.921875 11.109375 16.28125 
Q 14.703125 20.65625 18.65625 24.1875 
Q 22.609375 27.734375 26.484375 30.765625 
Q 30.375 33.796875 33.5 36.8125 
Q 36.625 39.84375 38.546875 43.15625 
Q 40.484375 46.484375 40.484375 50.6875 
Q 40.484375 53.609375 39.59375 55.828125 
Q 38.71875 58.0625 37.0625 59.5625 
Q 35.40625 61.078125 33.078125 61.828125 
Q 30.765625 62.59375 27.9375 62.59375 
Q 25.296875 62.59375 22.96875 61.859375 
Q 20.65625 61.140625 18.84375 59.671875 
Q 17.046875 58.203125 15.890625 56.03125 
Q 14.75 53.859375 14.40625 50.984375 
L 5.421875 51.8125 
Q 5.859375 55.515625 7.46875 58.78125 
Q 9.078125 62.0625 11.90625 64.53125 
Q 14.75 67 18.71875 68.40625 
Q 22.703125 69.828125 27.9375 69.828125 
Q 33.0625 69.828125 37.0625 68.609375 
Q 41.0625 67.390625 43.8125 64.984375 
Q 46.578125 62.59375 48.046875 59.078125 
Q 49.515625 55.5625 49.515625 50.984375 
Q 49.515625 47.515625 48.265625 44.390625 
Q 47.015625 41.265625 44.9375 38.421875 
Q 42.875 35.59375 40.140625 32.953125 
Q 37.40625 30.328125 34.421875 27.8125 
Q 31.453125 25.296875 28.421875 22.828125 
Q 25.390625 20.359375 22.71875 17.859375 
Q 20.0625 15.375 17.96875 12.8125 
Q 15.875 10.25 14.703125 7.46875 
L 50.59375 7.46875 
L 50.59375 0 
z
" id="LiberationSans-32"/>
      </defs>
      <g style="fill:#262626;" transform="translate(1489.20375 770.04625)scale(0.12 -0.12)">
       <use xlink:href="#LiberationSans-32"/>
       <use x="55.615234375" xlink:href="#LiberationSans-30"/>
       <use x="111.23046875" xlink:href="#LiberationSans-30"/>
       <use x="166.845703125" xlink:href="#LiberationSans-30"/>
      </g>
     </g>
    </g>
    <g id="text_6">
     <!-- Time (s) -->
     <defs>
      <path d="M 46.390625 14.59375 
Q 46.390625 10.890625 44.9375 7.984375 
Q 43.5 5.078125 40.765625 3.09375 
Q 38.03125 1.125 34.046875 0.0625 
Q 30.078125 -0.984375 24.953125 -0.984375 
Q 20.359375 -0.984375 16.671875 -0.265625 
Q 12.984375 0.4375 10.203125 2 
Q 7.421875 3.5625 5.53125 6.125 
Q 3.65625 8.6875 2.78125 12.40625 
L 10.546875 13.921875 
Q 11.671875 9.671875 15.1875 7.6875 
Q 18.703125 5.71875 24.953125 5.71875 
Q 27.78125 5.71875 30.140625 6.109375 
Q 32.515625 6.5 34.21875 7.453125 
Q 35.9375 8.40625 36.890625 9.984375 
Q 37.84375 11.578125 37.84375 13.921875 
Q 37.84375 16.3125 36.71875 17.84375 
Q 35.59375 19.390625 33.59375 20.40625 
Q 31.59375 21.4375 28.734375 22.1875 
Q 25.875 22.953125 22.46875 23.875 
Q 19.28125 24.703125 16.15625 25.734375 
Q 13.03125 26.765625 10.515625 28.4375 
Q 8.015625 30.125 6.453125 32.609375 
Q 4.890625 35.109375 4.890625 38.875 
Q 4.890625 46.09375 10.03125 49.875 
Q 15.1875 53.65625 25.046875 53.65625 
Q 33.796875 53.65625 38.9375 50.578125 
Q 44.09375 47.515625 45.453125 40.71875 
L 37.546875 39.75 
Q 37.109375 41.796875 35.9375 43.1875 
Q 34.765625 44.578125 33.109375 45.4375 
Q 31.453125 46.296875 29.375 46.65625 
Q 27.296875 47.015625 25.046875 47.015625 
Q 19.09375 47.015625 16.25 45.203125 
Q 13.421875 43.40625 13.421875 39.75 
Q 13.421875 37.59375 14.46875 36.203125 
Q 15.53125 34.8125 17.40625 33.859375 
Q 19.28125 32.90625 21.921875 32.203125 
Q 24.5625 31.5 27.734375 30.71875 
Q 29.828125 30.171875 32.03125 29.5625 
Q 34.234375 28.953125 36.296875 28.09375 
Q 38.375 27.25 40.203125 26.09375 
Q 42.046875 24.953125 43.40625 23.34375 
Q 44.78125 21.734375 45.578125 19.578125 
Q 46.390625 17.4375 46.390625 14.59375 
" id="LiberationSans-73"/>
      <path d="M 6.203125 25.984375 
Q 6.203125 32.765625 7.21875 38.96875 
Q 8.25 45.171875 10.4375 50.875 
Q 12.640625 56.59375 16.0625 61.953125 
Q 19.484375 67.328125 24.21875 72.46875 
L 32.71875 72.46875 
Q 28.125 67.328125 24.78125 61.9375 
Q 21.4375 56.546875 19.28125 50.796875 
Q 17.140625 45.0625 16.09375 38.859375 
Q 15.046875 32.671875 15.046875 25.875 
Q 15.046875 19.09375 16.09375 12.890625 
Q 17.140625 6.6875 19.28125 0.921875 
Q 21.4375 -4.828125 24.78125 -10.203125 
Q 28.125 -15.578125 32.71875 -20.703125 
L 24.21875 -20.703125 
Q 19.484375 -15.578125 16.0625 -10.203125 
Q 12.640625 -4.828125 10.4375 0.875 
Q 8.25 6.59375 7.21875 12.765625 
Q 6.203125 18.953125 6.203125 25.78125 
z
" id="LiberationSans-28"/>
      <path d="M 13.484375 24.5625 
Q 13.484375 20.40625 14.328125 16.90625 
Q 15.1875 13.421875 16.96875 10.90625 
Q 18.75 8.40625 21.53125 7 
Q 24.3125 5.609375 28.21875 5.609375 
Q 33.9375 5.609375 37.375 7.90625 
Q 40.828125 10.203125 42.046875 13.71875 
L 49.75 11.53125 
Q 48.921875 9.328125 47.4375 7.109375 
Q 45.953125 4.890625 43.453125 3.09375 
Q 40.96875 1.3125 37.234375 0.15625 
Q 33.5 -0.984375 28.21875 -0.984375 
Q 16.5 -0.984375 10.375 6 
Q 4.25 12.984375 4.25 26.765625 
Q 4.25 34.1875 6.09375 39.328125 
Q 7.953125 44.484375 11.171875 47.703125 
Q 14.40625 50.921875 18.703125 52.359375 
Q 23 53.8125 27.875 53.8125 
Q 34.515625 53.8125 38.984375 51.65625 
Q 43.453125 49.515625 46.15625 45.71875 
Q 48.875 41.9375 50.015625 36.8125 
Q 51.171875 31.6875 51.171875 25.734375 
L 51.171875 24.5625 
z
M 42.09375 31.296875 
Q 41.359375 39.65625 37.84375 43.484375 
Q 34.328125 47.3125 27.734375 47.3125 
Q 25.53125 47.3125 23.109375 46.609375 
Q 20.703125 45.90625 18.65625 44.09375 
Q 16.609375 42.28125 15.1875 39.171875 
Q 13.765625 36.078125 13.578125 31.296875 
z
" id="LiberationSans-65"/>
      <path d="M 6.6875 64.0625 
L 6.6875 72.46875 
L 15.484375 72.46875 
L 15.484375 64.0625 
z
M 6.6875 0 
L 6.6875 52.828125 
L 15.484375 52.828125 
L 15.484375 0 
z
" id="LiberationSans-69"/>
      <path d="M 37.5 0 
L 37.5 33.5 
Q 37.5 37.359375 37.015625 39.9375 
Q 36.53125 42.53125 35.375 44.109375 
Q 34.234375 45.703125 32.375 46.359375 
Q 30.515625 47.015625 27.828125 47.015625 
Q 25.046875 47.015625 22.796875 45.921875 
Q 20.5625 44.828125 18.96875 42.75 
Q 17.390625 40.671875 16.53125 37.625 
Q 15.671875 34.578125 15.671875 30.609375 
L 15.671875 0 
L 6.9375 0 
L 6.9375 41.546875 
Q 6.9375 43.21875 6.90625 45.046875 
Q 6.890625 46.875 6.828125 48.5 
Q 6.78125 50.140625 6.734375 51.3125 
Q 6.6875 52.484375 6.640625 52.828125 
L 14.9375 52.828125 
Q 14.984375 52.59375 15.03125 51.515625 
Q 15.09375 50.4375 15.15625 49.046875 
Q 15.234375 47.65625 15.28125 46.21875 
Q 15.328125 44.78125 15.328125 43.796875 
L 15.484375 43.796875 
Q 16.65625 46.09375 18.015625 47.953125 
Q 19.390625 49.8125 21.21875 51.09375 
Q 23.046875 52.390625 25.40625 53.09375 
Q 27.78125 53.8125 30.90625 53.8125 
Q 36.921875 53.8125 40.40625 51.421875 
Q 43.890625 49.03125 45.265625 43.796875 
L 45.40625 43.796875 
Q 46.578125 46.09375 48.046875 47.953125 
Q 49.515625 49.8125 51.46875 51.09375 
Q 53.421875 52.390625 55.859375 53.09375 
Q 58.296875 53.8125 61.421875 53.8125 
Q 65.4375 53.8125 68.328125 52.734375 
Q 71.234375 51.65625 73.09375 49.40625 
Q 74.953125 47.171875 75.828125 43.625 
Q 76.703125 40.09375 76.703125 35.203125 
L 76.703125 0 
L 68.015625 0 
L 68.015625 33.5 
Q 68.015625 37.359375 67.53125 39.9375 
Q 67.046875 42.53125 65.890625 44.109375 
Q 64.75 45.703125 62.890625 46.359375 
Q 61.03125 47.015625 58.34375 47.015625 
Q 55.5625 47.015625 53.3125 45.96875 
Q 51.078125 44.921875 49.484375 42.875 
Q 47.90625 40.828125 47.046875 37.75 
Q 46.1875 34.671875 46.1875 30.609375 
L 46.1875 0 
z
" id="LiberationSans-6d"/>
      <path d="M 27.09375 25.78125 
Q 27.09375 18.953125 26.0625 12.765625 
Q 25.046875 6.59375 22.84375 0.875 
Q 20.65625 -4.828125 17.234375 -10.203125 
Q 13.8125 -15.578125 9.078125 -20.703125 
L 0.59375 -20.703125 
Q 5.171875 -15.578125 8.515625 -10.203125 
Q 11.859375 -4.828125 14 0.921875 
Q 16.15625 6.6875 17.203125 12.890625 
Q 18.265625 19.09375 18.265625 25.875 
Q 18.265625 32.671875 17.203125 38.859375 
Q 16.15625 45.0625 14 50.796875 
Q 11.859375 56.546875 8.515625 61.9375 
Q 5.171875 67.328125 0.59375 72.46875 
L 9.078125 72.46875 
Q 13.8125 67.328125 17.234375 61.953125 
Q 20.65625 56.59375 22.84375 50.875 
Q 25.046875 45.171875 26.0625 38.96875 
Q 27.09375 32.765625 27.09375 25.984375 
z
" id="LiberationSans-29"/>
      <path id="LiberationSans-20"/>
      <path d="M 35.15625 61.1875 
L 35.15625 0 
L 25.875 0 
L 25.875 61.1875 
L 2.25 61.1875 
L 2.25 68.796875 
L 58.796875 68.796875 
L 58.796875 61.1875 
z
" id="LiberationSans-54"/>
     </defs>
     <g style="fill:#262626;" transform="translate(833.626875 786.2325)scale(0.12 -0.12)">
      <use xlink:href="#LiberationSans-54"/>
      <use x="61.037109375" xlink:href="#LiberationSans-69"/>
      <use x="83.25390625" xlink:href="#LiberationSans-6d"/>
      <use x="166.5546875" xlink:href="#LiberationSans-65"/>
      <use x="222.169921875" xlink:href="#LiberationSans-20"/>
      <use x="249.953125" xlink:href="#LiberationSans-28"/>
      <use x="283.25390625" xlink:href="#LiberationSans-73"/>
      <use x="333.25390625" xlink:href="#LiberationSans-29"/>
     </g>
    </g>
   </g>
   <g id="matplotlib.axis_2">
    <g id="ytick_1">
     <g id="line2d_16">
      <path clip-path="url(#p1c9c734d98)" d="M 208.6875 757.35 
L 1502.55 757.35 
" style="fill:none;stroke:#ffffff;stroke-linecap:round;stroke-width:0.5;"/>
     </g>
     <g id="line2d_17">
      <g>
       <use style="fill:#262626;stroke:#262626;stroke-width:0.5;" x="208.6875" xlink:href="#mbbf095c498" y="757.35"/>
      </g>
     </g>
     <g id="line2d_18">
      <g>
       <use style="fill:#262626;stroke:#262626;stroke-width:0.5;" x="1502.55" xlink:href="#mbbf095c498" y="757.35"/>
      </g>
     </g>
     <g id="text_7">
      <!-- 0 -->
      <g style="fill:#262626;" transform="translate(198.014375 760.453125)scale(0.12 -0.12)">
       <use xlink:href="#LiberationSans-30"/>
      </g>
     </g>
    </g>
    <g id="ytick_2">
     <g id="line2d_19">
      <path clip-path="url(#p1c9c734d98)" d="M 208.6875 645.15 
L 1502.55 645.15 
" style="fill:none;stroke:#ffffff;stroke-linecap:round;stroke-width:0.5;"/>
     </g>
     <g id="line2d_20">
      <g>
       <use style="fill:#262626;stroke:#262626;stroke-width:0.5;" x="208.6875" xlink:href="#mbbf095c498" y="645.15"/>
      </g>
     </g>
     <g id="line2d_21">
      <g>
       <use style="fill:#262626;stroke:#262626;stroke-width:0.5;" x="1502.55" xlink:href="#mbbf095c498" y="645.15"/>
      </g>
     </g>
     <g id="text_8">
      <!-- 5 -->
      <g style="fill:#262626;" transform="translate(198.014375 648.253125)scale(0.12 -0.12)">
       <use xlink:href="#LiberationSans-35"/>
      </g>
     </g>
    </g>
    <g id="ytick_3">
     <g id="line2d_22">
      <path clip-path="url(#p1c9c734d98)" d="M 208.6875 532.95 
L 1502.55 532.95 
" style="fill:none;stroke:#ffffff;stroke-linecap:round;stroke-width:0.5;"/>
     </g>
     <g id="line2d_23">
      <g>
       <use style="fill:#262626;stroke:#262626;stroke-width:0.5;" x="208.6875" xlink:href="#mbbf095c498" y="532.95"/>
      </g>
     </g>
     <g id="line2d_24">
      <g>
       <use style="fill:#262626;stroke:#262626;stroke-width:0.5;" x="1502.55" xlink:href="#mbbf095c498" y="532.95"/>
      </g>
     </g>
     <g id="text_9">
      <!-- 10 -->
      <g style="fill:#262626;" transform="translate(191.34125 536.053125)scale(0.12 -0.12)">
       <use xlink:href="#LiberationSans-31"/>
       <use x="55.615234375" xlink:href="#LiberationSans-30"/>
      </g>
     </g>
    </g>
    <g id="ytick_4">
     <g id="line2d_25">
      <path clip-path="url(#p1c9c734d98)" d="M 208.6875 420.75 
L 1502.55 420.75 
" style="fill:none;stroke:#ffffff;stroke-linecap:round;stroke-width:0.5;"/>
     </g>
     <g id="line2d_26">
      <g>
       <use style="fill:#262626;stroke:#262626;stroke-width:0.5;" x="208.6875" xlink:href="#mbbf095c498" y="420.75"/>
      </g>
     </g>
     <g id="line2d_27">
      <g>
       <use style="fill:#262626;stroke:#262626;stroke-width:0.5;" x="1502.55" xlink:href="#mbbf095c498" y="420.75"/>
      </g>
     </g>
     <g id="text_10">
      <!-- 15 -->
      <g style="fill:#262626;" transform="translate(191.34125 423.853125)scale(0.12 -0.12)">
       <use xlink:href="#LiberationSans-31"/>
       <use x="55.615234375" xlink:href="#LiberationSans-35"/>
      </g>
     </g>
    </g>
    <g id="ytick_5">
     <g id="line2d_28">
      <path clip-path="url(#p1c9c734d98)" d="M 208.6875 308.55 
L 1502.55 308.55 
" style="fill:none;stroke:#ffffff;stroke-linecap:round;stroke-width:0.5;"/>
     </g>
     <g id="line2d_29">
      <g>
       <use style="fill:#262626;stroke:#262626;stroke-width:0.5;" x="208.6875" xlink:href="#mbbf095c498" y="308.55"/>
      </g>
     </g>
     <g id="line2d_30">
      <g>
       <use style="fill:#262626;stroke:#262626;stroke-width:0.5;" x="1502.55" xlink:href="#mbbf095c498" y="308.55"/>
      </g>
     </g>
     <g id="text_11">
      <!-- 20 -->
      <g style="fill:#262626;" transform="translate(191.34125 311.653125)scale(0.12 -0.12)">
       <use xlink:href="#LiberationSans-32"/>
       <use x="55.615234375" xlink:href="#LiberationSans-30"/>
      </g>
     </g>
    </g>
    <g id="ytick_6">
     <g id="line2d_31">
      <path clip-path="url(#p1c9c734d98)" d="M 208.6875 196.35 
L 1502.55 196.35 
" style="fill:none;stroke:#ffffff;stroke-linecap:round;stroke-width:0.5;"/>
     </g>
     <g id="line2d_32">
      <g>
       <use style="fill:#262626;stroke:#262626;stroke-width:0.5;" x="208.6875" xlink:href="#mbbf095c498" y="196.35"/>
      </g>
     </g>
     <g id="line2d_33">
      <g>
       <use style="fill:#262626;stroke:#262626;stroke-width:0.5;" x="1502.55" xlink:href="#mbbf095c498" y="196.35"/>
      </g>
     </g>
     <g id="text_12">
      <!-- 25 -->
      <g style="fill:#262626;" transform="translate(191.34125 199.453125)scale(0.12 -0.12)">
       <use xlink:href="#LiberationSans-32"/>
       <use x="55.615234375" xlink:href="#LiberationSans-35"/>
      </g>
     </g>
    </g>
    <g id="ytick_7">
     <g id="line2d_34">
      <path clip-path="url(#p1c9c734d98)" d="M 208.6875 84.15 
L 1502.55 84.15 
" style="fill:none;stroke:#ffffff;stroke-linecap:round;stroke-width:0.5;"/>
     </g>
     <g id="line2d_35">
      <g>
       <use style="fill:#262626;stroke:#262626;stroke-width:0.5;" x="208.6875" xlink:href="#mbbf095c498" y="84.15"/>
      </g>
     </g>
     <g id="line2d_36">
      <g>
       <use style="fill:#262626;stroke:#262626;stroke-width:0.5;" x="1502.55" xlink:href="#mbbf095c498" y="84.15"/>
      </g>
     </g>
     <g id="text_13">
      <!-- 30 -->
      <defs>
       <path d="M 51.21875 19 
Q 51.21875 14.265625 49.671875 10.546875 
Q 48.140625 6.84375 45.1875 4.265625 
Q 42.234375 1.703125 37.859375 0.359375 
Q 33.5 -0.984375 27.875 -0.984375 
Q 21.484375 -0.984375 17.109375 0.609375 
Q 12.75 2.203125 9.90625 4.8125 
Q 7.078125 7.421875 5.65625 10.765625 
Q 4.25 14.109375 3.8125 17.671875 
L 12.890625 18.5 
Q 13.28125 15.765625 14.328125 13.515625 
Q 15.375 11.28125 17.1875 9.671875 
Q 19 8.0625 21.625 7.171875 
Q 24.265625 6.296875 27.875 6.296875 
Q 34.515625 6.296875 38.296875 9.5625 
Q 42.09375 12.84375 42.09375 19.28125 
Q 42.09375 23.09375 40.40625 25.40625 
Q 38.71875 27.734375 36.203125 29.03125 
Q 33.6875 30.328125 30.734375 30.765625 
Q 27.78125 31.203125 25.296875 31.203125 
L 20.3125 31.203125 
L 20.3125 38.8125 
L 25.09375 38.8125 
Q 27.59375 38.8125 30.265625 39.328125 
Q 32.953125 39.84375 35.171875 41.1875 
Q 37.40625 42.53125 38.84375 44.828125 
Q 40.28125 47.125 40.28125 50.6875 
Q 40.28125 56.203125 37.03125 59.390625 
Q 33.796875 62.59375 27.390625 62.59375 
Q 21.578125 62.59375 17.984375 59.609375 
Q 14.40625 56.640625 13.8125 51.21875 
L 4.984375 51.90625 
Q 5.515625 56.453125 7.46875 59.8125 
Q 9.421875 63.1875 12.421875 65.40625 
Q 15.4375 67.625 19.28125 68.71875 
Q 23.140625 69.828125 27.484375 69.828125 
Q 33.25 69.828125 37.390625 68.375 
Q 41.546875 66.9375 44.1875 64.46875 
Q 46.828125 62.015625 48.0625 58.6875 
Q 49.3125 55.375 49.3125 51.609375 
Q 49.3125 48.578125 48.484375 45.9375 
Q 47.65625 43.3125 45.890625 41.203125 
Q 44.140625 39.109375 41.421875 37.59375 
Q 38.71875 36.078125 34.90625 35.296875 
L 34.90625 35.109375 
Q 39.0625 34.671875 42.140625 33.21875 
Q 45.21875 31.78125 47.21875 29.625 
Q 49.21875 27.484375 50.21875 24.75 
Q 51.21875 22.015625 51.21875 19 
" id="LiberationSans-33"/>
      </defs>
      <g style="fill:#262626;" transform="translate(191.34125 87.253125)scale(0.12 -0.12)">
       <use xlink:href="#LiberationSans-33"/>
       <use x="55.615234375" xlink:href="#LiberationSans-30"/>
      </g>
     </g>
    </g>
    <g id="text_14">
     <!-- Number of cars -->
     <defs>
      <path d="M 6.9375 0 
L 6.9375 40.53125 
Q 6.9375 42.1875 6.90625 43.921875 
Q 6.890625 45.65625 6.828125 47.265625 
Q 6.78125 48.875 6.734375 50.28125 
Q 6.6875 51.703125 6.640625 52.828125 
L 14.9375 52.828125 
Q 14.984375 51.703125 15.0625 50.265625 
Q 15.140625 48.828125 15.203125 47.3125 
Q 15.28125 45.796875 15.296875 44.40625 
Q 15.328125 43.015625 15.328125 42.046875 
L 15.53125 42.046875 
Q 16.453125 45.0625 17.5 47.28125 
Q 18.5625 49.515625 19.96875 50.953125 
Q 21.390625 52.390625 23.34375 53.09375 
Q 25.296875 53.8125 28.078125 53.8125 
Q 29.15625 53.8125 30.125 53.640625 
Q 31.109375 53.46875 31.640625 53.328125 
L 31.640625 45.265625 
Q 30.765625 45.515625 29.59375 45.625 
Q 28.421875 45.75 26.953125 45.75 
Q 23.921875 45.75 21.796875 44.375 
Q 19.671875 43.015625 18.328125 40.59375 
Q 17 38.1875 16.359375 34.84375 
Q 15.71875 31.5 15.71875 27.546875 
L 15.71875 0 
z
" id="LiberationSans-72"/>
      <path d="M 17.625 46.4375 
L 17.625 0 
L 8.84375 0 
L 8.84375 46.4375 
L 1.421875 46.4375 
L 1.421875 52.828125 
L 8.84375 52.828125 
L 8.84375 58.796875 
Q 8.84375 61.671875 9.375 64.140625 
Q 9.90625 66.609375 11.34375 68.4375 
Q 12.796875 70.265625 15.28125 71.3125 
Q 17.78125 72.359375 21.734375 72.359375 
Q 23.296875 72.359375 24.96875 72.21875 
Q 26.65625 72.078125 27.9375 71.78125 
L 27.9375 65.09375 
Q 27.09375 65.234375 26 65.359375 
Q 24.90625 65.484375 24.03125 65.484375 
Q 22.078125 65.484375 20.828125 64.9375 
Q 19.578125 64.40625 18.875 63.40625 
Q 18.171875 62.40625 17.890625 60.9375 
Q 17.625 59.46875 17.625 57.5625 
L 17.625 52.828125 
L 27.9375 52.828125 
L 27.9375 46.4375 
z
" id="LiberationSans-66"/>
      <path d="M 15.328125 52.828125 
L 15.328125 19.34375 
Q 15.328125 15.484375 15.890625 12.890625 
Q 16.453125 10.296875 17.71875 8.703125 
Q 19 7.125 21.0625 6.46875 
Q 23.140625 5.8125 26.21875 5.8125 
Q 29.34375 5.8125 31.859375 6.90625 
Q 34.375 8.015625 36.15625 10.078125 
Q 37.9375 12.15625 38.90625 15.203125 
Q 39.890625 18.265625 39.890625 22.21875 
L 39.890625 52.828125 
L 48.6875 52.828125 
L 48.6875 11.28125 
Q 48.6875 9.625 48.703125 7.78125 
Q 48.734375 5.953125 48.78125 4.3125 
Q 48.828125 2.6875 48.875 1.515625 
Q 48.921875 0.34375 48.96875 0 
L 40.671875 0 
Q 40.625 0.25 40.578125 1.3125 
Q 40.53125 2.390625 40.453125 3.78125 
Q 40.375 5.171875 40.328125 6.609375 
Q 40.28125 8.0625 40.28125 9.03125 
L 40.140625 9.03125 
Q 38.875 6.734375 37.359375 4.875 
Q 35.84375 3.03125 33.84375 1.734375 
Q 31.84375 0.4375 29.25 -0.265625 
Q 26.65625 -0.984375 23.25 -0.984375 
Q 18.84375 -0.984375 15.671875 0.09375 
Q 12.5 1.171875 10.453125 3.421875 
Q 8.40625 5.671875 7.453125 9.1875 
Q 6.5 12.703125 6.5 17.625 
L 6.5 52.828125 
z
" id="LiberationSans-75"/>
      <path d="M 51.421875 26.65625 
Q 51.421875 -0.984375 31.984375 -0.984375 
Q 25.984375 -0.984375 22 1.1875 
Q 18.015625 3.375 15.53125 8.203125 
L 15.4375 8.203125 
Q 15.4375 6.9375 15.359375 5.5625 
Q 15.28125 4.203125 15.203125 3.03125 
Q 15.140625 1.859375 15.0625 1.03125 
Q 14.984375 0.203125 14.9375 0 
L 6.453125 0 
Q 6.5 0.4375 6.546875 1.484375 
Q 6.59375 2.546875 6.640625 4 
Q 6.6875 5.46875 6.703125 7.21875 
Q 6.734375 8.984375 6.734375 10.890625 
L 6.734375 72.46875 
L 15.53125 72.46875 
L 15.53125 51.8125 
Q 15.53125 50.34375 15.5 49 
Q 15.484375 47.65625 15.4375 46.625 
Q 15.375 45.40625 15.328125 44.34375 
L 15.53125 44.34375 
Q 17.96875 49.421875 22 51.609375 
Q 26.03125 53.8125 31.984375 53.8125 
Q 42 53.8125 46.703125 47.0625 
Q 51.421875 40.328125 51.421875 26.65625 
M 42.1875 26.375 
Q 42.1875 31.84375 41.5 35.75 
Q 40.828125 39.65625 39.3125 42.15625 
Q 37.796875 44.671875 35.453125 45.84375 
Q 33.109375 47.015625 29.734375 47.015625 
Q 26.265625 47.015625 23.609375 45.890625 
Q 20.953125 44.78125 19.171875 42.28125 
Q 17.390625 39.796875 16.453125 35.734375 
Q 15.53125 31.6875 15.53125 25.828125 
Q 15.53125 20.171875 16.453125 16.3125 
Q 17.390625 12.453125 19.171875 10.03125 
Q 20.953125 7.625 23.578125 6.5625 
Q 26.21875 5.515625 29.640625 5.515625 
Q 32.859375 5.515625 35.203125 6.640625 
Q 37.546875 7.765625 39.109375 10.25 
Q 40.671875 12.75 41.421875 16.71875 
Q 42.1875 20.703125 42.1875 26.375 
" id="LiberationSans-62"/>
      <path d="M 13.421875 26.65625 
Q 13.421875 22.125 14.078125 18.3125 
Q 14.75 14.5 16.3125 11.734375 
Q 17.875 8.984375 20.4375 7.46875 
Q 23 5.953125 26.765625 5.953125 
Q 31.453125 5.953125 34.59375 8.484375 
Q 37.75 11.03125 38.484375 16.3125 
L 47.359375 15.71875 
Q 46.921875 12.453125 45.453125 9.421875 
Q 44 6.390625 41.484375 4.09375 
Q 38.96875 1.8125 35.34375 0.40625 
Q 31.734375 -0.984375 27 -0.984375 
Q 20.796875 -0.984375 16.453125 1.109375 
Q 12.109375 3.21875 9.390625 6.90625 
Q 6.6875 10.59375 5.46875 15.59375 
Q 4.25 20.609375 4.25 26.46875 
Q 4.25 31.78125 5.125 35.859375 
Q 6 39.9375 7.59375 42.984375 
Q 9.1875 46.046875 11.328125 48.125 
Q 13.484375 50.203125 15.984375 51.4375 
Q 18.5 52.6875 21.28125 53.25 
Q 24.078125 53.8125 26.90625 53.8125 
Q 31.34375 53.8125 34.8125 52.59375 
Q 38.28125 51.375 40.796875 49.25 
Q 43.3125 47.125 44.875 44.234375 
Q 46.4375 41.359375 47.078125 38.03125 
L 38.03125 37.359375 
Q 37.359375 41.75 34.5625 44.328125 
Q 31.78125 46.921875 26.65625 46.921875 
Q 22.90625 46.921875 20.390625 45.671875 
Q 17.875 44.4375 16.3125 41.921875 
Q 14.75 39.40625 14.078125 35.59375 
Q 13.421875 31.78125 13.421875 26.65625 
" id="LiberationSans-63"/>
      <path d="M 52.828125 0 
L 16.015625 58.59375 
Q 16.109375 56.203125 16.265625 53.859375 
Q 16.359375 51.859375 16.421875 49.625 
Q 16.5 47.40625 16.5 45.703125 
L 16.5 0 
L 8.203125 0 
L 8.203125 68.796875 
L 19.046875 68.796875 
L 56.25 9.8125 
Q 56.109375 12.203125 55.953125 14.59375 
Q 55.859375 16.65625 55.765625 19.0625 
Q 55.671875 21.484375 55.671875 23.6875 
L 55.671875 68.796875 
L 64.0625 68.796875 
L 64.0625 0 
z
" id="LiberationSans-4e"/>
      <path d="M 51.421875 26.46875 
Q 51.421875 12.59375 45.3125 5.796875 
Q 39.203125 -0.984375 27.59375 -0.984375 
Q 22.078125 -0.984375 17.71875 0.671875 
Q 13.375 2.34375 10.375 5.765625 
Q 7.375 9.1875 5.78125 14.328125 
Q 4.203125 19.484375 4.203125 26.46875 
Q 4.203125 53.8125 27.875 53.8125 
Q 34.03125 53.8125 38.5 52.09375 
Q 42.96875 50.390625 45.828125 46.96875 
Q 48.6875 43.5625 50.046875 38.421875 
Q 51.421875 33.296875 51.421875 26.46875 
M 42.1875 26.46875 
Q 42.1875 32.625 41.234375 36.625 
Q 40.28125 40.625 38.453125 43.015625 
Q 36.625 45.40625 33.984375 46.359375 
Q 31.34375 47.3125 28.03125 47.3125 
Q 24.65625 47.3125 21.9375 46.3125 
Q 19.234375 45.3125 17.328125 42.890625 
Q 15.4375 40.484375 14.421875 36.46875 
Q 13.421875 32.46875 13.421875 26.46875 
Q 13.421875 20.3125 14.5 16.28125 
Q 15.578125 12.25 17.453125 9.859375 
Q 19.34375 7.46875 21.90625 6.484375 
Q 24.46875 5.515625 27.484375 5.515625 
Q 30.859375 5.515625 33.59375 6.46875 
Q 36.328125 7.421875 38.234375 9.8125 
Q 40.140625 12.203125 41.15625 16.25 
Q 42.1875 20.3125 42.1875 26.46875 
" id="LiberationSans-6f"/>
      <path d="M 20.21875 -0.984375 
Q 12.25 -0.984375 8.25 3.21875 
Q 4.25 7.421875 4.25 14.75 
Q 4.25 19.96875 6.21875 23.3125 
Q 8.203125 26.65625 11.390625 28.5625 
Q 14.59375 30.46875 18.6875 31.203125 
Q 22.796875 31.9375 27.046875 32.03125 
L 38.921875 32.234375 
L 38.921875 35.109375 
Q 38.921875 38.375 38.234375 40.671875 
Q 37.546875 42.96875 36.125 44.375 
Q 34.71875 45.796875 32.59375 46.453125 
Q 30.46875 47.125 27.59375 47.125 
Q 25.046875 47.125 23 46.75 
Q 20.953125 46.390625 19.4375 45.4375 
Q 17.921875 44.484375 16.984375 42.84375 
Q 16.0625 41.21875 15.765625 38.71875 
L 6.59375 39.546875 
Q 7.078125 42.671875 8.4375 45.28125 
Q 9.8125 47.90625 12.328125 49.796875 
Q 14.84375 51.703125 18.625 52.75 
Q 22.40625 53.8125 27.78125 53.8125 
Q 37.75 53.8125 42.765625 49.234375 
Q 47.796875 44.671875 47.796875 36.03125 
L 47.796875 13.28125 
Q 47.796875 9.375 48.828125 7.390625 
Q 49.859375 5.421875 52.734375 5.421875 
Q 53.46875 5.421875 54.203125 5.515625 
Q 54.9375 5.609375 55.609375 5.765625 
L 55.609375 0.296875 
Q 53.953125 -0.09375 52.3125 -0.28125 
Q 50.6875 -0.484375 48.828125 -0.484375 
Q 46.34375 -0.484375 44.5625 0.171875 
Q 42.78125 0.828125 41.65625 2.171875 
Q 40.53125 3.515625 39.9375 5.484375 
Q 39.359375 7.46875 39.203125 10.109375 
L 38.921875 10.109375 
Q 37.5 7.5625 35.8125 5.515625 
Q 34.125 3.46875 31.875 2.03125 
Q 29.640625 0.59375 26.78125 -0.1875 
Q 23.921875 -0.984375 20.21875 -0.984375 
M 22.21875 5.609375 
Q 26.421875 5.609375 29.5625 7.140625 
Q 32.71875 8.6875 34.78125 11.078125 
Q 36.859375 13.484375 37.890625 16.3125 
Q 38.921875 19.140625 38.921875 21.734375 
L 38.921875 26.078125 
L 29.296875 25.875 
Q 26.078125 25.828125 23.171875 25.40625 
Q 20.265625 25 18.0625 23.78125 
Q 15.875 22.5625 14.578125 20.359375 
Q 13.28125 18.171875 13.28125 14.59375 
Q 13.28125 10.296875 15.59375 7.953125 
Q 17.921875 5.609375 22.21875 5.609375 
" id="LiberationSans-61"/>
     </defs>
     <g style="fill:#262626;" transform="translate(183.85125 461.76)rotate(-90.0)scale(0.12 -0.12)">
      <use xlink:href="#LiberationSans-4e"/>
      <use x="72.216796875" xlink:href="#LiberationSans-75"/>
      <use x="127.83203125" xlink:href="#LiberationSans-6d"/>
      <use x="211.1328125" xlink:href="#LiberationSans-62"/>
      <use x="266.748046875" xlink:href="#LiberationSans-65"/>
      <use x="322.36328125" xlink:href="#LiberationSans-72"/>
      <use x="355.6640625" xlink:href="#LiberationSans-20"/>
      <use x="383.447265625" xlink:href="#LiberationSans-6f"/>
      <use x="439.0625" xlink:href="#LiberationSans-66"/>
      <use x="466.845703125" xlink:href="#LiberationSans-20"/>
      <use x="494.62890625" xlink:href="#LiberationSans-63"/>
      <use x="544.62890625" xlink:href="#LiberationSans-61"/>
      <use x="600.244140625" xlink:href="#LiberationSans-72"/>
      <use x="633.544921875" xlink:href="#LiberationSans-73"/>
     </g>
    </g>
   </g>
   <g id="line2d_37">
    <path clip-path="url(#p1c9c734d98)" d="M 209.334431 757.35 
L 214.509881 757.35 
L 215.156813 734.91 
L 215.803744 734.91 
L 216.450675 712.47 
L 220.332263 712.47 
L 220.979194 690.03 
L 221.626125 690.03 
L 222.919987 645.15 
L 224.21385 645.15 
L 224.860781 667.59 
L 225.507712 645.15 
L 226.154644 645.15 
L 227.448506 555.39 
L 228.095438 532.95 
L 228.742369 555.39 
L 230.683163 555.39 
L 231.330094 510.51 
L 231.977025 532.95 
L 232.623956 532.95 
L 233.270887 510.51 
L 233.917819 510.51 
L 234.56475 488.07 
L 235.858612 488.07 
L 236.505544 465.63 
L 239.093269 465.63 
L 239.7402 443.19 
L 240.387131 398.31 
L 241.680994 398.31 
L 242.327925 420.75 
L 244.268719 420.75 
L 244.91565 465.63 
L 245.562581 465.63 
L 246.209512 443.19 
L 246.856444 465.63 
L 248.797237 398.31 
L 249.444169 353.43 
L 250.738031 353.43 
L 251.384963 375.87 
L 252.031894 420.75 
L 252.678825 398.31 
L 255.26655 398.31 
L 255.913481 443.19 
L 256.560412 465.63 
L 257.207344 375.87 
L 259.148138 375.87 
L 259.795069 353.43 
L 260.442 353.43 
L 261.088931 308.55 
L 262.382794 308.55 
L 263.676656 263.67 
L 264.970519 308.55 
L 265.61745 263.67 
L 266.264381 263.67 
L 266.911313 241.23 
L 267.558244 241.23 
L 268.205175 196.35 
L 268.852106 218.79 
L 269.499037 196.35 
L 270.145969 218.79 
L 270.7929 173.91 
L 271.439831 151.47 
L 272.086763 151.47 
L 272.733694 129.03 
L 274.027556 173.91 
L 274.674487 151.47 
L 275.96835 151.47 
L 276.615281 129.03 
L 277.262212 173.91 
L 277.909144 151.47 
L 278.556075 218.79 
L 279.203006 218.79 
L 279.849938 196.35 
L 280.496869 196.35 
L 281.1438 173.91 
L 281.790731 173.91 
L 282.437662 196.35 
L 283.084594 241.23 
L 283.731525 196.35 
L 284.378456 196.35 
L 285.025387 218.79 
L 285.672319 196.35 
L 286.31925 196.35 
L 286.966181 241.23 
L 288.260044 196.35 
L 288.906975 196.35 
L 289.553906 173.91 
L 290.847769 218.79 
L 291.4947 218.79 
L 292.141631 173.91 
L 292.788563 173.91 
L 293.435494 218.79 
L 294.082425 196.35 
L 295.376287 241.23 
L 296.023219 286.11 
L 296.67015 286.11 
L 297.317081 263.67 
L 298.610944 308.55 
L 299.257875 398.31 
L 300.551738 443.19 
L 301.8456 443.19 
L 302.492531 398.31 
L 303.139462 398.31 
L 303.786394 375.87 
L 304.433325 420.75 
L 305.080256 420.75 
L 305.727188 465.63 
L 310.255706 465.63 
L 310.902637 443.19 
L 312.1965 443.19 
L 312.843431 465.63 
L 314.137294 375.87 
L 314.784225 375.87 
L 315.431156 353.43 
L 318.018881 353.43 
L 319.312744 263.67 
L 320.606606 263.67 
L 321.900469 308.55 
L 323.194331 308.55 
L 323.841262 286.11 
L 325.135125 330.99 
L 325.782056 330.99 
L 326.428988 308.55 
L 327.72285 308.55 
L 328.369781 286.11 
L 330.310575 286.11 
L 330.957506 263.67 
L 332.8983 263.67 
L 333.545231 286.11 
L 334.839094 286.11 
L 335.486025 308.55 
L 337.426819 308.55 
L 338.07375 330.99 
L 338.720681 308.55 
L 339.367612 263.67 
L 340.014544 263.67 
L 340.661475 241.23 
L 341.308406 241.23 
L 343.2492 308.55 
L 343.896131 286.11 
L 344.543063 308.55 
L 345.189994 308.55 
L 345.836925 353.43 
L 346.483856 353.43 
L 347.130787 375.87 
L 347.777719 353.43 
L 348.42465 398.31 
L 349.071581 330.99 
L 350.365444 330.99 
L 351.012375 308.55 
L 352.953169 375.87 
L 353.6001 353.43 
L 355.540894 353.43 
L 356.187825 375.87 
L 356.834756 353.43 
L 357.481688 398.31 
L 358.77555 398.31 
L 359.422481 465.63 
L 360.069412 443.19 
L 361.363275 443.19 
L 362.010206 510.51 
L 365.891794 510.51 
L 366.538725 532.95 
L 367.185656 510.51 
L 369.12645 510.51 
L 370.420313 555.39 
L 371.067244 532.95 
L 373.008038 532.95 
L 373.654969 488.07 
L 374.3019 488.07 
L 374.948831 510.51 
L 375.595762 465.63 
L 376.889625 465.63 
L 377.536556 420.75 
L 378.183487 443.19 
L 378.830419 443.19 
L 379.47735 488.07 
L 380.771212 488.07 
L 382.065075 443.19 
L 382.712006 443.19 
L 383.358938 465.63 
L 384.005869 465.63 
L 384.6528 510.51 
L 385.299731 488.07 
L 385.946663 488.07 
L 386.593594 510.51 
L 387.887456 510.51 
L 388.534387 465.63 
L 389.82825 465.63 
L 390.475181 488.07 
L 391.122112 488.07 
L 391.769044 510.51 
L 392.415975 488.07 
L 393.062906 510.51 
L 393.709837 510.51 
L 394.356769 488.07 
L 395.0037 488.07 
L 395.650631 510.51 
L 396.297563 510.51 
L 396.944494 465.63 
L 397.591425 510.51 
L 398.238356 510.51 
L 398.885288 443.19 
L 399.532219 420.75 
L 401.473012 420.75 
L 402.119944 443.19 
L 402.766875 420.75 
L 403.413806 443.19 
L 404.060737 443.19 
L 404.707669 420.75 
L 405.3546 443.19 
L 406.001531 488.07 
L 407.295394 443.19 
L 409.236188 443.19 
L 409.883119 398.31 
L 410.53005 398.31 
L 411.176981 375.87 
L 412.470844 375.87 
L 413.764706 420.75 
L 415.058569 420.75 
L 415.7055 398.31 
L 416.352431 398.31 
L 416.999362 375.87 
L 417.646294 420.75 
L 418.940156 375.87 
L 420.234019 375.87 
L 420.88095 353.43 
L 421.527881 353.43 
L 422.174812 375.87 
L 422.821744 443.19 
L 423.468675 443.19 
L 424.115606 465.63 
L 426.0564 465.63 
L 426.703331 420.75 
L 427.997194 465.63 
L 429.291056 420.75 
L 430.584919 420.75 
L 431.23185 398.31 
L 431.878781 353.43 
L 432.525712 375.87 
L 436.4073 375.87 
L 437.054231 398.31 
L 438.348094 353.43 
L 439.641956 353.43 
L 440.288887 330.99 
L 440.935819 330.99 
L 441.58275 286.11 
L 442.229681 286.11 
L 442.876612 241.23 
L 443.523544 286.11 
L 444.170475 286.11 
L 444.817406 330.99 
L 446.111269 286.11 
L 446.7582 308.55 
L 447.405131 353.43 
L 448.052062 375.87 
L 449.345925 375.87 
L 450.639788 420.75 
L 451.93365 420.75 
L 452.580581 443.19 
L 453.227512 443.19 
L 453.874444 465.63 
L 454.521375 465.63 
L 455.168306 510.51 
L 455.815237 532.95 
L 457.1091 532.95 
L 459.049894 465.63 
L 459.696825 488.07 
L 461.637619 420.75 
L 463.578413 420.75 
L 464.225344 398.31 
L 464.872275 420.75 
L 465.519206 465.63 
L 466.166137 488.07 
L 466.813069 465.63 
L 470.047725 465.63 
L 470.694656 443.19 
L 471.988519 488.07 
L 473.282381 443.19 
L 473.929312 443.19 
L 474.576244 398.31 
L 475.223175 398.31 
L 475.870106 420.75 
L 477.163969 420.75 
L 477.8109 443.19 
L 478.457831 420.75 
L 481.045556 510.51 
L 481.692487 510.51 
L 482.339419 488.07 
L 482.98635 488.07 
L 483.633281 532.95 
L 486.221006 532.95 
L 486.867937 555.39 
L 487.514869 532.95 
L 489.455662 532.95 
L 490.749525 488.07 
L 493.984181 488.07 
L 494.631112 465.63 
L 495.278044 420.75 
L 497.218838 420.75 
L 498.5127 465.63 
L 499.159631 398.31 
L 499.806562 375.87 
L 500.453494 375.87 
L 501.100425 330.99 
L 501.747356 353.43 
L 504.335081 353.43 
L 504.982012 330.99 
L 505.628944 375.87 
L 506.275875 353.43 
L 506.922806 353.43 
L 507.569737 330.99 
L 508.8636 330.99 
L 510.157463 375.87 
L 510.804394 330.99 
L 512.098256 286.11 
L 512.745187 286.11 
L 513.392119 330.99 
L 514.03905 330.99 
L 514.685981 308.55 
L 515.979844 308.55 
L 516.626775 330.99 
L 519.2145 330.99 
L 519.861431 308.55 
L 521.155294 308.55 
L 521.802225 330.99 
L 522.449156 330.99 
L 523.096087 353.43 
L 523.743019 353.43 
L 525.036881 308.55 
L 525.683812 353.43 
L 526.977675 353.43 
L 527.624606 398.31 
L 528.271538 420.75 
L 528.918469 398.31 
L 529.5654 398.31 
L 530.859262 443.19 
L 533.446987 443.19 
L 534.093919 465.63 
L 534.74085 443.19 
L 535.387781 465.63 
L 537.328575 465.63 
L 537.975506 510.51 
L 538.622437 532.95 
L 539.269369 532.95 
L 539.9163 555.39 
L 541.857094 555.39 
L 542.504025 532.95 
L 543.150956 555.39 
L 543.797888 555.39 
L 544.444819 532.95 
L 545.09175 532.95 
L 545.738681 510.51 
L 548.326406 510.51 
L 549.620269 465.63 
L 550.914131 465.63 
L 551.561062 443.19 
L 554.148788 443.19 
L 554.795719 488.07 
L 555.44265 465.63 
L 558.030375 465.63 
L 558.677306 488.07 
L 559.324237 443.19 
L 559.971169 420.75 
L 560.6181 443.19 
L 561.265031 398.31 
L 561.911962 375.87 
L 563.205825 375.87 
L 563.852756 353.43 
L 564.499687 353.43 
L 565.79355 308.55 
L 568.381275 308.55 
L 569.028206 330.99 
L 570.322069 330.99 
L 570.969 308.55 
L 571.615931 330.99 
L 572.262862 330.99 
L 572.909794 308.55 
L 573.556725 330.99 
L 575.497519 330.99 
L 576.14445 308.55 
L 576.791381 330.99 
L 577.438312 375.87 
L 578.085244 353.43 
L 578.732175 375.87 
L 579.379106 375.87 
L 580.026038 353.43 
L 580.672969 375.87 
L 581.3199 375.87 
L 581.966831 330.99 
L 583.260694 375.87 
L 586.49535 375.87 
L 587.142281 353.43 
L 588.436144 353.43 
L 589.083075 398.31 
L 589.730006 375.87 
L 590.376937 375.87 
L 591.6708 420.75 
L 592.317731 398.31 
L 592.964663 420.75 
L 593.611594 420.75 
L 594.258525 398.31 
L 594.905456 420.75 
L 596.199319 375.87 
L 596.84625 398.31 
L 597.493181 375.87 
L 600.727837 375.87 
L 601.374769 353.43 
L 602.0217 375.87 
L 602.668631 330.99 
L 603.962494 375.87 
L 604.609425 353.43 
L 605.256356 353.43 
L 605.903288 308.55 
L 606.550219 308.55 
L 607.19715 330.99 
L 607.844081 375.87 
L 609.784875 375.87 
L 610.431806 353.43 
L 611.078737 375.87 
L 613.019531 375.87 
L 613.666462 398.31 
L 614.960325 353.43 
L 615.607256 375.87 
L 616.254187 375.87 
L 616.901119 353.43 
L 617.54805 375.87 
L 619.488844 375.87 
L 620.135775 353.43 
L 622.076569 420.75 
L 622.7235 398.31 
L 624.017362 398.31 
L 624.664294 420.75 
L 625.958156 420.75 
L 626.605087 398.31 
L 627.252019 420.75 
L 627.89895 465.63 
L 628.545881 488.07 
L 629.192812 488.07 
L 631.780538 398.31 
L 632.427469 465.63 
L 633.0744 443.19 
L 633.721331 398.31 
L 635.662125 398.31 
L 636.309056 353.43 
L 636.955987 353.43 
L 637.602919 375.87 
L 638.24985 420.75 
L 638.896781 398.31 
L 640.190644 398.31 
L 640.837575 375.87 
L 641.484506 398.31 
L 642.131437 398.31 
L 642.778369 375.87 
L 643.4253 398.31 
L 644.072231 375.87 
L 644.719163 443.19 
L 646.659956 443.19 
L 647.306887 465.63 
L 647.953819 443.19 
L 649.247681 443.19 
L 649.894612 465.63 
L 651.835406 465.63 
L 653.129269 375.87 
L 653.7762 375.87 
L 654.423131 398.31 
L 655.070062 398.31 
L 655.716994 330.99 
L 657.657788 330.99 
L 658.304719 375.87 
L 658.95165 375.87 
L 659.598581 330.99 
L 660.245512 308.55 
L 662.186306 308.55 
L 664.1271 375.87 
L 664.774031 353.43 
L 665.420962 375.87 
L 666.714825 375.87 
L 667.361756 420.75 
L 668.008687 398.31 
L 669.949481 398.31 
L 670.596413 443.19 
L 671.890275 398.31 
L 673.184137 398.31 
L 673.831069 420.75 
L 674.478 420.75 
L 675.124931 375.87 
L 675.771862 398.31 
L 676.418794 375.87 
L 677.065725 375.87 
L 678.359587 330.99 
L 679.006519 263.67 
L 679.65345 263.67 
L 680.300381 286.11 
L 681.594244 286.11 
L 682.241175 330.99 
L 682.888106 286.11 
L 683.535038 286.11 
L 684.181969 263.67 
L 684.8289 286.11 
L 685.475831 286.11 
L 686.122762 330.99 
L 686.769694 353.43 
L 687.416625 330.99 
L 688.063556 353.43 
L 688.710487 330.99 
L 690.00435 375.87 
L 690.651281 375.87 
L 691.298212 353.43 
L 691.945144 375.87 
L 692.592075 375.87 
L 693.239006 308.55 
L 693.885937 308.55 
L 694.532869 330.99 
L 695.826731 330.99 
L 697.120594 375.87 
L 697.767525 375.87 
L 698.414456 308.55 
L 700.35525 308.55 
L 701.002181 286.11 
L 701.649113 308.55 
L 702.942975 263.67 
L 703.589906 286.11 
L 706.177631 286.11 
L 706.824562 241.23 
L 707.471494 218.79 
L 708.118425 218.79 
L 708.765356 241.23 
L 709.412288 218.79 
L 710.059219 218.79 
L 710.70615 263.67 
L 711.353081 263.67 
L 712.646944 218.79 
L 713.293875 263.67 
L 714.587738 263.67 
L 715.234669 286.11 
L 716.528531 286.11 
L 717.822394 241.23 
L 718.469325 286.11 
L 719.763187 286.11 
L 720.410119 308.55 
L 721.05705 263.67 
L 721.703981 286.11 
L 722.350912 286.11 
L 722.997844 263.67 
L 723.644775 286.11 
L 725.585569 286.11 
L 726.879431 330.99 
L 727.526363 308.55 
L 728.820225 308.55 
L 729.467156 286.11 
L 730.114087 330.99 
L 730.761019 308.55 
L 731.40795 330.99 
L 732.701812 330.99 
L 733.348744 353.43 
L 734.642606 353.43 
L 735.936469 308.55 
L 737.230331 308.55 
L 737.877262 353.43 
L 738.524194 353.43 
L 739.818056 398.31 
L 740.464988 308.55 
L 741.111919 353.43 
L 742.405781 353.43 
L 743.052712 443.19 
L 743.699644 443.19 
L 744.346575 420.75 
L 744.993506 465.63 
L 745.640437 465.63 
L 746.287369 488.07 
L 746.9343 488.07 
L 747.581231 510.51 
L 748.228162 510.51 
L 748.875094 532.95 
L 750.168956 532.95 
L 751.462819 577.83 
L 752.10975 555.39 
L 754.050544 555.39 
L 754.697475 532.95 
L 755.344406 532.95 
L 755.991337 577.83 
L 756.638269 555.39 
L 757.2852 510.51 
L 757.932131 488.07 
L 758.579062 488.07 
L 759.225994 510.51 
L 759.872925 488.07 
L 760.519856 488.07 
L 761.166787 465.63 
L 761.813719 488.07 
L 762.46065 443.19 
L 763.107581 420.75 
L 765.048375 420.75 
L 765.695306 443.19 
L 767.6361 443.19 
L 768.283031 465.63 
L 769.576894 465.63 
L 770.223825 488.07 
L 770.870756 465.63 
L 772.81155 465.63 
L 774.752344 398.31 
L 775.399275 420.75 
L 776.046206 420.75 
L 776.693137 443.19 
L 777.987 398.31 
L 778.633931 398.31 
L 779.280863 375.87 
L 780.574725 465.63 
L 781.221656 420.75 
L 781.868587 420.75 
L 782.515519 398.31 
L 783.16245 443.19 
L 787.044037 443.19 
L 787.690969 398.31 
L 788.3379 398.31 
L 788.984831 443.19 
L 789.631762 420.75 
L 790.278694 443.19 
L 791.572556 443.19 
L 792.219488 420.75 
L 792.866419 375.87 
L 793.51335 398.31 
L 794.160281 375.87 
L 795.454144 420.75 
L 797.394937 420.75 
L 798.041869 398.31 
L 798.6888 398.31 
L 799.335731 375.87 
L 799.982662 420.75 
L 801.923456 420.75 
L 802.570387 398.31 
L 803.217319 398.31 
L 803.86425 420.75 
L 804.511181 398.31 
L 805.805044 398.31 
L 806.451975 420.75 
L 807.098906 420.75 
L 807.745837 465.63 
L 808.392769 488.07 
L 809.0397 488.07 
L 809.686631 443.19 
L 810.980494 398.31 
L 811.627425 398.31 
L 812.274356 465.63 
L 812.921287 465.63 
L 814.21515 420.75 
L 814.862081 465.63 
L 816.155944 465.63 
L 816.802875 488.07 
L 818.096737 488.07 
L 818.743669 443.19 
L 819.3906 443.19 
L 820.037531 465.63 
L 821.331394 420.75 
L 821.978325 443.19 
L 822.625256 443.19 
L 823.272187 420.75 
L 824.56605 465.63 
L 827.153775 465.63 
L 827.800706 443.19 
L 828.447637 443.19 
L 829.094569 465.63 
L 829.7415 465.63 
L 830.388431 398.31 
L 831.035362 398.31 
L 831.682294 375.87 
L 832.976156 420.75 
L 833.623087 420.75 
L 834.270019 375.87 
L 834.91695 353.43 
L 835.563881 353.43 
L 836.857744 398.31 
L 837.504675 375.87 
L 838.151606 398.31 
L 838.798537 398.31 
L 839.445469 375.87 
L 840.739331 375.87 
L 842.033194 330.99 
L 842.680125 353.43 
L 843.327056 330.99 
L 843.973987 330.99 
L 844.620919 375.87 
L 845.26785 398.31 
L 847.855575 398.31 
L 849.149437 443.19 
L 849.796369 420.75 
L 851.737162 420.75 
L 852.384094 443.19 
L 853.677956 443.19 
L 854.971819 398.31 
L 856.265681 443.19 
L 857.559544 443.19 
L 858.853406 398.31 
L 859.500338 420.75 
L 860.147269 465.63 
L 860.7942 488.07 
L 861.441131 488.07 
L 862.088062 510.51 
L 863.381925 465.63 
L 867.263512 465.63 
L 867.910444 443.19 
L 869.204306 443.19 
L 869.851237 398.31 
L 870.498169 420.75 
L 871.792031 375.87 
L 872.438963 375.87 
L 873.732825 330.99 
L 874.379756 353.43 
L 875.673619 353.43 
L 876.32055 330.99 
L 876.967481 353.43 
L 878.908275 353.43 
L 879.555206 375.87 
L 880.202137 375.87 
L 881.496 420.75 
L 884.083725 420.75 
L 884.730656 398.31 
L 886.024519 398.31 
L 886.67145 420.75 
L 887.318381 420.75 
L 887.965312 443.19 
L 888.612244 443.19 
L 889.259175 420.75 
L 889.906106 420.75 
L 890.553037 398.31 
L 891.8469 443.19 
L 893.787694 443.19 
L 894.434625 420.75 
L 895.081556 375.87 
L 895.728487 420.75 
L 897.669281 420.75 
L 899.610075 353.43 
L 900.257006 398.31 
L 900.903937 353.43 
L 901.550869 375.87 
L 902.1978 375.87 
L 902.844731 353.43 
L 904.138594 353.43 
L 905.432456 308.55 
L 906.079387 330.99 
L 906.726319 308.55 
L 907.37325 308.55 
L 908.667112 353.43 
L 909.314044 330.99 
L 910.607906 375.87 
L 911.254838 375.87 
L 911.901769 353.43 
L 912.5487 375.87 
L 913.842562 375.87 
L 915.136425 420.75 
L 915.783356 398.31 
L 916.430287 398.31 
L 917.077219 420.75 
L 919.018012 420.75 
L 919.664944 398.31 
L 920.311875 420.75 
L 922.252669 420.75 
L 922.8996 443.19 
L 923.546531 420.75 
L 925.487325 420.75 
L 926.134256 375.87 
L 926.781187 420.75 
L 927.428119 443.19 
L 928.07505 420.75 
L 930.015844 420.75 
L 930.662775 465.63 
L 931.309706 465.63 
L 931.956637 443.19 
L 932.603569 443.19 
L 933.897431 488.07 
L 934.544362 488.07 
L 935.838225 443.19 
L 936.485156 465.63 
L 937.132087 465.63 
L 938.42595 510.51 
L 939.072881 488.07 
L 939.719812 488.07 
L 940.366744 443.19 
L 941.660606 488.07 
L 942.954469 488.07 
L 944.248331 443.19 
L 944.895262 443.19 
L 945.542194 465.63 
L 946.189125 420.75 
L 946.836056 420.75 
L 947.482987 465.63 
L 948.129919 465.63 
L 948.77685 420.75 
L 950.717644 420.75 
L 951.364575 443.19 
L 952.011506 443.19 
L 952.658437 420.75 
L 953.305369 420.75 
L 953.9523 443.19 
L 954.599231 488.07 
L 957.186956 398.31 
L 959.774681 398.31 
L 960.421612 420.75 
L 961.068544 398.31 
L 961.715475 398.31 
L 962.362406 375.87 
L 963.009337 330.99 
L 963.656269 375.87 
L 966.890925 375.87 
L 967.537856 353.43 
L 968.184787 375.87 
L 968.831719 375.87 
L 970.125581 330.99 
L 970.772512 330.99 
L 971.419444 353.43 
L 972.066375 353.43 
L 972.713306 330.99 
L 973.360237 353.43 
L 974.007169 353.43 
L 974.6541 330.99 
L 975.301031 330.99 
L 975.947962 375.87 
L 976.594894 330.99 
L 977.241825 330.99 
L 977.888756 308.55 
L 978.535687 330.99 
L 979.182619 286.11 
L 979.82955 263.67 
L 980.476481 263.67 
L 981.123412 241.23 
L 981.770344 286.11 
L 982.417275 263.67 
L 983.064206 308.55 
L 984.358069 263.67 
L 985.005 308.55 
L 985.651931 330.99 
L 986.298862 398.31 
L 986.945794 398.31 
L 987.592725 375.87 
L 988.239656 398.31 
L 988.886587 375.87 
L 989.533519 375.87 
L 990.18045 443.19 
L 990.827381 443.19 
L 991.474312 398.31 
L 992.121244 398.31 
L 992.768175 375.87 
L 993.415106 375.87 
L 994.062037 398.31 
L 995.3559 398.31 
L 996.002831 420.75 
L 996.649762 398.31 
L 997.296694 353.43 
L 997.943625 398.31 
L 998.590556 398.31 
L 999.237487 420.75 
L 1002.472144 420.75 
L 1003.766006 465.63 
L 1004.412937 465.63 
L 1005.059869 398.31 
L 1005.7068 375.87 
L 1006.353731 375.87 
L 1007.000662 398.31 
L 1007.647594 375.87 
L 1009.588387 375.87 
L 1010.88225 330.99 
L 1011.529181 330.99 
L 1012.176112 353.43 
L 1012.823044 420.75 
L 1013.469975 443.19 
L 1014.116906 420.75 
L 1014.763837 465.63 
L 1015.410769 488.07 
L 1016.704631 488.07 
L 1017.351562 510.51 
L 1019.939287 510.51 
L 1021.23315 555.39 
L 1021.880081 555.39 
L 1022.527012 465.63 
L 1023.820875 510.51 
L 1026.4086 420.75 
L 1027.055531 443.19 
L 1028.996325 443.19 
L 1029.643256 420.75 
L 1030.937119 420.75 
L 1031.58405 398.31 
L 1032.230981 465.63 
L 1032.877913 465.63 
L 1033.524844 488.07 
L 1034.171775 443.19 
L 1034.818706 443.19 
L 1035.465637 420.75 
L 1036.112569 443.19 
L 1036.7595 420.75 
L 1037.406431 443.19 
L 1038.053362 443.19 
L 1038.700294 398.31 
L 1040.641087 398.31 
L 1041.288019 420.75 
L 1041.93495 465.63 
L 1042.581881 465.63 
L 1043.228813 443.19 
L 1044.522675 443.19 
L 1045.169606 420.75 
L 1045.816537 420.75 
L 1047.1104 375.87 
L 1048.404262 375.87 
L 1049.051194 398.31 
L 1049.698125 398.31 
L 1050.345056 420.75 
L 1050.991988 420.75 
L 1051.638919 443.19 
L 1052.28585 420.75 
L 1053.579712 420.75 
L 1054.226644 443.19 
L 1056.167437 443.19 
L 1058.108231 510.51 
L 1060.049025 510.51 
L 1060.695956 488.07 
L 1061.342887 488.07 
L 1061.989819 465.63 
L 1062.63675 465.63 
L 1063.930612 375.87 
L 1064.577544 375.87 
L 1065.224475 353.43 
L 1065.871406 353.43 
L 1066.518337 308.55 
L 1067.165269 330.99 
L 1067.8122 308.55 
L 1068.459131 308.55 
L 1069.106063 263.67 
L 1069.752994 263.67 
L 1071.046856 308.55 
L 1071.693787 308.55 
L 1072.340719 330.99 
L 1072.98765 375.87 
L 1073.634581 308.55 
L 1074.281512 308.55 
L 1076.222306 241.23 
L 1076.869238 263.67 
L 1077.516169 218.79 
L 1078.1631 218.79 
L 1078.810031 196.35 
L 1079.456962 218.79 
L 1080.103894 218.79 
L 1081.397756 173.91 
L 1083.33855 241.23 
L 1084.632413 241.23 
L 1085.279344 263.67 
L 1085.926275 263.67 
L 1086.573206 241.23 
L 1087.220137 241.23 
L 1087.867069 308.55 
L 1088.514 308.55 
L 1089.807862 353.43 
L 1090.454794 330.99 
L 1091.101725 330.99 
L 1091.748656 375.87 
L 1092.395587 398.31 
L 1093.042519 398.31 
L 1093.68945 375.87 
L 1094.336381 398.31 
L 1094.983313 398.31 
L 1095.630244 353.43 
L 1096.924106 353.43 
L 1097.571037 398.31 
L 1098.8649 398.31 
L 1099.511831 375.87 
L 1100.805694 375.87 
L 1101.452625 398.31 
L 1102.099556 375.87 
L 1102.746488 375.87 
L 1103.393419 420.75 
L 1104.04035 375.87 
L 1104.687281 443.19 
L 1105.334212 443.19 
L 1106.628075 488.07 
L 1107.275006 488.07 
L 1107.921937 465.63 
L 1108.568869 488.07 
L 1109.2158 488.07 
L 1110.509663 443.19 
L 1111.156594 443.19 
L 1111.803525 420.75 
L 1112.450456 443.19 
L 1113.097387 443.19 
L 1113.744319 420.75 
L 1114.39125 420.75 
L 1115.038181 443.19 
L 1115.685112 443.19 
L 1116.332044 420.75 
L 1116.978975 420.75 
L 1117.625906 443.19 
L 1118.919769 443.19 
L 1119.5667 465.63 
L 1120.213631 465.63 
L 1120.860563 488.07 
L 1121.507494 465.63 
L 1122.154425 465.63 
L 1123.448287 420.75 
L 1124.095219 420.75 
L 1124.74215 398.31 
L 1125.389081 420.75 
L 1126.036012 353.43 
L 1126.682944 353.43 
L 1127.976806 398.31 
L 1128.623738 375.87 
L 1129.270669 398.31 
L 1129.9176 330.99 
L 1131.211462 330.99 
L 1132.505325 286.11 
L 1134.446119 286.11 
L 1135.09305 308.55 
L 1135.739981 263.67 
L 1136.386913 308.55 
L 1137.033844 308.55 
L 1138.327706 353.43 
L 1138.974637 308.55 
L 1139.621569 375.87 
L 1142.209294 375.87 
L 1142.856225 353.43 
L 1144.150087 353.43 
L 1144.797019 330.99 
L 1145.44395 330.99 
L 1146.090881 353.43 
L 1149.325537 353.43 
L 1149.972469 330.99 
L 1150.6194 353.43 
L 1151.913262 353.43 
L 1152.560194 398.31 
L 1153.854056 398.31 
L 1154.500988 353.43 
L 1155.147919 375.87 
L 1155.79485 330.99 
L 1156.441781 308.55 
L 1157.088712 330.99 
L 1157.735644 330.99 
L 1158.382575 353.43 
L 1160.323369 353.43 
L 1160.9703 330.99 
L 1161.617231 330.99 
L 1162.264162 308.55 
L 1162.911094 330.99 
L 1163.558025 375.87 
L 1165.498819 308.55 
L 1166.14575 330.99 
L 1168.733475 330.99 
L 1169.380406 353.43 
L 1170.674269 353.43 
L 1171.3212 398.31 
L 1171.968131 420.75 
L 1172.615063 420.75 
L 1174.555856 353.43 
L 1175.202787 353.43 
L 1176.49665 398.31 
L 1177.143581 375.87 
L 1179.084375 375.87 
L 1179.731306 308.55 
L 1180.378238 330.99 
L 1181.025169 330.99 
L 1181.6721 353.43 
L 1182.319031 330.99 
L 1184.259825 330.99 
L 1184.906756 286.11 
L 1185.553687 308.55 
L 1186.200619 241.23 
L 1188.141412 308.55 
L 1189.435275 263.67 
L 1190.082206 263.67 
L 1190.729137 286.11 
L 1191.376069 263.67 
L 1192.669931 308.55 
L 1194.610725 308.55 
L 1195.257656 330.99 
L 1195.904587 308.55 
L 1196.551519 330.99 
L 1197.845381 330.99 
L 1199.139244 375.87 
L 1199.786175 375.87 
L 1200.433106 398.31 
L 1201.080037 375.87 
L 1202.3739 375.87 
L 1203.667762 420.75 
L 1204.314694 420.75 
L 1204.961625 443.19 
L 1205.608556 420.75 
L 1206.255488 465.63 
L 1206.902419 443.19 
L 1207.54935 443.19 
L 1208.843212 398.31 
L 1209.490144 353.43 
L 1210.784006 308.55 
L 1211.430937 330.99 
L 1212.077869 330.99 
L 1212.7248 353.43 
L 1214.018662 353.43 
L 1214.665594 375.87 
L 1215.312525 375.87 
L 1215.959456 353.43 
L 1217.253319 398.31 
L 1218.547181 353.43 
L 1219.194112 375.87 
L 1219.841044 375.87 
L 1220.487975 398.31 
L 1221.781837 398.31 
L 1222.428769 420.75 
L 1223.0757 398.31 
L 1223.722631 398.31 
L 1225.016494 443.19 
L 1226.957287 443.19 
L 1227.604219 420.75 
L 1228.898081 420.75 
L 1229.545012 375.87 
L 1230.191944 375.87 
L 1230.838875 353.43 
L 1232.132738 353.43 
L 1232.779669 308.55 
L 1234.073531 308.55 
L 1234.720462 286.11 
L 1235.367394 308.55 
L 1237.308188 443.19 
L 1237.955119 398.31 
L 1238.60205 398.31 
L 1240.542844 330.99 
L 1241.836706 330.99 
L 1242.483637 375.87 
L 1243.130569 398.31 
L 1247.659087 398.31 
L 1248.306019 375.87 
L 1248.95295 420.75 
L 1249.599881 488.07 
L 1250.246813 420.75 
L 1250.893744 420.75 
L 1252.834537 353.43 
L 1253.481469 375.87 
L 1254.1284 375.87 
L 1254.775331 420.75 
L 1255.422262 443.19 
L 1256.069194 420.75 
L 1256.716125 465.63 
L 1257.363056 488.07 
L 1258.009987 488.07 
L 1258.656919 532.95 
L 1261.244644 532.95 
L 1261.891575 510.51 
L 1262.538506 510.51 
L 1263.185438 465.63 
L 1264.4793 465.63 
L 1265.126231 443.19 
L 1265.773162 465.63 
L 1266.420094 465.63 
L 1267.067025 375.87 
L 1269.007819 375.87 
L 1269.65475 398.31 
L 1270.301681 398.31 
L 1270.948612 375.87 
L 1271.595544 330.99 
L 1272.242475 308.55 
L 1273.536337 308.55 
L 1274.183269 286.11 
L 1274.8302 286.11 
L 1275.477131 263.67 
L 1276.124063 263.67 
L 1276.770994 286.11 
L 1278.711787 286.11 
L 1279.358719 241.23 
L 1280.652581 196.35 
L 1281.946444 196.35 
L 1282.593375 218.79 
L 1283.240306 218.79 
L 1283.887237 263.67 
L 1284.534169 263.67 
L 1285.1811 308.55 
L 1285.828031 308.55 
L 1286.474962 330.99 
L 1287.121894 286.11 
L 1287.768825 263.67 
L 1288.415756 286.11 
L 1289.709619 286.11 
L 1290.35655 330.99 
L 1291.003481 330.99 
L 1291.650412 353.43 
L 1293.591206 353.43 
L 1294.238137 330.99 
L 1294.885069 353.43 
L 1295.532 330.99 
L 1296.178931 330.99 
L 1296.825862 353.43 
L 1298.119725 353.43 
L 1298.766656 330.99 
L 1299.413587 330.99 
L 1300.060519 353.43 
L 1300.70745 353.43 
L 1302.648244 420.75 
L 1303.295175 420.75 
L 1303.942106 443.19 
L 1304.589037 443.19 
L 1305.235969 420.75 
L 1306.529831 510.51 
L 1307.176762 488.07 
L 1307.823694 510.51 
L 1308.470625 510.51 
L 1309.764487 555.39 
L 1311.705281 555.39 
L 1312.352212 532.95 
L 1312.999144 532.95 
L 1313.646075 510.51 
L 1314.939937 510.51 
L 1315.586869 532.95 
L 1316.2338 532.95 
L 1316.880731 488.07 
L 1317.527662 510.51 
L 1318.174594 488.07 
L 1320.762319 488.07 
L 1321.40925 510.51 
L 1322.056181 488.07 
L 1322.703112 510.51 
L 1323.350044 443.19 
L 1323.996975 420.75 
L 1326.5847 420.75 
L 1327.878562 465.63 
L 1328.525494 465.63 
L 1329.172425 443.19 
L 1329.819356 443.19 
L 1330.466287 510.51 
L 1331.113219 510.51 
L 1331.76015 465.63 
L 1332.407081 488.07 
L 1333.700944 488.07 
L 1334.347875 465.63 
L 1334.994806 465.63 
L 1335.641737 443.19 
L 1336.9356 443.19 
L 1337.582531 465.63 
L 1338.229462 465.63 
L 1338.876394 443.19 
L 1339.523325 465.63 
L 1340.170256 443.19 
L 1340.817187 443.19 
L 1341.464119 465.63 
L 1342.11105 465.63 
L 1342.757981 443.19 
L 1343.404912 443.19 
L 1344.051844 398.31 
L 1344.698775 398.31 
L 1345.345706 420.75 
L 1345.992638 420.75 
L 1346.639569 443.19 
L 1347.2865 398.31 
L 1347.933431 375.87 
L 1348.580362 330.99 
L 1349.227294 353.43 
L 1350.521156 353.43 
L 1351.168087 375.87 
L 1352.46195 375.87 
L 1353.755812 420.75 
L 1356.343537 420.75 
L 1356.990469 398.31 
L 1357.6374 353.43 
L 1358.284331 375.87 
L 1359.578194 375.87 
L 1360.225125 420.75 
L 1360.872056 488.07 
L 1361.518987 488.07 
L 1362.165919 465.63 
L 1363.459781 465.63 
L 1364.753644 555.39 
L 1365.400575 555.39 
L 1366.047506 532.95 
L 1367.341369 532.95 
L 1367.9883 555.39 
L 1369.929094 488.07 
L 1370.576025 488.07 
L 1371.222956 465.63 
L 1371.869888 465.63 
L 1372.516819 443.19 
L 1373.810681 443.19 
L 1374.457612 488.07 
L 1375.104544 465.63 
L 1375.751475 488.07 
L 1376.398406 465.63 
L 1377.045337 420.75 
L 1377.692269 443.19 
L 1378.3392 443.19 
L 1378.986131 420.75 
L 1380.926925 420.75 
L 1381.573856 465.63 
L 1382.220787 465.63 
L 1382.867719 488.07 
L 1383.51465 443.19 
L 1384.161581 443.19 
L 1385.455444 488.07 
L 1387.396237 488.07 
L 1388.043169 465.63 
L 1389.983962 465.63 
L 1391.924756 398.31 
L 1392.571687 420.75 
L 1393.218619 398.31 
L 1393.86555 420.75 
L 1394.512481 375.87 
L 1395.159412 398.31 
L 1395.806344 398.31 
L 1396.453275 420.75 
L 1397.100206 420.75 
L 1398.394069 465.63 
L 1399.041 465.63 
L 1399.687931 443.19 
L 1400.334862 465.63 
L 1400.981794 465.63 
L 1401.628725 488.07 
L 1402.275656 488.07 
L 1402.922587 465.63 
L 1405.510312 465.63 
L 1406.157244 488.07 
L 1406.804175 532.95 
L 1408.744969 532.95 
L 1410.038831 488.07 
L 1411.332694 488.07 
L 1411.979625 465.63 
L 1412.626556 465.63 
L 1413.273487 443.19 
L 1413.920419 398.31 
L 1414.56735 398.31 
L 1415.214281 375.87 
L 1416.508144 375.87 
L 1417.155075 398.31 
L 1419.095869 398.31 
L 1419.7428 375.87 
L 1420.389731 398.31 
L 1421.036662 398.31 
L 1422.330525 353.43 
L 1425.565181 353.43 
L 1426.212112 375.87 
L 1426.859044 375.87 
L 1427.505975 353.43 
L 1428.152906 375.87 
L 1430.0937 375.87 
L 1430.740631 330.99 
L 1431.387562 353.43 
L 1432.034494 353.43 
L 1432.681425 330.99 
L 1433.328356 353.43 
L 1435.26915 353.43 
L 1435.916081 330.99 
L 1436.563013 286.11 
L 1437.209944 263.67 
L 1437.856875 263.67 
L 1438.503806 241.23 
L 1439.150737 241.23 
L 1440.4446 286.11 
L 1441.091531 286.11 
L 1441.738462 263.67 
L 1442.385394 308.55 
L 1444.326187 308.55 
L 1444.973119 330.99 
L 1445.62005 308.55 
L 1446.266981 308.55 
L 1446.913912 330.99 
L 1447.560844 330.99 
L 1448.207775 375.87 
L 1448.854706 353.43 
L 1449.501638 353.43 
L 1450.7955 308.55 
L 1451.442431 353.43 
L 1452.736294 353.43 
L 1453.383225 375.87 
L 1454.030156 375.87 
L 1454.677087 420.75 
L 1455.324019 398.31 
L 1456.617881 398.31 
L 1457.264812 375.87 
L 1457.911744 398.31 
L 1459.205606 398.31 
L 1459.852537 375.87 
L 1460.499469 398.31 
L 1461.793331 398.31 
L 1462.440263 420.75 
L 1463.087194 420.75 
L 1463.734125 353.43 
L 1464.381056 353.43 
L 1465.027987 398.31 
L 1466.968781 398.31 
L 1468.262644 443.19 
L 1468.909575 443.19 
L 1469.556506 420.75 
L 1470.203437 420.75 
L 1470.850369 443.19 
L 1471.4973 443.19 
L 1472.144231 465.63 
L 1472.791162 465.63 
L 1473.438094 443.19 
L 1476.67275 443.19 
L 1477.319681 465.63 
L 1478.613544 555.39 
L 1481.201269 555.39 
L 1481.8482 532.95 
L 1482.495131 465.63 
L 1483.142062 465.63 
L 1483.788994 488.07 
L 1484.435925 488.07 
L 1485.082856 465.63 
L 1485.729787 488.07 
L 1486.376719 488.07 
L 1487.02365 465.63 
L 1488.317513 465.63 
L 1488.964444 488.07 
L 1489.611375 532.95 
L 1491.552169 532.95 
L 1492.1991 555.39 
L 1492.846031 555.39 
L 1494.139894 510.51 
L 1494.786825 532.95 
L 1495.433756 532.95 
L 1496.080687 555.39 
L 1496.727619 532.95 
L 1499.962275 532.95 
L 1500.609206 510.51 
L 1502.55 510.51 
L 1502.55 510.51 
" style="fill:none;opacity:0.9;stroke:#008000;stroke-linecap:round;"/>
   </g>
   <g id="line2d_38">
    <path clip-path="url(#p1c9c734d98)" d="M 209.334431 757.35 
L 215.156813 757.35 
L 215.803744 690.03 
L 218.391469 690.03 
L 219.0384 712.47 
L 221.626125 712.47 
L 222.273056 645.15 
L 224.860781 645.15 
L 225.507712 600.27 
L 228.095438 600.27 
L 228.742369 555.39 
L 231.330094 555.39 
L 231.977025 510.51 
L 234.56475 510.51 
L 235.211681 465.63 
L 237.799406 465.63 
L 238.446337 443.19 
L 241.034063 443.19 
L 241.680994 420.75 
L 244.268719 420.75 
L 244.91565 443.19 
L 247.503375 443.19 
L 248.150306 375.87 
L 250.738031 375.87 
L 251.384963 398.31 
L 253.972688 398.31 
L 254.619619 420.75 
L 257.207344 420.75 
L 257.854275 375.87 
L 260.442 375.87 
L 261.088931 308.55 
L 263.676656 308.55 
L 264.323587 263.67 
L 266.911313 263.67 
L 267.558244 196.35 
L 270.145969 196.35 
L 270.7929 151.47 
L 279.849938 151.47 
L 280.496869 173.91 
L 283.084594 173.91 
L 283.731525 196.35 
L 286.31925 196.35 
L 286.966181 218.79 
L 289.553906 218.79 
L 290.200837 196.35 
L 292.788563 196.35 
L 293.435494 218.79 
L 296.023219 218.79 
L 296.67015 286.11 
L 299.257875 286.11 
L 299.904806 443.19 
L 302.492531 443.19 
L 303.139462 398.31 
L 305.727188 398.31 
L 306.374119 465.63 
L 315.431156 465.63 
L 316.078087 353.43 
L 318.665813 353.43 
L 319.312744 263.67 
L 321.900469 263.67 
L 322.5474 308.55 
L 325.135125 308.55 
L 325.782056 330.99 
L 328.369781 330.99 
L 329.016712 286.11 
L 334.839094 286.11 
L 335.486025 308.55 
L 341.308406 308.55 
L 341.955337 241.23 
L 344.543063 241.23 
L 345.189994 308.55 
L 347.777719 308.55 
L 348.42465 353.43 
L 351.012375 353.43 
L 351.659306 308.55 
L 354.247031 308.55 
L 354.893962 353.43 
L 357.481688 353.43 
L 358.128619 375.87 
L 360.716344 375.87 
L 361.363275 443.19 
L 363.951 443.19 
L 364.597931 510.51 
L 370.420313 510.51 
L 371.067244 555.39 
L 373.654969 555.39 
L 374.3019 532.95 
L 376.889625 532.95 
L 377.536556 465.63 
L 380.124281 465.63 
L 380.771212 488.07 
L 383.358938 488.07 
L 384.005869 465.63 
L 386.593594 465.63 
L 387.240525 488.07 
L 389.82825 488.07 
L 390.475181 465.63 
L 393.062906 465.63 
L 393.709837 488.07 
L 396.297563 488.07 
L 396.944494 510.51 
L 399.532219 510.51 
L 400.17915 443.19 
L 406.001531 443.19 
L 406.648462 420.75 
L 409.236188 420.75 
L 409.883119 443.19 
L 412.470844 443.19 
L 413.117775 330.99 
L 415.7055 330.99 
L 416.352431 420.75 
L 418.940156 420.75 
L 419.587087 398.31 
L 422.174812 398.31 
L 422.821744 353.43 
L 425.409469 353.43 
L 426.0564 465.63 
L 428.644125 465.63 
L 429.291056 443.19 
L 431.878781 443.19 
L 432.525712 420.75 
L 435.113437 420.75 
L 435.760369 353.43 
L 438.348094 353.43 
L 438.995025 398.31 
L 441.58275 398.31 
L 442.229681 330.99 
L 444.817406 330.99 
L 445.464337 263.67 
L 448.052062 263.67 
L 448.698994 330.99 
L 451.286719 330.99 
L 451.93365 398.31 
L 454.521375 398.31 
L 455.168306 443.19 
L 457.756031 443.19 
L 458.402962 532.95 
L 460.990687 532.95 
L 461.637619 510.51 
L 464.225344 510.51 
L 464.872275 420.75 
L 467.46 420.75 
L 468.106931 465.63 
L 477.163969 465.63 
L 477.8109 398.31 
L 483.633281 398.31 
L 484.280213 510.51 
L 486.867937 510.51 
L 487.514869 532.95 
L 493.33725 532.95 
L 493.984181 488.07 
L 496.571906 488.07 
L 497.218838 465.63 
L 499.806562 465.63 
L 500.453494 398.31 
L 503.041219 398.31 
L 503.68815 353.43 
L 512.745187 353.43 
L 513.392119 398.31 
L 515.979844 398.31 
L 516.626775 308.55 
L 522.449156 308.55 
L 523.096087 330.99 
L 528.918469 330.99 
L 529.5654 353.43 
L 532.153125 353.43 
L 532.800056 398.31 
L 535.387781 398.31 
L 536.034712 443.19 
L 538.622437 443.19 
L 539.269369 465.63 
L 541.857094 465.63 
L 542.504025 532.95 
L 545.09175 532.95 
L 545.738681 555.39 
L 548.326406 555.39 
L 548.973337 532.95 
L 551.561062 532.95 
L 552.207994 510.51 
L 554.795719 510.51 
L 555.44265 443.19 
L 561.265031 443.19 
L 561.911962 465.63 
L 564.499687 465.63 
L 565.146619 420.75 
L 567.734344 420.75 
L 568.381275 353.43 
L 570.969 353.43 
L 571.615931 308.55 
L 574.203656 308.55 
L 574.850587 330.99 
L 577.438312 330.99 
L 578.085244 353.43 
L 587.142281 353.43 
L 587.789212 375.87 
L 596.84625 375.87 
L 597.493181 420.75 
L 600.080906 420.75 
L 600.727837 398.31 
L 603.315562 398.31 
L 603.962494 375.87 
L 609.784875 375.87 
L 610.431806 353.43 
L 613.019531 353.43 
L 613.666462 375.87 
L 619.488844 375.87 
L 620.135775 353.43 
L 622.7235 353.43 
L 623.370431 375.87 
L 625.958156 375.87 
L 626.605087 398.31 
L 629.192812 398.31 
L 629.839744 420.75 
L 638.896781 420.75 
L 639.543712 398.31 
L 642.131437 398.31 
L 642.778369 353.43 
L 645.366094 353.43 
L 646.013025 398.31 
L 651.835406 398.31 
L 652.482337 443.19 
L 658.304719 443.19 
L 658.95165 398.31 
L 661.539375 398.31 
L 662.186306 330.99 
L 664.774031 330.99 
L 665.420962 353.43 
L 668.008687 353.43 
L 668.655619 330.99 
L 671.243344 330.99 
L 671.890275 375.87 
L 674.478 375.87 
L 675.124931 398.31 
L 684.181969 398.31 
L 684.8289 330.99 
L 687.416625 330.99 
L 688.063556 286.11 
L 690.651281 286.11 
L 691.298212 263.67 
L 693.885937 263.67 
L 694.532869 353.43 
L 700.35525 353.43 
L 701.002181 330.99 
L 703.589906 330.99 
L 704.236837 375.87 
L 706.824562 375.87 
L 707.471494 308.55 
L 710.059219 308.55 
L 710.70615 286.11 
L 713.293875 286.11 
L 713.940806 241.23 
L 716.528531 241.23 
L 717.175462 218.79 
L 719.763187 218.79 
L 720.410119 241.23 
L 722.997844 241.23 
L 723.644775 286.11 
L 726.2325 286.11 
L 726.879431 263.67 
L 729.467156 263.67 
L 730.114087 286.11 
L 735.936469 286.11 
L 736.5834 308.55 
L 739.171125 308.55 
L 739.818056 330.99 
L 745.640437 330.99 
L 746.287369 353.43 
L 752.10975 353.43 
L 752.756681 420.75 
L 755.344406 420.75 
L 755.991337 510.51 
L 758.579062 510.51 
L 759.225994 555.39 
L 765.048375 555.39 
L 765.695306 510.51 
L 768.283031 510.51 
L 768.929962 488.07 
L 771.517687 488.07 
L 772.164619 420.75 
L 774.752344 420.75 
L 775.399275 443.19 
L 777.987 443.19 
L 778.633931 465.63 
L 784.456312 465.63 
L 785.103244 420.75 
L 787.690969 420.75 
L 788.3379 443.19 
L 790.925625 443.19 
L 791.572556 420.75 
L 794.160281 420.75 
L 794.807212 443.19 
L 797.394937 443.19 
L 798.041869 420.75 
L 807.098906 420.75 
L 807.745837 398.31 
L 810.333562 398.31 
L 810.980494 420.75 
L 813.568219 420.75 
L 814.21515 398.31 
L 816.802875 398.31 
L 817.449806 465.63 
L 820.037531 465.63 
L 820.684462 398.31 
L 823.272187 398.31 
L 823.919119 443.19 
L 826.506844 443.19 
L 827.153775 488.07 
L 829.7415 488.07 
L 830.388431 465.63 
L 832.976156 465.63 
L 833.623087 420.75 
L 836.210812 420.75 
L 836.857744 465.63 
L 839.445469 465.63 
L 840.0924 443.19 
L 842.680125 443.19 
L 843.327056 420.75 
L 845.914781 420.75 
L 846.561712 375.87 
L 852.384094 375.87 
L 853.031025 353.43 
L 855.61875 353.43 
L 856.265681 398.31 
L 858.853406 398.31 
L 859.500338 420.75 
L 865.322719 420.75 
L 865.96965 398.31 
L 868.557375 398.31 
L 869.204306 420.75 
L 871.792031 420.75 
L 872.438963 488.07 
L 878.261344 488.07 
L 878.908275 443.19 
L 881.496 443.19 
L 882.142931 420.75 
L 884.730656 420.75 
L 885.377588 353.43 
L 891.199969 353.43 
L 891.8469 398.31 
L 897.669281 398.31 
L 898.316213 420.75 
L 900.903937 420.75 
L 901.550869 398.31 
L 904.138594 398.31 
L 904.785525 488.07 
L 907.37325 488.07 
L 908.020181 420.75 
L 910.607906 420.75 
L 911.254838 353.43 
L 917.077219 353.43 
L 917.72415 308.55 
L 920.311875 308.55 
L 920.958806 353.43 
L 926.781187 353.43 
L 927.428119 420.75 
L 942.954469 420.75 
L 943.6014 465.63 
L 946.189125 465.63 
L 946.836056 488.07 
L 949.423781 488.07 
L 950.070712 465.63 
L 959.12775 465.63 
L 959.774681 420.75 
L 968.831719 420.75 
L 969.47865 443.19 
L 972.066375 443.19 
L 972.713306 398.31 
L 975.301031 398.31 
L 975.947962 330.99 
L 978.535687 330.99 
L 979.182619 375.87 
L 985.005 375.87 
L 985.651931 353.43 
L 988.239656 353.43 
L 988.886587 330.99 
L 991.474312 330.99 
L 992.121244 308.55 
L 994.708969 308.55 
L 995.3559 241.23 
L 997.943625 241.23 
L 998.590556 286.11 
L 1001.178281 286.11 
L 1001.825212 375.87 
L 1004.412937 375.87 
L 1005.059869 443.19 
L 1007.647594 443.19 
L 1008.294525 398.31 
L 1010.88225 398.31 
L 1011.529181 375.87 
L 1014.116906 375.87 
L 1014.763837 420.75 
L 1017.351562 420.75 
L 1017.998494 465.63 
L 1020.586219 465.63 
L 1021.23315 398.31 
L 1023.820875 398.31 
L 1024.467806 375.87 
L 1027.055531 375.87 
L 1027.702462 420.75 
L 1030.290188 420.75 
L 1030.937119 488.07 
L 1033.524844 488.07 
L 1034.171775 532.95 
L 1036.7595 532.95 
L 1037.406431 488.07 
L 1039.994156 488.07 
L 1040.641087 443.19 
L 1046.463469 443.19 
L 1047.1104 398.31 
L 1049.698125 398.31 
L 1050.345056 443.19 
L 1056.167437 443.19 
L 1056.814369 420.75 
L 1059.402094 420.75 
L 1060.049025 443.19 
L 1062.63675 443.19 
L 1063.283681 375.87 
L 1065.871406 375.87 
L 1066.518337 420.75 
L 1069.106063 420.75 
L 1069.752994 443.19 
L 1072.340719 443.19 
L 1072.98765 488.07 
L 1075.575375 488.07 
L 1076.222306 510.51 
L 1078.810031 510.51 
L 1079.456962 443.19 
L 1082.044687 443.19 
L 1082.691619 330.99 
L 1085.279344 330.99 
L 1085.926275 241.23 
L 1088.514 241.23 
L 1089.160931 353.43 
L 1091.748656 353.43 
L 1092.395587 263.67 
L 1094.983313 263.67 
L 1095.630244 218.79 
L 1101.452625 218.79 
L 1102.099556 263.67 
L 1104.687281 263.67 
L 1105.334212 308.55 
L 1107.921937 308.55 
L 1108.568869 330.99 
L 1111.156594 330.99 
L 1111.803525 398.31 
L 1117.625906 398.31 
L 1118.272837 375.87 
L 1120.860563 375.87 
L 1121.507494 398.31 
L 1124.095219 398.31 
L 1124.74215 488.07 
L 1127.329875 488.07 
L 1127.976806 443.19 
L 1133.799187 443.19 
L 1134.446119 420.75 
L 1137.033844 420.75 
L 1137.680775 465.63 
L 1140.2685 465.63 
L 1140.915431 420.75 
L 1143.503156 420.75 
L 1144.150087 353.43 
L 1146.737813 353.43 
L 1147.384744 375.87 
L 1149.972469 375.87 
L 1150.6194 286.11 
L 1156.441781 286.11 
L 1157.088712 330.99 
L 1159.676437 330.99 
L 1160.323369 375.87 
L 1162.911094 375.87 
L 1163.558025 330.99 
L 1166.14575 330.99 
L 1166.792681 353.43 
L 1169.380406 353.43 
L 1170.027337 330.99 
L 1172.615063 330.99 
L 1173.261994 353.43 
L 1175.849719 353.43 
L 1176.49665 330.99 
L 1182.319031 330.99 
L 1182.965962 375.87 
L 1185.553687 375.87 
L 1186.200619 330.99 
L 1192.023 330.99 
L 1192.669931 398.31 
L 1195.257656 398.31 
L 1195.904587 375.87 
L 1198.492313 375.87 
L 1199.139244 308.55 
L 1201.726969 308.55 
L 1202.3739 330.99 
L 1204.961625 330.99 
L 1205.608556 218.79 
L 1208.196281 218.79 
L 1208.843212 286.11 
L 1214.665594 286.11 
L 1215.312525 308.55 
L 1217.90025 308.55 
L 1218.547181 353.43 
L 1221.134906 353.43 
L 1221.781837 375.87 
L 1224.369563 375.87 
L 1225.016494 443.19 
L 1227.604219 443.19 
L 1228.25115 420.75 
L 1230.838875 420.75 
L 1231.485806 308.55 
L 1234.073531 308.55 
L 1234.720462 375.87 
L 1237.308188 375.87 
L 1237.955119 398.31 
L 1243.7775 398.31 
L 1244.424431 375.87 
L 1247.012156 375.87 
L 1247.659087 443.19 
L 1250.246813 443.19 
L 1250.893744 375.87 
L 1253.481469 375.87 
L 1254.1284 308.55 
L 1256.716125 308.55 
L 1257.363056 353.43 
L 1263.185438 353.43 
L 1263.832369 375.87 
L 1266.420094 375.87 
L 1267.067025 398.31 
L 1269.65475 398.31 
L 1270.301681 375.87 
L 1276.124063 375.87 
L 1276.770994 420.75 
L 1279.358719 420.75 
L 1280.00565 465.63 
L 1282.593375 465.63 
L 1283.240306 510.51 
L 1285.828031 510.51 
L 1286.474962 465.63 
L 1289.062688 465.63 
L 1289.709619 353.43 
L 1292.297344 353.43 
L 1292.944275 398.31 
L 1295.532 398.31 
L 1296.178931 308.55 
L 1298.766656 308.55 
L 1299.413587 286.11 
L 1302.001313 286.11 
L 1302.648244 241.23 
L 1305.235969 241.23 
L 1305.8829 218.79 
L 1308.470625 218.79 
L 1309.117556 308.55 
L 1314.939937 308.55 
L 1315.586869 353.43 
L 1318.174594 353.43 
L 1318.821525 330.99 
L 1324.643906 330.99 
L 1325.290837 398.31 
L 1327.878562 398.31 
L 1328.525494 420.75 
L 1331.113219 420.75 
L 1331.76015 510.51 
L 1334.347875 510.51 
L 1334.994806 555.39 
L 1337.582531 555.39 
L 1338.229462 510.51 
L 1340.817187 510.51 
L 1341.464119 488.07 
L 1347.2865 488.07 
L 1347.933431 420.75 
L 1353.755812 420.75 
L 1354.402744 488.07 
L 1360.225125 488.07 
L 1360.872056 443.19 
L 1366.694437 443.19 
L 1367.341369 465.63 
L 1369.929094 465.63 
L 1370.576025 420.75 
L 1373.16375 420.75 
L 1373.810681 330.99 
L 1376.398406 330.99 
L 1377.045337 375.87 
L 1379.633062 375.87 
L 1380.279994 420.75 
L 1382.867719 420.75 
L 1383.51465 375.87 
L 1386.102375 375.87 
L 1386.749306 488.07 
L 1389.337031 488.07 
L 1389.983962 555.39 
L 1395.806344 555.39 
L 1396.453275 488.07 
L 1399.041 488.07 
L 1399.687931 443.19 
L 1405.510312 443.19 
L 1406.157244 420.75 
L 1408.744969 420.75 
L 1409.3919 443.19 
L 1411.979625 443.19 
L 1412.626556 488.07 
L 1415.214281 488.07 
L 1415.861212 465.63 
L 1418.448937 465.63 
L 1419.095869 420.75 
L 1421.683594 420.75 
L 1422.330525 398.31 
L 1424.91825 398.31 
L 1425.565181 465.63 
L 1428.152906 465.63 
L 1428.799837 488.07 
L 1431.387562 488.07 
L 1432.034494 465.63 
L 1434.622219 465.63 
L 1435.26915 532.95 
L 1437.856875 532.95 
L 1438.503806 488.07 
L 1441.091531 488.07 
L 1441.738462 398.31 
L 1450.7955 398.31 
L 1451.442431 330.99 
L 1454.030156 330.99 
L 1454.677087 353.43 
L 1463.734125 353.43 
L 1464.381056 308.55 
L 1466.968781 308.55 
L 1467.615712 241.23 
L 1470.203437 241.23 
L 1470.850369 308.55 
L 1476.67275 308.55 
L 1477.319681 353.43 
L 1483.142062 353.43 
L 1483.788994 398.31 
L 1486.376719 398.31 
L 1487.02365 375.87 
L 1489.611375 375.87 
L 1490.258306 398.31 
L 1496.080687 398.31 
L 1496.727619 420.75 
L 1499.315344 420.75 
L 1499.962275 443.19 
L 1502.55 443.19 
L 1502.55 443.19 
" style="fill:none;opacity:0.9;stroke:#ff0000;stroke-linecap:round;"/>
   </g>
   <g id="patch_3">
    <path d="M 208.6875 84.15 
L 1502.55 84.15 
" style="fill:none;"/>
   </g>
   <g id="patch_4">
    <path d="M 1502.55 757.35 
L 1502.55 84.15 
" style="fill:none;"/>
   </g>
   <g id="patch_5">
    <path d="M 208.6875 757.35 
L 1502.55 757.35 
" style="fill:none;"/>
   </g>
   <g id="patch_6">
    <path d="M 208.6875 757.35 
L 208.6875 84.15 
" style="fill:none;"/>
   </g>
   <g id="text_15">
    <!-- Number of cars inside cluster calculated from FCD file and  -->
    <defs>
     <path d="M 40.09375 8.5 
Q 37.640625 3.421875 33.609375 1.21875 
Q 29.59375 -0.984375 23.640625 -0.984375 
Q 13.625 -0.984375 8.90625 5.75 
Q 4.203125 12.5 4.203125 26.171875 
Q 4.203125 53.8125 23.640625 53.8125 
Q 29.640625 53.8125 33.640625 51.609375 
Q 37.640625 49.421875 40.09375 44.625 
L 40.1875 44.625 
Q 40.1875 45.125 40.15625 46.171875 
Q 40.140625 47.21875 40.109375 48.359375 
Q 40.09375 49.515625 40.09375 50.53125 
Q 40.09375 51.5625 40.09375 52 
L 40.09375 72.46875 
L 48.875 72.46875 
L 48.875 10.890625 
Q 48.875 8.984375 48.890625 7.21875 
Q 48.921875 5.46875 48.96875 4 
Q 49.03125 2.546875 49.078125 1.484375 
Q 49.125 0.4375 49.171875 0 
L 40.765625 0 
Q 40.671875 0.484375 40.59375 1.390625 
Q 40.53125 2.296875 40.453125 3.46875 
Q 40.375 4.640625 40.328125 5.9375 
Q 40.28125 7.234375 40.28125 8.5 
z
M 13.421875 26.46875 
Q 13.421875 21 14.109375 17.09375 
Q 14.796875 13.1875 16.3125 10.671875 
Q 17.828125 8.15625 20.171875 6.984375 
Q 22.515625 5.8125 25.875 5.8125 
Q 29.34375 5.8125 32 6.9375 
Q 34.671875 8.0625 36.453125 10.578125 
Q 38.234375 13.09375 39.15625 17.140625 
Q 40.09375 21.1875 40.09375 27.046875 
Q 40.09375 32.671875 39.15625 36.546875 
Q 38.234375 40.4375 36.421875 42.828125 
Q 34.625 45.21875 32 46.265625 
Q 29.390625 47.3125 25.984375 47.3125 
Q 22.75 47.3125 20.40625 46.1875 
Q 18.0625 45.0625 16.5 42.578125 
Q 14.9375 40.09375 14.171875 36.109375 
Q 13.421875 32.125 13.421875 26.46875 
" id="LiberationSans-64"/>
     <path d="M 27.046875 0.390625 
Q 25.046875 -0.140625 22.96875 -0.453125 
Q 20.90625 -0.78125 18.171875 -0.78125 
Q 7.625 -0.78125 7.625 11.1875 
L 7.625 46.4375 
L 1.515625 46.4375 
L 1.515625 52.828125 
L 7.953125 52.828125 
L 10.546875 64.65625 
L 16.40625 64.65625 
L 16.40625 52.828125 
L 26.171875 52.828125 
L 26.171875 46.4375 
L 16.40625 46.4375 
L 16.40625 13.09375 
Q 16.40625 9.28125 17.640625 7.734375 
Q 18.890625 6.203125 21.96875 6.203125 
Q 23.25 6.203125 24.4375 6.390625 
Q 25.640625 6.59375 27.046875 6.890625 
z
" id="LiberationSans-74"/>
     <path d="M 40.28125 0 
L 40.28125 33.5 
Q 40.28125 37.359375 39.71875 39.9375 
Q 39.15625 42.53125 37.890625 44.109375 
Q 36.625 45.703125 34.546875 46.359375 
Q 32.46875 47.015625 29.390625 47.015625 
Q 26.265625 47.015625 23.75 45.921875 
Q 21.234375 44.828125 19.453125 42.75 
Q 17.671875 40.671875 16.6875 37.625 
Q 15.71875 34.578125 15.71875 30.609375 
L 15.71875 0 
L 6.9375 0 
L 6.9375 41.546875 
Q 6.9375 43.21875 6.90625 45.046875 
Q 6.890625 46.875 6.828125 48.5 
Q 6.78125 50.140625 6.734375 51.3125 
Q 6.6875 52.484375 6.640625 52.828125 
L 14.9375 52.828125 
Q 14.984375 52.59375 15.03125 51.515625 
Q 15.09375 50.4375 15.15625 49.046875 
Q 15.234375 47.65625 15.28125 46.21875 
Q 15.328125 44.78125 15.328125 43.796875 
L 15.484375 43.796875 
Q 16.75 46.09375 18.265625 47.953125 
Q 19.78125 49.8125 21.78125 51.09375 
Q 23.78125 52.390625 26.359375 53.09375 
Q 28.953125 53.8125 32.375 53.8125 
Q 36.765625 53.8125 39.9375 52.734375 
Q 43.109375 51.65625 45.15625 49.40625 
Q 47.21875 47.171875 48.171875 43.625 
Q 49.125 40.09375 49.125 35.203125 
L 49.125 0 
z
" id="LiberationSans-6e"/>
     <path d="M 6.734375 0 
L 6.734375 72.46875 
L 15.53125 72.46875 
L 15.53125 0 
z
" id="LiberationSans-6c"/>
     <path d="M 17.53125 61.1875 
L 17.53125 35.59375 
L 55.90625 35.59375 
L 55.90625 27.875 
L 17.53125 27.875 
L 17.53125 0 
L 8.203125 0 
L 8.203125 68.796875 
L 57.078125 68.796875 
L 57.078125 61.1875 
z
" id="LiberationSans-46"/>
     <path d="M 67.4375 35.109375 
Q 67.4375 26.515625 64.84375 19.9375 
Q 62.25 13.375 57.75 8.953125 
Q 53.265625 4.546875 47.140625 2.265625 
Q 41.015625 0 33.9375 0 
L 8.203125 0 
L 8.203125 68.796875 
L 30.953125 68.796875 
Q 38.921875 68.796875 45.625 66.8125 
Q 52.34375 64.84375 57.171875 60.71875 
Q 62.015625 56.59375 64.71875 50.234375 
Q 67.4375 43.890625 67.4375 35.109375 
M 58.0625 35.109375 
Q 58.0625 42.09375 56.046875 47.046875 
Q 54.046875 52 50.4375 55.171875 
Q 46.828125 58.34375 41.796875 59.828125 
Q 36.765625 61.328125 30.765625 61.328125 
L 17.53125 61.328125 
L 17.53125 7.46875 
L 32.859375 7.46875 
Q 38.28125 7.46875 42.890625 9.21875 
Q 47.515625 10.984375 50.875 14.453125 
Q 54.25 17.921875 56.15625 23.09375 
Q 58.0625 28.265625 58.0625 35.109375 
" id="LiberationSans-44"/>
     <path d="M 38.671875 62.203125 
Q 32.8125 62.203125 28.296875 60.25 
Q 23.78125 58.296875 20.71875 54.6875 
Q 17.671875 51.078125 16.109375 46 
Q 14.546875 40.921875 14.546875 34.71875 
Q 14.546875 28.515625 16.234375 23.359375 
Q 17.921875 18.21875 21.0625 14.5 
Q 24.21875 10.796875 28.78125 8.734375 
Q 33.34375 6.6875 39.0625 6.6875 
Q 43.0625 6.6875 46.359375 7.734375 
Q 49.65625 8.796875 52.3125 10.6875 
Q 54.984375 12.59375 57.078125 15.203125 
Q 59.1875 17.828125 60.796875 21 
L 68.40625 17.1875 
Q 66.546875 13.328125 63.8125 10 
Q 61.078125 6.6875 57.390625 4.25 
Q 53.71875 1.8125 49.046875 0.40625 
Q 44.390625 -0.984375 38.625 -0.984375 
Q 30.28125 -0.984375 24 1.671875 
Q 17.71875 4.34375 13.5 9.109375 
Q 9.28125 13.875 7.171875 20.40625 
Q 5.078125 26.953125 5.078125 34.71875 
Q 5.078125 42.78125 7.296875 49.265625 
Q 9.515625 55.765625 13.78125 60.328125 
Q 18.0625 64.890625 24.3125 67.359375 
Q 30.5625 69.828125 38.578125 69.828125 
Q 49.5625 69.828125 56.9375 65.53125 
Q 64.3125 61.234375 67.78125 52.78125 
L 58.9375 49.859375 
Q 57.953125 52.296875 56.296875 54.515625 
Q 54.640625 56.734375 52.140625 58.4375 
Q 49.65625 60.15625 46.3125 61.171875 
Q 42.96875 62.203125 38.671875 62.203125 
" id="LiberationSans-43"/>
    </defs>
    <g transform="translate(711.961328125 67.301625)scale(0.11 -0.11)">
     <use xlink:href="#LiberationSans-4e"/>
     <use x="72.216796875" xlink:href="#LiberationSans-75"/>
     <use x="127.83203125" xlink:href="#LiberationSans-6d"/>
     <use x="211.1328125" xlink:href="#LiberationSans-62"/>
     <use x="266.748046875" xlink:href="#LiberationSans-65"/>
     <use x="322.36328125" xlink:href="#LiberationSans-72"/>
     <use x="355.6640625" xlink:href="#LiberationSans-20"/>
     <use x="383.447265625" xlink:href="#LiberationSans-6f"/>
     <use x="439.0625" xlink:href="#LiberationSans-66"/>
     <use x="466.845703125" xlink:href="#LiberationSans-20"/>
     <use x="494.62890625" xlink:href="#LiberationSans-63"/>
     <use x="544.62890625" xlink:href="#LiberationSans-61"/>
     <use x="600.244140625" xlink:href="#LiberationSans-72"/>
     <use x="633.544921875" xlink:href="#LiberationSans-73"/>
     <use x="683.544921875" xlink:href="#LiberationSans-20"/>
     <use x="711.328125" xlink:href="#LiberationSans-69"/>
     <use x="733.544921875" xlink:href="#LiberationSans-6e"/>
     <use x="789.16015625" xlink:href="#LiberationSans-73"/>
     <use x="839.16015625" xlink:href="#LiberationSans-69"/>
     <use x="861.376953125" xlink:href="#LiberationSans-64"/>
     <use x="916.9921875" xlink:href="#LiberationSans-65"/>
     <use x="972.607421875" xlink:href="#LiberationSans-20"/>
     <use x="1000.390625" xlink:href="#LiberationSans-63"/>
     <use x="1050.390625" xlink:href="#LiberationSans-6c"/>
     <use x="1072.60742188" xlink:href="#LiberationSans-75"/>
     <use x="1128.22265625" xlink:href="#LiberationSans-73"/>
     <use x="1178.22265625" xlink:href="#LiberationSans-74"/>
     <use x="1206.00585938" xlink:href="#LiberationSans-65"/>
     <use x="1261.62109375" xlink:href="#LiberationSans-72"/>
     <use x="1294.921875" xlink:href="#LiberationSans-20"/>
     <use x="1322.70507812" xlink:href="#LiberationSans-63"/>
     <use x="1372.70507812" xlink:href="#LiberationSans-61"/>
     <use x="1428.3203125" xlink:href="#LiberationSans-6c"/>
     <use x="1450.53710938" xlink:href="#LiberationSans-63"/>
     <use x="1500.53710938" xlink:href="#LiberationSans-75"/>
     <use x="1556.15234375" xlink:href="#LiberationSans-6c"/>
     <use x="1578.36914062" xlink:href="#LiberationSans-61"/>
     <use x="1633.984375" xlink:href="#LiberationSans-74"/>
     <use x="1661.76757812" xlink:href="#LiberationSans-65"/>
     <use x="1717.3828125" xlink:href="#LiberationSans-64"/>
     <use x="1772.99804688" xlink:href="#LiberationSans-20"/>
     <use x="1800.78125" xlink:href="#LiberationSans-66"/>
     <use x="1828.56445312" xlink:href="#LiberationSans-72"/>
     <use x="1861.86523438" xlink:href="#LiberationSans-6f"/>
     <use x="1917.48046875" xlink:href="#LiberationSans-6d"/>
     <use x="2000.78125" xlink:href="#LiberationSans-20"/>
     <use x="2028.56445312" xlink:href="#LiberationSans-46"/>
     <use x="2089.6484375" xlink:href="#LiberationSans-43"/>
     <use x="2161.86523438" xlink:href="#LiberationSans-44"/>
     <use x="2234.08203125" xlink:href="#LiberationSans-20"/>
     <use x="2261.86523438" xlink:href="#LiberationSans-66"/>
     <use x="2289.6484375" xlink:href="#LiberationSans-69"/>
     <use x="2311.86523438" xlink:href="#LiberationSans-6c"/>
     <use x="2334.08203125" xlink:href="#LiberationSans-65"/>
     <use x="2389.69726562" xlink:href="#LiberationSans-20"/>
     <use x="2417.48046875" xlink:href="#LiberationSans-61"/>
     <use x="2473.09570312" xlink:href="#LiberationSans-6e"/>
     <use x="2528.7109375" xlink:href="#LiberationSans-64"/>
     <use x="2584.32617188" xlink:href="#LiberationSans-20"/>
    </g>
    <!-- Implementation results vs time (Traffic Density = 200 Cars) -->
    <defs>
     <path d="M 29.5 0 
Q 27.640625 -4.78125 25.703125 -8.609375 
Q 23.78125 -12.453125 21.390625 -15.15625 
Q 19 -17.875 16.0625 -19.3125 
Q 13.140625 -20.75 9.328125 -20.75 
Q 7.671875 -20.75 6.25 -20.65625 
Q 4.828125 -20.5625 3.265625 -20.21875 
L 3.265625 -13.625 
Q 4.203125 -13.765625 5.375 -13.84375 
Q 6.546875 -13.921875 7.375 -13.921875 
Q 11.234375 -13.921875 14.546875 -11.03125 
Q 17.875 -8.15625 20.359375 -1.859375 
L 21.1875 0.25 
L 0.25 52.828125 
L 9.625 52.828125 
L 20.75 23.640625 
Q 21.234375 22.3125 21.984375 20.109375 
Q 22.75 17.921875 23.5 15.71875 
Q 24.265625 13.53125 24.84375 11.765625 
Q 25.4375 10.015625 25.53125 9.578125 
Q 25.6875 10.109375 26.25 11.6875 
Q 26.8125 13.28125 27.515625 15.234375 
Q 28.21875 17.1875 28.953125 19.1875 
Q 29.6875 21.1875 30.171875 22.65625 
L 40.53125 52.828125 
L 49.8125 52.828125 
z
" id="LiberationSans-79"/>
     <path d="M 51.421875 26.65625 
Q 51.421875 20.65625 50.4375 15.578125 
Q 49.46875 10.5 47.1875 6.828125 
Q 44.921875 3.171875 41.1875 1.09375 
Q 37.453125 -0.984375 31.984375 -0.984375 
Q 26.3125 -0.984375 22.0625 1.171875 
Q 17.828125 3.328125 15.578125 8.203125 
L 15.328125 8.203125 
Q 15.375 8.109375 15.40625 7.328125 
Q 15.4375 6.546875 15.453125 5.375 
Q 15.484375 4.203125 15.5 2.75 
Q 15.53125 1.3125 15.53125 -0.09375 
L 15.53125 -20.75 
L 6.734375 -20.75 
L 6.734375 42.046875 
Q 6.734375 43.953125 6.703125 45.703125 
Q 6.6875 47.46875 6.640625 48.90625 
Q 6.59375 50.34375 6.546875 51.359375 
Q 6.5 52.390625 6.453125 52.828125 
L 14.9375 52.828125 
Q 14.984375 52.6875 15.0625 51.796875 
Q 15.140625 50.921875 15.203125 49.671875 
Q 15.28125 48.4375 15.359375 47.015625 
Q 15.4375 45.609375 15.4375 44.34375 
L 15.625 44.34375 
Q 16.84375 46.875 18.40625 48.65625 
Q 19.96875 50.4375 21.96875 51.578125 
Q 23.96875 52.734375 26.4375 53.25 
Q 28.90625 53.765625 31.984375 53.765625 
Q 37.453125 53.765625 41.1875 51.8125 
Q 44.921875 49.859375 47.1875 46.3125 
Q 49.46875 42.78125 50.4375 37.765625 
Q 51.421875 32.765625 51.421875 26.65625 
M 42.1875 26.46875 
Q 42.1875 31.34375 41.59375 35.15625 
Q 41.015625 38.96875 39.578125 41.59375 
Q 38.140625 44.234375 35.734375 45.59375 
Q 33.34375 46.96875 29.734375 46.96875 
Q 26.8125 46.96875 24.21875 46.140625 
Q 21.625 45.3125 19.703125 42.96875 
Q 17.78125 40.625 16.65625 36.5 
Q 15.53125 32.375 15.53125 25.78125 
Q 15.53125 20.171875 16.453125 16.28125 
Q 17.390625 12.40625 19.171875 10.015625 
Q 20.953125 7.625 23.578125 6.5625 
Q 26.21875 5.515625 29.640625 5.515625 
Q 33.296875 5.515625 35.71875 6.921875 
Q 38.140625 8.34375 39.578125 11.03125 
Q 41.015625 13.71875 41.59375 17.59375 
Q 42.1875 21.484375 42.1875 26.46875 
" id="LiberationSans-70"/>
     <path d="M 29.9375 0 
L 19.53125 0 
L 0.34375 52.828125 
L 9.71875 52.828125 
L 21.34375 18.453125 
Q 21.6875 17.390625 22.140625 15.84375 
Q 22.609375 14.3125 23.09375 12.640625 
Q 23.578125 10.984375 24 9.4375 
Q 24.421875 7.90625 24.703125 6.890625 
Q 25 7.90625 25.453125 9.4375 
Q 25.921875 10.984375 26.40625 12.59375 
Q 26.90625 14.203125 27.421875 15.734375 
Q 27.9375 17.28125 28.328125 18.359375 
L 40.328125 52.828125 
L 49.65625 52.828125 
z
" id="LiberationSans-76"/>
     <path d="M 4.890625 41.796875 
L 4.890625 49.03125 
L 53.46875 49.03125 
L 53.46875 41.796875 
z
M 4.890625 16.796875 
L 4.890625 24.03125 
L 53.46875 24.03125 
L 53.46875 16.796875 
z
" id="LiberationSans-3d"/>
     <path d="M 9.234375 0 
L 9.234375 68.796875 
L 18.5625 68.796875 
L 18.5625 0 
z
" id="LiberationSans-49"/>
    </defs>
    <g transform="translate(712.43140625 79.15)scale(0.11 -0.11)">
     <use xlink:href="#LiberationSans-49"/>
     <use x="27.783203125" xlink:href="#LiberationSans-6d"/>
     <use x="111.083984375" xlink:href="#LiberationSans-70"/>
     <use x="166.69921875" xlink:href="#LiberationSans-6c"/>
     <use x="188.916015625" xlink:href="#LiberationSans-65"/>
     <use x="244.53125" xlink:href="#LiberationSans-6d"/>
     <use x="327.83203125" xlink:href="#LiberationSans-65"/>
     <use x="383.447265625" xlink:href="#LiberationSans-6e"/>
     <use x="439.0625" xlink:href="#LiberationSans-74"/>
     <use x="466.845703125" xlink:href="#LiberationSans-61"/>
     <use x="522.4609375" xlink:href="#LiberationSans-74"/>
     <use x="550.244140625" xlink:href="#LiberationSans-69"/>
     <use x="572.4609375" xlink:href="#LiberationSans-6f"/>
     <use x="628.076171875" xlink:href="#LiberationSans-6e"/>
     <use x="683.69140625" xlink:href="#LiberationSans-20"/>
     <use x="711.474609375" xlink:href="#LiberationSans-72"/>
     <use x="744.775390625" xlink:href="#LiberationSans-65"/>
     <use x="800.390625" xlink:href="#LiberationSans-73"/>
     <use x="850.390625" xlink:href="#LiberationSans-75"/>
     <use x="906.005859375" xlink:href="#LiberationSans-6c"/>
     <use x="928.22265625" xlink:href="#LiberationSans-74"/>
     <use x="956.005859375" xlink:href="#LiberationSans-73"/>
     <use x="1006.00585938" xlink:href="#LiberationSans-20"/>
     <use x="1033.7890625" xlink:href="#LiberationSans-76"/>
     <use x="1083.7890625" xlink:href="#LiberationSans-73"/>
     <use x="1133.7890625" xlink:href="#LiberationSans-20"/>
     <use x="1161.57226562" xlink:href="#LiberationSans-74"/>
     <use x="1189.35546875" xlink:href="#LiberationSans-69"/>
     <use x="1211.57226562" xlink:href="#LiberationSans-6d"/>
     <use x="1294.87304688" xlink:href="#LiberationSans-65"/>
     <use x="1350.48828125" xlink:href="#LiberationSans-20"/>
     <use x="1378.27148438" xlink:href="#LiberationSans-28"/>
     <use x="1411.57226562" xlink:href="#LiberationSans-54"/>
     <use x="1472.609375" xlink:href="#LiberationSans-72"/>
     <use x="1505.91015625" xlink:href="#LiberationSans-61"/>
     <use x="1561.52539062" xlink:href="#LiberationSans-66"/>
     <use x="1589.29296875" xlink:href="#LiberationSans-66"/>
     <use x="1617.07617188" xlink:href="#LiberationSans-69"/>
     <use x="1639.29296875" xlink:href="#LiberationSans-63"/>
     <use x="1689.29296875" xlink:href="#LiberationSans-20"/>
     <use x="1717.07617188" xlink:href="#LiberationSans-44"/>
     <use x="1789.29296875" xlink:href="#LiberationSans-65"/>
     <use x="1844.90820312" xlink:href="#LiberationSans-6e"/>
     <use x="1900.5234375" xlink:href="#LiberationSans-73"/>
     <use x="1950.5234375" xlink:href="#LiberationSans-69"/>
     <use x="1972.74023438" xlink:href="#LiberationSans-74"/>
     <use x="2000.5234375" xlink:href="#LiberationSans-79"/>
     <use x="2050.5234375" xlink:href="#LiberationSans-20"/>
     <use x="2078.30664062" xlink:href="#LiberationSans-3d"/>
     <use x="2136.70507812" xlink:href="#LiberationSans-20"/>
     <use x="2164.48828125" xlink:href="#LiberationSans-32"/>
     <use x="2220.10351562" xlink:href="#LiberationSans-30"/>
     <use x="2275.71875" xlink:href="#LiberationSans-30"/>
     <use x="2331.33398438" xlink:href="#LiberationSans-20"/>
     <use x="2359.1171875" xlink:href="#LiberationSans-43"/>
     <use x="2431.33398438" xlink:href="#LiberationSans-61"/>
     <use x="2486.94921875" xlink:href="#LiberationSans-72"/>
     <use x="2520.25" xlink:href="#LiberationSans-73"/>
     <use x="2570.25" xlink:href="#LiberationSans-29"/>
    </g>
   </g>
   <g id="legend_1">
    <g id="line2d_39">
     <path d="M 1350.82575 102.5055 
L 1379.62575 102.5055 
" style="fill:none;opacity:0.9;stroke:#008000;stroke-linecap:round;"/>
    </g>
    <g id="line2d_40"/>
    <g id="text_16">
     <!-- FCD file -->
     <g style="fill:#262626;" transform="translate(1391.14575 107.5455)scale(0.144 -0.144)">
      <use xlink:href="#LiberationSans-46"/>
      <use x="61.083984375" xlink:href="#LiberationSans-43"/>
      <use x="133.30078125" xlink:href="#LiberationSans-44"/>
      <use x="205.517578125" xlink:href="#LiberationSans-20"/>
      <use x="233.30078125" xlink:href="#LiberationSans-66"/>
      <use x="261.083984375" xlink:href="#LiberationSans-69"/>
      <use x="283.30078125" xlink:href="#LiberationSans-6c"/>
      <use x="305.517578125" xlink:href="#LiberationSans-65"/>
     </g>
    </g>
    <g id="line2d_41">
     <path d="M 1350.82575 123.129 
L 1379.62575 123.129 
" style="fill:none;opacity:0.9;stroke:#ff0000;stroke-linecap:round;"/>
    </g>
    <g id="line2d_42"/>
    <g id="text_17">
     <!-- Implementation -->
     <g style="fill:#262626;" transform="translate(1391.14575 128.169)scale(0.144 -0.144)">
      <use xlink:href="#LiberationSans-49"/>
      <use x="27.783203125" xlink:href="#LiberationSans-6d"/>
      <use x="111.083984375" xlink:href="#LiberationSans-70"/>
      <use x="166.69921875" xlink:href="#LiberationSans-6c"/>
      <use x="188.916015625" xlink:href="#LiberationSans-65"/>
      <use x="244.53125" xlink:href="#LiberationSans-6d"/>
      <use x="327.83203125" xlink:href="#LiberationSans-65"/>
      <use x="383.447265625" xlink:href="#LiberationSans-6e"/>
      <use x="439.0625" xlink:href="#LiberationSans-74"/>
      <use x="466.845703125" xlink:href="#LiberationSans-61"/>
      <use x="522.4609375" xlink:href="#LiberationSans-74"/>
      <use x="550.244140625" xlink:href="#LiberationSans-69"/>
      <use x="572.4609375" xlink:href="#LiberationSans-6f"/>
      <use x="628.076171875" xlink:href="#LiberationSans-6e"/>
     </g>
    </g>
   </g>
  </g>
 </g>
 <defs>
  <clipPath id="p1c9c734d98">
   <rect height="673.2" width="1293.8625" x="208.6875" y="84.15"/>
  </clipPath>
 </defs>
</svg>
